<svg xmlns="http://www.w3.org/2000/svg" width="58.759" height="19.221" viewBox="0 0 58.759 19.221">
  <g id="Group_35" data-name="Group 35" transform="translate(-212.509 -1029.738)">
    <path id="Rectangle_9" data-name="Rectangle 9" d="M2.6,0H56.162a2.6,2.6,0,0,1,2.6,2.6V16.623a2.6,2.6,0,0,1-2.6,2.6H2.6a2.6,2.6,0,0,1-2.6-2.6V2.6A2.6,2.6,0,0,1,2.6,0Z" transform="translate(212.509 1029.738)"/>
    <g id="Group_31" data-name="Group 31">
      <path id="Path_52" data-name="Path 52" d="M227.832,1042.443a9.541,9.541,0,0,1-.86,1.606c-.559.851-1.347,1.911-2.323,1.92-.867.008-1.09-.565-2.266-.558s-1.423.568-2.29.56c-.976-.009-1.723-.966-2.282-1.817-1.562-2.379-1.726-5.17-.762-6.654a3.457,3.457,0,0,1,2.781-1.672c1.035,0,1.685.567,2.54.567.83,0,1.336-.568,2.531-.568a3.378,3.378,0,0,1,2.545,1.343A2.912,2.912,0,0,0,227.832,1042.443Z" fill="#fff"/>
      <g id="Group_30" data-name="Group 30">
        <path id="Path_53" data-name="Path 53" d="M223.994,1034.876a2.9,2.9,0,0,0,.645-2.15,3.136,3.136,0,0,0-2.025,1.089,2.7,2.7,0,0,0-.662,2.1A2.646,2.646,0,0,0,223.994,1034.876Z" fill="#fff"/>
      </g>
    </g>
    <g id="Group_34" data-name="Group 34">
      <g id="Group_32" data-name="Group 32">
        <path id="Path_54" data-name="Path 54" d="M232.593,1037.464l-2.239,6.589h1.025l.669-2.023h2.167l.687,2.023h1.054l-2.248-6.589Zm.531,1.083c.075.294.157.6.262.93l.6,1.747h-1.717l.6-1.759C232.958,1039.18,233.044,1038.872,233.124,1038.547Z" fill="#fff"/>
        <path id="Path_55" data-name="Path 55" d="M238.852,1039.172a1.864,1.864,0,0,0-1.584.76l-.04-.655h-.912l.005.084c.027.408.038.857.038,1.5v5.079h1v-2.37a1.754,1.754,0,0,0,1.363.586,2.056,2.056,0,0,0,1.511-.643,2.724,2.724,0,0,0,.667-1.917,2.653,2.653,0,0,0-.579-1.751A1.9,1.9,0,0,0,238.852,1039.172Zm-.248.825c.889,0,1.287.823,1.287,1.639,0,1.052-.508,1.706-1.325,1.706a1.209,1.209,0,0,1-1.174-.925,1.28,1.28,0,0,1-.036-.323v-.8a1.564,1.564,0,0,1,.032-.247c.005-.027.01-.054.014-.08A1.263,1.263,0,0,1,238.6,1040Z" fill="#fff"/>
        <path id="Path_56" data-name="Path 56" d="M243.986,1039.172a1.866,1.866,0,0,0-1.585.76l-.04-.655h-.911l.005.084c.027.408.038.857.038,1.5v5.079h1v-2.37a1.752,1.752,0,0,0,1.363.586,2.06,2.06,0,0,0,1.511-.643,2.724,2.724,0,0,0,.667-1.917,2.654,2.654,0,0,0-.58-1.751A1.9,1.9,0,0,0,243.986,1039.172Zm-.248.825c.888,0,1.286.823,1.286,1.639,0,1.052-.508,1.706-1.324,1.706a1.21,1.21,0,0,1-1.175-.925,1.285,1.285,0,0,1-.035-.323v-.8a1.43,1.43,0,0,1,.032-.247l.014-.08A1.263,1.263,0,0,1,243.738,1040Z" fill="#fff"/>
        <path id="Path_57" data-name="Path 57" d="M250.417,1040.256c-.93-.361-1.228-.644-1.228-1.168,0-.44.35-.885,1.133-.885a2.265,2.265,0,0,1,1.17.294l.085.052.281-.832-.055-.033a2.9,2.9,0,0,0-1.452-.325,1.925,1.925,0,0,0-2.16,1.825c0,.866.556,1.472,1.75,1.906.846.316,1.161.64,1.161,1.2,0,.629-.486,1.019-1.267,1.019a2.728,2.728,0,0,1-1.437-.408l-.086-.055-.268.851.049.033a3.421,3.421,0,0,0,1.685.433c1.713,0,2.321-1.045,2.321-1.94C252.1,1041.3,251.612,1040.727,250.417,1040.256Z" fill="#fff"/>
        <path id="Path_58" data-name="Path 58" d="M253.894,1038.142l-.978.307v.828H252.2v.8h.716v2.44a1.868,1.868,0,0,0,.345,1.265,1.279,1.279,0,0,0,.965.379,2.36,2.36,0,0,0,.77-.119l.056-.02-.048-.8-.1.029a1.5,1.5,0,0,1-.464.054c-.386,0-.551-.245-.551-.819v-2.411h1.2v-.8h-1.2Z" fill="#fff"/>
        <path id="Path_59" data-name="Path 59" d="M257.567,1039.172a2.348,2.348,0,0,0-2.369,2.531,2.275,2.275,0,0,0,2.292,2.455h.01a2.351,2.351,0,0,0,2.369-2.541,2.517,2.517,0,0,0-.636-1.763A2.216,2.216,0,0,0,257.567,1039.172Zm-.029.787c.9,0,1.3.874,1.3,1.687,0,1-.557,1.725-1.324,1.725h-.01c-.756,0-1.3-.714-1.3-1.7C256.2,1040.821,256.617,1039.959,257.538,1039.959Z" fill="#fff"/>
        <path id="Path_60" data-name="Path 60" d="M262.922,1039.218l-.06-.015a.948.948,0,0,0-.248-.031,1.424,1.424,0,0,0-1.25.8l-.029-.7h-.894l.005.084c.027.394.038.837.038,1.435l-.009,3.257h1v-2.541a2.57,2.57,0,0,1,.027-.386,1.1,1.1,0,0,1,1.049-1.005,2.39,2.39,0,0,1,.267.017l.107.011Z" fill="#fff"/>
        <path id="Path_61" data-name="Path 61" d="M265.163,1039.162a2.327,2.327,0,0,0-2.254,2.579,2.23,2.23,0,0,0,2.35,2.407,3.817,3.817,0,0,0,1.578-.3l.06-.027-.191-.742-.083.033a3.083,3.083,0,0,1-1.249.223,1.385,1.385,0,0,1-1.494-1.445l3.218.01.013-.064a2.237,2.237,0,0,0,.03-.416A2.014,2.014,0,0,0,265.163,1039.162Zm-.066.759a.985.985,0,0,1,.732.279,1.416,1.416,0,0,1,.343.928H263.9A1.271,1.271,0,0,1,265.1,1039.921Z" fill="#fff"/>
      </g>
      <g id="Group_33" data-name="Group 33">
        <path id="Path_62" data-name="Path 62" d="M230.354,1032.963a7.264,7.264,0,0,1,.957-.065,2.13,2.13,0,0,1,1.4.384,1.363,1.363,0,0,1,.494,1.124,1.577,1.577,0,0,1-.5,1.212,2.31,2.31,0,0,1-1.537.449,6.925,6.925,0,0,1-.818-.037Zm.453,2.762a3.292,3.292,0,0,0,.452.018c.957.005,1.476-.481,1.476-1.323.005-.745-.458-1.2-1.4-1.2a2.811,2.811,0,0,0-.524.042Z" fill="#fff"/>
        <path id="Path_63" data-name="Path 63" d="M234.811,1036.09a1.124,1.124,0,0,1-1.192-1.152,1.155,1.155,0,0,1,1.233-1.189,1.115,1.115,0,0,1,1.2,1.148,1.158,1.158,0,0,1-1.233,1.193Zm.016-.3a.8.8,0,0,0,.756-.875.761.761,0,1,0-.762.875Z" fill="#fff"/>
        <path id="Path_64" data-name="Path 64" d="M236.766,1033.8l.334,1.134c.067.25.134.485.18.717h.015c.057-.227.139-.467.222-.713l.406-1.138h.38l.386,1.12c.092.264.164.5.221.731h.015a6.027,6.027,0,0,1,.191-.727l.354-1.124h.448l-.8,2.239H238.7l-.38-1.068a7.253,7.253,0,0,1-.221-.741h-.011a5.9,5.9,0,0,1-.226.745l-.4,1.064h-.411l-.751-2.239Z" fill="#fff"/>
        <path id="Path_65" data-name="Path 65" d="M240.37,1034.406c0-.236,0-.421-.02-.606h.4l.025.366h.011a.94.94,0,0,1,.822-.417.851.851,0,0,1,.879.953v1.337h-.452v-1.29c0-.361-.149-.667-.576-.667a.645.645,0,0,0-.606.417.539.539,0,0,0-.031.189v1.351h-.453Z" fill="#fff"/>
        <path id="Path_66" data-name="Path 66" d="M243.224,1032.754h.452v3.285h-.452Z" fill="#fff"/>
        <path id="Path_67" data-name="Path 67" d="M245.44,1036.09a1.124,1.124,0,0,1-1.193-1.152,1.155,1.155,0,0,1,1.234-1.189,1.116,1.116,0,0,1,1.2,1.148,1.159,1.159,0,0,1-1.234,1.193Zm.015-.3a.8.8,0,0,0,.756-.875.761.761,0,1,0-.761.875Z" fill="#fff"/>
        <path id="Path_68" data-name="Path 68" d="M249,1035.5a3.339,3.339,0,0,0,.036.536h-.407l-.041-.282h-.015a.956.956,0,0,1-.761.333.678.678,0,0,1-.761-.643c0-.541.535-.837,1.5-.833v-.046c0-.185-.056-.523-.565-.518a1.3,1.3,0,0,0-.653.166l-.1-.272a1.749,1.749,0,0,1,.823-.195.832.832,0,0,1,.951.916Zm-.442-.606c-.494-.01-1.054.069-1.054.5a.378.378,0,0,0,.421.389.628.628,0,0,0,.612-.375.369.369,0,0,0,.021-.13Z" fill="#fff"/>
        <path id="Path_69" data-name="Path 69" d="M251.877,1032.754v2.707c0,.2.005.426.02.578h-.406l-.02-.388h-.011a.929.929,0,0,1-.843.439,1.068,1.068,0,0,1-1.069-1.138,1.117,1.117,0,0,1,1.115-1.2.855.855,0,0,1,.751.338h.01v-1.333Zm-.453,1.958a.7.7,0,0,0-.02-.176.655.655,0,0,0-.653-.468.767.767,0,0,0-.746.861.743.743,0,0,0,.736.833.673.673,0,0,0,.663-.486.655.655,0,0,0,.02-.176Z" fill="#fff"/>
        <path id="Path_70" data-name="Path 70" d="M254.73,1036.09a1.124,1.124,0,0,1-1.193-1.152,1.156,1.156,0,0,1,1.234-1.189,1.115,1.115,0,0,1,1.2,1.148,1.158,1.158,0,0,1-1.233,1.193Zm.016-.3a.8.8,0,0,0,.755-.875.761.761,0,1,0-.76.875Z" fill="#fff"/>
        <path id="Path_71" data-name="Path 71" d="M256.54,1034.406c0-.236-.005-.421-.02-.606h.4l.026.366h.01a.94.94,0,0,1,.822-.417.852.852,0,0,1,.88.953v1.337h-.453v-1.29c0-.361-.149-.667-.576-.667a.647.647,0,0,0-.607.417.563.563,0,0,0-.03.189v1.351h-.453Z" fill="#fff"/>
        <path id="Path_72" data-name="Path 72" d="M261.029,1033.263v.537h.647v.31h-.647v1.208c0,.277.087.435.339.435a.944.944,0,0,0,.262-.028l.021.31a1.353,1.353,0,0,1-.4.055.683.683,0,0,1-.489-.171.815.815,0,0,1-.174-.588v-1.221H260.2v-.31h.386v-.412Z" fill="#fff"/>
        <path id="Path_73" data-name="Path 73" d="M262.186,1032.754h.452v1.4h.01a.768.768,0,0,1,.325-.287.951.951,0,0,1,.462-.116.851.851,0,0,1,.869.958v1.332h-.452v-1.286c0-.365-.15-.666-.576-.666a.65.65,0,0,0-.607.407.445.445,0,0,0-.031.194v1.351h-.452Z" fill="#fff"/>
        <path id="Path_74" data-name="Path 74" d="M265.3,1034.989a.759.759,0,0,0,.849.778,1.871,1.871,0,0,0,.689-.112l.082.287a2.219,2.219,0,0,1-.833.144,1.1,1.1,0,0,1-1.224-1.129,1.14,1.14,0,0,1,1.172-1.212.98.98,0,0,1,1.023,1.055.9.9,0,0,1-.015.194Zm1.322-.291a.6.6,0,0,0-.623-.662.7.7,0,0,0-.694.662Z" fill="#fff"/>
      </g>
    </g>
  </g>
</svg>
