<svg xmlns="http://www.w3.org/2000/svg" width="81.924" height="108.701" viewBox="0 0 81.924 108.701">
  <g id="Group_16" data-name="Group 16" transform="translate(-1524.046 -626.802)">
    <path id="Path_51" data-name="Path 51" d="M1564.909,694.009ZM1548.794,666.1a47.15,47.15,0,0,1,1.923-11.079,47.108,47.108,0,0,1,8.6,7.251,47.065,47.065,0,0,1,5.6-9.754,47.094,47.094,0,0,1,5.6,9.752,47.158,47.158,0,0,1,8.595-7.249,47.085,47.085,0,0,1,1.924,11.078,47.1,47.1,0,0,1,10.556-3.873,47.069,47.069,0,0,1-1.981,11.068,47.079,47.079,0,0,1,11.244-.029,47.122,47.122,0,0,1-5.647,9.723,47.08,47.08,0,0,1,10.576,3.818,47.1,47.1,0,0,1-8.632,7.2,47.1,47.1,0,0,1,8.632,7.205,47.062,47.062,0,0,1-10.576,3.818,47.136,47.136,0,0,1,5.648,9.724,47.148,47.148,0,0,1-11.245-.03,47.082,47.082,0,0,1,1.982,11.069,47.13,47.13,0,0,1-10.557-3.874A47.092,47.092,0,0,1,1579.1,733a47.1,47.1,0,0,1-8.595-7.25,47.148,47.148,0,0,1-5.6,9.753,47.157,47.157,0,0,1-5.6-9.752,47.123,47.123,0,0,1-8.595,7.249,47.084,47.084,0,0,1-1.924-11.078,47.1,47.1,0,0,1-10.556,3.873,47.077,47.077,0,0,1,1.982-11.068,47.087,47.087,0,0,1-11.245.029,47.131,47.131,0,0,1,5.648-9.723,47.07,47.07,0,0,1-10.576-3.818,47.069,47.069,0,0,1,8.632-7.205,47.193,47.193,0,0,1-8.633-7.205,47.05,47.05,0,0,1,10.577-3.817,47.139,47.139,0,0,1-5.648-9.725,47.079,47.079,0,0,1,11.244.029,47.111,47.111,0,0,1-1.981-11.068,47.11,47.11,0,0,1,10.556,3.874Zm16.115,27.911Z" fill="#00923e" fill-rule="evenodd"/>
    <path id="Path_52" data-name="Path 52" d="M1564.909,694.008Zm-23.721,4.183a37.993,37.993,0,0,1-8.509-4.182,38.038,38.038,0,0,1,8.509-4.182,38,38,0,0,1-6.565-6.841,37.989,37.989,0,0,1,9.427-1.02,37.958,37.958,0,0,1-3.83-8.674,37.992,37.992,0,0,1,9.207,2.266,38.026,38.026,0,0,1-.633-9.461,38,38,0,0,1,7.878,5.278,37.992,37.992,0,0,1,2.641-9.106,37.961,37.961,0,0,1,5.6,7.654,38,38,0,0,1,5.6-7.654,37.992,37.992,0,0,1,2.641,9.106,38,38,0,0,1,7.878-5.278,38.026,38.026,0,0,1-.633,9.461,37.994,37.994,0,0,1,9.207-2.266,37.957,37.957,0,0,1-3.83,8.674,38,38,0,0,1,9.427,1.02,37.977,37.977,0,0,1-6.566,6.841,38.017,38.017,0,0,1,8.509,4.182,37.978,37.978,0,0,1-8.509,4.183,37.975,37.975,0,0,1,6.566,6.841,38.042,38.042,0,0,1-9.427,1.02,37.957,37.957,0,0,1,3.83,8.674,38.03,38.03,0,0,1-9.207-2.267,37.989,37.989,0,0,1,.632,9.462,38.06,38.06,0,0,1-7.877-5.278,37.991,37.991,0,0,1-2.641,9.106,38.025,38.025,0,0,1-5.6-7.654,37.989,37.989,0,0,1-5.6,7.654,37.991,37.991,0,0,1-2.641-9.106,38.04,38.04,0,0,1-7.878,5.278,38.036,38.036,0,0,1,.633-9.462,37.992,37.992,0,0,1-9.207,2.266,37.97,37.97,0,0,1,3.83-8.673,38.035,38.035,0,0,1-9.427-1.02,38.009,38.009,0,0,1,6.565-6.842Z" fill="#abc600" fill-rule="evenodd"/>
    <path id="Path_53" data-name="Path 53" d="M1564.909,694.009h0Zm0,0h0Zm0,0h0v0h0Zm0,0Zm-2.863-16.239a26.907,26.907,0,0,1,2.863-7.848,26.851,26.851,0,0,1,2.863,7.848,26.919,26.919,0,0,1,5.374-6.4,26.836,26.836,0,0,1,.007,8.354,26.876,26.876,0,0,1,7.238-4.172,26.9,26.9,0,0,1-2.85,7.853,26.84,26.84,0,0,1,8.228-1.444,26.908,26.908,0,0,1-5.365,6.4,26.873,26.873,0,0,1,8.225,1.457,26.863,26.863,0,0,1-7.231,4.182,26.924,26.924,0,0,1,7.232,4.182,26.88,26.88,0,0,1-8.226,1.458,26.862,26.862,0,0,1,5.364,6.4,26.868,26.868,0,0,1-8.227-1.444,26.88,26.88,0,0,1,2.85,7.851,26.844,26.844,0,0,1-7.237-4.17,26.863,26.863,0,0,1-.007,8.353,26.9,26.9,0,0,1-5.374-6.4,26.857,26.857,0,0,1-2.863,7.848,26.857,26.857,0,0,1-2.863-7.848,26.877,26.877,0,0,1-5.375,6.4,26.889,26.889,0,0,1-.007-8.353,26.825,26.825,0,0,1-7.237,4.171,26.87,26.87,0,0,1,2.851-7.852,26.844,26.844,0,0,1-8.228,1.444,26.879,26.879,0,0,1,5.364-6.4,26.9,26.9,0,0,1-8.225-1.457,26.848,26.848,0,0,1,7.231-4.182,26.892,26.892,0,0,1-7.232-4.182,26.851,26.851,0,0,1,8.226-1.458,26.883,26.883,0,0,1-5.364-6.4,26.876,26.876,0,0,1,8.228,1.445,26.871,26.871,0,0,1-2.851-7.852,26.878,26.878,0,0,1,7.237,4.171,26.865,26.865,0,0,1,.007-8.354,26.893,26.893,0,0,1,5.374,6.4Zm2.863,16.238Z" fill="#ffd600" fill-rule="evenodd"/>
    <path id="Path_54" data-name="Path 54" d="M1562.012,686.049a22.61,22.61,0,0,1,.034-8.277,22.589,22.589,0,0,1,2.863,7.766,22.606,22.606,0,0,1,2.863-7.766,22.583,22.583,0,0,1,.034,8.276,22.612,22.612,0,0,1,5.346-6.317,22.579,22.579,0,0,1-2.8,7.789,22.579,22.579,0,0,1,7.185-4.109,22.585,22.585,0,0,1-5.294,6.362,22.586,22.586,0,0,1,8.157-1.4,22.6,22.6,0,0,1-7.151,4.168,22.605,22.605,0,0,1,8.145,1.471,22.6,22.6,0,0,1-8.145,1.47,22.617,22.617,0,0,1,7.151,4.168,22.586,22.586,0,0,1-8.157-1.4,22.616,22.616,0,0,1,5.294,6.362,22.594,22.594,0,0,1-7.185-4.108,22.606,22.606,0,0,1,2.8,7.789,22.586,22.586,0,0,1-5.347-6.318,22.6,22.6,0,0,1-.034,8.276,22.585,22.585,0,0,1-2.863-7.766,22.608,22.608,0,0,1-2.863,7.766,22.583,22.583,0,0,1-.034-8.276,22.616,22.616,0,0,1-5.346,6.318,22.6,22.6,0,0,1,2.8-7.79,22.6,22.6,0,0,1-7.185,4.11,22.592,22.592,0,0,1,5.294-6.363,22.61,22.61,0,0,1-8.157,1.4,22.612,22.612,0,0,1,7.151-4.169,22.6,22.6,0,0,1-8.145-1.47,22.59,22.59,0,0,1,8.145-1.472,22.6,22.6,0,0,1-7.151-4.167,22.586,22.586,0,0,1,8.157,1.4,22.618,22.618,0,0,1-5.294-6.362,22.6,22.6,0,0,1,7.185,4.108,22.591,22.591,0,0,1-2.8-7.789,22.605,22.605,0,0,1,5.346,6.319Z" fill="#fff" fill-rule="evenodd"/>
    <path id="Path_55" data-name="Path 55" d="M1575.921,626.8v20.259h3.015v-1.945a5.315,5.315,0,0,0,4.621,2.428c3.719,0,6.368-3.019,6.368-7.838,0-4.959-2.705-7.974-6.34-7.974a5.267,5.267,0,0,0-4.621,2.452V626.8Zm6.932,7.692c2.4,0,3.888,1.86,3.888,5.241,0,3.212-1.493,5.043-3.888,5.043-2.508,0-3.945-1.775-3.945-5.128,0-3.409,1.352-5.156,3.945-5.156Z" fill="#00923e" fill-rule="evenodd"/>
    <path id="Path_56" data-name="Path 56" d="M1598.9,634.494c2.367,0,3.888,1.86,3.888,5.072,0,3.381-1.493,5.212-3.888,5.212-2.564,0-3.945-1.719-3.945-5.043,0-3.466,1.409-5.241,3.945-5.241Zm-3.889,10.735a5.309,5.309,0,0,0,4.621,2.315c3.635,0,6.34-3.019,6.34-7.978,0-4.819-2.648-7.834-6.368-7.834a5.141,5.141,0,0,0-4.621,2.565v-2.085h-3.015v20.77h3.043v-7.753Z" fill="#00923e" fill-rule="evenodd"/>
  </g>
</svg>
