<svg id="Слой_1" data-name="Слой 1" xmlns="http://www.w3.org/2000/svg" viewBox="0 0 320 568"><defs><style>.cls-1{fill:#e8f1f6;}.cls-2{fill:none;}</style></defs><title>coordinator-block-mask</title><path class="cls-1" d="M0,0V568H320V0ZM295.9,252.2a35,35,0,0,1-17.5,30.3L177.5,340.8a34.77,34.77,0,0,1-35,0L41.6,282.5a35.11,35.11,0,0,1-17.5-30.3V135.6a35,35,0,0,1,17.5-30.3L142.5,47a34.77,34.77,0,0,1,35,0l100.9,58.3a35.11,35.11,0,0,1,17.5,30.3Z"/><rect class="cls-2" width="320" height="568"/><path class="cls-1" d="M0,0V173.6l24.1,13.9V135.6a35,35,0,0,1,17.5-30.3L142.5,47a34.77,34.77,0,0,1,35,0l100.9,58.3a35.11,35.11,0,0,1,17.5,30.3v51.9L320,173.6V0Z"/></svg>