<svg
   fill="#FF0100"
   height="800px"
   width="800px"
   version="1.1"
   id="Capa_1"
   viewBox="0 0 478.174 478.174"
   xml:space="preserve"
   sodipodi:docname="dislike.svg"
   inkscape:version="1.3 (0e150ed, 2023-07-21)"
   xmlns:inkscape="http://www.inkscape.org/namespaces/inkscape"
   xmlns:sodipodi="http://sodipodi.sourceforge.net/DTD/sodipodi-0.dtd"
   xmlns="http://www.w3.org/2000/svg"
   xmlns:svg="http://www.w3.org/2000/svg"><defs
   id="defs1" /><sodipodi:namedview
   id="namedview1"
   pagecolor="#ffffff"
   bordercolor="#000000"
   borderopacity="0.25"
   inkscape:showpageshadow="2"
   inkscape:pageopacity="0.0"
   inkscape:pagecheckerboard="0"
   inkscape:deskcolor="#d1d1d1"
   showgrid="false"
   inkscape:zoom="0.295"
   inkscape:cx="100"
   inkscape:cy="176.27119"
   inkscape:window-width="1440"
   inkscape:window-height="449"
   inkscape:window-x="0"
   inkscape:window-y="25"
   inkscape:window-maximized="0"
   inkscape:current-layer="Capa_1" />&#10;&#10;	<path
   d="m 457.525,153.074 c 1.9,-5.1 3.7,-12 4.2,-20 0.7,-14.1 -2.8,-33.9 -22.7,-51.9 1.3,-9.2 1.3,-23.8 -6.8,-38.3 -10.7,-19.2 -31.6,-32.2 -62.2,-38.7 -20.5,-4.4 -47.4,-5.3 -80,-2.8 -65.7,-1.3 -129.7,6.8 -133.3,7.3 l -23.5,2.8 c -6.8,-4.8 -15.1,-7.6 -24,-7.6 h -61 c -23,0 -41.6,18.7 -41.6,41.6 v 162.5 c 0,23 18.7,41.6 41.6,41.6 h 61 c 7.2,0 13.9,-1.8 19.8,-5 4.2,9.2 10.4,19.7 19.6,29.4 0.5,0.5 1,1 1.6,1.4 31.4,24.1 68.4,110.9 81.5,146.3 -1.3,11 -2.6,34.8 8.4,47.7 4.9,5.7 11.7,8.8 19.3,8.8 7.7,0 34.3,-1.8 50.9,-24.7 15.7,-21.8 16.6,-54.4 2.6,-97 -3.20043,-22.27302 -29.7721,-60.84088 3.3,-54.9 h 0.1 c 0.9,0.2 22.9,5.1 49.2,6.3 37.4,1.8 64.5,-4.7 80.3,-19.2 21.8,-19.9 19.2,-45.3 12.7,-61.5 5.6,-7.3 12.4,-19.2 13,-34.4 0.4,-13.8 -4.2,-27.1 -14,-39.7 z"
   id="path1"
   sodipodi:nodetypes="ccccccccsssssscccccsccccccccc" />&#10;&#10;</svg>
