<svg xmlns="http://www.w3.org/2000/svg" xmlns:xlink="http://www.w3.org/1999/xlink" width="57.607" height="18.844" viewBox="0 0 57.607 18.844">
  <defs>
    <clipPath id="clip-path">
      <path id="Path_27" data-name="Path 27" d="M131.082,1038.221l-2.6-1.5-5.01-2.893c-.278-.16-.555-.063-.555.273v11.786c0,.252.2.36.439.221l5.126-2.96,2.6-1.5,2.5-1.442c.292-.169.264-.4.017-.534S131.082,1038.221,131.082,1038.221Z" fill="none"/>
    </clipPath>
    <linearGradient id="linear-gradient" x1="0.5" x2="0.5" y2="1" gradientUnits="objectBoundingBox">
      <stop offset="0" stop-color="#1b79b0"/>
      <stop offset="0.34" stop-color="#4999b5"/>
      <stop offset="0.785" stop-color="#80bfbb"/>
      <stop offset="1" stop-color="#96cfbe"/>
    </linearGradient>
    <linearGradient id="linear-gradient-2" y1="0.5" x2="1" y2="0.5" gradientUnits="objectBoundingBox">
      <stop offset="0" stop-color="#57baa9"/>
      <stop offset="1" stop-color="#e6e899"/>
    </linearGradient>
    <linearGradient id="linear-gradient-3" x1="0.5" x2="0.5" y2="1" gradientUnits="objectBoundingBox">
      <stop offset="0" stop-color="#e4302f"/>
      <stop offset="0.186" stop-color="#d13343"/>
      <stop offset="0.735" stop-color="#a03b7a"/>
      <stop offset="1" stop-color="#8d3f90"/>
    </linearGradient>
    <linearGradient id="linear-gradient-4" x1="0.5" x2="0.5" y2="1" gradientUnits="objectBoundingBox">
      <stop offset="0" stop-color="#f08679"/>
      <stop offset="0.637" stop-color="#f8b473"/>
      <stop offset="1" stop-color="#fcca71"/>
    </linearGradient>
  </defs>
  <g id="Group_29" data-name="Group 29" transform="translate(-118.598 -1029.926)">
    <path id="Rectangle_8" data-name="Rectangle 8" d="M2.547,0H55.061a2.547,2.547,0,0,1,2.547,2.547V16.3a2.547,2.547,0,0,1-2.547,2.547H2.546A2.546,2.546,0,0,1,0,16.3V2.547A2.547,2.547,0,0,1,2.547,0Z" transform="translate(118.598 1029.926)" fill="#181716"/>
    <g id="PLAY">
      <g id="Group_24" data-name="Group 24" clip-path="url(#clip-path)">
        <path id="Path_23" data-name="Path 23" d="M122.919,1033.554v12.761l6.435-6.38Z" fill="url(#linear-gradient)"/>
        <path id="Path_24" data-name="Path 24" d="M131.082,1038.221l-2.6-1.5-5.566-3.214v.047l6.435,6.381Z" fill="url(#linear-gradient-2)"/>
        <path id="Path_25" data-name="Path 25" d="M122.919,1046.315v.047l5.566-3.214,2.6-1.5-1.728-1.714Z" fill="url(#linear-gradient-3)"/>
        <path id="Path_26" data-name="Path 26" d="M131.082,1038.221l-1.728,1.714,1.728,1.714,2.969-1.714Z" fill="url(#linear-gradient-4)"/>
      </g>
    </g>
    <g id="Group_25" data-name="Group 25">
      <path id="Path_28" data-name="Path 28" d="M163.43,1042.429a1.611,1.611,0,0,1-.662-.133,1.256,1.256,0,0,1-.5-.412h-.04a4.994,4.994,0,0,1,.04.617v1.527H161.7v-5.378h.457l.078.508h.027a1.315,1.315,0,0,1,.505-.44,1.539,1.539,0,0,1,.66-.135,1.374,1.374,0,0,1,1.14.5,2.688,2.688,0,0,1-.007,2.836A1.373,1.373,0,0,1,163.43,1042.429Zm-.081-3.369a1,1,0,0,0-.823.315,1.626,1.626,0,0,0-.261,1v.125a1.857,1.857,0,0,0,.261,1.119.991.991,0,0,0,.836.337.87.87,0,0,0,.754-.39,1.841,1.841,0,0,0,.273-1.073,1.774,1.774,0,0,0-.273-1.065A.9.9,0,0,0,163.349,1039.06Z" fill="#f9f9f9"/>
      <path id="Path_29" data-name="Path 29" d="M166.272,1042.362h-.562v-5.269h.562Z" fill="#f9f9f9"/>
      <path id="Path_30" data-name="Path 30" d="M169.5,1042.362l-.112-.529h-.027a1.555,1.555,0,0,1-.554.473,1.694,1.694,0,0,1-.689.123,1.239,1.239,0,0,1-.865-.284,1.036,1.036,0,0,1-.313-.809q0-1.125,1.8-1.179l.63-.02v-.23a.941.941,0,0,0-.188-.645.773.773,0,0,0-.6-.209,2.448,2.448,0,0,0-1.05.285l-.173-.43a2.692,2.692,0,0,1,.6-.234,2.62,2.62,0,0,1,.655-.084,1.418,1.418,0,0,1,.984.294,1.231,1.231,0,0,1,.319.945v2.533Zm-1.27-.4a1.142,1.142,0,0,0,.825-.288,1.068,1.068,0,0,0,.3-.806v-.335l-.562.023a2.036,2.036,0,0,0-.967.209.628.628,0,0,0-.3.574.578.578,0,0,0,.185.463A.761.761,0,0,0,168.234,1041.966Z" fill="#f9f9f9"/>
      <path id="Path_31" data-name="Path 31" d="M170.247,1038.65h.6l.813,2.117a8.151,8.151,0,0,1,.332,1.046h.027q.044-.172.185-.591t.919-2.572h.6l-1.6,4.226a2.108,2.108,0,0,1-.554.889,1.177,1.177,0,0,1-.777.263,2.276,2.276,0,0,1-.508-.058v-.45a1.966,1.966,0,0,0,.417.041.859.859,0,0,0,.826-.651l.206-.528Z" fill="#f9f9f9"/>
    </g>
    <g id="Group_27" data-name="Group 27">
      <path id="Path_32" data-name="Path 32" d="M153.018,1038.995a1.264,1.264,0,0,1-.1,2.15.547.547,0,0,0-.218.381.427.427,0,0,0,.2.334l.28.217a1.352,1.352,0,0,1,.652,1.087c0,.73-.707,1.467-2.042,1.467-1.125,0-1.669-.536-1.669-1.11a1.118,1.118,0,0,1,.6-.947,3.354,3.354,0,0,1,1.483-.358.811.811,0,0,1-.233-.527.707.707,0,0,1,.077-.3c-.085.008-.171.016-.248.016a1.228,1.228,0,0,1-1.289-1.219,1.4,1.4,0,0,1,.5-1.04,2.116,2.116,0,0,1,1.39-.427H154l-.5.279Zm-.551,3.447a1.224,1.224,0,0,0-.179-.008,3.1,3.1,0,0,0-.815.125.871.871,0,0,0-.668.8c0,.551.536.947,1.367.947.745,0,1.141-.357,1.141-.838C153.313,1043.07,153.057,1042.861,152.467,1042.442Zm.225-1.475a.786.786,0,0,0,.193-.567c0-.559-.333-1.428-.977-1.428a.729.729,0,0,0-.544.256.9.9,0,0,0-.171.575c0,.52.3,1.381.971,1.381A.8.8,0,0,0,152.692,1040.967Z" fill="#f9f9f9"/>
      <path id="Path_33" data-name="Path 33" d="M148.131,1042.318a1.829,1.829,0,0,1-1.891-1.83,1.92,1.92,0,0,1,2.008-1.882,1.811,1.811,0,0,1,1.851,1.828A1.893,1.893,0,0,1,148.131,1042.318Zm.969-.628a1.4,1.4,0,0,0,.232-.86c0-.683-.325-1.984-1.286-1.984a1.078,1.078,0,0,0-.7.264,1.169,1.169,0,0,0-.357.945c0,.767.38,2.03,1.318,2.03A.99.99,0,0,0,149.1,1041.69Z" fill="#f9f9f9"/>
      <path id="Path_34" data-name="Path 34" d="M143.931,1042.318a1.829,1.829,0,0,1-1.892-1.83,1.921,1.921,0,0,1,2.008-1.882,1.812,1.812,0,0,1,1.852,1.828A1.894,1.894,0,0,1,143.931,1042.318Zm.968-.628a1.4,1.4,0,0,0,.233-.86c0-.683-.326-1.984-1.287-1.984a1.08,1.08,0,0,0-.7.264,1.172,1.172,0,0,0-.357.945c0,.767.38,2.03,1.318,2.03A.99.99,0,0,0,144.9,1041.69Z" fill="#f9f9f9"/>
      <path id="Path_35" data-name="Path 35" d="M141.447,1042.2l-1.114.257a8.168,8.168,0,0,1-1.285.133,2.769,2.769,0,0,1-2.969-2.821,2.946,2.946,0,0,1,3.148-2.914,4.5,4.5,0,0,1,1.192.164,3.039,3.039,0,0,1,1.028.483l-.646.616-.273.062.2-.312a2.227,2.227,0,0,0-1.668-.732,2.152,2.152,0,0,0-2.158,2.3,2.755,2.755,0,0,0,2.758,2.843,2.318,2.318,0,0,0,.99-.2v-1.254l-1.177.062.623-.335h1.652l-.2.195a.177.177,0,0,0-.078.124c-.008.07-.016.3-.016.374Z" fill="#f9f9f9"/>
      <path id="Path_36" data-name="Path 36" d="M155.48,1041.972c-.257-.024-.311-.07-.311-.374v-4.41l0-.05c.031-.273.109-.32.351-.46H154.41l-.585.28h.6v4.811c0,.156-.031.179-.21.413h1.379l.288-.171C155.746,1041.995,155.613,1041.987,155.48,1041.972Z" fill="#f9f9f9"/>
      <path id="Path_37" data-name="Path 37" d="M158.651,1042.044c-.085.046-.17.1-.255.139a1.8,1.8,0,0,1-.751.147,1.653,1.653,0,0,1-1.029-.3,2,2,0,0,1-.789-1.633,1.754,1.754,0,0,1,1.772-1.787,1.507,1.507,0,0,1,.8.217,1.279,1.279,0,0,1,.541.765l-1.818.736-.6.046a1.719,1.719,0,0,0,1.594,1.555,2,2,0,0,0,.944-.27Zm-.727-2.307c.147-.054.224-.1.224-.208a.768.768,0,0,0-.766-.666.953.953,0,0,0-.89,1.076c0,.131.016.27.024.41Z" fill="#f9f9f9"/>
      <g id="Group_26" data-name="Group 26">
        <path id="Path_38" data-name="Path 38" d="M159.4,1038.661v.51h-.062v-.51h-.169v-.053h.4v.053Z" fill="#f9f9f9"/>
        <path id="Path_39" data-name="Path 39" d="M160.094,1039.171v-.515h0l-.157.515h-.049l-.158-.515h0v.515h-.057v-.563h.1l.143.455h0l.142-.455h.1v.563Z" fill="#f9f9f9"/>
      </g>
    </g>
    <g id="Group_28" data-name="Group 28">
      <path id="Path_40" data-name="Path 40" d="M137.627,1035.334h-.388a2.492,2.492,0,0,0-.11-.452h-.559a2.373,2.373,0,0,0-.113.452h-.365c0-.031.1-.289.283-.774a6.11,6.11,0,0,0,.282-.8h.458a6.578,6.578,0,0,0,.256.789A7.189,7.189,0,0,1,137.627,1035.334Zm-.559-.683a6.972,6.972,0,0,1-.207-.675h-.02q0,.047-.214.675Z" fill="#fbfcfc"/>
      <path id="Path_41" data-name="Path 41" d="M139.187,1035.334h-.3a2.986,2.986,0,0,0-.333-.524,2.937,2.937,0,0,1-.4-.683h-.019a4.285,4.285,0,0,1,.03.479q0,.3.017.728h-.3c.013-.25.019-.524.019-.824s-.006-.545-.019-.751h.36a2.253,2.253,0,0,0,.3.512,2.987,2.987,0,0,1,.365.645h.018a4.683,4.683,0,0,1-.029-.484q0-.328-.017-.673h.3c-.012.2-.017.45-.017.751S139.175,1035.088,139.187,1035.334Z" fill="#fbfcfc"/>
      <path id="Path_42" data-name="Path 42" d="M140.94,1034.492a.892.892,0,0,1-.22.6.77.77,0,0,1-.617.257c-.119,0-.284-.005-.494-.015q.017-.365.016-.824c0-.293-.005-.544-.016-.751h.212c.035,0,.086,0,.155,0l.134,0a.817.817,0,0,1,.634.217A.755.755,0,0,1,140.94,1034.492Zm-.33.052a.579.579,0,0,0-.136-.391.512.512,0,0,0-.413-.159,1.1,1.1,0,0,0-.143.011c.008.161.012.329.012.505q0,.289.012.574a.842.842,0,0,0,.157.015.457.457,0,0,0,.386-.161A.627.627,0,0,0,140.61,1034.544Z" fill="#fbfcfc"/>
      <path id="Path_43" data-name="Path 43" d="M142.557,1035.334H142.2a2.366,2.366,0,0,0-.215-.529.285.285,0,0,0-.242-.1h-.135q0,.312.011.628h-.336c.01-.243.016-.518.016-.824s-.006-.544-.016-.751h.209c.025,0,.075,0,.152,0l.214,0c.37,0,.555.126.555.38a.426.426,0,0,1-.317.419v.019a.374.374,0,0,1,.214.19A4.282,4.282,0,0,1,142.557,1035.334Zm-.453-1.113c0-.16-.1-.241-.31-.241a1.086,1.086,0,0,0-.2.017c.009.125.013.288.013.489l.113,0C141.975,1034.489,142.1,1034.4,142.1,1034.221Z" fill="#fbfcfc"/>
      <path id="Path_44" data-name="Path 44" d="M144.292,1034.518a.867.867,0,0,1-.228.615.739.739,0,0,1-.563.245.709.709,0,0,1-.534-.225.786.786,0,0,1-.216-.57.867.867,0,0,1,.228-.616.735.735,0,0,1,.562-.244.712.712,0,0,1,.535.223A.791.791,0,0,1,144.292,1034.518Zm-.334.035a.628.628,0,0,0-.13-.411.4.4,0,0,0-.319-.157.368.368,0,0,0-.3.159.709.709,0,0,0,.006.81.4.4,0,0,0,.319.158.367.367,0,0,0,.3-.16A.633.633,0,0,0,143.958,1034.553Z" fill="#fbfcfc"/>
      <path id="Path_45" data-name="Path 45" d="M144.976,1035.334h-.343c.011-.25.016-.524.016-.824s-.005-.545-.016-.751h.343c-.011.2-.016.454-.016.751S144.965,1035.089,144.976,1035.334Z" fill="#fbfcfc"/>
      <path id="Path_46" data-name="Path 46" d="M146.729,1034.492a.892.892,0,0,1-.22.6.77.77,0,0,1-.617.257c-.119,0-.284-.005-.494-.015q.017-.365.016-.824c0-.293-.005-.544-.016-.751h.212c.035,0,.086,0,.155,0l.134,0a.817.817,0,0,1,.634.217A.755.755,0,0,1,146.729,1034.492Zm-.33.052a.579.579,0,0,0-.136-.391.512.512,0,0,0-.413-.159,1.1,1.1,0,0,0-.143.011c.008.161.012.329.012.505q0,.289.012.574a.842.842,0,0,0,.157.015.457.457,0,0,0,.386-.161A.627.627,0,0,0,146.4,1034.544Z" fill="#fbfcfc"/>
      <path id="Path_47" data-name="Path 47" d="M149.056,1035.334h-.387a2.538,2.538,0,0,0-.111-.452H148a2.374,2.374,0,0,0-.113.452h-.364q0-.047.282-.774a6.11,6.11,0,0,0,.282-.8h.458a6.578,6.578,0,0,0,.256.789A7.189,7.189,0,0,1,149.056,1035.334Zm-.559-.683a6.972,6.972,0,0,1-.207-.675h-.02q0,.047-.214.675Z" fill="#fbfcfc"/>
      <path id="Path_48" data-name="Path 48" d="M150.467,1034.172a.473.473,0,0,1-.215.427.955.955,0,0,1-.527.138.756.756,0,0,1-.081,0q0,.228.014.6h-.34c.01-.233.015-.507.015-.824,0-.29,0-.541-.015-.751h.21c.03,0,.087,0,.172,0l.22,0a.686.686,0,0,1,.388.1A.351.351,0,0,1,150.467,1034.172Zm-.312.066c0-.173-.115-.259-.344-.259a.976.976,0,0,0-.181.018c.009.153.013.325.013.518.02,0,.044,0,.07,0C150.008,1034.518,150.155,1034.424,150.155,1034.238Z" fill="#fbfcfc"/>
      <path id="Path_49" data-name="Path 49" d="M151.918,1034.172a.473.473,0,0,1-.215.427.955.955,0,0,1-.527.138.756.756,0,0,1-.081,0c0,.152.005.352.014.6h-.34c.01-.233.015-.507.015-.824,0-.29,0-.541-.015-.751h.21c.03,0,.087,0,.172,0l.22,0a.691.691,0,0,1,.389.1A.352.352,0,0,1,151.918,1034.172Zm-.312.066c0-.173-.115-.259-.344-.259a.976.976,0,0,0-.181.018c.009.153.013.325.013.518.02,0,.044,0,.07,0C151.459,1034.518,151.606,1034.424,151.606,1034.238Z" fill="#fbfcfc"/>
      <path id="Path_50" data-name="Path 50" d="M154.29,1034.518a.866.866,0,0,1-.227.615.739.739,0,0,1-.563.245.708.708,0,0,1-.534-.225.786.786,0,0,1-.216-.57.867.867,0,0,1,.228-.616.735.735,0,0,1,.562-.244.712.712,0,0,1,.535.223A.79.79,0,0,1,154.29,1034.518Zm-.333.035a.628.628,0,0,0-.13-.411.4.4,0,0,0-.319-.157.368.368,0,0,0-.3.159.709.709,0,0,0,.006.81.4.4,0,0,0,.319.158.367.367,0,0,0,.3-.16A.633.633,0,0,0,153.957,1034.553Z" fill="#fbfcfc"/>
      <path id="Path_51" data-name="Path 51" d="M155.93,1035.334h-.3a2.986,2.986,0,0,0-.333-.524,2.9,2.9,0,0,1-.4-.683h-.019a4.281,4.281,0,0,1,.03.479q0,.3.017.728h-.3c.012-.25.018-.524.018-.824s-.006-.545-.018-.751h.36a2.27,2.27,0,0,0,.3.512,3.008,3.008,0,0,1,.366.645h.018a4.683,4.683,0,0,1-.029-.484q0-.328-.017-.673h.3q-.016.3-.017.751C155.913,1034.814,155.919,1035.088,155.93,1035.334Z" fill="#fbfcfc"/>
    </g>
  </g>
</svg>
