<?xml version="1.0" encoding="utf-8"?>
<!-- Generator: Adobe Illustrator 25.4.1, SVG Export Plug-In . SVG Version: 6.00 Build 0)  -->
<svg version="1.1" id="Layer_1" xmlns="http://www.w3.org/2000/svg" xmlns:xlink="http://www.w3.org/1999/xlink" x="0px" y="0px"
	 viewBox="0 0 13.3 12.1" style="enable-background:new 0 0 13.3 12.1;" xml:space="preserve">
<style type="text/css">
	.st0{fill:#F18D1E;}
	.st1{fill:#FFFFFF;}
</style>
<g>
	<path class="st0" d="M13.2,9.9L7.9,0.7C7.7,0.3,7.2,0,6.7,0c-0.5,0-1,0.3-1.2,0.7L0.2,9.9c-0.3,0.4-0.2,1,0,1.4
		c0.3,0.4,0.7,0.7,1.2,0.7h10.5c0.5,0,1-0.3,1.2-0.7C13.4,10.9,13.4,10.4,13.2,9.9z"/>
	<path class="st1" d="M7.3,9.7C7.1,9.8,7,9.9,6.8,9.9c-0.2,0-0.4-0.1-0.5-0.2C6.1,9.6,6,9.4,6,9.2C6,9,6.1,8.8,6.2,8.6
		c0.1-0.1,0.3-0.2,0.5-0.2c0.2,0,0.4,0.1,0.5,0.2C7.4,8.8,7.5,9,7.5,9.2C7.5,9.4,7.4,9.6,7.3,9.7z"/>
	<path class="st1" d="M7.5,4.8L7.3,7c0,0.3-0.1,0.5-0.1,0.6C7.1,7.7,6.9,7.8,6.7,7.8c-0.2,0-0.3-0.1-0.4-0.2C6.3,7.4,6.2,7.2,6.2,7
		L6.1,4.9C6,4.5,6,4.2,6,4c0-0.3,0.1-0.5,0.2-0.6c0.1-0.1,0.3-0.2,0.6-0.2c0.3,0,0.5,0.1,0.6,0.3c0.1,0.2,0.1,0.4,0.1,0.8
		C7.5,4.4,7.5,4.6,7.5,4.8z"/>
</g>
</svg>
