<?xml version="1.0" encoding="utf-8"?>
<!-- Generator: Adobe Illustrator 25.4.1, SVG Export Plug-In . SVG Version: 6.00 Build 0)  -->
<svg version="1.1" id="Layer_1" xmlns="http://www.w3.org/2000/svg" xmlns:xlink="http://www.w3.org/1999/xlink" x="0px" y="0px"
	 viewBox="0 0 20.4 20.4" style="enable-background:new 0 0 20.4 20.4;" xml:space="preserve">
<style type="text/css">
	.st0{fill:#65A2C2;}
</style>
<g>
	<g>
		<g>
			<g>
				<path class="st0" d="M11.1,14.5c0,0.9,0.7,1.6,1.6,1.6h1.9c0.9,0,1.6-0.7,1.6-1.6v-1.9c0-0.9-0.7-1.6-1.6-1.6h-1.9
					c-0.9,0-1.6,0.7-1.6,1.6V14.5z M12.7,12.7h1.9l0,1.9c0,0,0,0,0,0h-1.9V12.7z"/>
				<circle class="st0" cx="15.4" cy="8.4" r="0.8"/>
				<circle class="st0" cx="11.9" cy="8.4" r="0.8"/>
				<path class="st0" d="M19.6,14.1c0.4,0,0.8-0.4,0.8-0.8V4.8c0-1.8-1.4-3.2-3.2-3.2h-1V0.8c0-0.4-0.4-0.8-0.8-0.8
					s-0.8,0.4-0.8,0.8v0.8H11V0.8C11,0.4,10.6,0,10.2,0S9.4,0.4,9.4,0.8v0.8H5.8V0.8C5.8,0.4,5.4,0,5,0C4.5,0,4.2,0.4,4.2,0.8v0.8
					h-1C1.4,1.6,0,3,0,4.8v12.5c0,1.8,1.4,3.2,3.2,3.2h14.1c1.8,0,3.2-1.4,3.2-3.2c0-0.4-0.4-0.8-0.8-0.8s-0.8,0.4-0.8,0.8
					c0,0.9-0.7,1.6-1.6,1.6H3.2c-0.9,0-1.6-0.7-1.6-1.6V4.8c0-0.9,0.7-1.6,1.6-1.6h1V4c0,0.4,0.4,0.8,0.8,0.8S5.8,4.4,5.8,4V3.2h3.6
					V4c0,0.4,0.4,0.8,0.8,0.8C10.6,4.8,11,4.4,11,4V3.2h3.6V4c0,0.4,0.4,0.8,0.8,0.8s0.8-0.4,0.8-0.8V3.2h1c0.9,0,1.6,0.7,1.6,1.6
					v8.5C18.8,13.7,19.2,14.1,19.6,14.1z"/>
				<circle class="st0" cx="5" cy="15.3" r="0.8"/>
				<circle class="st0" cx="5" cy="8.4" r="0.8"/>
				<circle class="st0" cx="5" cy="11.9" r="0.8"/>
				<circle class="st0" cx="8.5" cy="11.9" r="0.8"/>
				<circle class="st0" cx="8.5" cy="8.4" r="0.8"/>
				<circle class="st0" cx="8.5" cy="15.3" r="0.8"/>
			</g>
		</g>
	</g>
</g>
</svg>
