<svg xmlns="http://www.w3.org/2000/svg" viewBox="0 0 40.54 29.47"><defs><style>.cls-1{fill:#005090;}</style></defs><g id="Слой_2" data-name="Слой 2"><g id="Layer_4" data-name="Layer 4"><path class="cls-1" d="M34.16,24.46c-2-2.47-4.37-5.73-5.27-7a1.72,1.72,0,0,0-.2-.2l5.61-7H31.94L25.7,18.07s2.86,4.13,3.95,5.66c2.68,3.76,5.07,5.74,8.29,5.74a4.25,4.25,0,0,0,2.6-.78v0s-3.12-.23-6.38-4.21M19.22,7.65c.9,1.58,1.49,5,1.49,8.52V25.6H24V18.15c0-5.39-2-8.29-4.77-10.5"/><path class="cls-1" d="M18.51,16s.37-7.53-6-12.07C8,.65,4,0,1.89,0,.86,0,.33.28.1.84s0,1.38.91,2.23c1.76,1.72,3.11,4,2.7,6.72-.47,3.22-1,7.46,3.89,8.56a18.07,18.07,0,0,0,5,.45c-3.61,1.33-5,3.77-4.75,5.8.52,4,5.61,4.43,7.54,1.54a3.92,3.92,0,0,1-1.48.31,2.43,2.43,0,0,1-2.74-2.79c.21-3.18,5.15-5.69,5.15-5.69a.33.33,0,0,1-.1,0s-6.07-.51-7.79-3.08.06-5-.53-7.41a8.22,8.22,0,0,0-2.5-4S15.16,6.36,18.51,16"/></g></g></svg>