<?xml version="1.0" encoding="utf-8"?>
<!-- Generator: Adobe Illustrator 24.1.0, SVG Export Plug-In . SVG Version: 6.00 Build 0)  -->
<svg version="1.1" id="Layer_1" xmlns="http://www.w3.org/2000/svg" xmlns:xlink="http://www.w3.org/1999/xlink" x="0px" y="0px"
	 viewBox="0 0 12.8 161.9" style="enable-background:new 0 0 12.8 161.9;" xml:space="preserve">
<style type="text/css">
	.st0{enable-background:new    ;}
	.st1{fill:#005092;}
	.st2{fill:none;stroke:#67A1C4;stroke-miterlimit:10;}
	.st3{fill:#67A1C4;}
</style>
<g id="Слой_2">
	<g id="Layer_4">
		<g class="st0">
			<path class="st1" d="M4.5,1c0,0-1,0.9-1,2.1C3.5,4,4,4.6,4.8,4.6c1.8,0,1.5-4.1,4.1-4.1c1.3,0,2.3,1.1,2.3,2.7
				c0,0.9-0.4,2.4-1.6,2.4H8.9V4.5h0.4c0.4,0,0.8-0.6,0.8-1.3c0-0.9-0.5-1.5-1.1-1.5c-1.7,0-1.3,4.1-4.1,4.1c-1.3,0-2.4-1-2.4-2.7
				c0-1.8,1.3-2.8,1.3-2.8L4.5,1z"/>
			<path class="st1" d="M8.8,11.6c0,0.7-0.3,2.2-1.3,2.2H6.8v-1.1h0.3c0.4,0,0.6-0.7,0.6-1.1c0-1.2-0.9-2.1-2.2-2.1
				c-1.4,0-2.2,1-2.2,2.1c0,1.1,0.8,1.9,0.8,1.9l-0.8,0.5c0,0-1-0.9-1-2.5c0-1.9,1.4-3.2,3.2-3.2C7.4,8.4,8.8,9.7,8.8,11.6z"/>
		</g>
		<g class="st0">
			<path class="st1" d="M7.4,17.5c0.2,0,0.3-0.1,0.3-0.3v-0.5h1v1.1c0,0.5-0.2,0.8-0.7,0.8H7.6c-0.2,0-0.4,0-0.4,0v0
				c0.9,0.3,1.6,1,1.6,1.9c0,0.2,0,0.3,0,0.3H7.5c0,0,0-0.2,0-0.3c0-0.8-0.5-1.4-1.4-1.7c-0.3-0.1-0.7-0.1-1.1-0.1H2.6v-1.2H7.4z"/>
		</g>
		<g class="st0">
			<path class="st1" d="M8.8,26.1c0,1.8-1.3,3.3-3.2,3.3c-1.8,0-3.2-1.5-3.2-3.3c0-1.8,1.3-3.3,3.2-3.3C7.5,22.8,8.8,24.3,8.8,26.1z
				 M3.4,26.1c0,1.2,0.9,2.1,2.2,2.1c1.3,0,2.2-0.9,2.2-2.1C7.8,25,6.9,24,5.6,24C4.4,24,3.4,25,3.4,26.1z"/>
			<path class="st1" d="M9.8,32.3c0.2,0,0.3-0.1,0.3-0.3v-0.5h1v1.1c0,0.5-0.2,0.8-0.8,0.8H3.8c-0.2,0-0.3,0.1-0.3,0.3v0.5h-1V33
				c0-0.5,0.2-0.8,0.8-0.8H9.8z"/>
			<path class="st1" d="M9.8,36.9c0.2,0,0.3-0.1,0.3-0.3v-0.5h1v1.1c0,0.5-0.2,0.8-0.8,0.8H3.8c-0.2,0-0.3,0.1-0.3,0.3v0.5h-1v-1.1
				c0-0.5,0.2-0.8,0.8-0.8H9.8z"/>
		</g>
		<line class="st2" x1="7.1" y1="64" x2="7.1" y2="160.8"/>
		<polygon class="st3" points="3,157.5 3.7,156.8 7.1,160.4 10.4,156.8 11.1,157.5 7.1,161.9 		"/>
	</g>
</g>
</svg>
