<svg xmlns="http://www.w3.org/2000/svg" width="20.254" height="20.254" viewBox="0 0 20.254 20.254">
  <g id="time-icon" transform="translate(-1032.789 -789.968)">
    <path id="Контур_77" data-name="Контур 77" d="M1050.912,795.3a.844.844,0,0,0-.392,1.127,8.346,8.346,0,0,1,.836,3.671,8.439,8.439,0,1,1-8.44-8.439,8.34,8.34,0,0,1,5.24,1.82.844.844,0,0,0,1.05-1.321,10.129,10.129,0,1,0,3.837,7.94,10.016,10.016,0,0,0-1-4.406A.843.843,0,0,0,1050.912,795.3Z" fill="#65a2c2"/>
    <path id="Контур_78" data-name="Контур 78" d="M1042.916,793.344a.844.844,0,0,0-.843.843v5.908a.844.844,0,0,0,.843.844h4.22a.844.844,0,0,0,0-1.688h-3.376v-5.064A.844.844,0,0,0,1042.916,793.344Z" fill="#65a2c2"/>
  </g>
</svg>
