<?xml version="1.0" encoding="utf-8"?>
<!-- Generator: Adobe Illustrator 24.1.0, SVG Export Plug-In . SVG Version: 6.00 Build 0)  -->
<svg version="1.1" id="Layer_1" xmlns="http://www.w3.org/2000/svg" xmlns:xlink="http://www.w3.org/1999/xlink" x="0px" y="0px"
	 viewBox="0 0 2500 267" style="enable-background:new 0 0 2500 267;" xml:space="preserve">
<style type="text/css">
	.st0{fill:#004A89;}
</style>
<g>
	<g>
		<g>
			<g>
				<g>
					<g>
						<path class="st0" d="M36.1,35.9c-13.5,0-28.5-0.6-45.5-1.9v-1.1c69.6,5.5,105.5-1.8,142.9-9.4c43.4-8.8,88.3-18,190.6-6.8
							c107.6,11.8,169.7,7,235.4,2c66.6-5.1,135.5-10.4,256.3,3l0,0.4l0.1-0.4c34.7,5.7,63.7,9.3,88.3,11.2V34
							c-24.7-2-53.7-5.5-88.5-11.2c-120.7-13.4-189.5-8.1-256.1-3c-65.7,5-127.8,9.8-235.5-1.9c-102.1-11.1-146.9-2-190.3,6.8
							C105.4,30.3,78,35.9,36.1,35.9z"/>
					</g>
				</g>
				<g>
					<g>
						<path class="st0" d="M25.2,257.1c-12.7,0-24.1-0.5-34.6-1.4v-1.1c29.7,2.5,66.9,2.1,119.1-4.7c107.7-13.9,169.8-8.3,235.6-2.3
							c66.5,6.1,135.3,12.3,256-3.6c132.9-25.9,180.9-14.4,231.6-2.1c21.2,5.1,42.8,10.3,71.2,12.7v1.1
							c-28.5-2.4-50.2-7.6-71.5-12.8c-50.7-12.2-98.5-23.7-231.2,2.1l-0.1-0.5l0.1,0.5c-120.8,15.9-189.7,9.7-256.3,3.6
							c-65.7-6-127.7-11.6-235.3,2.3C76,255.4,48.5,257.1,25.2,257.1z"/>
						<path class="st0" d="M597.9,222.3C597.9,222.3,597.9,222.3,597.9,222.3c-58.7,11.4-100.8,15.6-134,15.6
							c-41.9,0-69.4-6.6-97.7-13.4c-43.4-10.4-88.2-21.2-190.3-8c-80.4,10.4-135.3,9.9-185.3,6.5v-1.1c50,3.4,104.9,3.9,185.2-6.5
							c102.3-13.2,147.2-2.4,190.6,8.1c50.7,12.2,98.5,23.7,231.2-2.1l0.1,0.5l-0.1-0.6c120.8-15.9,189.7-9.7,256.3-3.6
							c16.7,1.5,33.1,3,50.1,4.2v1.1c-17-1.2-33.5-2.7-50.2-4.2C787.4,212.7,718.6,206.4,597.9,222.3z"/>
						<path class="st0" d="M555.5,218.2c-33.1,0-75.2-3.5-133.9-13.1c0,0,0,0,0,0c-120.7-13.4-189.5-8.1-256-3
							c-52.3,4-102.3,7.9-174.9,3.3v-1.1c72.5,4.5,122.5,0.7,174.8-3.3c66.6-5.1,135.5-10.4,256.3,3l-0.1,0.6l0.1-0.6
							c132.7,21.9,180.6,12.1,231.3,1.8c43.4-8.8,88.3-18,190.6-6.8c21.9,2.4,42,4.1,60.5,5.3v1.1c-18.6-1.2-38.7-2.9-60.7-5.3
							c-102.1-11.1-146.9-2-190.3,6.8C624.8,212.6,597.4,218.2,555.5,218.2z"/>
						<path class="st0" d="M431.7,176.8c-102.1-11.1-146.9-2-190.3,6.8c-28.4,5.8-55.8,11.4-97.7,11.4c-33.1,0-75.2-3.5-133.9-13.1
							c0,0,0,0,0,0c-6.5-0.7-12.9-1.4-19.1-2v-1.1c6.3,0.6,12.7,1.3,19.3,2l0,0.4l0.1-0.4c132.7,21.9,180.6,12.1,231.3,1.8
							c43.4-8.8,88.3-18,190.6-6.8c107.6,11.8,169.7,7,235.4,1.9c63-4.8,128-9.8,237,1v1.1c-109-10.8-174-5.9-236.9-1
							C601.5,183.8,539.4,188.5,431.7,176.8z"/>
						<path class="st0" d="M554.6,157c-66.6,5.1-135.5,10.4-256.3-3l0.1-0.6l-0.1,0.6c-132.7-21.8-180.6-12.1-231.2-1.8
							c-22.5,4.6-45.4,9.2-76.4,11.1v-1.1c30.9-1.9,53.8-6.5,76.2-11.1c50.8-10.3,98.7-20.1,231.6,1.8v0c120.7,13.4,189.5,8.1,256,3
							c65.7-5.1,127.8-9.8,235.5,1.9c49.3,5.4,85.2,6,114.1,4.3v1.1c-9.1,0.6-18.9,0.9-29.6,0.9c-23.3,0-50.8-1.5-84.6-5.2
							C682.3,147.1,620.2,151.9,554.6,157z"/>
						<path class="st0" d="M445.1,127.6c-66.6,5.1-135.5,10.4-256.3-3l0.1-0.5l-0.1,0.5c-104.3-17.2-156.2-14.8-198.2-8v-1.1
							c42.1-6.8,94.1-9.1,198.4,8.1c120.7,13.4,189.5,8.1,256.1,3c65.7-5.1,127.8-9.8,235.5,1.9c102.1,11.1,146.9,2,190.3-6.8
							c10.9-2.2,21.7-4.4,33.3-6.3v1.1c-11.5,1.8-22.2,4-33,6.2c-29.1,5.9-58.8,12-106,12c-23.3,0-50.8-1.5-84.6-5.2
							C572.8,117.8,510.8,122.5,445.1,127.6z"/>
						<path class="st0" d="M462.1,112c-33.1,0-75.2-3.5-133.9-13.2c-120.7-13.4-189.5-8.1-256.1-3c-26.7,2.1-52.8,4.1-81.5,4.9v-1.1
							c28.7-0.9,54.8-2.9,81.4-4.9c66.6-5.1,135.5-10.4,256.3,3l0,0.4l0.1-0.4c132.7,21.8,180.6,12.1,231.3,1.8
							c43.4-8.8,88.3-18,190.6-6.8c64,7,111.8,8.1,153.9,6.9v1.1c-42.1,1.3-90,0.1-154-6.9c-102.1-11.2-146.9-2-190.3,6.8
							C531.5,106.4,504,112,462.1,112z"/>
						<path class="st0" d="M548.1,81.6c-66.6,5.1-135.5,10.4-256.3-3l0.1-0.6l-0.1,0.6C159.1,56.7,111.2,66.4,60.5,76.7
							c-20.9,4.2-42.1,8.6-69.9,10.7v-1.1c27.7-2.1,48.9-6.4,69.7-10.6c32.5-6.6,63.9-13,117.2-11c29.9,1.1,66.7,4.9,114.4,12.8
							c0,0,0,0,0,0c120.7,13.4,189.5,8.1,256,3c65.7-5.1,127.8-9.8,235.5,2c53.1,5.8,90.7,6.1,120.6,3.8v1.1
							c-10.9,0.8-22.8,1.3-36.1,1.3c-23.3,0-50.8-1.5-84.6-5.2C675.8,71.8,613.7,76.5,548.1,81.6z"/>
						<path class="st0" d="M335.3,58.3c-46,3.5-93.1,7.1-157.7,4.6c-28.9-1.1-61.2-3.5-98.5-7.7l0.1-0.5L79,55.3
							C44.2,49.5,15.3,46-9.4,44V43c24.7,2,53.7,5.5,88.5,11.2c0,0,0,0,0,0c120.7,13.4,189.5,8.1,256,3c65.7-5,127.8-9.8,235.6,2
							c102.1,11.2,146.9,2,190.3-6.8c37.5-7.6,73.4-14.9,143.1-9.4V44c-69.6-5.5-105.5,1.8-142.9,9.4c-29.1,5.9-58.8,12-106,12
							c-23.3,0-50.8-1.5-84.6-5.2C463,48.5,401,53.2,335.3,58.3z"/>
					</g>
				</g>
			</g>
			<g>
				<g>
					<g>
						<path class="st0" d="M949.6,35.9c-13.5,0-28.5-0.6-45.5-1.9v-1.1c69.6,5.5,105.5-1.8,142.9-9.4c43.4-8.8,88.3-18,190.6-6.8
							c107.6,11.8,169.7,7,235.3,2c66.6-5.1,135.4-10.4,256.3,3l0,0.4l0.1-0.4c34.7,5.7,63.7,9.3,88.3,11.2V34
							c-24.7-2-53.7-5.5-88.5-11.2c-120.7-13.4-189.5-8.1-256.1-3c-65.7,5-127.8,9.8-235.6-1.9c-102.1-11.1-146.9-2-190.3,6.8
							C1018.9,30.3,991.5,35.9,949.6,35.9z"/>
					</g>
				</g>
				<g>
					<g>
						<path class="st0" d="M938.7,257.1c-12.7,0-24.1-0.5-34.6-1.4v-1.1c29.7,2.5,66.9,2.1,119.1-4.7
							c107.7-13.9,169.8-8.3,235.6-2.3c66.5,6.1,135.3,12.3,256-3.6c132.9-25.9,180.9-14.4,231.6-2.1c21.2,5.1,42.8,10.3,71.2,12.7
							v1.1c-28.6-2.4-50.2-7.6-71.5-12.8c-50.7-12.2-98.5-23.7-231.2,2.1l-0.1-0.5l0.1,0.5c-120.8,15.9-189.7,9.7-256.3,3.6
							c-65.7-6-127.7-11.6-235.3,2.3C989.5,255.4,962,257.1,938.7,257.1z"/>
						<path class="st0" d="M1511.4,222.3C1511.4,222.3,1511.4,222.3,1511.4,222.3c-58.7,11.4-100.8,15.6-134,15.6
							c-41.9,0-69.4-6.6-97.7-13.4c-43.3-10.4-88.2-21.2-190.3-8c-80.3,10.4-135.3,9.9-185.3,6.5v-1.1c50,3.4,104.9,3.9,185.2-6.5
							c102.3-13.2,147.2-2.4,190.7,8.1c50.7,12.2,98.5,23.7,231.2-2.1l0.1,0.5l-0.1-0.6c120.8-15.9,189.7-9.7,256.3-3.6
							c16.7,1.5,33.1,3,50.1,4.2v1.1c-17.1-1.2-33.5-2.7-50.2-4.2C1700.9,212.7,1632.1,206.4,1511.4,222.3z"/>
						<path class="st0" d="M1469,218.2c-33.1,0-75.2-3.5-133.9-13.1c0,0,0,0,0,0c-120.7-13.4-189.5-8.1-256-3
							c-52.3,4-102.3,7.9-174.9,3.3v-1.1c72.5,4.5,122.5,0.7,174.8-3.3c66.6-5.1,135.5-10.4,256.3,3l-0.1,0.6l0.1-0.6
							c132.7,21.9,180.6,12.1,231.3,1.8c43.4-8.8,88.3-18,190.6-6.8c21.9,2.4,42,4.1,60.6,5.3v1.1c-18.6-1.2-38.7-2.9-60.7-5.3
							c-102.1-11.1-146.9-2-190.3,6.8C1538.3,212.6,1510.9,218.2,1469,218.2z"/>
						<path class="st0" d="M1345.2,176.8c-102.1-11.1-146.9-2-190.3,6.8c-28.3,5.8-55.8,11.4-97.7,11.4c-33.1,0-75.2-3.5-133.9-13.1
							c0,0,0,0,0,0c-6.5-0.7-12.9-1.4-19.1-2v-1.1c6.3,0.6,12.7,1.3,19.3,2l0,0.4l0.1-0.4c132.7,21.9,180.6,12.1,231.3,1.8
							c43.4-8.8,88.3-18,190.6-6.8c107.6,11.8,169.7,7,235.3,1.9c63-4.8,128-9.8,237,1v1.1c-109-10.8-174-5.9-236.9-1
							C1515,183.8,1452.9,188.5,1345.2,176.8z"/>
						<path class="st0" d="M1468.1,157c-66.6,5.1-135.4,10.4-256.3-3l0.1-0.6l-0.1,0.6c-132.7-21.8-180.6-12.1-231.2-1.8
							c-22.5,4.6-45.4,9.2-76.4,11.1v-1.1c30.9-1.9,53.8-6.5,76.2-11.1c50.8-10.3,98.7-20.1,231.6,1.8v0
							c120.7,13.4,189.5,8.1,256.1,3c65.7-5.1,127.8-9.8,235.6,1.9c49.3,5.4,85.2,6,114.1,4.3v1.1c-9.1,0.6-18.9,0.9-29.6,0.9
							c-23.3,0-50.8-1.5-84.6-5.2C1595.8,147.1,1533.8,151.9,1468.1,157z"/>
						<path class="st0" d="M1358.6,127.6c-66.6,5.1-135.4,10.4-256.3-3l0.1-0.5l-0.1,0.5c-104.3-17.2-156.2-14.8-198.2-8v-1.1
							c42.1-6.8,94-9.1,198.4,8.1c120.7,13.4,189.5,8.1,256.1,3c65.7-5.1,127.8-9.8,235.6,1.9c102.1,11.1,146.9,2,190.3-6.8
							c10.9-2.2,21.7-4.4,33.3-6.3v1.1c-11.5,1.8-22.2,4-33.1,6.2c-29.1,5.9-58.8,12-106,12c-23.3,0-50.8-1.5-84.6-5.2
							C1486.4,117.8,1424.3,122.5,1358.6,127.6z"/>
						<path class="st0" d="M1375.7,112c-33.1,0-75.2-3.5-133.9-13.2c-120.7-13.4-189.5-8.1-256.1-3c-26.7,2.1-52.8,4.1-81.5,4.9
							v-1.1c28.7-0.9,54.8-2.9,81.5-4.9c66.6-5.1,135.5-10.4,256.3,3l0,0.4l0.1-0.4c132.7,21.8,180.6,12.1,231.3,1.8
							c43.4-8.8,88.3-18,190.6-6.8c63.9,7,111.8,8.1,153.9,6.9v1.1c-42.1,1.3-90,0.1-154-6.9c-102.1-11.2-146.9-2-190.3,6.8
							C1445,106.4,1417.6,112,1375.7,112z"/>
						<path class="st0" d="M1461.6,81.6c-66.6,5.1-135.4,10.4-256.3-3l0.1-0.6l-0.1,0.6c-132.7-21.8-180.6-12.1-231.2-1.8
							c-20.9,4.2-42.1,8.6-69.9,10.7v-1.1c27.7-2.1,48.9-6.4,69.7-10.6c32.5-6.6,63.9-13,117.2-11c29.9,1.1,66.7,4.9,114.4,12.8
							c0,0,0,0,0,0c120.7,13.4,189.5,8.1,256,3c65.7-5.1,127.8-9.8,235.6,2c53.1,5.8,90.7,6.1,120.6,3.8v1.1
							c-10.9,0.8-22.8,1.3-36.1,1.3c-23.3,0-50.8-1.5-84.6-5.2C1589.3,71.8,1527.3,76.5,1461.6,81.6z"/>
						<path class="st0" d="M1248.8,58.3c-46,3.5-93.1,7.1-157.7,4.6c-28.9-1.1-61.2-3.5-98.5-7.7l0.1-0.5l-0.1,0.5
							c-34.8-5.7-63.7-9.3-88.3-11.2V43c24.7,2,53.7,5.5,88.5,11.2c0,0,0,0,0,0c120.7,13.4,189.5,8.1,256,3
							c65.7-5,127.8-9.8,235.6,2c102.1,11.2,146.9,2,190.3-6.8c37.5-7.6,73.4-14.9,143.1-9.4V44c-69.6-5.5-105.5,1.8-142.9,9.4
							c-29.1,5.9-58.8,12-106,12c-23.3,0-50.8-1.5-84.6-5.2C1376.5,48.5,1314.5,53.2,1248.8,58.3z"/>
					</g>
				</g>
			</g>
		</g>
		<g>
			<g>
				<g>
					<g>
						<path class="st0" d="M1863.1,35.9c-13.5,0-28.5-0.6-45.4-1.9v-1.1c69.6,5.5,105.5-1.8,142.9-9.4c43.4-8.8,88.3-18,190.6-6.8
							c107.6,11.8,169.7,7,235.4,2c66.6-5.1,135.4-10.4,256.3,3l0,0.4l0.1-0.4c34.7,5.7,63.6,9.3,88.3,11.2V34
							c-24.7-2-53.7-5.5-88.5-11.2c-120.7-13.4-189.5-8.1-256.1-3c-65.7,5-127.8,9.8-235.6-1.9c-102.1-11.1-146.9-2-190.3,6.8
							C1932.4,30.3,1905,35.9,1863.1,35.9z"/>
					</g>
				</g>
				<g>
					<g>
						<path class="st0" d="M1852.2,257.1c-12.7,0-24.1-0.5-34.6-1.4v-1.1c29.7,2.5,66.9,2.1,119.1-4.7
							c107.7-13.9,169.8-8.3,235.6-2.3c66.5,6.1,135.3,12.3,256-3.6c132.9-25.9,180.9-14.4,231.6-2.1c21.2,5.1,42.8,10.3,71.2,12.7
							v1.1c-28.6-2.4-50.2-7.6-71.5-12.8c-50.7-12.2-98.5-23.7-231.2,2.1l-0.1-0.5l0.1,0.5c-120.8,15.9-189.7,9.7-256.3,3.6
							c-65.7-6-127.7-11.6-235.3,2.3C1903,255.4,1875.5,257.1,1852.2,257.1z"/>
						<path class="st0" d="M2424.9,222.3C2424.9,222.3,2424.9,222.3,2424.9,222.3c-58.7,11.4-100.8,15.6-133.9,15.6
							c-41.9,0-69.4-6.6-97.7-13.4c-43.4-10.4-88.2-21.2-190.3-8c-80.3,10.4-135.3,9.9-185.3,6.5v-1.1c50,3.4,104.9,3.9,185.2-6.5
							c102.3-13.2,147.2-2.4,190.6,8.1c50.7,12.2,98.5,23.7,231.2-2.1l0.1,0.5l-0.1-0.6c120.8-15.9,189.7-9.7,256.3-3.6
							c16.7,1.5,33.1,3,50.1,4.2v1.1c-17.1-1.2-33.5-2.7-50.2-4.2C2614.4,212.7,2545.6,206.4,2424.9,222.3z"/>
						<path class="st0" d="M2382.5,218.2c-33.1,0-75.2-3.5-133.9-13.1c0,0,0,0,0,0c-120.7-13.4-189.5-8.1-256-3
							c-52.3,4-102.3,7.9-174.9,3.3v-1.1c72.5,4.5,122.5,0.7,174.8-3.3c66.6-5.1,135.5-10.4,256.3,3l-0.1,0.6l0.1-0.6
							c132.7,21.9,180.6,12.1,231.3,1.8c43.4-8.8,88.4-18,190.6-6.8c21.9,2.4,42,4.1,60.6,5.3v1.1c-18.6-1.2-38.7-2.9-60.7-5.3
							c-102.1-11.1-146.9-2-190.3,6.8C2451.8,212.6,2424.4,218.2,2382.5,218.2z"/>
						<path class="st0" d="M2258.7,176.8c-102.1-11.1-146.9-2-190.3,6.8c-28.3,5.8-55.8,11.4-97.7,11.4c-33.1,0-75.2-3.5-133.9-13.1
							c0,0,0,0,0,0c-6.5-0.7-12.9-1.4-19.1-2v-1.1c6.3,0.6,12.7,1.3,19.3,2l0,0.4l0.1-0.4c132.7,21.9,180.6,12.1,231.3,1.8
							c43.4-8.8,88.3-18,190.6-6.8c107.6,11.8,169.7,7,235.4,1.9c63-4.8,128-9.8,237,1v1.1c-109-10.8-174-5.9-236.9-1
							C2428.5,183.8,2366.4,188.5,2258.7,176.8z"/>
						<path class="st0" d="M2381.6,157c-66.6,5.1-135.4,10.4-256.3-3l0.1-0.6l-0.1,0.6c-132.7-21.8-180.6-12.1-231.2-1.8
							c-22.5,4.6-45.4,9.2-76.4,11.1v-1.1c30.9-1.9,53.8-6.5,76.2-11.1c50.8-10.3,98.7-20.1,231.6,1.8v0
							c120.7,13.4,189.5,8.1,256.1,3c65.7-5.1,127.8-9.8,235.6,1.9c49.3,5.4,85.2,6,114.1,4.3v1.1c-9.1,0.6-18.9,0.9-29.6,0.9
							c-23.3,0-50.8-1.5-84.6-5.2C2509.3,147.1,2447.2,151.9,2381.6,157z"/>
						<path class="st0" d="M2272.1,127.6c-66.6,5.1-135.4,10.4-256.3-3l0.1-0.5l-0.1,0.5c-104.3-17.2-156.2-14.8-198.2-8v-1.1
							c42.1-6.8,94.1-9.1,198.3,8.1c120.7,13.4,189.5,8.1,256.1,3c65.7-5.1,127.8-9.8,235.6,1.9c102.1,11.1,146.9,2,190.3-6.8
							c10.9-2.2,21.7-4.4,33.3-6.3v1.1c-11.5,1.8-22.2,4-33.1,6.2c-29.1,5.9-58.8,12-106,12c-23.3,0-50.8-1.5-84.6-5.2
							C2399.8,117.8,2337.8,122.5,2272.1,127.6z"/>
						<path class="st0" d="M2289.1,112c-33.1,0-75.2-3.5-133.9-13.2c-120.7-13.4-189.5-8.1-256.1-3c-26.7,2.1-52.8,4.1-81.5,4.9
							v-1.1c28.7-0.9,54.8-2.9,81.5-4.9c66.6-5.1,135.5-10.4,256.3,3l0,0.4l0.1-0.4c132.7,21.8,180.6,12.1,231.3,1.8
							c43.4-8.8,88.3-18,190.6-6.8c63.9,7,111.8,8.1,153.9,6.9v1.1c-42.1,1.3-90,0.1-154-6.9c-102.1-11.2-146.9-2-190.3,6.8
							C2358.5,106.4,2331,112,2289.1,112z"/>
						<path class="st0" d="M2375.1,81.6c-66.6,5.1-135.4,10.4-256.3-3l0.1-0.6l-0.1,0.6c-132.7-21.8-180.6-12.1-231.2-1.8
							c-20.9,4.2-42.1,8.6-69.9,10.7v-1.1c27.7-2.1,48.9-6.4,69.7-10.6c32.5-6.6,63.9-13,117.2-11c29.9,1.1,66.7,4.9,114.5,12.8
							c0,0,0,0,0,0c120.7,13.4,189.5,8.1,256,3c65.7-5.1,127.8-9.8,235.6,2c53.1,5.8,90.7,6.1,120.6,3.8v1.1
							c-10.9,0.8-22.8,1.3-36.1,1.3c-23.3,0-50.8-1.5-84.6-5.2C2502.8,71.8,2440.7,76.5,2375.1,81.6z"/>
						<path class="st0" d="M2162.3,58.3c-46,3.5-93.1,7.1-157.7,4.6c-28.9-1.1-61.2-3.5-98.5-7.7l0.1-0.5l-0.1,0.5
							c-34.8-5.7-63.7-9.3-88.3-11.2V43c24.7,2,53.7,5.5,88.5,11.2c0,0,0,0,0,0c120.7,13.4,189.5,8.1,256,3
							c65.7-5,127.8-9.8,235.6,2c102.1,11.2,146.9,2,190.3-6.8c37.5-7.6,73.4-14.9,143.1-9.4V44c-69.6-5.5-105.5,1.8-142.9,9.4
							c-29.1,5.9-58.8,12-106,12c-23.3,0-50.8-1.5-84.6-5.2C2290,48.5,2227.9,53.2,2162.3,58.3z"/>
					</g>
				</g>
			</g>
			<g>
				<g>
					<g>
						<path class="st0" d="M2776.6,35.9c-13.5,0-28.5-0.6-45.4-1.9v-1.1c69.6,5.5,105.5-1.8,142.9-9.4c43.4-8.8,88.3-18,190.6-6.8
							c107.6,11.8,169.7,7,235.4,2c66.6-5.1,135.4-10.4,256.3,3l0,0.4l0.1-0.4c34.7,5.7,63.6,9.3,88.3,11.2V34
							c-24.7-2-53.7-5.5-88.5-11.2c-120.7-13.4-189.5-8.1-256.1-3c-65.7,5-127.8,9.8-235.6-1.9c-102.1-11.1-146.9-2-190.3,6.8
							C2845.9,30.3,2818.5,35.9,2776.6,35.9z"/>
					</g>
				</g>
				<g>
					<g>
						<path class="st0" d="M2765.7,257.1c-12.7,0-24.1-0.5-34.6-1.4v-1.1c29.7,2.5,66.9,2.1,119.1-4.7
							c107.7-13.9,169.8-8.3,235.6-2.3c66.5,6.1,135.3,12.3,256-3.6c132.9-25.9,180.9-14.4,231.6-2.1c21.2,5.1,42.8,10.3,71.2,12.7
							v1.1c-28.6-2.4-50.2-7.6-71.5-12.8c-50.7-12.2-98.5-23.7-231.2,2.1l-0.1-0.5l0.1,0.5c-120.8,15.9-189.7,9.7-256.3,3.6
							c-65.7-6-127.7-11.6-235.3,2.3C2816.6,255.4,2789,257.1,2765.7,257.1z"/>
						<path class="st0" d="M3338.4,222.3C3338.4,222.3,3338.4,222.3,3338.4,222.3c-58.7,11.4-100.8,15.6-133.9,15.6
							c-41.9,0-69.4-6.6-97.7-13.4c-43.4-10.4-88.2-21.2-190.3-8c-80.4,10.4-135.3,9.9-185.3,6.5v-1.1c50,3.4,104.9,3.9,185.2-6.5
							c102.3-13.2,147.2-2.4,190.6,8.1c50.7,12.2,98.5,23.7,231.2-2.1l0.1,0.5l-0.1-0.6c120.8-15.9,189.7-9.7,256.3-3.6
							c16.7,1.5,33.1,3,50.1,4.2v1.1c-17.1-1.2-33.5-2.7-50.2-4.2C3527.9,212.7,3459.1,206.4,3338.4,222.3z"/>
						<path class="st0" d="M3296,218.2c-33.1,0-75.2-3.5-133.9-13.1c0,0,0,0,0,0c-120.7-13.4-189.5-8.1-256-3
							c-52.3,4-102.3,7.9-174.9,3.3v-1.1c72.5,4.5,122.5,0.7,174.8-3.3c66.6-5.1,135.5-10.4,256.3,3l-0.1,0.6l0.1-0.6
							c132.7,21.9,180.6,12.1,231.3,1.8c43.4-8.8,88.3-18,190.6-6.8c21.9,2.4,42,4.1,60.6,5.3v1.1c-18.6-1.2-38.7-2.9-60.7-5.3
							c-102.1-11.1-146.9-2-190.3,6.8C3365.4,212.6,3337.9,218.2,3296,218.2z"/>
						<path class="st0" d="M3172.2,176.8c-102.1-11.1-146.9-2-190.3,6.8c-28.4,5.8-55.8,11.4-97.7,11.4c-33.1,0-75.2-3.5-133.9-13.1
							c0,0,0,0,0,0c-6.5-0.7-12.9-1.4-19.1-2v-1.1c6.3,0.6,12.7,1.3,19.3,2l0,0.4l0.1-0.4c132.7,21.9,180.6,12.1,231.3,1.8
							c43.4-8.8,88.3-18,190.6-6.8c107.6,11.8,169.7,7,235.4,1.9c63-4.8,128-9.8,237,1v1.1c-109-10.8-174-5.9-236.9-1
							C3342,183.8,3279.9,188.5,3172.2,176.8z"/>
						<path class="st0" d="M3295.1,157c-66.6,5.1-135.4,10.4-256.3-3l0.1-0.6l-0.1,0.6c-132.7-21.8-180.6-12.1-231.2-1.8
							c-22.5,4.6-45.4,9.2-76.4,11.1v-1.1c30.9-1.9,53.8-6.5,76.2-11.1c50.8-10.3,98.7-20.1,231.6,1.8v0
							c120.7,13.4,189.5,8.1,256.1,3c65.7-5.1,127.8-9.8,235.6,1.9c49.3,5.4,85.2,6,114.1,4.3v1.1c-9.1,0.6-18.9,0.9-29.6,0.9
							c-23.3,0-50.8-1.5-84.6-5.2C3422.8,147.1,3360.8,151.9,3295.1,157z"/>
						<path class="st0" d="M3185.6,127.6c-66.6,5.1-135.4,10.4-256.3-3l0.1-0.5l-0.1,0.5c-104.3-17.2-156.2-14.8-198.2-8v-1.1
							c42.1-6.8,94.1-9.1,198.4,8.1c120.7,13.4,189.5,8.1,256.1,3c65.7-5.1,127.8-9.8,235.6,1.9c102.1,11.1,146.9,2,190.3-6.8
							c10.9-2.2,21.7-4.4,33.3-6.3v1.1c-11.5,1.8-22.2,4-33.1,6.2c-29.1,5.9-58.8,12-106,12c-23.3,0-50.8-1.5-84.6-5.2
							C3313.4,117.8,3251.3,122.5,3185.6,127.6z"/>
						<path class="st0" d="M3202.7,112c-33.1,0-75.2-3.5-133.9-13.2c-120.7-13.4-189.5-8.1-256.1-3c-26.7,2.1-52.8,4.1-81.5,4.9
							v-1.1c28.7-0.9,54.8-2.9,81.5-4.9c66.6-5.1,135.5-10.4,256.3,3l0,0.4l0.1-0.4c132.7,21.8,180.6,12.1,231.3,1.8
							c43.4-8.8,88.4-18,190.6-6.8c63.9,7,111.8,8.1,153.9,6.9v1.1c-42.1,1.3-90,0.1-154-6.9c-102.1-11.2-146.9-2-190.3,6.8
							C3272,106.4,3244.6,112,3202.7,112z"/>
						<path class="st0" d="M3288.6,81.6c-66.6,5.1-135.4,10.4-256.3-3l0.1-0.6l-0.1,0.6c-132.7-21.8-180.6-12.1-231.2-1.8
							c-20.9,4.2-42.1,8.6-69.9,10.7v-1.1c27.7-2.1,48.9-6.4,69.7-10.6c32.5-6.6,63.9-13,117.2-11c29.9,1.1,66.7,4.9,114.4,12.8
							c0,0,0,0,0,0c120.7,13.4,189.5,8.1,256,3c65.7-5.1,127.8-9.8,235.6,2c53.1,5.8,90.7,6.1,120.6,3.8v1.1
							c-10.9,0.8-22.8,1.3-36.1,1.3c-23.3,0-50.8-1.5-84.6-5.2C3416.3,71.8,3354.3,76.5,3288.6,81.6z"/>
						<path class="st0" d="M3075.8,58.3c-46,3.5-93.1,7.1-157.7,4.6c-28.9-1.1-61.2-3.5-98.5-7.7l0.1-0.5l-0.1,0.5
							c-34.8-5.7-63.7-9.3-88.4-11.2V43c24.7,2,53.7,5.5,88.5,11.2c0,0,0,0,0,0c120.7,13.4,189.5,8.1,256,3
							c65.7-5,127.8-9.8,235.6,2c102.1,11.2,146.9,2,190.3-6.8c37.5-7.6,73.4-14.9,143.1-9.4V44c-69.6-5.5-105.5,1.8-142.9,9.4
							c-29.1,5.9-58.8,12-106,12c-23.3,0-50.8-1.5-84.6-5.2C3203.5,48.5,3141.5,53.2,3075.8,58.3z"/>
					</g>
				</g>
			</g>
		</g>
	</g>
	<g>
		<g>
			<g>
				<g>
					<g>
						<path class="st0" d="M-3617.9,35.9c-13.5,0-28.5-0.6-45.4-1.9v-1.1c69.6,5.5,105.5-1.8,142.9-9.4c43.4-8.8,88.3-18,190.6-6.8
							c107.6,11.8,169.7,7,235.4,2c66.6-5.1,135.4-10.4,256.3,3l0,0.4l0.1-0.4c34.7,5.7,63.6,9.3,88.3,11.2V34
							c-24.7-2-53.7-5.5-88.5-11.2c-120.7-13.4-189.5-8.1-256.1-3c-65.7,5-127.8,9.8-235.6-1.9c-102.1-11.1-146.9-2-190.3,6.8
							C-3548.6,30.3-3576,35.9-3617.9,35.9z"/>
					</g>
				</g>
				<g>
					<g>
						<path class="st0" d="M-3628.8,257.1c-12.7,0-24.1-0.5-34.6-1.4v-1.1c29.7,2.5,66.9,2.1,119.1-4.7
							c107.7-13.9,169.8-8.3,235.6-2.3c66.5,6.1,135.3,12.3,256-3.6c132.9-25.9,180.9-14.4,231.6-2.1c21.2,5.1,42.8,10.3,71.2,12.7
							v1.1c-28.6-2.4-50.2-7.6-71.5-12.8c-50.7-12.2-98.5-23.7-231.2,2.1l-0.1-0.5l0.1,0.5c-120.8,15.9-189.7,9.7-256.3,3.6
							c-65.7-6-127.7-11.6-235.3,2.3C-3578,255.4-3605.5,257.1-3628.8,257.1z"/>
						<path class="st0" d="M-3056.1,222.3C-3056.1,222.3-3056.1,222.3-3056.1,222.3c-58.7,11.4-100.8,15.6-133.9,15.6
							c-41.9,0-69.4-6.6-97.7-13.4c-43.4-10.4-88.2-21.2-190.3-8c-80.4,10.4-135.3,9.9-185.3,6.5v-1.1c50,3.4,104.9,3.9,185.2-6.5
							c102.3-13.2,147.2-2.4,190.6,8.1c50.7,12.2,98.5,23.7,231.2-2.1l0.1,0.5l-0.1-0.6c120.8-15.9,189.7-9.7,256.3-3.6
							c16.7,1.5,33.1,3,50.1,4.2v1.1c-17.1-1.2-33.5-2.7-50.2-4.2C-2866.6,212.7-2935.4,206.4-3056.1,222.3z"/>
						<path class="st0" d="M-3098.5,218.2c-33.1,0-75.2-3.5-133.9-13.1c0,0,0,0,0,0c-120.7-13.4-189.5-8.1-256-3
							c-52.3,4-102.3,7.9-174.9,3.3v-1.1c72.5,4.5,122.5,0.7,174.8-3.3c66.6-5.1,135.5-10.4,256.3,3l-0.1,0.6l0.1-0.6
							c132.7,21.9,180.6,12.1,231.3,1.8c43.4-8.8,88.4-18,190.6-6.8c21.9,2.4,42,4.1,60.6,5.3v1.1c-18.6-1.2-38.7-2.9-60.7-5.3
							c-102.1-11.1-146.9-2-190.3,6.8C-3029.2,212.6-3056.6,218.2-3098.5,218.2z"/>
						<path class="st0" d="M-3222.3,176.8c-102.1-11.1-146.9-2-190.3,6.8c-28.4,5.8-55.8,11.4-97.7,11.4
							c-33.1,0-75.2-3.5-133.9-13.1c0,0,0,0,0,0c-6.5-0.7-12.9-1.4-19.1-2v-1.1c6.3,0.6,12.7,1.3,19.3,2l0,0.4l0.1-0.4
							c132.7,21.9,180.6,12.1,231.3,1.8c43.4-8.8,88.3-18,190.6-6.8c107.6,11.8,169.7,7,235.4,1.9c63-4.8,128-9.8,237,1v1.1
							c-109-10.8-174-5.9-236.9-1C-3052.5,183.8-3114.6,188.5-3222.3,176.8z"/>
						<path class="st0" d="M-3099.4,157c-66.6,5.1-135.4,10.4-256.3-3l0.1-0.6l-0.1,0.6c-132.7-21.8-180.6-12.1-231.2-1.8
							c-22.5,4.6-45.4,9.2-76.4,11.1v-1.1c30.9-1.9,53.8-6.5,76.2-11.1c50.8-10.3,98.7-20.1,231.6,1.8v0
							c120.7,13.4,189.5,8.1,256.1,3c65.7-5.1,127.8-9.8,235.6,1.9c49.3,5.4,85.2,6,114.1,4.3v1.1c-9.1,0.6-18.9,0.9-29.6,0.9
							c-23.3,0-50.8-1.5-84.6-5.2C-2971.7,147.1-3033.8,151.9-3099.4,157z"/>
						<path class="st0" d="M-3208.9,127.6c-66.6,5.1-135.4,10.4-256.3-3l0.1-0.5l-0.1,0.5c-104.3-17.2-156.2-14.8-198.2-8v-1.1
							c42.1-6.8,94.1-9.1,198.4,8.1c120.7,13.4,189.5,8.1,256.1,3c65.7-5.1,127.8-9.8,235.6,1.9c102.1,11.1,146.9,2,190.3-6.8
							c10.9-2.2,21.7-4.4,33.3-6.3v1.1c-11.5,1.8-22.2,4-33.1,6.2c-29.1,5.9-58.8,12-106,12c-23.3,0-50.8-1.5-84.6-5.2
							C-3081.2,117.8-3143.2,122.5-3208.9,127.6z"/>
						<path class="st0" d="M-3191.9,112c-33.1,0-75.2-3.5-133.9-13.2c-120.7-13.4-189.5-8.1-256.1-3c-26.7,2.1-52.8,4.1-81.5,4.9
							v-1.1c28.7-0.9,54.8-2.9,81.4-4.9c66.6-5.1,135.5-10.4,256.3,3l0,0.4l0.1-0.4c132.7,21.8,180.6,12.1,231.3,1.8
							c43.4-8.8,88.3-18,190.6-6.8c63.9,7,111.8,8.1,153.9,6.9v1.1c-42.1,1.3-90,0.1-154-6.9c-102.1-11.2-146.9-2-190.3,6.8
							C-3122.5,106.4-3150,112-3191.9,112z"/>
						<path class="st0" d="M-3105.9,81.6c-66.6,5.1-135.4,10.4-256.3-3l0.1-0.6l-0.1,0.6c-132.7-21.8-180.6-12.1-231.2-1.8
							c-20.9,4.2-42.1,8.6-69.9,10.7v-1.1c27.7-2.1,48.9-6.4,69.7-10.6c32.5-6.6,63.9-13,117.2-11c29.9,1.1,66.7,4.9,114.4,12.8
							c0,0,0,0,0,0c120.7,13.4,189.5,8.1,256,3c65.7-5.1,127.8-9.8,235.6,2c53.1,5.8,90.7,6.1,120.6,3.8v1.1
							c-10.9,0.8-22.8,1.3-36.1,1.3c-23.3,0-50.8-1.5-84.6-5.2C-2978.2,71.8-3040.3,76.5-3105.9,81.6z"/>
						<path class="st0" d="M-3318.7,58.3c-46,3.5-93.1,7.1-157.7,4.6c-28.9-1.1-61.2-3.5-98.5-7.7l0.1-0.5l-0.1,0.5
							c-34.8-5.7-63.7-9.3-88.4-11.2V43c24.7,2,53.7,5.5,88.5,11.2c0,0,0,0,0,0c120.7,13.4,189.5,8.1,256,3
							c65.7-5,127.8-9.8,235.6,2c102.1,11.2,146.9,2,190.3-6.8c37.5-7.6,73.4-14.9,143.1-9.4V44c-69.6-5.5-105.5,1.8-142.9,9.4
							c-29.1,5.9-58.8,12-106,12c-23.3,0-50.8-1.5-84.6-5.2C-3191,48.5-3253.1,53.2-3318.7,58.3z"/>
					</g>
				</g>
			</g>
			<g>
				<g>
					<g>
						<path class="st0" d="M-2704.4,35.9c-13.5,0-28.5-0.6-45.4-1.9v-1.1c69.6,5.5,105.5-1.8,142.9-9.4c43.4-8.8,88.3-18,190.6-6.8
							c107.6,11.8,169.7,7,235.4,2c66.6-5.1,135.4-10.4,256.3,3l0,0.4l0.1-0.4c34.7,5.7,63.7,9.3,88.3,11.2V34
							c-24.7-2-53.7-5.5-88.5-11.2c-120.7-13.4-189.5-8.1-256.1-3c-65.7,5-127.8,9.8-235.6-1.9c-102.1-11.1-146.9-2-190.3,6.8
							C-2635.1,30.3-2662.5,35.9-2704.4,35.9z"/>
					</g>
				</g>
				<g>
					<g>
						<path class="st0" d="M-2715.3,257.1c-12.7,0-24.1-0.5-34.6-1.4v-1.1c29.7,2.5,66.9,2.1,119.1-4.7
							c107.7-13.9,169.8-8.3,235.6-2.3c66.5,6.1,135.3,12.3,256-3.6c132.9-25.9,180.9-14.4,231.6-2.1c21.2,5.1,42.8,10.3,71.2,12.7
							v1.1c-28.6-2.4-50.2-7.6-71.5-12.8c-50.7-12.2-98.5-23.7-231.2,2.1l-0.1-0.5l0.1,0.5c-120.8,15.9-189.7,9.7-256.3,3.6
							c-65.7-6-127.7-11.6-235.3,2.3C-2664.4,255.4-2692,257.1-2715.3,257.1z"/>
						<path class="st0" d="M-2142.6,222.3C-2142.6,222.3-2142.6,222.3-2142.6,222.3c-58.7,11.4-100.8,15.6-133.9,15.6
							c-41.9,0-69.4-6.6-97.7-13.4c-43.4-10.4-88.2-21.2-190.3-8c-80.4,10.4-135.3,9.9-185.3,6.5v-1.1c50,3.4,104.9,3.9,185.2-6.5
							c102.3-13.2,147.2-2.4,190.6,8.1c50.7,12.2,98.5,23.7,231.2-2.1l0.1,0.5l-0.1-0.6c120.8-15.9,189.7-9.7,256.3-3.6
							c16.7,1.5,33.1,3,50.1,4.2v1.1c-17.1-1.2-33.5-2.7-50.2-4.2C-1953.1,212.7-2021.9,206.4-2142.6,222.3z"/>
						<path class="st0" d="M-2185,218.2c-33.1,0-75.2-3.5-133.9-13.1c0,0,0,0,0,0c-120.7-13.4-189.5-8.1-256-3
							c-52.3,4-102.3,7.9-174.9,3.3v-1.1c72.5,4.5,122.5,0.7,174.8-3.3c66.6-5.1,135.5-10.4,256.3,3l-0.1,0.6l0.1-0.6
							c132.7,21.9,180.6,12.1,231.3,1.8c43.4-8.8,88.3-18,190.6-6.8c21.9,2.4,42,4.1,60.6,5.3v1.1c-18.6-1.2-38.7-2.9-60.7-5.3
							c-102.1-11.1-146.9-2-190.3,6.8C-2115.6,212.6-2143.1,218.2-2185,218.2z"/>
						<path class="st0" d="M-2308.8,176.8c-102.1-11.1-146.9-2-190.3,6.8c-28.4,5.8-55.8,11.4-97.7,11.4
							c-33.1,0-75.2-3.5-133.9-13.1c0,0,0,0,0,0c-6.5-0.7-12.9-1.4-19.1-2v-1.1c6.3,0.6,12.7,1.3,19.3,2l0,0.4l0.1-0.4
							c132.7,21.9,180.6,12.1,231.3,1.8c43.4-8.8,88.3-18,190.6-6.8c107.6,11.8,169.7,7,235.4,1.9c63-4.8,128-9.8,237,1v1.1
							c-109-10.8-174-5.9-236.9-1C-2139,183.8-2201.1,188.5-2308.8,176.8z"/>
						<path class="st0" d="M-2185.9,157c-66.6,5.1-135.4,10.4-256.3-3l0.1-0.6l-0.1,0.6c-132.7-21.8-180.6-12.1-231.2-1.8
							c-22.5,4.6-45.4,9.2-76.4,11.1v-1.1c30.9-1.9,53.8-6.5,76.2-11.1c50.8-10.3,98.7-20.1,231.6,1.8v0
							c120.7,13.4,189.5,8.1,256.1,3c65.7-5.1,127.8-9.8,235.6,1.9c49.3,5.4,85.2,6,114.1,4.3v1.1c-9.1,0.6-18.9,0.9-29.6,0.9
							c-23.3,0-50.8-1.5-84.6-5.2C-2058.2,147.1-2120.2,151.9-2185.9,157z"/>
						<path class="st0" d="M-2295.4,127.6c-66.6,5.1-135.4,10.4-256.3-3l0.1-0.5l-0.1,0.5c-104.3-17.2-156.2-14.8-198.2-8v-1.1
							c42.1-6.8,94.1-9.1,198.4,8.1c120.7,13.4,189.5,8.1,256.1,3c65.7-5.1,127.8-9.8,235.6,1.9c102.1,11.1,146.9,2,190.3-6.8
							c10.9-2.2,21.7-4.4,33.3-6.3v1.1c-11.5,1.8-22.2,4-33.1,6.2c-29.1,5.9-58.8,12-106,12c-23.3,0-50.8-1.5-84.6-5.2
							C-2167.6,117.8-2229.7,122.5-2295.4,127.6z"/>
						<path class="st0" d="M-2278.3,112c-33.1,0-75.2-3.5-133.9-13.2c-120.7-13.4-189.5-8.1-256.1-3c-26.7,2.1-52.8,4.1-81.5,4.9
							v-1.1c28.7-0.9,54.8-2.9,81.5-4.9c66.6-5.1,135.5-10.4,256.3,3l0,0.4l0.1-0.4c132.7,21.8,180.6,12.1,231.3,1.8
							c43.4-8.8,88.4-18,190.6-6.8c63.9,7,111.8,8.1,153.9,6.9v1.1c-42.1,1.3-90,0.1-154-6.9c-102.1-11.2-146.9-2-190.3,6.8
							C-2209,106.4-2236.4,112-2278.3,112z"/>
						<path class="st0" d="M-2192.4,81.6c-66.6,5.1-135.4,10.4-256.3-3l0.1-0.6l-0.1,0.6c-132.7-21.8-180.6-12.1-231.2-1.8
							c-20.9,4.2-42.1,8.6-69.9,10.7v-1.1c27.7-2.1,48.9-6.4,69.7-10.6c32.5-6.6,63.9-13,117.2-11c29.9,1.1,66.7,4.9,114.4,12.8
							c0,0,0,0,0,0c120.7,13.4,189.5,8.1,256,3c65.7-5.1,127.8-9.8,235.6,2c53.1,5.8,90.7,6.1,120.6,3.8v1.1
							c-10.9,0.8-22.8,1.3-36.1,1.3c-23.3,0-50.8-1.5-84.6-5.2C-2064.7,71.8-2126.7,76.5-2192.4,81.6z"/>
						<path class="st0" d="M-2405.2,58.3c-46,3.5-93.1,7.1-157.7,4.6c-28.9-1.1-61.2-3.5-98.5-7.7l0.1-0.5l-0.1,0.5
							c-34.8-5.7-63.7-9.3-88.4-11.2V43c24.7,2,53.7,5.5,88.5,11.2c0,0,0,0,0,0c120.7,13.4,189.5,8.1,256,3
							c65.7-5,127.8-9.8,235.6,2c102.1,11.2,146.9,2,190.3-6.8c37.5-7.6,73.4-14.9,143.1-9.4V44c-69.6-5.5-105.5,1.8-142.9,9.4
							c-29.1,5.9-58.8,12-106,12c-23.3,0-50.8-1.5-84.6-5.2C-2277.5,48.5-2339.5,53.2-2405.2,58.3z"/>
					</g>
				</g>
			</g>
		</g>
		<g>
			<g>
				<g>
					<g>
						<path class="st0" d="M-1790.9,35.9c-13.5,0-28.5-0.6-45.4-1.9v-1.1c69.6,5.5,105.5-1.8,142.9-9.4c43.4-8.8,88.3-18,190.6-6.8
							c107.6,11.8,169.7,7,235.3,2c66.6-5.1,135.4-10.4,256.3,3l0,0.4l0.1-0.4c34.7,5.7,63.7,9.3,88.3,11.2V34
							c-24.7-2-53.7-5.5-88.5-11.2c-120.7-13.4-189.5-8.1-256.1-3c-65.7,5-127.8,9.8-235.6-1.9c-102.1-11.1-146.9-2-190.3,6.8
							C-1721.6,30.3-1749,35.9-1790.9,35.9z"/>
					</g>
				</g>
				<g>
					<g>
						<path class="st0" d="M-1801.8,257.1c-12.7,0-24.1-0.5-34.6-1.4v-1.1c29.7,2.5,66.9,2.1,119.1-4.7
							c107.7-13.9,169.8-8.3,235.6-2.3c66.5,6.1,135.3,12.3,256-3.6c132.9-25.9,180.9-14.4,231.6-2.1c21.2,5.1,42.8,10.3,71.2,12.7
							v1.1c-28.5-2.4-50.2-7.6-71.5-12.8c-50.7-12.2-98.5-23.7-231.2,2.1l-0.1-0.5l0.1,0.5c-120.8,15.9-189.7,9.7-256.3,3.6
							c-65.7-6-127.7-11.6-235.3,2.3C-1751,255.4-1778.5,257.1-1801.8,257.1z"/>
						<path class="st0" d="M-1229.1,222.3C-1229.1,222.3-1229.1,222.3-1229.1,222.3c-58.7,11.4-100.8,15.6-134,15.6
							c-41.9,0-69.4-6.6-97.7-13.4c-43.3-10.4-88.2-21.2-190.3-8c-80.3,10.4-135.3,9.9-185.3,6.5v-1.1c50,3.4,104.9,3.9,185.2-6.5
							c102.3-13.2,147.2-2.4,190.7,8.1c50.7,12.2,98.5,23.7,231.2-2.1l0.1,0.5l-0.1-0.6c120.8-15.9,189.7-9.7,256.3-3.6
							c16.7,1.5,33.1,3,50.1,4.2v1.1c-17-1.2-33.5-2.7-50.2-4.2C-1039.6,212.7-1108.4,206.4-1229.1,222.3z"/>
						<path class="st0" d="M-1271.5,218.2c-33.1,0-75.2-3.5-133.9-13.1c0,0,0,0,0,0c-120.7-13.4-189.5-8.1-256-3
							c-52.3,4-102.3,7.9-174.9,3.3v-1.1c72.5,4.5,122.5,0.7,174.8-3.3c66.6-5.1,135.5-10.4,256.3,3l-0.1,0.6l0.1-0.6
							c132.7,21.9,180.6,12.1,231.3,1.8c43.4-8.8,88.3-18,190.6-6.8c21.9,2.4,42,4.1,60.5,5.3v1.1c-18.6-1.2-38.7-2.9-60.7-5.3
							c-102.1-11.1-146.9-2-190.3,6.8C-1202.2,212.6-1229.6,218.2-1271.5,218.2z"/>
						<path class="st0" d="M-1395.3,176.8c-102.1-11.1-146.9-2-190.3,6.8c-28.3,5.8-55.8,11.4-97.7,11.4
							c-33.1,0-75.2-3.5-133.9-13.1c0,0,0,0,0,0c-6.5-0.7-12.9-1.4-19.1-2v-1.1c6.3,0.6,12.7,1.3,19.3,2l0,0.4l0.1-0.4
							c132.7,21.9,180.6,12.1,231.3,1.8c43.4-8.8,88.3-18,190.6-6.8c107.6,11.8,169.7,7,235.3,1.9c63-4.8,128-9.8,237,1v1.1
							c-109-10.8-174-5.9-236.9-1C-1225.5,183.8-1287.6,188.5-1395.3,176.8z"/>
						<path class="st0" d="M-1272.4,157c-66.6,5.1-135.4,10.4-256.3-3l0.1-0.6l-0.1,0.6c-132.7-21.8-180.6-12.1-231.2-1.8
							c-22.5,4.6-45.4,9.2-76.4,11.1v-1.1c30.9-1.9,53.8-6.5,76.2-11.1c50.8-10.3,98.7-20.1,231.6,1.8v0c120.7,13.4,189.5,8.1,256,3
							c65.7-5.1,127.8-9.8,235.6,1.9c49.3,5.4,85.2,6,114.1,4.3v1.1c-9.1,0.6-18.9,0.9-29.6,0.9c-23.3,0-50.8-1.5-84.6-5.2
							C-1144.7,147.1-1206.8,151.9-1272.4,157z"/>
						<path class="st0" d="M-1381.9,127.6c-66.6,5.1-135.4,10.4-256.3-3l0.1-0.5l-0.1,0.5c-104.3-17.2-156.2-14.8-198.2-8v-1.1
							c42.1-6.8,94.1-9.1,198.3,8.1c120.7,13.4,189.5,8.1,256.1,3c65.7-5.1,127.8-9.8,235.6,1.9c102.1,11.1,146.9,2,190.3-6.8
							c10.9-2.2,21.7-4.4,33.3-6.3v1.1c-11.5,1.8-22.2,4-33,6.2c-29.1,5.9-58.8,12-106,12c-23.3,0-50.8-1.5-84.6-5.2
							C-1254.2,117.8-1316.2,122.5-1381.9,127.6z"/>
						<path class="st0" d="M-1364.8,112c-33.1,0-75.2-3.5-133.9-13.2c-120.7-13.4-189.5-8.1-256.1-3c-26.7,2.1-52.8,4.1-81.5,4.9
							v-1.1c28.7-0.9,54.8-2.9,81.5-4.9c66.6-5.1,135.5-10.4,256.3,3l0,0.4l0.1-0.4c132.7,21.8,180.6,12.1,231.3,1.8
							c43.4-8.8,88.3-18,190.6-6.8c64,7,111.8,8.1,153.9,6.9v1.1c-42.1,1.3-90,0.1-154-6.9c-102.1-11.2-146.9-2-190.3,6.8
							C-1295.5,106.4-1323,112-1364.8,112z"/>
						<path class="st0" d="M-1278.9,81.6c-66.6,5.1-135.4,10.4-256.3-3l0.1-0.6l-0.1,0.6c-132.7-21.8-180.6-12.1-231.2-1.8
							c-20.9,4.2-42.1,8.6-69.9,10.7v-1.1c27.7-2.1,48.9-6.4,69.7-10.6c32.5-6.6,63.9-13,117.2-11c29.9,1.1,66.7,4.9,114.4,12.8
							c0,0,0,0,0,0c120.7,13.4,189.5,8.1,256,3c65.7-5.1,127.8-9.8,235.6,2c53.1,5.8,90.7,6.1,120.6,3.8v1.1
							c-10.9,0.8-22.8,1.3-36.1,1.3c-23.3,0-50.8-1.5-84.6-5.2C-1151.2,71.8-1213.3,76.5-1278.9,81.6z"/>
						<path class="st0" d="M-1491.7,58.3c-46,3.5-93.1,7.1-157.7,4.6c-28.9-1.1-61.2-3.5-98.5-7.7l0.1-0.5l-0.1,0.5
							c-34.8-5.7-63.7-9.3-88.3-11.2V43c24.7,2,53.7,5.5,88.5,11.2c0,0,0,0,0,0c120.7,13.4,189.5,8.1,256,3
							c65.7-5,127.8-9.8,235.6,2c102.1,11.2,146.9,2,190.3-6.8c37.5-7.6,73.4-14.9,143.1-9.4V44c-69.6-5.5-105.5,1.8-142.9,9.4
							c-29.1,5.9-58.8,12-106,12c-23.3,0-50.8-1.5-84.6-5.2C-1364,48.5-1426.1,53.2-1491.7,58.3z"/>
					</g>
				</g>
			</g>
			<g>
				<g>
					<g>
						<path class="st0" d="M-877.4,35.9c-13.5,0-28.5-0.6-45.5-1.9v-1.1c69.6,5.5,105.5-1.8,142.9-9.4c43.4-8.8,88.3-18,190.6-6.8
							c107.6,11.8,169.7,7,235.4,2c66.6-5.1,135.4-10.4,256.3,3l0,0.4l0.1-0.4C-62.9,27.4-34,31-9.3,32.9V34
							c-24.7-2-53.7-5.5-88.5-11.2c-120.7-13.4-189.5-8.1-256.1-3c-65.7,5-127.8,9.8-235.6-1.9c-102.1-11.1-146.9-2-190.3,6.8
							C-808.1,30.3-835.5,35.9-877.4,35.9z"/>
					</g>
				</g>
				<g>
					<g>
						<path class="st0" d="M-888.3,257.1c-12.7,0-24.1-0.5-34.6-1.4v-1.1c29.7,2.5,66.9,2.1,119.1-4.7
							c107.7-13.9,169.8-8.3,235.6-2.3c66.5,6.1,135.3,12.3,256-3.6c132.9-25.9,180.9-14.4,231.6-2.1c21.2,5.1,42.8,10.3,71.2,12.7
							v1.1c-28.5-2.4-50.2-7.6-71.5-12.8c-50.7-12.2-98.5-23.7-231.2,2.1l-0.1-0.5l0.1,0.5c-120.8,15.9-189.7,9.7-256.3,3.6
							c-65.7-6-127.7-11.6-235.3,2.3C-837.5,255.4-865,257.1-888.3,257.1z"/>
						<path class="st0" d="M-315.6,222.3C-315.6,222.3-315.6,222.3-315.6,222.3c-58.7,11.4-100.8,15.6-133.9,15.6
							c-41.9,0-69.4-6.6-97.7-13.4c-43.3-10.4-88.2-21.2-190.3-8c-80.3,10.4-135.3,9.9-185.3,6.5v-1.1c50,3.4,104.9,3.9,185.2-6.5
							c102.3-13.2,147.2-2.4,190.7,8.1c50.7,12.2,98.5,23.7,231.2-2.1l0.1,0.5l-0.1-0.6c120.8-15.9,189.7-9.7,256.3-3.6
							c16.7,1.5,33.1,3,50.1,4.2v1.1c-17-1.2-33.5-2.7-50.2-4.2C-126.1,212.7-194.9,206.4-315.6,222.3z"/>
						<path class="st0" d="M-358,218.2c-33.1,0-75.2-3.5-133.9-13.1c0,0,0,0,0,0c-120.7-13.4-189.5-8.1-256-3
							c-52.3,4-102.3,7.9-174.9,3.3v-1.1c72.5,4.5,122.5,0.7,174.8-3.3c66.6-5.1,135.5-10.4,256.3,3l-0.1,0.6l0.1-0.6
							c132.7,21.9,180.6,12.1,231.3,1.8c43.4-8.8,88.4-18,190.6-6.8c21.9,2.4,42,4.1,60.5,5.3v1.1c-18.6-1.2-38.7-2.9-60.7-5.3
							c-102.1-11.1-146.9-2-190.3,6.8C-288.6,212.6-316.1,218.2-358,218.2z"/>
						<path class="st0" d="M-481.8,176.8c-102.1-11.1-146.9-2-190.3,6.8c-28.3,5.8-55.8,11.4-97.7,11.4c-33.1,0-75.2-3.5-133.9-13.1
							c0,0,0,0,0,0c-6.5-0.7-12.9-1.4-19.1-2v-1.1c6.3,0.6,12.7,1.3,19.3,2l0,0.4l0.1-0.4c132.7,21.9,180.6,12.1,231.3,1.8
							c43.4-8.8,88.3-18,190.6-6.8c107.6,11.8,169.7,7,235.4,1.9c63-4.8,128-9.8,237,1v1.1c-109-10.8-174-5.9-236.9-1
							C-312,183.8-374,188.5-481.8,176.8z"/>
						<path class="st0" d="M-358.9,157c-66.6,5.1-135.4,10.4-256.3-3l0.1-0.6l-0.1,0.6c-132.7-21.8-180.6-12.1-231.2-1.8
							c-22.5,4.6-45.4,9.2-76.4,11.1v-1.1c30.9-1.9,53.8-6.5,76.2-11.1c50.8-10.3,98.7-20.1,231.6,1.8v0c120.7,13.4,189.5,8.1,256,3
							c65.7-5.1,127.8-9.8,235.6,1.9c49.3,5.4,85.2,6,114.1,4.3v1.1c-9.1,0.6-18.9,0.9-29.6,0.9c-23.3,0-50.8-1.5-84.6-5.2
							C-231.2,147.1-293.2,151.9-358.9,157z"/>
						<path class="st0" d="M-468.4,127.6c-66.6,5.1-135.5,10.4-256.3-3l0.1-0.5l-0.1,0.5c-104.3-17.2-156.2-14.8-198.2-8v-1.1
							c42.1-6.8,94-9.1,198.3,8.1c120.7,13.4,189.5,8.1,256.1,3c65.7-5.1,127.8-9.8,235.6,1.9c102.1,11.1,146.9,2,190.3-6.8
							c10.9-2.2,21.7-4.4,33.3-6.3v1.1c-11.5,1.8-22.2,4-33,6.2c-29.1,5.9-58.8,12-106,12c-23.3,0-50.8-1.5-84.6-5.2
							C-340.6,117.8-402.7,122.5-468.4,127.6z"/>
						<path class="st0" d="M-451.3,112c-33.1,0-75.2-3.5-133.9-13.2c-120.7-13.4-189.5-8.1-256.1-3c-26.7,2.1-52.8,4.1-81.5,4.9
							v-1.1c28.7-0.9,54.8-2.9,81.5-4.9c66.6-5.1,135.5-10.4,256.3,3l0,0.4l0.1-0.4c132.7,21.8,180.6,12.1,231.3,1.8
							c43.4-8.8,88.4-18,190.6-6.8c63.9,7,111.8,8.1,153.9,6.9v1.1c-42.1,1.3-90,0.1-154-6.9c-102.1-11.2-146.9-2-190.3,6.8
							C-382,106.4-409.5,112-451.3,112z"/>
						<path class="st0" d="M-365.4,81.6c-66.6,5.1-135.4,10.4-256.3-3l0.1-0.6l-0.1,0.6C-754.4,56.7-802.3,66.4-853,76.7
							c-20.9,4.2-42.1,8.6-69.9,10.7v-1.1c27.7-2.1,48.9-6.4,69.7-10.6c32.5-6.6,63.9-13,117.2-11c29.9,1.1,66.7,4.9,114.5,12.8
							c0,0,0,0,0,0c120.7,13.4,189.5,8.1,256,3c65.7-5.1,127.8-9.8,235.6,2c53.1,5.8,90.7,6.1,120.6,3.8v1.1
							c-10.9,0.8-22.8,1.3-36.1,1.3c-23.3,0-50.8-1.5-84.6-5.2C-237.7,71.8-299.7,76.5-365.4,81.6z"/>
						<path class="st0" d="M-578.2,58.3c-46,3.5-93.1,7.1-157.7,4.6c-28.9-1.1-61.2-3.5-98.5-7.7l0.1-0.5l-0.1,0.5
							c-34.8-5.7-63.7-9.3-88.3-11.2V43c24.7,2,53.7,5.5,88.5,11.2c0,0,0,0,0,0c120.7,13.4,189.5,8.1,256,3
							c65.7-5,127.8-9.8,235.6,2c102.1,11.2,146.9,2,190.3-6.8C-115,44.8-79,37.5-9.3,43V44c-69.6-5.5-105.5,1.8-142.9,9.4
							c-29.1,5.9-58.8,12-106,12c-23.3,0-50.8-1.5-84.6-5.2C-450.5,48.5-512.5,53.2-578.2,58.3z"/>
					</g>
				</g>
			</g>
		</g>
	</g>
</g>
</svg>
