<svg xmlns="http://www.w3.org/2000/svg" viewBox="0 0 55.34 52.54"><defs><style>.cls-1{fill:#005092;}</style></defs><g id="Слой_2" data-name="Слой 2"><g id="Layer_4" data-name="Layer 4"><path class="cls-1" d="M.4,4.6c1.07-.71,4.22-2.29,13.36-2.74A114.53,114.53,0,0,1,26.38,2l0,.15c.09-.72.34-1.47-.3-1.87-.8-.51-9.38-.12-12-.12,0,0-7.44.46-10.36,1.43C2.43,2-.95,2.83.25,4.61Z"/><path class="cls-1" d="M55.29,45.73c-3.21,8.09-30.56,3.91-31.93,3.85-1.88-.08-16.15-.12-17.86-2a23,23,0,0,0,0,3.18c1.71,2,6.94,1.27,9.69,1.27s5.28,0,8.19.09c2.4.1,7.46.09,7.46.09.34,0,.52.25.87.29s.42-.36.85-.39.43.47.8.43.31-.34.76-.38.57.4,1,.4.48-.42.94-.41c.68,0,.83.4,1.58.4s.7-.47,1.29-.43c.4,0,.74.41,1,.44s.54-.36.77-.5a1.5,1.5,0,0,1,.86-.14c.26,0,.45.34.73.29s.39-.33.65-.43.31-.13.53,0,.49.33.8.26.45-.3.74-.4c.69-.09.75.32,1.1.25.2-.05.5-.35.7-.43a6,6,0,0,1,1,.19h0c.31.06.42-.23.73-.34s.59,0,.94.12a3.11,3.11,0,0,0,2-.38A20.75,20.75,0,0,0,54,49.7,2.74,2.74,0,0,0,55.33,47,5.91,5.91,0,0,0,55.29,45.73Z"/><path class="cls-1" d="M5.59,47.37c2.08,1.81,15.92,1.85,17.77,1.93,1.37.06,28.58,4.3,31.79-3.79A3.08,3.08,0,0,0,54,42.32l-.14,0A2.63,2.63,0,0,1,54.14,45a5.83,5.83,0,0,1-2.45,2.28,12.89,12.89,0,0,1-3.78,1.09C45.68,48.9,37,48.9,37,48.9c-4,0-19.09-1.21-22.49-1.39-1.77-.1-8.4.13-8.35-2.67a1.42,1.42,0,0,0-.68,2.4Z"/><path class="cls-1" d="M16.72,2c.3,2,.48,4,.66,6,.44,4.92.78,9.84,1.14,14.76.27,3.7.6,1.47.93,5.16.45,5.07.36,2.69,1.36,7.32A16.52,16.52,0,0,1,21,37.09l.09,0,.24-.08.13,0,.07,0c.23-.1.45-.21.67-.33.63-.34,1.24-.72,1.84-1.11s1.39-1,2-1.45a20.51,20.51,0,0,0,1.9-1.71c.27-.28.54-.57.78-.87l.1-.12.05-.06L29,31c.09-.13.18-.27.26-.41l.09-.11-.23-.23a9.21,9.21,0,0,1-1.37-4.69c-.36-5.35-.57-10.15-.57-15.51a47.58,47.58,0,0,0-.8-7.83C24.44,2.21,21.59,1.93,16.72,2Z"/><path class="cls-1" d="M6.08,37c-.38,2.44.28,5,.12,7.56,0,2.8,6.58,2.57,8.35,2.66C18,47.41,33,48.62,37,48.62c0,0,8.64,0,10.87-.52A12.58,12.58,0,0,0,51.69,47a5.65,5.65,0,0,0,2.39-2.24,3.25,3.25,0,0,0-.5-2.68c-2-4.73-18.09-9-23.53-10.85l0,0A10.48,10.48,0,0,1,28.56,33a25.64,25.64,0,0,1-4,3.25c-.6.39-1.21.77-1.85,1.11a6.23,6.23,0,0,1-1.37.61.46.46,0,0,1-.26,0c.27,3.07.56,6.14.92,9.2a.53.53,0,0,1-.37.53l-.49,0a.65.65,0,0,1-.28-.5c-.22-1.83-.4-3.66-.57-5.49-.48-5-.6-3.3-1.37-7.08-.85-4.17-.77-2.55-1.14-6.78s-.65-8.75-1-13.12q-.27-3.66-.6-7.31c-.1-1-.19-2-.31-3,0-.41-.09-.83-.15-1.25a1.1,1.1,0,0,0,0-.18h0v0c0-.09,0-.17,0-.25s0-.31-.07-.47a.57.57,0,0,1,0-.13l.57,0-2.39.09C4.52,2.6,1.4,4.2.36,4.9a15.56,15.56,0,0,0,0,6.18c.44,2.68,1.82,6.39,2.29,9.84C4.33,33.11,6.26,32.51,6.31,33.34A20.46,20.46,0,0,1,6.08,37Z"/></g></g></svg>