<svg xmlns="http://www.w3.org/2000/svg" viewBox="0 0 49.31 23.4"><defs><style>.cls-1{fill:#005092;}</style></defs><g id="Слой_2" data-name="Слой 2"><g id="Layer_4" data-name="Layer 4"><path class="cls-1" d="M36.16,16c-6.92.75-17,1.66-21.31,1.46C10.78,17.25,5,18,1.37,16.78A.93.93,0,0,1,.72,16h0a3.53,3.53,0,0,0,0,.69.93.93,0,0,0,.65.76c3,.94,9.43.27,13.5.46,4.34.21,14.31-.71,21.24-1.46,3.08-.34,10.66-2.38,11.16-3.57a.37.37,0,0,0-.36-.52C46.41,13.57,39.24,15.64,36.16,16Z"/><path class="cls-1" d="M47.4,13.26l-.13.06c-.5,1.19-8.08,3.24-11.16,3.57-6.92.75-16.91,1.67-21.24,1.47-4.07-.2-10.52.47-13.5-.47a.93.93,0,0,1-.65-.76h0c-.51.91-1.49,5,.6,5.65,3.53,1.07,18.76.43,19.61.44a84.41,84.41,0,0,0,19.83-1.73c1.82-.32,7.74-2.56,8.46-3.56C49.44,17.57,49.53,14,47.4,13.26ZM34.82,21a94.74,94.74,0,0,1-14.3.77c-.85,0-16.07.62-19.61-.44a1.53,1.53,0,0,1-.77-.53V20.2a1.47,1.47,0,0,0,.77.53c3.54,1.07,18.76.43,19.61.44a93.41,93.41,0,0,0,14.3-.77Z"/><path class="cls-1" d="M1.35,16.51c3.63,1.17,9.41.46,13.48.66,4.33.2,14.39-.72,21.31-1.47a31.31,31.31,0,0,0,4.62-1A12.81,12.81,0,0,1,38.92,13a12,12,0,0,0-3.09-1.61l0-.17a11.45,11.45,0,0,1,3,1.56c.41.37,1.53,1.73,2.11,1.78a14.23,14.23,0,0,0,3.81-1.08c1.16-.52,2-.71,2.1-1.47-.8-1.53-5.63-.31-7.32-.64a36.08,36.08,0,0,1-3.71-1.08,1.68,1.68,0,0,0-.41-.47.75.75,0,0,0-.51-.19.48.48,0,0,0-.36.19,0,0,0,0,0,0,0l-.12,0A2.43,2.43,0,0,0,34,9.32c-.24-.21-1-.68-1.39-.3l0,0-.14.07-1-.36a3.26,3.26,0,0,0-.89-.65l-.16-.07A.75.75,0,0,0,29.6,8a.23.23,0,0,0-.07.07l-1.46-.6A2.38,2.38,0,0,0,27,6.64a.42.42,0,0,0-.39.07s0,0,0,0C26,6.44,25.25,6,24.43,5.58a1.41,1.41,0,0,0-1-.57l-1.2-.68a.63.63,0,0,0-.34-.3.62.62,0,0,0-.21-.22A.93.93,0,0,0,21,3.66,42.69,42.69,0,0,0,13.46,0C11.16,2.09,9.9,3.87,13,6.44c.44-.52.5-1.32,1.36-1.73s2.43-.27,4.11.2L14.81,2.5,15.9,1c1.18.57,2.55,1.31,3.93,2.08L18.49,4.92h0L18.37,5l-.09.06a6,6,0,0,0-3.83-.12c-.85.41-.92,1.2-1.36,1.72h0c-.79,1.15-1.26,2.27-4.6,2.7C4.65,9.87,5.22,6.25,3,6.72c-1.88.79-1.65,3.44-1.72,5.44-.05,1.08-.56,2.51-.63,3.59h0A.92.92,0,0,0,1.35,16.51Zm19-6.64a1.09,1.09,0,0,1,0-2.17h.16l-.06.08c-.14.19-.29.37-.43.55a.54.54,0,0,0-.23.45.5.5,0,0,0,0,.12.6.6,0,0,0,.16.33.64.64,0,0,0,.44.17h0a.5.5,0,0,0,.37-.17l.46-.59.12-.15a1.35,1.35,0,0,1,0,.29A1.08,1.08,0,0,1,20.32,9.87Zm-.46-4.33.25-.1.48.17v0a1.16,1.16,0,0,0-.06.15ZM24,11.14a1.09,1.09,0,0,1,0-2.17,4.65,4.65,0,0,0-.53.83.59.59,0,0,0,.21.79.6.6,0,0,0,.29.08.52.52,0,0,0,.18,0,.48.48,0,0,0,.31-.24.4.4,0,0,0,.1-.18,4.09,4.09,0,0,1,.45-.64,1.08,1.08,0,0,1,.11.47A1.09,1.09,0,0,1,24,11.14ZM23,6.75l0,0,.14-.09.56.24.12.23ZM27.47,12a1.09,1.09,0,0,1,0-2.17h.07a8.39,8.39,0,0,0-.56.77.57.57,0,0,0-.07.44.6.6,0,0,0,.28.38.61.61,0,0,0,.3.08.6.6,0,0,0,.51-.29,5.49,5.49,0,0,1,.49-.67,1.17,1.17,0,0,1,.07.38A1.08,1.08,0,0,1,27.47,12Zm-1-3.84.16-.12.5.19.15.24ZM31.21,13A1.09,1.09,0,0,1,31,10.79a8.26,8.26,0,0,0-.38.79.61.61,0,0,0,.21.81.64.64,0,0,0,.31.07l.2,0a.51.51,0,0,0,.31-.26,9.13,9.13,0,0,1,.43-.89,1.06,1.06,0,0,1,.17.58A1.08,1.08,0,0,1,31.21,13ZM29.64,9.29l.13-.15h0l.52.17c.07.07.14.15.22.22l0,.06Zm4.88,4.48a1.08,1.08,0,0,1-.1-2.16L34.2,12l-.22.39a.63.63,0,0,0,.23.86.69.69,0,0,0,.32.08.63.63,0,0,0,.19,0,.61.61,0,0,0,.36-.28c.07-.14.15-.27.23-.41a3.07,3.07,0,0,0,.2-.36,1.14,1.14,0,0,1,.1.45A1.09,1.09,0,0,1,34.52,13.77Zm-1.67-3.42a.93.93,0,0,1,.14-.14l.59.2a.83.83,0,0,1,.06.21Zm1.75,1.21a279732080840.08,279732080840.08,0,0,1,0-.08c0-.05,0-.1,0-.14a2,2,0,0,0,.06-.26.05.05,0,0,0,0,0h0v-.16a1.71,1.71,0,0,0,0-.32,1.17,1.17,0,0,0-.07-.25c0-.14-.09-.27,0-.36h0a.37.37,0,0,1,.26-.12.56.56,0,0,1,.4.16l.08.07.06.05,0,0a1,1,0,0,1,.28.46A2.66,2.66,0,0,1,35.48,12c-.09.18-.19.36-.29.53l-.24.41a.43.43,0,0,1-.27.22.51.51,0,0,1-.4-.05.48.48,0,0,1-.18-.66l.14-.24h0l.09-.15c.08-.15.17-.3.25-.46h0A.08.08,0,0,0,34.6,11.56ZM32.83,9h.41l0,0h0l.06,0,.06,0,0,0,0,0,0,0,0,0,0,0,0,0,0,0h0l0,0h0l0,0h0l0,0h0l.16.16v0a2.11,2.11,0,0,1,.52,1.08.13.13,0,0,1,0,.06v0h0a.25.25,0,0,1,0,.08l0,.07a.37.37,0,0,1-.25.12.47.47,0,0,1-.46-.33v0h0a.52.52,0,0,1,0-.11h0l0-.1a1.38,1.38,0,0,0-.08-.2l-.06-.12,0-.06h0l-.1-.12,0,0h0l-.11-.09,0,0-.2-.17h0L33,9.5h0a1.65,1.65,0,0,1-.23-.26l0-.06h0s0,0,0-.06A.32.32,0,0,1,32.83,9Zm-1.06,1,0-.05c.2-.23.41-.44.6-.64a.38.38,0,0,1,.13-.09,2.13,2.13,0,0,0,.58.63.36.36,0,0,1-.07.1l0,0a1.7,1.7,0,0,0-.19.19,1.85,1.85,0,0,0-.14.14l-.15.16c-.08.08-.15.17-.22.25v0h0l0,0h0l-.06.08a5.08,5.08,0,0,0-.35.59l-.14.27-.18.4a.37.37,0,0,1-.23.19.48.48,0,0,1-.39,0,.46.46,0,0,1-.15-.62l.1-.24h0c.1-.22.21-.43.32-.62h0c.08-.14.16-.28.25-.41s.14-.17.2-.26a.41.41,0,0,0,.11-.12Zm-2.1-1.9h0v0c.19-.12.44,0,.63.1a.53.53,0,0,0,.22.09h.07l0,0,0,0h0l0,0,0,0,.06,0h0a4.22,4.22,0,0,1,.56.48.27.27,0,0,0,.07.08l.15.21s0,0,0,.08h0l.05.13h0a.51.51,0,0,1,.06.25.45.45,0,0,1,0,.19l-.12.14-.05,0a.47.47,0,0,1-.37,0,.41.41,0,0,1-.24-.2,1,1,0,0,1-.07-.15h0l0-.06h0l0-.07h0l-.06-.08,0,0h0l-.06-.07h0l0,0h0l0,0,0,0-.05,0,0,0-.06-.07,0,0-.06-.07,0,0L30.22,9V9l-.09-.09h0a1.24,1.24,0,0,1-.18-.22h0a1.19,1.19,0,0,1-.28-.51.06.06,0,0,1,0,0S29.65,8.1,29.67,8.09ZM29,8.4a.37.37,0,0,1,.28-.13h0a.54.54,0,0,1,.21.05,1.77,1.77,0,0,0,.25.42.61.61,0,0,1-.13.31c-.19.23-.4.45-.6.67s-.43.47-.63.71l-.19.24,0,0-.18.24-.15.23a.46.46,0,0,1-.62.17.48.48,0,0,1-.21-.29.41.41,0,0,1,.05-.33l.19-.29h0c.13-.18.27-.36.41-.53h0c.19-.23.38-.44.57-.65a.61.61,0,0,0,.16-.12.53.53,0,0,0,.13-.2C28.72,8.76,28.88,8.58,29,8.4Zm-2.4-1.55h0l0,0,0,0h0l.05,0h.11l.08,0,.09,0h0l.07,0,0,0,.09,0h0l.11.06h0l.09.06,0,0,.09.07h0l.19.16h0a1.22,1.22,0,0,1,.24.28,2.14,2.14,0,0,0,.17.3,2,2,0,0,1,.11.2,1.42,1.42,0,0,1,.18.66.59.59,0,0,1,0,.13L28.3,9l-.12.13a.58.58,0,0,1-.18,0,.45.45,0,0,1-.45-.44V8.68a.42.42,0,0,0,0-.06h0l0,0h0a1,1,0,0,0-.08-.14c-.08-.13-.16-.26-.23-.4A3.18,3.18,0,0,0,27,7.73h0l0,0h0A3,3,0,0,1,26.65,7h0s0,0,0-.06h0v0h0Zm-.8.59L26,7.3h0l.08-.07a.53.53,0,0,1,.44-.11,3.16,3.16,0,0,0,.3.57.34.34,0,0,1-.1.16l-.37.28a10.58,10.58,0,0,0-1.51,1.32,4.29,4.29,0,0,0-.36.48,3,3,0,0,0-.23.38.37.37,0,0,1-.24.2.49.49,0,0,1-.36,0,.47.47,0,0,1-.16-.61,2.75,2.75,0,0,1,.17-.29h0A4.56,4.56,0,0,1,24.1,9h0a4.89,4.89,0,0,1,.59-.62c.2-.18.42-.37.7-.58l0,0h0l.15-.12h0Zm-.62,0,.21.09-.12.09,0,0-.12,0A.52.52,0,0,0,25.21,7.49ZM23.33,5.3V5.24s0,0,0,0h0a.1.1,0,0,1,.06,0h.06a1.37,1.37,0,0,1,.89.6s0,.07,0,.11h0l0,0a1.19,1.19,0,0,0,.08.16l.12.23.08.15a6.43,6.43,0,0,1,.36.84h0s0,.06,0,.08a.19.19,0,0,1,0,.08h0a.22.22,0,0,1,0,.08h0a.3.3,0,0,1,0,.08.46.46,0,0,1-.28.23.48.48,0,0,1-.56-.32,1.75,1.75,0,0,0-.12-.32A2.4,2.4,0,0,0,24,7h0l-.13-.27h0l-.18-.34h0c-.06-.12-.11-.24-.16-.37h0l-.06-.2v0a1.92,1.92,0,0,1-.08-.39V5.3Zm-1.21-.72A.48.48,0,0,1,22,4.9c0-.22,0-.46-.07-.69A.42.42,0,0,1,22.12,4.58ZM22,6.17h0a4.07,4.07,0,0,1,.9-.58.5.5,0,0,1,.24-.06h0a3.82,3.82,0,0,0,.14.48c0,.1.08.2.13.3l-.07,0a2.46,2.46,0,0,0-.45.25l-.12.08h0l-.15.11a7.81,7.81,0,0,0-.69.71c-.29.33-.57.68-.83,1l-.46.58a.36.36,0,0,1-.27.12A.48.48,0,0,1,20,9.14a.45.45,0,0,1,0-.64l.2-.27h0l.28-.36.1-.12h0A10.39,10.39,0,0,1,21.9,6.3h0Zm-.15-.06-.14.13-.12,0L21.71,6ZM20.94,4.7h0v0h0s0-.07,0-.11h0a2,2,0,0,1,0-.54h0A.46.46,0,0,1,21,3.87h0a.08.08,0,0,1,0,0h0l0,0a.56.56,0,0,1,.31,0h0l.08,0h0l.06,0h0l.08,0,.07.06a.34.34,0,0,1,.06.06h0a.93.93,0,0,1,.05.1h0v.07h0v.08h0a5.27,5.27,0,0,1,.06.82h0c0,.06,0,.11,0,.16h0l0,.13h0a2.7,2.7,0,0,1-.32.71.43.43,0,0,1-.28.21.45.45,0,0,1-.34,0A.44.44,0,0,1,20.65,6a.34.34,0,0,1,0-.2.14.14,0,0,1,0-.06l0,0h0a2.49,2.49,0,0,0,.15-.28v0l0-.06h0v0l0,0h0s0,0,0,0h0a.43.43,0,0,0,0,0h0V5h0a.57.57,0,0,0,0-.13h0V4.8h0A.78.78,0,0,1,20.94,4.7ZM17.11,6.18a8.23,8.23,0,0,1,1.34-1.06h0L18.68,5h0a6.07,6.07,0,0,1,2.07-.81,3.77,3.77,0,0,0,0,.51v.08s0,0,0,0h0a1.21,1.21,0,0,1,0,.19v.09a5.29,5.29,0,0,0-.57.15,5.8,5.8,0,0,0-1.39.69l-.37.25,0,0-.05,0h0l-.14.11a6.76,6.76,0,0,0-.54.49l-.1.11h0l-.12.14-.09.11h0l0,0v0h0v0l-.11.16a2.19,2.19,0,0,0-.16.3.34.34,0,0,1-.23.19.52.52,0,0,1-.39,0,.48.48,0,0,1-.16-.63,2.12,2.12,0,0,1,.11-.21h0a3.15,3.15,0,0,1,.44-.6h0A3.08,3.08,0,0,1,17.11,6.18Zm-.43.26a3.8,3.8,0,0,0-.5.76A.62.62,0,0,0,16.4,8a.61.61,0,0,0,.3.08.64.64,0,0,0,.2,0,.54.54,0,0,0,.32-.27,2.1,2.1,0,0,1,.26-.44l0,0h0l.09-.12.1-.1a1.23,1.23,0,0,1,.09.44,1.09,1.09,0,1,1-1.11-1.09ZM4.05,7.21c1,.73,1.34,2.83,4.3,2.44.32,0,.61-.09.88-.14a3.52,3.52,0,0,1-3.18.94A2.47,2.47,0,0,1,4.05,7.21Z"/></g></g></svg>