<svg xmlns="http://www.w3.org/2000/svg" viewBox="0 0 48.99 22.77"><defs><style>.cls-1{fill:#005092;}</style></defs><g id="Слой_2" data-name="Слой 2"><g id="Layer_4" data-name="Layer 4"><path class="cls-1" d="M9.55,5.31a9.32,9.32,0,0,0,5.94-1.57,25,25,0,0,1-4.42,0C7.88,3.72,6.54,1.56,5.1.55a11.19,11.19,0,0,0,1,2.7A4.24,4.24,0,0,0,9.55,5.31Z"/><path class="cls-1" d="M21.83,1.55A22.37,22.37,0,0,1,18,3.85a23.7,23.7,0,0,1,2.65,1,2.26,2.26,0,0,1,2-.57c2,.36,5,2.4,7.29,3.53,2,1,5.55,3.12,7.28,2.86,1.12-.17.91-1.68.82-2.51a12.53,12.53,0,0,1-2.2-.47,1.69,1.69,0,0,0-.34-.94.71.71,0,0,0-.56-.29.64.64,0,0,0-.57.21.48.48,0,0,0-.06.24H34l-1-.45,0,0c.06-.22-.36-.39-1.11-.62l-.17-.05a2.2,2.2,0,0,0-.9-.14L29.28,5a.68.68,0,0,0-.46-.39,4.72,4.72,0,0,0-.71-.11L27,4A.36.36,0,0,0,27,3.75a1,1,0,0,0-.31-.6l-.25-.22a1,1,0,0,0-.91-.36,1.6,1.6,0,0,0-.72.31A26.37,26.37,0,0,0,21.83,1.55ZM34.44,6.93a.19.19,0,0,1,0-.08h0a.11.11,0,0,1,0-.07c.06-.09.21-.14.44-.14a.59.59,0,0,1,.45.23l.07.1s0,0,0,0l0,.07s0,0,0,0l0,.07,0,0a.14.14,0,0,1,0,.06l0,0v.06l0,.06v0a.13.13,0,0,0,0,.06v0a.53.53,0,0,1,0,.12v.06a3.49,3.49,0,0,0-.05.44,3.4,3.4,0,0,1-.08.57.32.32,0,0,1-.22.23.43.43,0,0,1-.38-.11.34.34,0,0,1-.07-.2.37.37,0,0,1,0-.09.58.58,0,0,0,0-.23,2.7,2.7,0,0,0-.26-.79v0l-.06-.14h0c0-.09-.07-.17-.1-.25h0l0-.12V7a.52.52,0,0,1,0-.11Zm-.13.15c0,.11.07.24.12.37l-.37.06a5,5,0,0,0-.76.19l-.07,0h0l0,0-.1,0a.08.08,0,0,0-.07,0h0l0,0h0a.34.34,0,0,1-.43.09.35.35,0,0,1-.16-.23.31.31,0,0,1,0-.23C32.53,7.33,33,7.1,34.31,7.08Zm-4.84-.72a.24.24,0,0,1,.14-.17A3.27,3.27,0,0,1,31,5.77a1.82,1.82,0,0,1,.5.07h0l.22.07.18.06c.91.27,1,.39,1,.43s0,0,0,0h0a.42.42,0,0,1-.17.18.29.29,0,0,1-.22,0A3.18,3.18,0,0,0,30,6.76a.34.34,0,0,1-.47-.11A.41.41,0,0,1,29.47,6.36ZM27.1,4.94A1.45,1.45,0,0,1,28,4.63a3.41,3.41,0,0,1,.61.08h0l.16,0,.09,0h0l.05,0,0,0,0,0a.4.4,0,0,1,.15.34c0,.12-.17.11-.25.09a2.32,2.32,0,0,0-1.27,0h0c-.31.1-.62.13-.66.06A.34.34,0,0,1,27.1,4.94ZM25.58,2.72h.13a.88.88,0,0,1,.67.32l.26.22a.8.8,0,0,1,.25.5.17.17,0,0,1,0,.12l0,0h0c-.09.09-.09.08-.2,0l-.05,0a1.29,1.29,0,0,0-.54-.26.78.78,0,0,0-.22,0h-.2a2.37,2.37,0,0,0-.85.34.29.29,0,0,1-.31,0,.39.39,0,0,1-.19-.32.31.31,0,0,1,.16-.27,4,4,0,0,0,.34-.23L25,3h0l.13-.08h0l.14-.07h0l.11,0h0Z"/><path class="cls-1" d="M15.63,3.64h0c.78-.3,3.62-2,5.27-2.93-2-.63-3.76-.94-4.36-.52-.64.81-.37,2.75-1,3.39l.07.07Z"/><path class="cls-1" d="M37.31,10.85a3.43,3.43,0,0,1-1.3-.12c-1.92,3.33,2.47,2.65,4.93,2.23a15.19,15.19,0,0,0,6.17-2.53,15.89,15.89,0,0,0-5.3-1.74c-1.15-.23-2.41-.35-3.62-.51C38.29,9.05,38.37,10.69,37.31,10.85Z"/><path class="cls-1" d="M35.75,10.75,33.36,9.8A7,7,0,0,1,32,12.08c-.67.61-2.54,2.1-3.28,2.89a27.06,27.06,0,0,0-2.35,3.53,56.65,56.65,0,0,0,10.55-.58c3.11-.46,9.86-1.16,11.85-4.18a3.52,3.52,0,0,0-1.54-3.13,17.28,17.28,0,0,1-6.56,2.64C38.27,13.67,33.92,13.79,35.75,10.75Z"/><path class="cls-1" d="M14,5.54c.83-.29,5.84-2.4,7.83-4.13.1.07,3.31,1.55,3.5,1.15S21.71.57,21.22.67c-1.52.83-4.8,2.82-5.67,3.16a1,1,0,0,0-.13.11A9.2,9.2,0,0,1,9.48,5.51,4.22,4.22,0,0,1,6,3.45a14,14,0,0,1-1-3A1.73,1.73,0,0,0,3,.21c0,.11-.07.25-.12.39a19.83,19.83,0,0,0,2.54,4C8.75,8.06,12.87,5.93,14,5.54Z"/><path class="cls-1" d="M49,14.26l0,.06a5.52,5.52,0,0,1-.29.92c-.64,1.57-2.49,3-5,3.77a49.94,49.94,0,0,1-14.29,2.22c-2.19,0-5.7.11-7.89.16-.85,0-13.81,0-18-.52A9.53,9.53,0,0,1,0,19.77a7.48,7.48,0,0,0,0,1.09V21a10.34,10.34,0,0,0,3.46,1.28c4.19.52,17.16.52,18,.52,2.19-.05,5.69-.16,7.89-.16a45,45,0,0,0,14-2.43c2.55-.81,4.4-1.94,5-3.51A5.11,5.11,0,0,0,49,14.26Z"/><polygon class="cls-1" points="0.04 19.47 0.04 19.47 0.04 19.47 0.04 19.47"/><path class="cls-1" d="M21.42,21.09c2.19,0,5.7-.16,7.89-.16A49.57,49.57,0,0,0,43.6,18.71c2.55-.81,4.4-2.2,5-3.77a5.76,5.76,0,0,0,.29-.91L49,14c-2.34,3.14-8.62,3.76-11.9,4.26-9.16,1.37-16.14.19-23.54-.58-4-.42-7.36-.5-11.18-1A5.08,5.08,0,0,1,.73,16,13.09,13.09,0,0,0,0,19.47a9.33,9.33,0,0,0,3.38,1.1C7.61,21.09,20.57,21.09,21.42,21.09Z"/><path class="cls-1" d="M13.89,17.37h-.21Z"/><path class="cls-1" d="M2.28,16.38c3.83.51,7.15.59,11.18,1l.2,0A13.62,13.62,0,0,0,6.8,9.19C5.6,8.57,1.88,7,1.16,6.16A19.53,19.53,0,0,0,.51,9.59c-.06,1.56-.68,5.07.19,6.2A5.22,5.22,0,0,0,2.28,16.38Z"/><path class="cls-1" d="M7,9.15a13.67,13.67,0,0,1,6.87,8.21l12.29,1.15a29.6,29.6,0,0,1,2.46-3.78c.75-.82,2.68-2.34,3.37-3a5.55,5.55,0,0,0,1.23-2.06c-1.37-.63-2.73-1.37-3.68-1.85-2.25-1.12-5.08-3-7-3.37A2,2,0,0,0,20.64,5a15.2,15.2,0,0,0-1.94-.85c-.27-.11-.56-.21-.84-.31-1.82.91-3.6,1.65-4.06,1.81-1.08.39-5.2,2.52-8.54-1A18,18,0,0,1,2.85,1c-.35,1.17-1,3.25-1.46,5.14C2.11,7,5.82,8.53,7,9.15Z"/></g></g></svg>