<svg xmlns="http://www.w3.org/2000/svg" width="172.513" height="50.799" viewBox="0 0 172.513 50.799">
  <g id="Group_15" data-name="Group 15" transform="translate(-1197.549 -505.25)">
    <g id="Group_11" data-name="Group 11">
      <ellipse id="Ellipse_2" data-name="Ellipse 2" cx="32.821" cy="25.4" rx="32.821" ry="25.4" transform="translate(1197.549 505.25)" fill="#80b83d"/>
      <path id="Path_40" data-name="Path 40" d="M1259.524,530.6c-.019-12-13.087-21.711-29.188-21.686a37.58,37.58,0,0,0-12.218,2.016,14.384,14.384,0,0,0-6.25.85s2.259,3.651,5.652,4.985a6.827,6.827,0,0,0,5.549-.3,7.9,7.9,0,0,0-3.917-3.214,17.736,17.736,0,0,0-4.532-1.223,15.182,15.182,0,0,1,4.625.742c3.361,1.071,4.248,3.077,4.248,3.077a4.134,4.134,0,0,0-2.319-3.941,36.585,36.585,0,0,1,9.164-1.162c15.088-.023,27.334,8.867,27.35,19.857a15.746,15.746,0,0,1-3.223,9.41,27.367,27.367,0,0,0-3.026-2.612c.74-4.429-2.517-8.546-6.062-10.577,1.626-5.171-3.368-10.452-12.416-10.641-1.347-.011-3.189.059-4.389.188l.5-3.195h-.717a3.816,3.816,0,0,0-3.714,2.26l-.97,1.865a23.832,23.832,0,0,0-8.99,4.47c-.651.562-.517.8.642.325a45.381,45.381,0,0,1,7-2.21l-7.592,13.97c-4.061-.465-8.3.012-10.441,2.765a14.986,14.986,0,0,1-1.248-5.935c-.01-6.366,4.085-12.04,10.466-15.693a3.066,3.066,0,0,0-3.536.132.134.134,0,0,1-.025.017c-5.4,3.953-8.748,9.459-8.739,15.544a16.954,16.954,0,0,0,2.08,8.047,3.416,3.416,0,0,0,.695,2.844c1.026,1.311,3.081,1.89,5.484,1.05,3.244-1.133,5.737-4.689,6.529-5.978-2.342-.384-3.269.469-3.6.91a10.6,10.6,0,0,1-3.833,3.337c-3.013,1.292-4.963-1.435-2.583-3.629,1.611-1.487,4.808-1.8,7.691-1.433h.071a30.063,30.063,0,0,1,7.064,1.832c-.559,3.286-.953,5.386-.953,5.386l1.074.014c3.506,0,3.814-2.62,3.814-2.62s.181-.922.181-.922c3.215,1.58,6.342,3.268,6.5,3.361.823.453,2.013.427,2.2-.769l1.362-9.272c3.566-.208,7.068-1.6,8.937-3.625a8.861,8.861,0,0,1,3.42,5.772,11.894,11.894,0,0,0-6.554-1.023c-5.354.829-7.226,6.336-4.282,9.461,2.209,2.344,5.378,2.6,8.786,1.311a9.94,9.94,0,0,0,4.78-3.9,7.34,7.34,0,0,0-1.288-1.052,2.206,2.206,0,0,0-2.942.491,6.847,6.847,0,0,1-3.627,2.4c-6.228,1.521-6.815-6.634-.431-6.879a8.6,8.6,0,0,1,5.361,1.918v0c1.617,1.214,3.836,3.462,4.944,4.234a5.683,5.683,0,0,0,4.661.92,16.145,16.145,0,0,0-1.059-1.49,17.6,17.6,0,0,0,3.829-10.8Zm-38.272,4.587c-1.21-.389-3.474-.86-3.946-.954l5.986-11.046c-.625,3.68-1.4,8.23-2.04,12Zm14.025-4.29.551-3.749c-4.135.032-4.729,2.86-4.8,3.307-1.979-.954-.3-3.01,2.484-3.537a14.231,14.231,0,0,1,7.771.829c-.992,1.826-3.184,2.914-6.009,3.15Zm6.726-5.373a20.656,20.656,0,0,0-5.836-.7l.732-4.979c-4.408-.743-4.647,2.221-4.647,2.221-.157,1.063-.336,2.278-.527,3.568-4.092,1.585-4.482,5.237-.982,6.659-.354,2.4-.9,6.1-.91,6.1-1.138-.5-3.426-1.432-4.443-1.807l2.778-17.658c11.909-1.235,14.235,4.248,13.835,6.6Zm8.383,18.651a3.05,3.05,0,0,1,3.162-.364c-5.32,5.193-13.706,8.55-23.145,8.564-9.406.015-17.776-3.293-23.115-8.438a3.062,3.062,0,0,1,3.309.456,32.926,32.926,0,0,0,19.8,6.154c7.842-.012,15.022-2.468,19.982-6.368Z" fill="#fff" fill-rule="evenodd"/>
    </g>
    <g id="Group_14" data-name="Group 14">
      <g id="Group_12" data-name="Group 12">
        <path id="Path_41" data-name="Path 41" d="M1330.72,510.577c-1.7,0-2.349.684-2.956,2.141-.863,2.555-1.671,4.939-1.836,5.429-.263-.61-1.875-4.342-3.268-7.57h-5.27c2.422,5.178,5.941,12.7,6.23,13.322-.106.242-.184.43-.184.43a2.192,2.192,0,0,1-2.266,1.192l-1.892-.042-.456,3.4a13.215,13.215,0,0,0,3.539.425,4.866,4.866,0,0,0,4.66-2.755l1-2.119c.192-.411.386-.849.568-1.316l4.987-12.54Z" fill="#4b721d" fill-rule="evenodd"/>
        <path id="Path_42" data-name="Path 42" d="M1311.037,517.183h-2.785v-2.838h5.867a2.021,2.021,0,0,0,2.17-2.193l0,.005v-1.618h-10.014a2.768,2.768,0,0,0-3.018,2.863v15.63h8.145c4.995,0,6.769-3.192,6.769-5.924,0-2.949-2.206-5.925-7.137-5.925Zm-1.372,8.043h-1.413v-4.237h2.019c1.719,0,2.646.927,2.646,2.066C1312.917,523.987,1312.581,525.226,1309.665,525.226Z" fill="#4b721d" fill-rule="evenodd"/>
        <path id="Path_43" data-name="Path 43" d="M1356.882,521.824c.214-.567,1.92-5.088,2.278-6.04.391.941,2.267,5.461,2.507,6.04Zm-11.814-2.221a8.031,8.031,0,0,0,1.639-2.457l.66-1.5a2.129,2.129,0,0,1,2.218-1.193h.119l.5-3.75-.314-.052a9.59,9.59,0,0,0-1.677-.162,4.875,4.875,0,0,0-4.66,2.754l-1.161,2.454a2.667,2.667,0,0,1-2.565,1.885h-1.035v-7.041h-1.982a2.759,2.759,0,0,0-3.011,2.791v15.7h4.993v-7.647h.746c1.622,0,2.98,1.175,4.039,3.49l1.914,4.157h8.666s1.231-3.259,1.343-3.56h7.7c.118.288,1.475,3.56,1.475,3.56h5.388l-8.215-18.493h-3.437c-1.755,0-2.386.719-3.011,2.268h0l-5.551,13.77-1.3-2.658A9.388,9.388,0,0,0,1345.068,519.6Z" fill="#4b721d" fill-rule="evenodd"/>
        <path id="Path_44" data-name="Path 44" d="M1298.857,519.135a4.687,4.687,0,0,0,2.786-4.094c0-3.213-3.758-4.652-7.48-4.652a23.363,23.363,0,0,0-6.058.954l.429,3.916a25.482,25.482,0,0,1,3.718-.829c2.727-.233,3.91.591,3.91,1.58,0,.448,0,1.815-3.621,1.815h-1.747V521.6h1.458c2.926,0,4.015.464,4.015,1.711s-1.246,1.911-3.7,1.868a18.327,18.327,0,0,1-4.052-.465,13.807,13.807,0,0,0,.814,2.255,3.406,3.406,0,0,0,2.517,2.158,16.983,16.983,0,0,0,1.872.092c5.1-.133,8.031-2.02,8.031-5.542A5.005,5.005,0,0,0,1298.857,519.135Z" fill="#4b721d" fill-rule="evenodd"/>
        <path id="Path_45" data-name="Path 45" d="M1280.7,510.54h-3.442a2.736,2.736,0,0,0-2.912,2.04l-6.634,16.452h5.3l1.345-3.56h7.695c.12.287,1.477,3.56,1.477,3.56h5.388L1280.7,510.54Zm-4.964,11.284c.214-.567,1.919-5.087,2.279-6.04.391.941,2.266,5.461,2.506,6.04Z" fill="#4b721d" fill-rule="evenodd"/>
      </g>
      <g id="Group_13" data-name="Group 13">
        <path id="Path_46" data-name="Path 46" d="M1285.166,540.7a4.173,4.173,0,0,0,2.083-3.524c0-2.294-1.945-4.763-6.215-4.763H1276a2.749,2.749,0,0,0-3,2.628v15.864h9.009c6.132,0,6.609-4.232,6.609-5.53a4.816,4.816,0,0,0-3.454-4.675Zm-7.172-4.483h2.092c1.5,0,2.039.886,2.039,1.644,0,.783-.534,1.7-2.039,1.7h-2.092v-3.34Zm2.277,10.882h-2.277v-3.736h2.884c1.2,0,2.487.466,2.487,1.775C1283.365,546.382,1282.859,547.1,1280.271,547.1Z" fill="#4b721d" fill-rule="evenodd"/>
        <path id="Path_47" data-name="Path 47" d="M1350.1,532.444h-3.443a2.739,2.739,0,0,0-2.912,2.04l-6.633,16.452h5.3l1.345-3.56h7.694c.121.288,1.478,3.56,1.478,3.56h5.388l-8.216-18.492Zm-4.965,11.284c.215-.566,1.919-5.087,2.28-6.04.39.942,2.267,5.461,2.506,6.04Z" fill="#4b721d" fill-rule="evenodd"/>
        <path id="Path_48" data-name="Path 48" d="M1320.912,532.444c-1.7,0-2.348.684-2.956,2.14-.863,2.555-1.67,4.939-1.835,5.429-.264-.61-2.392-4.437-3.76-7.607h-5.176c2.378,5.085,6.339,12.742,6.627,13.359-.1.242-.183.43-.183.43a2.194,2.194,0,0,1-2.267,1.192l-1.892-.042-.456,3.4a13.185,13.185,0,0,0,3.54.425,4.867,4.867,0,0,0,4.66-2.754l1-2.119c.194-.411.387-.849.57-1.316l4.987-12.539Z" fill="#4b721d" fill-rule="evenodd"/>
        <path id="Path_49" data-name="Path 49" d="M1306.045,536.355l.5-3.751-.313-.051a9.627,9.627,0,0,0-1.679-.162,4.876,4.876,0,0,0-4.66,2.755l-1.16,2.454a2.668,2.668,0,0,1-2.564,1.884h-1.037v-7.04h-1.98a2.764,2.764,0,0,0-3.013,2.827v15.665h4.993V543.29h.747c1.622,0,2.98,1.174,4.039,3.489l1.914,4.157h5.556l-2.5-5.114a9.418,9.418,0,0,0-3.483-4.316,7.993,7.993,0,0,0,1.64-2.456l.66-1.5a2.128,2.128,0,0,1,2.218-1.192h.119Z" fill="#4b721d" fill-rule="evenodd"/>
        <path id="Path_50" data-name="Path 50" d="M1336.835,548.619a25.544,25.544,0,0,0,.776-2.722,12.547,12.547,0,0,1-5.276,1.181,5.057,5.057,0,0,1-5.327-5.393,5.145,5.145,0,0,1,5.223-5.445,10.249,10.249,0,0,1,5.409,1.655l.192.112v-4.594a14.707,14.707,0,0,0-5.564-1.237,10.245,10.245,0,0,0-7.188,2.751,9.564,9.564,0,0,0-2.869,6.973,9.426,9.426,0,0,0,2.389,6.094,11,11,0,0,0,9.706,2.974A3.463,3.463,0,0,0,1336.835,548.619Z" fill="#4b721d" fill-rule="evenodd"/>
      </g>
    </g>
  </g>
</svg>
