<svg xmlns="http://www.w3.org/2000/svg" width="20.437" height="20.437" viewBox="0 0 20.437 20.437">
  <g id="calendar-icon" transform="translate(-858.675 -789.975)">
    <g id="Сгруппировать_77" data-name="Сгруппировать 77">
      <g id="Сгруппировать_76" data-name="Сгруппировать 76">
        <g id="Сгруппировать_75" data-name="Сгруппировать 75">
          <path id="Контур_75" data-name="Контур 75" d="M869.812,804.505a1.6,1.6,0,0,0,1.6,1.6h1.876a1.6,1.6,0,0,0,1.6-1.6v-1.877a1.6,1.6,0,0,0-1.6-1.6h-1.876a1.6,1.6,0,0,0-1.6,1.6Zm1.6-1.877h1.876V804.5h-1.877Z" fill="#65a2c2"/>
          <circle id="Эллипс_29" data-name="Эллипс 29" cx="0.798" cy="0.798" r="0.798" transform="translate(873.284 797.559)" fill="#65a2c2"/>
          <circle id="Эллипс_30" data-name="Эллипс 30" cx="0.798" cy="0.798" r="0.798" transform="translate(869.812 797.559)" fill="#65a2c2"/>
          <path id="Контур_76" data-name="Контур 76" d="M878.314,804.026a.8.8,0,0,0,.8-.8v-8.462a3.2,3.2,0,0,0-3.193-3.193h-1.038v-.8a.8.8,0,0,0-1.6,0v.8h-3.632v-.8a.8.8,0,0,0-1.6,0v.8h-3.592v-.8a.8.8,0,0,0-1.6,0v.8h-1a3.2,3.2,0,0,0-3.193,3.193v12.454a3.2,3.2,0,0,0,3.193,3.193h14.051a3.2,3.2,0,0,0,3.193-3.193.8.8,0,1,0-1.6,0,1.6,1.6,0,0,1-1.6,1.6H861.868a1.6,1.6,0,0,1-1.6-1.6V794.765a1.6,1.6,0,0,1,1.6-1.6h1v.8a.8.8,0,0,0,1.6,0v-.8h3.592v.8a.8.8,0,0,0,1.6,0v-.8h3.632v.8a.8.8,0,0,0,1.6,0v-.8h1.038a1.6,1.6,0,0,1,1.6,1.6v8.462A.8.8,0,0,0,878.314,804.026Z" fill="#65a2c2"/>
          <circle id="Эллипс_31" data-name="Эллипс 31" cx="0.798" cy="0.798" r="0.798" transform="translate(862.866 804.505)" fill="#65a2c2"/>
          <circle id="Эллипс_32" data-name="Эллипс 32" cx="0.798" cy="0.798" r="0.798" transform="translate(862.866 797.559)" fill="#65a2c2"/>
          <circle id="Эллипс_33" data-name="Эллипс 33" cx="0.798" cy="0.798" r="0.798" transform="translate(862.866 801.032)" fill="#65a2c2"/>
          <circle id="Эллипс_34" data-name="Эллипс 34" cx="0.798" cy="0.798" r="0.798" transform="translate(866.339 801.032)" fill="#65a2c2"/>
          <circle id="Эллипс_35" data-name="Эллипс 35" cx="0.798" cy="0.798" r="0.798" transform="translate(866.339 797.559)" fill="#65a2c2"/>
          <circle id="Эллипс_36" data-name="Эллипс 36" cx="0.798" cy="0.798" r="0.798" transform="translate(866.339 804.505)" fill="#65a2c2"/>
        </g>
      </g>
    </g>
  </g>
</svg>
