<?xml version="1.0" encoding="utf-8"?>
<!-- Generator: Adobe Illustrator 24.1.1, SVG Export Plug-In . SVG Version: 6.00 Build 0)  -->
<svg version="1.1" id="Слой_1" xmlns="http://www.w3.org/2000/svg" xmlns:xlink="http://www.w3.org/1999/xlink" x="0px" y="0px"
	 viewBox="0 0 81.6 77.9" style="enable-background:new 0 0 81.6 77.9;" xml:space="preserve">
<style type="text/css">
	.st0{fill:#005092;}
	.st1{fill:#FFFFFF;}
	.st2{fill:none;stroke:#005092;stroke-width:0.8714;stroke-linecap:round;stroke-miterlimit:10;}
</style>
<g>
	
		<image style="overflow:visible;opacity:0.65;" width="114" height="118" xlink:href="4C0C2897.png"  transform="matrix(1 0 0 1 -15.9189 -20.0811)">
	</image>
	<g>
		<path class="st0" d="M15,30.3v17.5c0,3.9,2.1,7.6,5.5,9.5l15.2,8.8c3.4,2,7.6,2,11,0l15.2-8.8c3.4-2,5.5-5.6,5.5-9.5V30.3
			c0-3.9-2.1-7.6-5.5-9.5L46.7,12c-3.4-2-7.6-2-11,0l-15.2,8.8C17.1,22.8,15,26.4,15,30.3z"/>
	</g>
</g>
<path class="st1" d="M41.2,27.9c-4.5,0-8.2,1.2-10.7,3.6c-2.2,2.1-3.5,4.8-3.5,7.8c0,5.5,4.5,11.4,14.2,11.4c1.9,0,3.8-0.3,5.5-0.8
	l0.6-0.2l0.4,0.5c0.8,1,1.8,1.7,3,2c-0.5-1-0.7-2-0.8-3.1l0-0.6l0.5-0.3c4.2-2.6,6-6.7,4.8-11.1C53.9,32.6,49,27.9,41.2,27.9
	L41.2,27.9z"/>
<path class="st2" d="M48.8,39.2c-1.2,3-4.2,4.6-7.6,4.6"/>
<g>
	
		<image style="overflow:visible;opacity:0.65;" width="113" height="119" xlink:href="4C0C2895.png"  transform="matrix(1 0 0 1 -15.5285 -20.3453)">
	</image>
	<g>
		<path class="st0" d="M15,30.3v17.5c0,3.9,2.1,7.6,5.5,9.5l15.2,8.8c3.4,2,7.6,2,11,0l15.2-8.8c3.4-2,5.5-5.6,5.5-9.5V30.3
			c0-3.9-2.1-7.6-5.5-9.5L46.7,12c-3.4-2-7.6-2-11,0l-15.2,8.8C17.1,22.8,15,26.4,15,30.3z"/>
	</g>
</g>
<path class="st1" d="M41.2,27.9c-4.5,0-8.2,1.2-10.7,3.6c-2.2,2.1-3.5,4.8-3.5,7.8c0,5.5,4.5,11.4,14.2,11.4c1.9,0,3.8-0.3,5.5-0.8
	l0.6-0.2l0.4,0.5c0.8,1,1.8,1.7,3,2c-0.5-1-0.7-2-0.8-3.1l0-0.6l0.5-0.3c4.2-2.6,6-6.7,4.8-11.1C53.9,32.6,49,27.9,41.2,27.9
	L41.2,27.9z"/>
<path class="st2" d="M48.8,39.2c-1.2,3-4.2,4.6-7.6,4.6c-3,0-6.8-1.3-7.6-4.6"/>
</svg>
