<svg xmlns="http://www.w3.org/2000/svg" xmlns:xlink="http://www.w3.org/1999/xlink" viewBox="0 0 150.3 109.4" xml:space="preserve"><path fill="#88511A" d="M1 61.9c-.1-2.1 2.1-6.8 5.6-8 5.2-1.8 16.2.2 16.9-.7.7-.9-6.7-2.8-7.7-13S20.9 25 26.9 23.3c5.9-1.7 14.9-.8 18.7 8.3 3.8 9.1-.9 15.3.2 16s11.9-11.7 17.7-8.9c7 3.4 8.2 11-.1 17.4-9.1 7-9.5 7.4-7.6 11.8 2 4.4 5.8 8.3 9.9 9.8 3.7 1.3 5.6-3 10.1-1.2s3.4 9.7 1 14.6-4.4 6.9-10.1 6.2c-5.7-.8-17.2-8.2-20.7-7-1.9.7-3.7 5.6-7.8 10.2-4.6 5.2-8.7 11-16.2 7.9-7.5-3.1-9.8-8.8-9.1-12.1.7-3.3 2.5-3.8 6.6-5.2 4.1-1.4 5.5-3.2 6.4-7.5.9-4.3 1-8.8-1.5-10.9-2.5-2.1-12.5-1.4-17.6-3-3.3-1-5.6-3.9-5.8-7.8"/><path fill="#D69B62" d="M0 60.5c-.1-2.1 1.7-6.4 5.2-7.6 5.2-1.8 16.2.2 16.9-.7.7-.9-6.7-2.8-7.7-13S19.6 24 25.5 22.3c5.9-1.7 14.5-.8 18.2 8.4 3.8 9.1-.4 15.3.7 15.9 1.1.6 12.1-11 18-8.4 6.7 2.9 8 10.6-.4 16.9-9.1 7-9.5 7.4-7.6 11.8 2 4.4 5.8 8.3 9.9 9.8 3.7 1.3 5.6-3 10.1-1.2s3.4 9.7 1 14.6S71 97 65.3 96.3c-5.7-.8-17.2-8.2-20.7-7-1.9.7-3.5 5.7-7.8 10.2-4.6 4.8-8.7 11-16.2 7.9-7.5-3.1-9.8-8.8-9.1-12.1.7-3.3 2.5-3.8 6.6-5.2 4.1-1.4 5.5-3.2 6.4-7.5.9-4.3.9-9.3-1.6-11.4-2.5-2.1-13.2-1.5-17-3C2.7 66.9.2 64.4 0 60.5"/><path fill="#C18045" d="M74.4 75.5c-4.5-1.8-6.4 2.5-10.1 1.2-4-1.4-7.9-5.4-9.9-9.8S52.8 62 62 55.1c8.4-6.4 7.1-14 .4-16.9-5.9-2.6-16.9 9-18 8.4-1.1-.6 3.1-6.8-.7-15.9-3.8-9.1-12.3-10-18.2-8.4C19.6 24 13.4 29 14.4 39.2s8.4 12.1 7.7 13c-.7.8-11.7-1.2-16.9.6C1.8 54-.1 58.3 0 60.4c.2 3.9 2.7 6.4 6 7.8 3.8 1.5 14.5.9 17 3s2.5 7.1 1.6 11.4c-.9 4.3-2.3 6.1-6.4 7.5-4.1 1.4-5.9 1.9-6.6 5.2-.7 3.3 1.6 9 9.1 12.1 7.5 3.1 11.7-3.1 16.2-7.9 4.3-4.5 5.8-9.6 7.8-10.2 3.4-1.2 15 6.2 20.7 7 5.7.8 7.7-1.2 10.1-6.2 2.3-4.9 3.4-12.8-1.1-14.6m-2.1 10.9c-1.2 3-3 5.3-6.2 5.3-1.7 0-3.3-.9-4.9-1.8-3.4-1.9-7-3.4-10.7-4.5-2.2-.6-4.6-1.2-6.7-.3-2.2.9-3.6 3-5 5-2.8 4.2-6 8.1-9.4 11.9-1.1 1.2-2.5 2.5-4.1 2.5-1.6 0-3-1.1-4.3-2.1-1.6-1.1-3.6-2.2-4-4.1-.4-1.9 1-3.8 2.7-4.9 1.7-1.1 3.6-1.7 5.3-2.8 3.9-2.8 4.9-8.3 4.5-13.1-.2-1.8-.5-3.6-1.5-5.2-1.8-2.9-5.3-4.1-8.6-4.6s-6.8-.6-9.8-2c-2-.9-4-2.7-4-4.9 0-2.4 2.1-4.2 4.4-4.9s4.7-.4 7-.4c2 0 4.1-.3 6-.8.8-.2 1.7-.5 2.2-1.2.9-1.3.1-3-.8-4.3-2.9-4-5.7-7-5.9-11.9-.1-3.6 1.3-5.9 3.6-8.4 2.7-3 6-3.9 9.8-3.2 2.8.5 5 1.3 6.7 3.6 1.8 2.5 2.2 6 2.1 9-.1 3-.4 5.8-.3 8.8 0 .9.2 2 .9 2.6.7.6 1.6.6 2.5.5 2.3-.2 5.4-1.9 7.2-3.4 1.1-.9 2.4-2 3.5-2.8 1.2-.8 2.7-.9 4.1-.5 2.4.7 3.6 2.8 2.7 5.1s-5 4.7-6.9 6.4c-3.4 3-6.5 6.7-6 11.2.3 2.5 1.9 6 3.8 7.8 1.8 1.8 4.4 3.2 6.6 4.4 1.8 1 3.8 2.7 5.8 2.6 2.5 0 4.5-1.5 6.6-.1 1.9 1.4 2 3.2 1.1 5.5"/><g opacity=".55"><defs><path id="a" d="M0 21.6h75.6v85.3H0z"/></defs><clipPath id="b"><use xlink:href="#a" overflow="visible"/></clipPath><path clip-path="url(#b)" fill="#D69B62" d="M65.8 77.5c3.6 1.3 5.5-2.8 9.8-1.3-.4-.3-.8-.6-1.2-.7-4.5-1.8-6.4 2.5-10.1 1.2-.4-.1-.8-.3-1.2-.5.9.5 1.8 1 2.7 1.3M54.7 41c4-2.2 6.7-3.1 9.2-2 .1 0 .2.1.3.1-.5-.4-1.1-.7-1.8-1-4.9-2.1-13.1 5.2-16.5 7.7-.3.2-.6.5-1 .6-.2.6 5.3-3 9.8-5.4M5.4 68c-2.2-1.5-3.7-3.6-3.9-6.7-.1-2.1 1.7-6.4 5.2-7.6 5.2-1.8 16.8.3 17.5-.6.7-.9-7.3-4.5-8.2-13.4-1-10.1 5-15 10.9-16.6 3.4-1 7.6-1.1 11.3.7-4-2.6-9-2.6-12.8-1.5C19.5 24 13.3 29 14.3 39.2s8.4 12.1 7.7 13c-.6.8-11.6-1.2-16.8.6C1.8 54-.1 58.3 0 60.4c.2 3.8 2.4 6.2 5.4 7.6M13 96.2c.7-3.3 2.5-3.8 6.6-5.2 4.1-1.4 5.1-2.7 5.9-7 .7-3.5.1-6.2-.6-8.3.3 2.1 0 4.6-.5 6.9-.9 4.3-2.3 6.1-6.4 7.5-4.1 1.4-5.9 1.9-6.6 5.2-.7 3.1 1.3 8.3 7.7 11.5-5.1-3.2-6.7-7.8-6.1-10.6"/></g><path fill="#A76728" d="M74.4 88.2c-2.4 4.9-4.4 6.9-10.1 6.2-5.7-.8-17.2-8.2-20.7-7-1.9.7-3.5 5.7-7.8 10.2-4.6 4.8-8.7 11-16.2 7.9-3.7-1.5-6.1-3.7-7.6-5.9 1.1 2.8 3.8 5.8 8.6 7.8 7.5 3.1 11.7-3.1 16.2-7.9 4.3-4.5 5.8-9.6 7.8-10.2 3.4-1.2 15 6.2 20.7 7 5.7.8 7.7-1.2 10.1-6.2 2-4.2 3.1-10.5.7-13.4 1 3.3 0 8.1-1.7 11.5M66.4 41.2c1.2 3.5-.3 8-5.5 11.9-9.1 7-9.5 7.4-7.6 11.8.3.7.7 1.4 1.1 2.1 0-.1-.1-.1-.1-.2-2-4.4-1.6-4.9 7.6-11.8 6.3-4.7 7.2-10.1 4.5-13.8M6 68.3c3.8 1.5 14.4 1 17 3 1.5 1.2 1.8 3.3 1.9 3.5-.2-3.7-2.2-4.8-2.9-5.4-2.5-2.1-13.2-1.5-17-3-1.8-.7-3.4-1.9-4.5-3.4.9 2.5 3 4.2 5.5 5.3M43.2 29.5c-.1-.1-.1-.2-.2-.4-.1-.1-.1-.3-.2-.4 0-.1-.1-.1-.1-.2-.1-.2-.2-.3-.3-.5l.3.6c2.5 6 .7 14.4.7 15-.1.9 0 2 .6 2.7.1.1.3.2.5.2-.6-.3.2-2 .6-4.7 0-.1 0-.3.1-.4v-5.6c0-.1 0-.3-.1-.4 0-.1 0-.2-.1-.4 0-.1 0-.3-.1-.4 0-.1-.1-.2-.1-.4 0-.1-.1-.3-.1-.4 0-.1-.1-.3-.1-.4 0-.1-.1-.3-.1-.4 0-.1-.1-.3-.1-.4 0-.1-.1-.2-.1-.4-.1-.2-.1-.3-.2-.5 0-.1-.1-.2-.1-.3l-.3-.9c-.1-.3-.2-.5-.3-.7-.1 0-.1-.1-.2-.3"/><path fill="#C18045" d="M26.6 31.5c-.1-.2-.3-.3-.4-.4-.2-.1-.4-.1-.6 0-.2 0-.5.1-.6.2-.2.1-.4.3-.5.6-.2.5.1 1.1.6 1.3.4.2.8 0 1.2-.2.2-.1.3-.3.4-.5 0-.1.1-.2.1-.3v-.5c-.2 0-.2-.1-.2-.2M29.5 30.5c-1 .3-.5 1.8.4 1.5 1-.3.6-1.8-.4-1.5M32.5 37c-.2-.1-.5-.1-.7.1-.2.2-.4.5-.3.8 0 .1 0 .2.1.3.1.2.3.2.5.2s.3-.1.5-.1c.1 0 .2-.2.3-.3.1-.1.1-.2.1-.4-.1-.2-.3-.5-.5-.6M27.3 39.3c-.4-.2-.9-.2-1.2 0-.2.2-.4.3-.6.6-.1.1-.1.2-.1.3-.1.3-.1.7.1.9.1.1.1.2.2.2.1.1.2.2.4.2.2.1.5.1.8 0 .1 0 .2-.1.3-.2.1-.1.2-.1.3-.2l.1-.1c.3-.3.4-.8.3-1.1-.2-.1-.4-.4-.6-.6M31.5 44.3c-.9.3-.5 1.7.4 1.5 1-.3.6-1.8-.4-1.5M37.6 35c-.2-.1-.4-.3-.6-.3-.2 0-.4 0-.5.1l-.3.3c-.1.3 0 .6.2.8 0 .1.1.1.1.2.1.1.2.1.3.2.2 0 .4 0 .6-.1.5-.3.5-.9.2-1.2M34.7 29.1c-1 .3-.6 1.9.4 1.6 1-.3.6-1.8-.4-1.6M37.9 44.7c-.3-.3-.7-.5-1.2-.4-.2.1-.4.2-.5.3-.2.2-.3.5-.3.8v.1c0 .2.1.4.2.6.2.2.4.3.6.4.5.1.9-.1 1.2-.4.4-.4.4-1 0-1.4M36.1 53.1c-.2.1-.4.2-.6.4-.1.2-.2.5-.1.7.2.5.7.8 1.2.6.2-.1.4-.2.6-.4.1-.2.2-.5.1-.7-.2-.4-.7-.7-1.2-.6M25.6 57.6c-.3-.1-.6-.2-.9-.1-.2.1-.4.2-.6.4-.1.1-.2.3-.3.5v.6c.1.4.4.7.8.8.3.1.6 0 .9-.1.2-.1.3-.3.5-.5s.2-.6.1-.9c0-.3-.2-.6-.5-.7M31.4 51.6c-.1-.1-.1-.2-.2-.2-.1-.1-.2-.1-.3-.2-.2-.1-.3-.1-.5-.1H30c-.2.1-.4.2-.6.4-.2.2-.3.5-.3.8v.3c0 .1 0 .2.1.3 0 .1.1.2.2.3l.3.3c.1.1.2.1.3.2.1.1.2.1.3.1h.4c.2 0 .3-.1.5-.2.3-.2.5-.4.6-.8v-.4c-.1-.3-.3-.6-.4-.8M21.1 39.8c-.1-.1-.2-.2-.4-.2h-.1c-.3 0-.6.3-.5.7.1.4.6.5.9.2.1-.2.2-.4.1-.7M36.8 39.4c-.2.1-.4.1-.5.3l-.1.1c-.1.1-.2.2-.2.4-.1.1-.1.3 0 .4 0 .1.1.2.2.3.3.2.6.3.9.1.2-.1.4-.2.5-.4.1-.2.2-.4.2-.6-.1-.4-.6-.8-1-.6M22 35c-.8.2-.5 1.5.4 1.3.7-.3.4-1.6-.4-1.3M18.3 59.8c.2-.4.2-.8-.1-1.2-.1-.2-.3-.3-.6-.4h-.3c-.2 0-.4.1-.6.2-.1 0-.1.1-.2.1-.1.1-.3.1-.4.3-.6.6-.3 1.6.5 1.8.2.1.5 0 .7 0 .1 0 .3-.1.4-.1l.2-.2c.3-.3.4-.4.4-.5M10.5 59.2c-.4.1-.7.6-.6 1 .1.4.6.7 1 .6.4-.1.7-.6.6-1-.2-.5-.6-.7-1-.6M20.5 65.5c-.1-.2-.1-.4-.3-.5-.1-.1-.2-.2-.3-.2-.4-.3-1-.1-1.3.3-.1.2-.2.4-.2.6v.3c.1.2.1.3.3.5l-.1-.1c.1.1.2.2.4.3.1 0 .2.1.3.1h.3c.1 0 .2 0 .4-.1s.4-.3.4-.5c.1-.1.2-.4.1-.7M14.8 62.1c-.4-.1-.7.1-.9.5-.2.4 0 .8.3 1 .4.1.7 0 .9-.4.1-.1.1-.1.1-.2v-.2c.1-.4-.1-.7-.4-.7M21.6 55.5c-.7.2-.4 1.3.3 1.1.7-.2.4-1.3-.3-1.1M29 67.6c-.2-.2-.4-.3-.7-.3-.3 0-.5 0-.8.2-.2.1-.3.3-.4.4-.1.2-.2.6-.1.9 0 .1.1.2.1.3.1.2.3.3.4.4.1.1.2.1.3.1.4.1.8 0 1.1-.3.6-.4.5-1.2.1-1.7M33.3 62c-.2-.1-.5-.2-.8-.1-.3.1-.5.3-.6.5-.1.2-.2.5-.1.8.1.3.2.5.5.6.2.1.5.2.8.1.3-.1.5-.3.6-.5.1-.2.2-.5.1-.8-.1-.2-.2-.5-.5-.6M30.9 58.8c-.9.2-.5 1.6.4 1.3.8-.2.4-1.6-.4-1.3M43.2 60.9c-.1 0-.2-.1-.3-.1-.3-.3-.8-.4-1.2-.2-.4.3-.6.8-.5 1.3 0 .2.1.5.2.6 0 .1.1.1.1.2.3.5 1 .8 1.6.4.2-.1.4-.3.5-.6.2-.3.2-.7.1-1 0-.2-.3-.5-.5-.6M44.5 54.5c-.3-.1-.7-.2-.9 0h-.1c-.3.2-.5.5-.5.8 0 .3.1.6.4.8.2.2.5.2.8.2.3-.1.6-.4.7-.7v-.3c0-.4-.2-.7-.4-.8M51 50.7c-.8.2-.5 1.6.4 1.3s.5-1.5-.4-1.3M54.1 53c-.7.2-.4 1.2.3 1 .6-.1.3-1.1-.3-1M56.4 45c-.8.2-.4 1.4.3 1.2.8-.2.5-1.4-.3-1.2M50.5 55c-.2-.2-.3-.3-.6-.3-.2 0-.3.1-.4.1-.2.1-.4.5-.3.7v.2s0 .1.1.1l.1.1.1.1c.2.1.4.1.6.1.2-.1.5-.3.5-.5.1-.2.1-.4-.1-.6M45 70.3c-.3-.6-1.2-.8-1.8-.4.1 0 .1-.1.2-.1-.2.1-.3.2-.5.3l-.2.2.1-.1c-.1.1-.2.2-.3.4-.1.2-.1.3 0 .5s.2.3.3.4c.1.3.3.5.6.6.5.2 1 .1 1.3-.3.5-.4.5-1 .3-1.5M37.7 68.8c-.2-.2-.5-.3-.7-.2-.2.1-.4.3-.5.5v.4c.1.2.2.2.3.3l.1.1c.2.2.7 0 .8-.2 0 0 0-.1.1-.1 0-.1.1-.2.1-.3 0-.2-.1-.4-.2-.5M36.2 76c-1.2.3-.7 2.1.5 1.8 1.2-.3.7-2.2-.5-1.8M50.3 74.6c-.2-.2-.4-.3-.6-.3-.3-.1-.7 0-1 .1-.3.1-.5.4-.5.7-.1.2 0 .5 0 .7v-.1c0 .1 0 .1.1.2v.4c.1.4.4.6.7.8.3.1.6.1.9 0 .2-.1.3-.1.4-.3.1-.2.2-.3.3-.5.2-.6.1-1.3-.3-1.7M52.8 79.8c-.4.1-.7.6-.6 1 .1.4.6.7 1 .6.4-.1.7-.6.6-1-.2-.4-.6-.7-1-.6M59.7 82.9c-.1 0-.1 0-.2-.1h-.3c-.1 0-.3.1-.4.2-.3.2-.4.6-.2.9.1.3.4.5.7.5.3 0 .5-.2.7-.4.1-.2.1-.4.1-.5-.1-.4-.2-.5-.4-.6"/><path fill="#C18045" d="M60.1 83.7s0 .1-.1.1c0 0 .1 0 .1-.1M65.1 86.7c-.2-.2-.5-.3-.8-.3-.2 0-.4.1-.6.2-.1.1-.2.4-.2.6 0 .4.2.6.5.7.2.3.6.4.9.3.2-.1.4-.2.5-.4.1-.2.1-.4.1-.6-.1-.1-.2-.4-.4-.5M69.5 83.1c-.4 0-.8.4-.8.9-.1.2 0 .5.2.7.1.1.2.1.3.2.2.1.3 0 .5-.1.3-.1.5-.4.5-.7.2-.6-.2-1-.7-1M62.8 82.9c-.1-.1-.1-.2-.2-.3-.1-.1-.2-.1-.3-.1h-.4c-.3.1-.5.3-.5.5-.1.2 0 .6.2.7.1.2.3.2.5.2s.5-.1.6-.4c.2-.1.2-.3.1-.6M60.2 87.2c-.2-.1-.4-.2-.7-.2-.2 0-.5.1-.6.3-.1.2-.2.4-.2.6v.4c0 .2.2.4.5.5.2.1.4.1.7 0 .2-.1.4-.4.5-.6.1-.4 0-.7-.2-1M44.2 81.2s-.1 0-.1-.1c-.2-.1-.5-.2-.7 0-.2.1-.4.2-.5.4-.1.3-.2.6-.1.9 0 .2.1.3.2.4.1.1.2.1.3.2.3.1.5.1.8-.1.4-.2.7-.7.5-1.1 0-.3-.2-.5-.4-.6M42.8 76.9c-.7.2-.4 1.2.3 1 .6-.1.3-1.2-.3-1M33.6 85.2c-.4-.3-.9-.4-1.3-.1-.2.2-.3.4-.4.7-.2.2-.3.6-.2.9.1.5.6.8 1.1.8.5 0 .9-.2 1.1-.7.2-.3.2-.7.1-1 0-.2-.2-.4-.4-.6M30.8 80.2c-.3.1-.6.5-.5.8.1.3.5.5.8.5.3-.1.6-.5.5-.8-.2-.4-.5-.6-.8-.5M38.4 85.8l-.3-.3c-.3-.3-.7-.3-1-.2-.3.1-.6.5-.6.8v.6c0 .2.1.3.3.5.1.1.3.2.4.2h.3c.3 0 .6-.1.7-.3.2-.2.3-.5.3-.8.1-.1 0-.3-.1-.5M33 93.5c-.3-.1-.7 0-.8.4v-.1c0 .1-.1.1-.1.2v.4c0 .1.1.2.2.3.1 0 .2.1.2.1.2 0 .4 0 .5-.2.1-.1.2-.2.2-.3.1-.1.1-.3.1-.4 0-.2-.2-.3-.3-.4M26 95.9c-.1-.2-.4-.4-.6-.4h-.1c-.2-.1-.3-.2-.6-.2-.5 0-.8.4-.9.8 0 .2 0 .4.1.5.1.2.2.3.3.5.2.1.3.2.5.2h.5c.1 0 .2-.1.3-.2.1 0 .2-.1.3-.2.1-.1.1-.2.2-.3.2-.3.1-.5 0-.7M26.4 91.8c-.7.2-.4 1.2.3 1 .7-.2.4-1.2-.3-1M27.2 99.4c-.1-.2-.4-.4-.7-.3-.2 0-.4.2-.5.3-.1.1-.2.2-.2.4-.1.3.1.6.3.8.3.2.8.1 1-.2.3-.4.3-.8.1-1M20.5 97c-.2.1-.4.3-.3.6.1.2.3.4.6.3.2-.1.4-.3.3-.6-.1-.2-.3-.4-.6-.3"/><g opacity=".6"><defs><path id="c" d="M33 31.7h5.4v5.6H33z"/></defs><clipPath id="d"><use xlink:href="#c" overflow="visible"/></clipPath><path clip-path="url(#d)" fill="#B79776" d="M36.2 37.1c-1.2.3-2.2-.2-2.8-1.3-.5-.8-.5-1.8-.2-2.6s1.1-1.4 1.9-1.6c.9-.2 1.7.1 2.4.7.8.9 1.1 1.8.9 2.7-.3 1.1-1.1 1.9-2.2 2.1"/></g><path fill="#6E2D2B" d="M33.7 35.5c1.6 2.8 6.4-.2 3.5-3-1.8-1.9-5 .4-3.5 3"/><g opacity=".35"><defs><path id="e" d="M33.9 33.5h4v3h-4z"/></defs><clipPath id="f"><use xlink:href="#e" overflow="visible"/></clipPath><path clip-path="url(#f)" fill="#37190A" d="M37.8 33.9c-.2-.6-.7-.5-.9 0-.2.7-1.1 1.1-1.8 1.2-.2 0-1.1-.2-1.2.2-.2.9 1.2 1.3 1.9 1.2 1.4-.2 2.4-1.5 2-2.6"/></g><defs><path id="g" d="M33.6 32h3.2v2.8h-3.2z"/></defs><clipPath id="h"><use xlink:href="#g" overflow="visible"/></clipPath><path clip-path="url(#h)" fill="#946362" d="M36.5 32.3c-.6-.5-1.4-.3-1.9 0-.1 0-.6.3-.8.8-.3.6-.1 1.6.7 1.7.4.1.9-.1 1.3-.4l.6-.3c.4-.5.8-1.3.1-1.8"/><path fill="#CCB5B5" d="M35.7 32.6c-.3-.3-.8-.1-1 .1-.2.1-.3.3-.3.5s.1.3.2.4c.2.1.5.1.7 0 .5-.2.7-.6.4-1"/><g opacity=".6"><defs><path id="i" d="M20.5 34.8h5.7v6h-5.7z"/></defs><clipPath id="j"><use xlink:href="#i" overflow="visible"/></clipPath><path clip-path="url(#j)" fill="#B79776" d="M24.1 40.7c-.4.1-.8.1-1.2.1-1.3-.2-2.2-1.1-2.3-2.4-.1-1.4.7-3.1 2.2-3.5.4-.1.8-.1 1.2 0 1.4.3 2.3 1.3 2.4 2.6-.1 1.2-.8 2.8-2.3 3.2"/></g><path fill="#6E2D2B" d="M22.7 40c3.2.4 4.3-4.5 1-5-3-.5-4.3 4.6-1 5"/><g opacity=".35"><defs><path id="k" d="M21.1 36.9h4.5v3h-4.5z"/></defs><clipPath id="l"><use xlink:href="#k" overflow="visible"/></clipPath><path clip-path="url(#l)" fill="#37190A" d="M25.5 37.2c-.1-.3-.6-.4-.9 0-.5.5-.7.9-1.6.9-.5 0-.9-.2-1.4-.3-.2 0-.4.1-.5.2-.4 1 .9 2 1.8 2 1.4-.1 3-1.6 2.6-2.8"/></g><defs><path id="m" d="M21.4 35.1h3.4v2.4h-3.4z"/></defs><clipPath id="n"><use xlink:href="#m" overflow="visible"/></clipPath><path clip-path="url(#n)" fill="#946362" d="M23.9 35.2c-.3-.1-1.2 0-1.6.2-.5.3-.9.7-.8 1.3.1 1.1 1.8.8 2.5.5.3-.2.8-.4.8-.9 0-.6-.4-.9-.9-1.1"/><path fill="#CCB5B5" d="M23.8 35.8c-.4-.5-1.7-.2-1.5.6.1.4.6.4 1 .3.1 0 .3-.1.4-.2.1-.1.2-.4.1-.7"/><g opacity=".6"><defs><path id="o" d="M33.7 60.6h5.8v5.7h-5.8z"/></defs><clipPath id="p"><use xlink:href="#o" overflow="visible"/></clipPath><path clip-path="url(#p)" fill="#88511A" d="M37.6 66.2c-1 .3-2.2 0-3-.7-.7-.6-1-1.4-.9-2.4.1-1.2.8-2.1 1.8-2.4.9-.3 2 0 2.8.6.7.6 1.1 1.4 1.1 2.4.1 1.2-.6 2.1-1.8 2.5z"/></g><path fill="#D82F22" d="M33.9 62.9c-.3 3.2 5.1 3.6 5.1.4.1-3-4.8-3.7-5.1-.4"/><g opacity=".5"><defs><path id="q" d="M34.4 61.8h4.5v3.4h-4.5z"/></defs><clipPath id="r"><use xlink:href="#q" overflow="visible"/></clipPath><path clip-path="url(#r)" fill="#B12218" d="M38.7 62.2c-.2-.4-.6-.5-1-.3-.3.1-.2.9-.6 1.4-.6.7-1.3.5-1.9.3-.2 0-.8 0-.6.4.2.5.5.8 1 .9.5.2 1.3.3 1.8.1 1-.2 2-1.6 1.3-2.8"/></g><path fill="#E05A4E" d="M36.9 61.1c-.4-.3-1-.3-1.5-.1-.3.1-.6.4-.8.6-.3.4-.5 1.2-.1 1.5.2.2.6.3 1.1.3.6 0 1.1-.5 1.4-1 .3-.3.4-.9-.1-1.3"/><path fill="#EEB7B2" d="M36.8 61.5c-.4-.7-1.3-.4-1.8.1-.2.3-.4.8-.2 1.1.3.4.8.4 1.2.1.3-.2.9-.6.9-1.1-.1 0-.1-.1-.1-.2"/><g opacity=".6"><defs><path id="s" d="M36.2 69.6H42v5.7h-5.8z"/></defs><clipPath id="t"><use xlink:href="#s" overflow="visible"/></clipPath><path clip-path="url(#t)" fill="#88511A" d="M40.2 75.1c-1 .3-2.2 0-3-.7-.7-.6-1-1.4-.9-2.4.1-1.2.8-2.1 1.8-2.4.9-.3 2 0 2.8.6.7.6 1.1 1.4 1.1 2.4 0 1.3-.7 2.2-1.8 2.5z"/></g><path fill="#D82F22" d="M36.5 71.9c-.3 3.2 5.1 3.6 5.1.4 0-3-4.9-3.7-5.1-.4"/><g opacity=".5"><defs><path id="u" d="M37 70.8h4.5v3.4H37z"/></defs><clipPath id="v"><use xlink:href="#u" overflow="visible"/></clipPath><path clip-path="url(#v)" fill="#B12218" d="M41.2 71.2c-.2-.4-.6-.5-1-.3-.3.1-.2.9-.6 1.4-.6.7-1.3.5-1.9.3-.2 0-.8 0-.6.4.2.5.5.8 1 .9.5.2 1.3.3 1.8.1 1-.3 2-1.6 1.3-2.8"/></g><path fill="#E05A4E" d="M39.5 70.1c-.4-.3-1-.3-1.5-.1-.3.1-.6.4-.8.6-.3.4-.5 1.2-.1 1.5.2.2.6.3 1.1.3.6 0 1.1-.5 1.4-1 .2-.4.3-.9-.1-1.3"/><path fill="#EEB7B2" d="M39.3 70.5c-.4-.7-1.3-.4-1.8.1-.2.3-.4.8-.2 1.1.3.4.8.4 1.2.1.3-.2.9-.6.9-1.1 0-.1-.1-.2-.1-.2"/><g opacity=".6"><defs><path id="w" d="M23.1 39.6h16.2v8.7H23.1z"/></defs><clipPath id="x"><use xlink:href="#w" overflow="visible"/></clipPath><path clip-path="url(#x)" fill="#B79776" d="M32.7 47.9c-2.1.6-4 .6-5.7 0-1.7-.6-2.6-1.2-3.7-2.6-.2-.2-.3-.6-.2-.9 0-.3.2-.5.4-.6.1-.1.2-.1.4-.2.6-.2 1.2.2 1.8.5.2.1.5.3.7.4 1.5.6 2.8.8 4.2.7.4 0 .9-.1 1.3-.3 1.1-.3 2.1-.8 3-1.6.8-.7 1.2-1.5 1.7-2.5.1-.1.1-.3.2-.4.2-.4.5-.6.9-.8.4-.1.8-.1 1.1.1.3.2.5.4.6.8.3 1.3-.6 3.2-1.6 4.3-1.5 1.5-3.2 2.5-5.1 3.1z"/></g><path fill="#D82F22" d="M39 40.5c-.2-1-1.7-1-2.1-.1-.6 1.1-1 2.2-2 3-1.2 1-2.8 1.7-4.4 1.9-1.6.2-2.9-.1-4.3-.7-.8-.3-1.7-1.3-2.5-.7-.3.2-.3.8-.1 1.2 1.1 1.4 2 2 3.6 2.5 1.8.6 3.7.4 5.5-.1 1.8-.5 3.5-1.5 4.8-2.9.9-1.1 1.8-2.9 1.5-4.1"/><path fill="#B12218" d="M36.9 43.3c-1.2 1.3-2.9 2.4-4.6 2.9-2 .6-3.9.6-5.5 0-1.4-.5-3.2-1.6-3.1-1.4 1 1.3 1.8 1.9 3.5 2.4 1.6.5 3.4.5 5.4-.1 1.7-.5 3.4-1.5 4.6-2.8.9-1 1.8-2.7 1.5-3.9-.6 1.3-1 2.1-1.8 2.9"/><path fill="#E5786F" d="M27.7 45.5c-.3-.5-.9-.5-1.4-.7-.6-.2-1.1-.4-1.7-.7-.3-.1-.6.3-.3.5.5.4 1.1.7 1.7.9.5.2 1.1.5 1.6.3.1-.1.2-.2.1-.3M29.5 45.9c-.1-.2-.3-.2-.5-.2s-.4.3-.3.5c.1.2.4.3.5.2l.1-.1h.1c.1-.2.1-.3.1-.4M30.5 45.9c-.2.1-.1.3 0 .3.2-.1.1-.3 0-.3M36.7 42.1c-.8.4-1.4 1.3-2.1 1.8-.4.3-.9.7-1.4.9-.5.2-1 .3-1.4.6-.2.1-.1.4.2.4 1.3-.1 2.3-.6 3.3-1.4.7-.5 1.8-1.2 1.8-2.2 0 0-.2-.1-.4-.1M37.9 40.1c-.1.1-.1.1-.1.2 0 0 0 .1-.1.1-.1.2-.1.4.1.5-.1-.1-.2-.1-.3 0h-.1c-.2.1-.2.5.1.6.2.1.6-.1.5-.4v-.2c0-.1-.1-.1-.1-.2.2.1.4 0 .5-.2.1-.2.2-.4.1-.6-.2.1-.5.1-.6.2"/><g opacity=".6"><defs><path id="y" d="M26.7 49.8h15.8v10.5H26.7z"/></defs><clipPath id="z"><use xlink:href="#y" overflow="visible"/></clipPath><path clip-path="url(#z)" fill="#88511A" d="M39.8 49.9c-.3-.1-.6-.1-.9 0-1.2.3-2.4 2.1-3.6 3.6-.3.4-.5.7-.8 1l-.1.1-.1-.1c-.4-.1-.8-.3-1.2-.5-1.8-.7-3.7-1.6-4.9-1.2-.3.1-.6.3-.8.5-1.1 1.5-.9 3.7-.1 5.1.6 1.3 1.5 1.8 2.5 1.8.1 0 .2 0 .3-.1 1.3-.4 3.6-2.9 4.5-4 .1-.1.1-.2.2-.3.1.1.2.1.3.2 1.4.5 4.6 1.4 5.9 1.1.1 0 .2-.1.3-.1.9-.5 1.3-1.6 1.2-3-.1-1.6-.9-3.4-2.7-4.1"/></g><g><defs><path id="A" d="M34.8 54.5c-.4.4 0 1.1.5 1.3 1.6.5 4.9 1.3 5.9.7 1.9-1 1.2-5.4-1.5-6.4-.1 0-.2-.1-.4-.1-1.4 0-3.2 2.7-4.5 4.5"/></defs><clipPath id="B"><use xlink:href="#A" overflow="visible"/></clipPath><linearGradient id="C" gradientUnits="userSpaceOnUse" x1="-912.192" y1="670.109" x2="-911.192" y2="670.109" gradientTransform="scale(9.0803 -9.0803) rotate(-64.004 -994.705 -400.952)"><stop offset="0" stop-color="#86c03a"/><stop offset=".995" stop-color="#658829"/><stop offset="1" stop-color="#658829"/></linearGradient><path clip-path="url(#B)" fill="url(#C)" d="m41.5 46.6 4.4 9.1-9.8 4.8-4.5-9.1z"/></g><g><defs><path id="D" d="M27.7 53.5c-1.8 2.3-.1 6.4 2.1 6.2 1.1-.1 3.6-2.4 4.7-3.7.4-.4.3-1.2-.3-1.4-1.6-.6-3.8-1.6-5.3-1.6-.5 0-.9.1-1.2.5"/></defs><clipPath id="E"><use xlink:href="#D" overflow="visible"/></clipPath><linearGradient id="F" gradientUnits="userSpaceOnUse" x1="-915.195" y1="653.489" x2="-914.195" y2="653.489" gradientTransform="rotate(84.492 -902.827 7585.338) scale(9.0803)"><stop offset="0" stop-color="#86c03a"/><stop offset=".995" stop-color="#658829"/><stop offset="1" stop-color="#658829"/></linearGradient><path clip-path="url(#E)" fill="url(#F)" d="m25.3 53.1.7 7.6 9.5-.9-.7-7.6z"/></g><g><path fill="#93C84E" d="M27.7 53.5c1-1.3 4.3.3 6.5 1.1.2.1.4.3.4.5-3.1 1-4.9.9-7.7 1.4 0-1 .1-2.2.8-3"/><path fill="#658829" d="M28 56.7c2.9 1.4 6.2-1.8 6.5-1.5.3.2-1 1.6-1.6 2.1-.7.7-1.6 1.6-2.6 1.9-.9.3-1.9-.2-2.5-1-.3-.4-.6-1.9.2-1.5"/><path fill="#B1D57F" d="M33.7 54.7c.2 0 .3.2.3.3 0 .1-.2.3-.4.2-.1 0-.2-.1-.2-.2s.1-.3.3-.3M28.1 53.8c.4-.7 1.3-.7 2-.4.8.3 1.7.7 2.5 1 .4.1.3.7-.1.7-.7-.1-1.5-.3-2.3-.2-.6.1-1.1.3-1.7.1-.5-.1-.7-.7-.4-1.2M27.4 55.6c0-.4.7-.5.7-.1v.1c0 .2-.1.4-.3.4-.2 0-.4-.1-.4-.3v-.1"/><g opacity=".4"><defs><path id="G" d="M29.1 58.1h1.7v.8h-1.7z"/></defs><clipPath id="H"><use xlink:href="#G" overflow="visible"/></clipPath><path clip-path="url(#H)" fill="#93C84E" d="M29.2 58.3c.2-.1.4 0 .7 0 .2 0 .4-.1.7-.2.2-.1.4.3.2.4-.3.2-.5.3-.8.4-.3 0-.7 0-.8-.3-.1-.1-.1-.2 0-.3"/></g><g opacity=".4"><defs><path id="I" d="M28.2 57.8h.5v.6h-.5z"/></defs><clipPath id="J"><use xlink:href="#I" overflow="visible"/></clipPath><path clip-path="url(#J)" fill="#93C84E" d="M28.5 57.8c.1 0 .3.1.3.2 0 .2-.1.3-.2.3s-.3-.1-.3-.2c-.1-.1 0-.2.2-.3"/></g><g opacity=".6"><defs><path id="K" d="M10.5 52h5.8v16.7h-5.8z"/></defs><clipPath id="L"><use xlink:href="#K" overflow="visible"/></clipPath><path clip-path="url(#L)" fill="#B79776" d="M13.4 68.6h-.1c-.6.1-1.3-.3-1.9-.9-.7-.8-1-1.8-.8-2.6.2-.8.7-1.2 1.2-1.6.3-.2.5-.5.6-.7.2-.4-.3-1-.7-1.5-.2-.3-.4-.6-.6-.8-.9-1.6-.6-3.1.9-4.1.3-.2.7-.4.9-.5.4-.2.8-.4.9-.6.4-.7.1-1.4-.5-2.2-.2-.2-.2-.5-.2-.7.1-.2.2-.3.4-.4.2-.1.4 0 .7.1.9.4 1.6 1.1 1.9 1.8.2.6.2 1.4-.1 2.1-.3.6-.9 1-1.5 1.4-.8.5-1.4.9-1.3 1.6.1.6.5 1.2.9 1.7.6.8 1.3 1.7.8 2.9-.3.7-.7 1.2-1 1.5-.3.3-.5.5-.6.8-.2.6.1 1.2.4 1.8.1.2.2.4.1.7-.2 0-.2.2-.4.2"/></g><path fill="#F7EEC3" d="M14 52.2c-.6-.3-.9.1-.6.6.6.7 1 1.6.5 2.5-.3.6-1.2.7-2 1.2-1.4 1-1.6 2.4-.8 3.8.5.9 1.7 1.8 1.4 2.6-.3.7-1.4 1.1-1.8 2.3-.3 1.3 1 3.4 2.4 3.2.3 0 .3-.2.1-.5-.3-.7-.6-1.4-.4-2 .2-.8 1.2-1.1 1.6-2.3.7-1.9-1.5-2.9-1.7-4.6-.2-1.5 2.3-1.9 2.9-3.1.8-1.7-.2-3.1-1.6-3.7"/><path fill="#EBCD96" d="M14 52.2c.8.7 1 1.6.9 2.7-.2 1.2-1.6 1.8-2.3 2.6-1.1 1.2-.3 2.2.3 3.5.3.7.7 1.6.3 2.4-.3.7-1 1.1-1.3 1.9-.5 1.2 0 2.8 1.2 3.3h.1c.3 0 .3-.2.1-.5-.3-.7-.6-1.4-.4-2 .2-.8 1.2-1.1 1.6-2.3.7-1.9-1.5-2.9-1.7-4.6-.2-1.5 2.3-1.9 2.9-3.1.7-1.9-.3-3.3-1.7-3.9"/><path fill="#F8F9E7" d="M11.5 64.3c-.6.1-1 1.8-.2 2 .1 0 .2 0 .2-.1.2-.2.1-.5.2-.8.1-.3.4-.5.3-.9 0-.2-.2-.3-.5-.2M12 56.8c-.6.1-.9.9-1 1.4 0 .3-.1.5 0 .8.1.2.4.4.6.2.1-.1.1-.3.1-.5s.1-.4.2-.5c.2-.3.5-.7.5-1.1-.1-.1-.2-.3-.4-.3"/><g opacity=".6"><defs><path id="M" d="M53.7 40h11.4v14.1H53.7z"/></defs><clipPath id="N"><use xlink:href="#M" overflow="visible"/></clipPath><path clip-path="url(#N)" fill="#B79776" d="M63.8 54.1h.1c.6-.3 1-.9 1.1-1.7.2-1-.1-2.1-.7-2.6s-1.3-.7-1.8-.8c-.4-.1-.7-.1-.9-.3-.3-.3-.3-1-.2-1.7 0-.4.1-.7.1-1 0-1.8-1.1-3-2.9-3.1-.4 0-.7 0-1.1.1-.5.1-.8.1-1.1 0-.7-.4-.8-1.1-.7-2.1 0-.3-.1-.5-.2-.7-.1-.2-.3-.2-.5-.2-.2.1-.4.2-.5.4-.6.8-.8 1.8-.7 2.6.1.7.5 1.3 1.2 1.7.5.4 1.3.4 2 .4.9 0 1.7 0 2 .7.3.6.2 1.2.2 1.9-.1 1-.2 2.1.8 2.9.6.5 1.2.6 1.7.7.4.1.7.2.9.4.4.4.5 1 .6 1.8 0 .2.1.5.3.6h.3"/></g><path fill="#F7EEC3" d="M54.7 40.4c.4-.6.9-.4.8.2-.1.9-.1 1.9.9 2.4.6.3 1.4 0 2.3 0 1.7.1 2.6 1.2 2.7 2.8 0 1-.5 2.4.2 2.9.6.4 1.8.2 2.7 1 1 .9.9 3.4-.3 4-.3.1-.4-.1-.4-.4-.1-.8-.2-1.5-.7-2-.6-.5-1.6-.3-2.6-1.1-1.6-1.2-.2-3.3-.9-4.8-.6-1.4-2.9-.4-4.1-1.2-1.6-.8-1.5-2.5-.6-3.8"/><path fill="#EBCD96" d="M54.7 40.4c-.3 1 0 1.9.6 2.7.8.9 2.3.7 3.3 1 1.5.5 1.4 1.7 1.5 3.1.1.8.2 1.8 1 2.2.6.4 1.5.4 2.1.9 1 .7 1.4 2.4.7 3.4-.3.1-.4-.1-.4-.4-.1-.8-.2-1.5-.7-2-.6-.5-1.6-.3-2.6-1.1-1.6-1.2-.2-3.3-.9-4.8-.6-1.4-2.9-.4-4.1-1.2-1.5-.8-1.4-2.5-.5-3.8"/><path fill="#F8F9E7" d="M63.1 49.4c.6-.2 1.8 1.1 1.3 1.6-.1.1-.1.1-.2 0-.3-.1-.4-.4-.6-.6-.2-.2-.6-.3-.7-.6-.1-.1 0-.3.2-.4M58.9 43.3c.5-.2 1.3.3 1.6.7.2.2.3.4.4.7 0 .2-.1.6-.4.5-.2-.1-.2-.2-.3-.3-.1-.2-.3-.2-.5-.4-.3-.2-.8-.3-1-.7-.1-.2 0-.4.2-.5"/><g opacity=".6"><defs><path id="O" d="M21.5 87.9h16.2v12.3H21.5z"/></defs><clipPath id="P"><use xlink:href="#O" overflow="visible"/></clipPath><path clip-path="url(#P)" fill="#B79776" d="M35.4 100.2c-.2.1-.4 0-.6-.1-.2-.1-.2-.4-.2-.6 0-.2.1-.3.2-.6.3-.6.7-1.5.2-2.5-.4-.8-1.6-.6-2.6-.4-.3.1-.6.1-.9.1-1.3.1-2.4-.4-3-1.4-.5-.8-.5-1.8-.5-2.7v-.4c0-.6-.1-.9-.3-1.1-.2-.1-.5-.1-.9 0h-.1c-.1 0-.3.1-.5.1-.4.1-.8.3-1.2.4-.9.2-1.5.3-1.9.3-.9-.1-1.2-.5-1.4-.8-.3-.6-.1-1.4.4-2.2.1-.1.2-.3.5-.4.2 0 .3 0 .4.1.2.1.2.4.2.7 0 .1 0 .3.1.4.1.1.3.2.9 0 .2-.1.4-.1.6-.2.2-.1.5-.2.7-.3.4-.2.8-.4 1.3-.5.3-.1.6-.1.9-.1 1.1 0 2.2.6 2.7 1.7.4.7.4 1.5.4 2.3 0 .3 0 .6.1.9 0 .3.1.4.2.5.3.2.8.1 1.3 0 .3-.1.6-.1.9-.1 1.5-.1 2.7.4 3.6 1.3.9.9 1.2 1.9 1 3.2-.5.9-1.3 2-2.5 2.4z"/></g><path fill="#F7EEC3" d="M36.4 94.4c-.9-.9-2.1-1.2-3.4-1.2-1 0-2.5.9-2.7-.6-.1-1 0-2.1-.5-3.1-.5-.9-1.4-1.6-2.5-1.5-1 0-1.9.6-2.8.9-.7.3-2.1.7-1.9-.4.1-.8-.4-.5-.6-.3-.9 1.5-.5 2.5.8 2.7.9.1 2.7-.6 3.5-.8 1.2-.4 1.7.1 1.7 1.3 0 1-.1 2 .5 2.9.6 1 1.7 1.4 2.8 1.3 1.1-.1 3-.8 3.7.4.8 1.5-.3 2.8-.4 3.3 0 .3.2.5.5.4 1-.3 1.8-1.3 2-2.5.4-1 .1-2-.7-2.8"/><path fill="#EBCD96" d="M36 95.7c-.5-.7-1.2-1.2-2.8-.9-1 .1-2.4.3-3.2-.3-.9-.7-.9-2.4-.9-3.5 0-.8-.8-1.6-2-1.5-1 .1-2.4.6-3.4.8-.5.1-1.2 0-1.4-.5-.2-.5 0-1 0-1.5-.1 0-.1.1-.1.2-.9 1.5-.5 2.5.8 2.7.9.1 2.7-.6 3.5-.8 1.2-.4 1.7.1 1.7 1.3 0 1-.1 2 .5 2.9.6 1 1.7 1.4 2.8 1.3 1.1-.1 3-.8 3.7.4.8 1.5-.3 2.8-.4 3.3 0 .2.1.4.3.4 1.2-1.3 1.9-2.9.9-4.3"/><path fill="#F8F9E7" d="M27.3 88.4c-.4 0-.9 0-1.2.3-.1.1-.1.3.2.4.3.1.7 0 1.1 0 .3 0 .7.2.9 0 .1 0 .1-.1.1-.2-.2-.5-.7-.5-1.1-.5M29.3 89.4l-.1-.1c-.2-.1-.4-.1-.5.1-.1.2 0 .4.2.4h.1c.1 0 .2 0 .3-.1.1-.1.1-.2 0-.3M29.7 90.2c-.2-.2-.5 0-.4.2.1.4.2.8.2 1.1 0 .3 0 .6.2.8.1.1.2.1.3 0 .2-.3.1-.7.1-1.1-.1-.3-.2-.6-.4-1M30.6 93.7c-.3.1-.1.5.1.4.4 0 .2-.5-.1-.4M34.1 93.5c-.5-.1-1.1-.1-1.6.1-.3.1-.2.5.1.5.6 0 1.2.1 1.8.3.2.1.8.2.8-.2s-.8-.6-1.1-.7M36 94.5c-.2-.1-.4-.1-.5.1-.1.2 0 .4.1.5-.1 0 0 0 0 0 .1 0 .1.1.2.1.2 0 .3-.1.4-.3.1-.2 0-.4-.2-.4M36.8 95.8c-.1-.3-.5-.1-.4.2.1.2.1.5.3.7.1.1.2 0 .3-.1 0-.3-.2-.6-.2-.8M24.8 89.3c-.2-.1-.4-.1-.6 0-.2.1-.4.1-.6.1-.4 0-.3.6 0 .6s1 0 1.2-.3c.1-.2.1-.4 0-.4"/><g opacity=".6"><defs><path id="Q" d="M55.7 76.3h10.9v17.3H55.7z"/></defs><clipPath id="R"><use xlink:href="#Q" overflow="visible"/></clipPath><path clip-path="url(#R)" fill="#B79776" d="M59.9 93.5c.2-.1.4-.2.4-.4.1-.2 0-.4-.1-.6-.1-.1-.3-.2-.5-.4-.6-.4-1.4-.9-1.5-2.1 0-.9 1.1-1.3 2-1.7.3-.1.6-.2.8-.3 1.2-.6 1.8-1.6 1.8-2.8 0-1-.5-1.8-.9-2.5-.1-.1-.1-.2-.2-.3-.3-.5-.4-.9-.3-1.1.1-.2.3-.4.8-.5h.1c.1 0 .3-.1.5-.1.4-.1.8-.2 1.3-.3.9-.2 1.4-.5 1.8-.7.7-.5.8-1.1.8-1.4-.1-.6-.6-1.2-1.5-1.7-.1-.1-.4-.1-.6-.1-.2 0-.3.1-.3.3-.1.2 0 .4.2.7.1.1.2.2.1.3 0 .1-.2.3-.8.5-.2.1-.4.1-.6.1-.2 0-.5.1-.8.1-.4.1-.9.1-1.4.3-.3.1-.6.2-.8.3-1 .6-1.5 1.7-1.4 2.8.1.8.4 1.5.8 2.1.1.3.3.5.4.8.1.2.1.4.1.6-.1.3-.6.5-1.1.7-.3.1-.6.2-.8.3-1.3.7-2.1 1.8-2.4 2.9-.3 1.2 0 2.3.8 3.2.9.8 2.2 1.3 3.3 1z"/></g><path fill="#F7EEC3" d="M56.1 89.1c.3-1.2 1.2-2.2 2.2-2.8.9-.5 2.6-.6 2-1.9-.4-1-1.1-1.8-1.2-2.9-.1-1 .4-2.1 1.3-2.6.8-.5 2-.5 2.9-.7.7-.1 2.2-.5 1.5-1.4-.5-.6.1-.7.3-.5 1.5.8 1.8 1.9.7 2.7-.7.5-2.6.9-3.4 1.1-1.2.3-1.4 1-.7 2 .5.9 1.1 1.7 1.1 2.7 0 1.1-.7 2.1-1.7 2.6-.9.5-3 .9-3 2.3.1 1.7 1.7 2.2 2 2.6.2.2.1.5-.2.6-1 .2-2.2-.2-3-1-.8-.7-1-1.7-.8-2.8"/><path fill="#EBCD96" d="M57.1 89.9c.1-.8.4-1.6 1.9-2.3.9-.4 2.2-1 2.6-1.9.4-1.1-.5-2.5-1.1-3.5-.4-.7-.1-1.8.9-2.3.9-.4 2.4-.7 3.3-1.1.5-.2 1-.6.9-1.2-.1-.5-.5-.9-.8-1.3.1 0 .1 0 .2.1 1.5.8 1.8 1.9.7 2.7-.7.5-2.6.9-3.4 1.1-1.2.3-1.4 1-.7 2 .5.9 1.1 1.7 1.1 2.7 0 1.1-.7 2.1-1.7 2.6-.9.5-3 .9-3 2.3.1 1.7 1.7 2.2 2 2.6.1.2.1.4-.1.5-1.4-.3-2.9-1.3-2.8-3"/><path fill="#F8F9E7" d="M60.7 79.2c.3-.2.7-.5 1.1-.4.2 0 .3.3.1.4-.3.2-.6.3-.9.5-.3.2-.5.5-.8.5-.1 0-.2-.1-.2-.1 0-.4.4-.7.7-.9M59.5 81.1v-.2c.1-.2.3-.3.5-.2.2.1.2.4 0 .5h-.1c-.1.1-.2.1-.3 0 0 .1-.1 0-.1-.1M59.7 82c0-.3.4-.3.5 0 .1.4.2.7.4 1.1.1.3.3.5.2.8 0 .1-.2.2-.3.1-.3-.1-.5-.5-.6-.9-.1-.4-.2-.7-.2-1.1M60.7 85.5c.3-.1.4.4.1.4-.3.1-.4-.3-.1-.4M57.7 87.1c.4-.4.9-.7 1.4-.8.3-.1.4.4.2.5-.5.3-1 .7-1.4 1.2-.2.2-.6.6-.8.3-.3-.4.3-1 .6-1.2M56.4 88.9c.1-.2.3-.3.5-.2.2.1.2.3.1.5 0-.1 0 0 0 0 0 .1-.1.1-.1.2-.1.1-.3.1-.5 0v-.5M56.5 90.4c-.1-.3.4-.4.5-.1.1.2.2.5.1.7 0 .1-.2.1-.3.1-.2-.1-.2-.5-.3-.7M63.4 78.6c.1-.2.3-.3.5-.3.2-.1.4-.1.5-.2.3-.2.5.3.2.5s-.9.6-1.2.3c0-.1-.1-.2 0-.3"/><path fill="#88511A" d="M150.3 40.9c.3-2-1.2-6.3-4.4-7.7-4.9-2.1-15.5-1.1-16.1-2-.6-.9 6.7-2.2 8.4-11.9 1.7-9.6-2.9-15.2-8.4-17.3l-.2-.3-.8-.1c-5.5-2-12.9-.7-17.8 7.7-5 8.5-.3 14.2-1.4 14.5-1.1.3-8.5-7.5-13.5-9-3.4-1-8 .6-9.1 2.3-2.1 3.2-1.8 7.4.8 10.9 2.4 3.1 10.8 8.5 11.5 11.6.1.3.2.3.1.7-.2.5-.4.9-.7 1.4-1.3 2-14.8 4.9-16.5 5.8-.5.2-.8.9-.8 1.4-.3 2.9 2.2 8.1 4.3 10.1.5.5-1.2 1.1-1.9 1.3-4.3 1.3-6.8 1.1-7.6 4.4-.8 3.4 2 9.8 9.7 13.2 5.2 2.3 11.7-4.4 16-8.8.5-.5 1.3-.7 2-.4.1.1 1.1.4 1.2.5.7.2 1.2.9 1.2 1.6.4 6.2 1 15.5 6.4 17.1 8.1 2.4 13.7-.7 15.2-3.8 1.6-3.1.6-4.5-1.8-8.3-.4-.6-1.7-2.9-1-3 2.8-.2 7.3-1.9 9-3.7.4-.4.9-1.3.7-1.8-.7-1.8-8.6-13-8.4-15.3.1-.5.2-1 .4-1.5.2-.4.4-.7.6-.8 2.6-1.9 12.8-.4 16.5-1.6 3.3-1.2 5.9-3.4 6.4-7.2"/><path fill="#D69B62" d="M149.9 39.5c.3-2-1.2-6.3-4.4-7.7-4.9-2.1-15.5-1.1-16.1-2-.6-.9 6.7-2.2 8.4-11.9 1.7-9.6-3.7-14.9-9.2-17-5.5-2-13.1-1.4-18 6.9-5 8.5-.3 14.2-1.4 14.5-1.1.3-8.5-7.5-13.5-9-3.4-1-7.3 1.3-8.4 3-2.1 3.2-1.5 6.6.3 9.5 2 3.3 10.8 8.9 11.5 12 .1.3 0 .6 0 1-.2.5-.4.9-.7 1.4-1.3 2-14.7 5.7-16.4 6.6-.5.2-.5.9-.5 1.4.1 2.5 2.4 6.7 4.4 8.7.5.5-1.8 1.6-2.5 1.9-4.3 1.3-6.2 1.5-7 4.9-.8 3.4 1.4 9.4 9.1 12.8 5.2 2.3 11.7-4.4 16-8.8.5-.5 1.3-.7 2-.4.1.1 1.1.4 1.2.5.7.2 1.2.9 1.2 1.6.4 6.2 1 15.5 6.4 17.1 8.1 2.4 13.7-.7 15.2-3.8 1.6-3.1.2-4.5-2.2-8.3-.4-.6-1.4-3-.7-3 2.8-.2 7.3-1.9 9-3.7.4-.4.8-.9.6-1.4-.7-1.8-8.5-13.4-8.2-15.7.1-.5.2-1 .4-1.5.2-.4.4-.7.6-.8 2.6-1.9 12.8-.4 16.5-1.6 3.3-1.2 5.9-3.4 6.4-7.2"/><path fill="#C18045" d="M149.9 39.5c.3-2-1.2-6.3-4.4-7.7-4.9-2.1-15.5-1.1-16.1-2-.6-.9 6.7-2.2 8.4-11.9 1.7-9.6-3.7-14.9-9.2-17-5.5-2-13.1-1.4-18 6.9-5 8.5-.3 14.2-1.4 14.5s-8.5-7.5-13.5-9c-3.4-1-7.3 1.3-8.4 3-2.1 3.2-1.5 6.6.3 9.5 2 3.3 10.8 8.9 11.5 12 .1.3 0 .6 0 1-.2.5-.4.9-.7 1.4-1.3 2-14.7 5.7-16.4 6.6-.5.2-.5.9-.5 1.4.1 2.5 2.4 6.7 4.4 8.7.5.5-1.8 1.7-2.5 1.9-4.3 1.3-6.2 1.5-7 4.9-.8 3.4 1.4 9.4 9.1 12.8 5.2 2.3 11.7-4.4 16-8.8.5-.5 1.3-.7 2-.4.1.1 1.1.4 1.2.5.7.2 1.2.9 1.2 1.6.4 6.2 1 15.5 6.4 17.1 8.1 2.4 13.7-.7 15.2-3.8 1.6-3.1.2-4.5-2.2-8.3-.4-.6-1.4-3-.7-3 2.8-.2 7.3-1.9 9-3.7.4-.4.8-.9.6-1.4-.7-1.8-8.5-13.4-8.2-15.7.1-.5.2-1 .4-1.5.2-.4.4-.7.6-.8 2.6-1.9 12.8-.4 16.5-1.6 3.3-1.2 5.9-3.4 6.4-7.2m-8.1 2.4c-1.6 1.1-7.9 1.2-10.2 1.3-2.3.1-5.4.8-7.3 2.2-2 1.5-3.1 4-3.1 6.4 0 2.4.6 4.6 2.1 6.6 1.2 1.7 2 3.2 3.3 4.8.3.4.6.9.5 1.4-.1.3-.3.6-.5.8-1.9 1.6-4.5 1.1-5.9 3.1-1.3 1.8-.2 4.3.8 6.3s1.6 4.7-.1 6.2c-1.1.9-2.6 1.3-3.6 1.3-2.4 0-4.2-.6-5.7-2.5-1.9-2.5-1.2-6.5-2-9.5-1.2-4.3-5.3-7.3-9.5-5.8-4 1.4-7.2 6.1-10.9 8.2-.9.5-1.8.8-2.8.9-2.7.1-4.8-2.4-6.1-4.8-.7-1.2-1.2-2.8-.5-4 .6-1 1.7-1.4 2.7-1.8 1.7-.6 2.6-.9 4.2-1.7.6-.3 1.6-.9 1.8-1.5.2-.6.3-1.8 0-2.3-.8-1.3-2-2.3-2.9-3.6-.9-1.3-1.3-3-.6-4.3.8-1.4 2.6-1.8 4.2-2.2 3.5-.9 6.9-2.3 9.9-4.3.8-.5 1.5-1.1 2-1.9 1.1-1.9.8-3.9-.7-5.5-2.1-2.4-5.7-4.7-7.9-7.1-2.2-2.4-4.2-5.4-3.1-8.5.4-1.1 1.6-2.5 2.7-3 1.6-.7 3.5-.4 4.9.6 3 2.1 6 4.8 9.1 7.3.9.7 3 1.4 4 .8.5-.3 1-1.2 1.2-1.8.8-2.2-.3-4.7-.2-7.1.2-4.2 2-8.5 5-11.4 2.7-2.7 6.6-2.7 10.3-1.4 3.7 1.4 5.3 5.1 5.4 8.6.1 4.4-1 8-4.1 11.2-1.3 1.3-3.2 2.3-4.3 3.8-1.1 1.5-1.6 3.3-.6 4.8 1.1 1.8 3.7 2.7 5.9 2.6 2.4-.1 4.8-.1 7.2-.2 2.4-.1 5.2.1 6.8 1.9 1.8 1.8.6 3.8-1.4 5.1"/><g opacity=".55"><defs><path id="S" d="M131.8 62h1v1.6h-1z"/></defs><clipPath id="T"><use xlink:href="#S" overflow="visible"/></clipPath><path clip-path="url(#T)" fill="#D69B62" d="M132.8 63.6c-.3-.5-.6-1-1-1.6.3.6.7 1.1 1 1.6"/></g><g opacity=".55"><defs><path id="U" d="M76 57.1h9.8v13.7H76z"/></defs><clipPath id="V"><use xlink:href="#U" overflow="visible"/></clipPath><path clip-path="url(#V)" fill="#D69B62" d="M77.2 65.3c.8-3.4 2.3-3.4 6.5-5.2 1.9-.8 2.5-2.6 2.1-3-.3.7-2 1.5-2.5 1.7-4.3 1.3-6.2 1.5-7 4.9-.5 1.9 0 4.5 1.9 7.1-1.2-2-1.4-4-1-5.5"/></g><g opacity=".55"><defs><path id="W" d="M81.3 37.6h18.3v17.1H81.3z"/></defs><clipPath id="X"><use xlink:href="#W" overflow="visible"/></clipPath><path clip-path="url(#X)" fill="#D69B62" d="M83.9 54.8c-.9-1.7-1.6-3.6-1.7-4.9 0-.5 0-1.2.5-1.4 1.7-.9 14.2-4.3 16.2-7.1 1.3-1.8.5-3-.1-3.7 0 .1 0 .1.1.2.1.3 0 .6 0 1-.2.5-.4.9-.7 1.4-1.3 2-14.7 5.7-16.4 6.6-.5.2-.5.9-.5 1.4.1 1.7 1.2 4.4 2.6 6.5"/></g><g opacity=".55"><defs><path id="Y" d="M85.9 0h50.6v26.4H85.9z"/></defs><clipPath id="Z"><use xlink:href="#Y" overflow="visible"/></clipPath><path clip-path="url(#Z)" fill="#D69B62" d="M88.2 18c1.1-1.7 5-4 8.4-3 5.1 1.5 12.5 9.3 13.5 9 1.1-.3-3.6-6 1.4-14.5 4.9-8.4 12.5-8.9 18-6.9 2.6 1 5.2 2.7 7 5.3-1.8-3.5-4.9-5.7-8-6.9-5.5-2-13.1-1.4-18 6.9-5 8.5-.3 14.2-1.4 14.5-1.1.3-8.5-7.5-13.5-9-3.4-1-7.3 1.3-8.4 3-2.1 3.2-1.5 6.6.3 9.5.1.2.2.4.4.6-1.4-2.7-1.6-5.7.3-8.5"/></g><path fill="#A76728" d="M149.9 39.5c.2-1.2-.3-3.1-1.3-4.9.5 1.3.7 2.6.6 3.4-.5 3.8-3.1 6-6.3 7-3.7 1.2-14-.2-16.5 1.6-.6.5-.9 1.4-1 2.1-.1 1.7.9 3.1 1.6 4.5-.6-1.3-1-2.3-.9-2.9.1-.5.2-1 .4-1.5.2-.4.4-.7.6-.8 2.6-1.9 12.8-.4 16.5-1.6 3.2-.9 5.8-3.1 6.3-6.9M133.5 64.9c.1.4-.3.9-.6 1.3-1.7 1.8-6.1 3.5-9 3.7-.7.1.3 2.4.6 3 .1.1.1.2.2.2-.3-.8-.6-1.8-.1-1.8 2.8-.2 7.3-1.9 9-3.7.4-.4.8-.9.6-1.4-.1-.3-.3-.7-.7-1.3M127.1 77.2c.5 1.2.4 2.4-.4 4-1.6 3.1-7.2 6.2-15.2 3.8-1.5-.5-2.7-1.6-3.6-3 .9 2.2 2.3 3.9 4.3 4.5 8.1 2.4 13.7-.7 15.2-3.8 1.2-2.3.8-3.6-.3-5.5M137.9 16.8c0-.2 0-.4.1-.5V12c0-.1 0-.2-.1-.3 0-.1 0-.2-.1-.4 0-.1 0-.2-.1-.3 0-.1-.1-.2-.1-.4 0-.1-.1-.2-.1-.3 0-.1-.1-.2-.1-.4 0-.1-.1-.2-.1-.3 0-.1-.1-.2-.1-.4 0-.1-.1-.1-.1-.2s-.1-.3-.1-.4c0 0 0-.1-.1-.1-.2-.5-.5-1-.7-1.5 1.1 2.5 1.5 5.6.8 9.3-1.7 9.7-9.8 11.7-9.1 12.5.5.6 1 .8 1.5.9 0 0-.1 0-.1-.1-.6-.9 6.7-2.2 8.4-11.9.1-.3.1-.6.1-.9.1.2.1.1.1 0"/><path fill="#C18045" d="M124.6 9.8c0-.1.1-.2.1-.3 0-.3-.1-.7-.3-.9-.2-.3-.6-.4-1-.4-.1 0-.3.1-.4.1-.3.2-.6.5-.6.9 0 .3.1.5.2.7 0 .1.1.3.2.4.2.2.4.4.7.4.3 0 .5-.1.7-.2.2-.2.4-.5.4-.7M124.2 13c-.7-.3-1.1.9-.4 1.1.7.3 1.1-.8.4-1.1M121 19.1c-.7-.3-1.1.8-.4 1.1.7.2 1.1-.9.4-1.1M117.7 12.8c.1-.3 0-.7-.2-.9l-.2-.2c-.2-.1-.4-.2-.6-.2-.3 0-.7.2-.8.6-.1.3-.1.6.1.9.1.2.3.3.5.3h.4c.3 0 .7-.2.8-.5M130.2 13c0-.3-.2-.6-.5-.7-.3-.2-.7-.1-1 .1-.1.1-.2.1-.3.2-.1.1-.1.3-.1.4 0 .1.1.3.1.4.1.1.3.2.4.3.1 0 .1.1.2.1h.2c.1 0 .3 0 .4-.1.4 0 .6-.3.6-.7M126.1 20.9c-.1-.1-.1-.2-.2-.3-.1-.2-.3-.3-.5-.4-.2-.1-.3-.1-.5-.1h-.3c-.2 0-.3.1-.4.2-.2.1-.4.3-.5.6-.1.2-.1.4-.1.6 0 .3.2.6.5.7.1.1.3.2.5.2.2.1.3.1.5.1s.3 0 .4-.1c.3-.1.5-.4.6-.7.1-.1.1-.5 0-.8M115.2 24.4c0-.2-.1-.4-.2-.6-.2-.2-.5-.3-.8-.3-.2 0-.3.1-.4.2-.2.2-.3.5-.2.8 0 .1.1.2.2.3.1.1.3.2.4.2h.1c.2 0 .4 0 .6-.2.1 0 .2-.2.3-.4M105.1 28.1c-.2-.1-.4-.2-.6-.2h-.4c-.1 0-.2 0-.2.1-.1.1-.2.1-.3.2-.1.2-.3.4-.3.6 0 .2 0 .3.1.5s.3.4.6.5c.1 0 .3.1.4.1.2 0 .4 0 .6-.1.5-.4.6-1.3.1-1.7M102 23.5c-.5-.4-1.4-.2-1.6.4v.1c-.1.3 0 .6.2.8.1.1.3.2.5.2h.2c.2 0 .4.1.6 0 .2-.1.3-.2.4-.4.1-.4 0-.9-.3-1.1"/><path fill="#C18045" d="M101.3 24.9h.1c0 .1-.1.1-.1 0 0 .1 0 0 0 0M97.2 21.5c-.7-.2-1.1.8-.4 1 .7.3 1-.7.4-1M94.6 18.7c-.7-.3-1.1.8-.4 1.1.7.2 1.1-.9.4-1.1M92.9 23.9c-.2-.2-.3-.4-.6-.4-.4-.1-.8 0-1.1.2-.5.3-.5 1-.1 1.4v.1c0 .2.1.3.3.4.1.1.2.1.4.1s.3 0 .5-.1c.4 0 .7-.1.9-.5.2-.4.1-.9-.3-1.2M96.6 27.8c-.1-.2-.3-.4-.6-.4-.2 0-.3 0-.4.1-.1.1-.3.2-.3.4v.1c0 .2-.1.3 0 .5s.2.2.3.3h.1c.1.1.3 0 .4 0 .2 0 .3-.1.4-.2.2-.2.3-.6.1-.8M101.9 33.2c-.3-.1-.6 0-.7.3-.1.3 0 .6.3.7.3.1.6 0 .7-.3.1-.2 0-.5-.3-.7M110.9 28.5c-.1-.2-.2-.3-.4-.4-.3-.2-.6-.2-.9.1-.2.2-.2.5-.1.8.1.4.5.6.9.5.4-.1.7-.6.5-1M101.4 27.8c-.1-.3-.6-.5-.9-.2l-.1.1c-.2.2-.2.4-.1.6.1.2.3.3.6.3h.1c.3-.1.5-.5.4-.8M114.9 34.6v-.1c0-.1 0-.2-.1-.3 0 .1 0 .1.1.2-.1-.4-.4-.8-.8-.9-.2 0-.5 0-.7.1-.3.1-.4.3-.5.6-.2.5 0 1.1.4 1.4.3.2.8.2 1.1 0 .2-.1.3-.2.4-.4 0-.2.1-.4.1-.6M119.6 27.7c-1-.4-1.6 1.2-.6 1.6 1 .4 1.6-1.2.6-1.6M123.7 36.9c-.4-.1-.9 0-1 .5 0 .1-.1.3-.1.4 0 .2 0 .3.1.5.1.1.2.3.4.3.1 0 .3.1.4 0 .2 0 .3-.2.5-.3.1-.1.1-.2.2-.4.1-.4-.1-.9-.5-1M132.9 37.2c-.1-.3-.3-.6-.6-.7-.2-.1-.4-.1-.6 0h-.2c-.2 0-.4.1-.5.2-.2.1-.3.3-.3.5-.1.3-.1.4-.1.6.1.4.4.8.8.9.6.2 1.3-.1 1.5-.7.1-.2 0-.5 0-.8M137.1 38.9c-1-.4-1.6 1.2-.6 1.6 1.1.4 1.6-1.2.6-1.6M140.8 37.5c-.6-.2-.9.7-.3.9.5.3.9-.7.3-.9M125.7 40.9c0-.3-.1-.6-.3-.9-.2-.2-.3-.3-.5-.4-.2-.1-.3-.1-.5-.1s-.5 0-.7.1c-.1.1-.2.1-.2.2-.2.1-.4.4-.5.6-.1.3-.1.6 0 .9 0 .1 0 .1.1.2s.1.2.2.3l.3.3c.2.1.3.2.5.2s.3.1.5 0c.3-.1.5-.2.7-.4.1-.1.1-.2.2-.3 0-.1.2-.4.2-.7M117.1 42.4c-.1-.2-.3-.3-.6-.4-.3 0-.6.1-.7.3-.1.1-.1.2-.2.3-.1.1-.1.2-.1.3 0 .2.1.5.4.6.1 0 .2.1.3 0h.3c.7 0 .9-.6.6-1.1M110.3 35.9c-.4-.4-1-.5-1.5-.2-.3.2-.4.4-.5.7-.2.2-.4.6-.4.8 0 .3.1.6.3.9.4.5 1.2.6 1.7.2.3-.3.7-.5.8-.9.1-.5-.1-1.1-.4-1.5M108.1 44.4c-.7-.3-1.2.9-.4 1.1.7.3 1.1-.8.4-1.1M101.8 50.2v-.4c0-.2 0-.4-.1-.5-.1-.3-.4-.5-.7-.5s-.7.1-.9.3c-.3.2-.5.6-.5 1 0 .3 0 .5.2.8.2.2.5.4.8.4.3 0 .6-.1.8-.2.2-.3.4-.6.4-.9M111 53.3v-.4c0-.2-.1-.4-.2-.5-.1-.2-.4-.3-.6-.3-.4 0-.7.2-.9.5-.1.1-.2.2-.2.3v-.1c0 .1-.1.2-.1.3-.1.2-.1.5 0 .7.1.2.3.4.5.5.3.1.5.1.8 0 .4-.2.7-.6.7-1M117 52.1c-.4-.2-1 .1-1.1.5-.1.4.1.9.5 1.1.4.2 1-.1 1.1-.5.1-.5-.1-1-.5-1.1M118.4 61.8v-.3c0-.3 0-.7-.3-1-.3-.3-.7-.5-1.1-.5-.5 0-.9.3-1 .7-.1.3 0 .5.2.8v.4c.1.3.3.6.6.8.3.2.6.2 1 0 .2-.1.3-.2.4-.4.1-.1.2-.3.2-.5M120.5 64.6c0-.3-.2-.6-.4-.7-.3-.1-.5 0-.7.2-.1.1-.2.3-.2.4 0 .2.1.3.2.5 0 0 0 .1.1.1.1.2.2.2.4.2h.1c.2 0 .3-.1.4-.2.1-.2.1-.4.1-.5M115.6 71v-.2c0-.4-.3-.6-.6-.6s-.6.3-.6.7l.1.2c0 .2.2.4.3.4.1 0 .3.1.4 0 .3-.1.4-.3.4-.5M117.1 77.2c0-.2.1-.3 0-.5 0-.1-.1-.2-.1-.3-.1-.2-.2-.3-.4-.4l-.1-.1c-.1-.1-.2-.1-.3-.2-.2-.1-.5 0-.6.2-.1.2-.1.5 0 .6v.5c0 .2.1.3.2.4.1.1.3.2.5.2.1 0 .3 0 .4-.1.2.1.4-.1.4-.3M110.2 58.7c-.3-.4-.8-.4-1.2 0-.3.3-.3.8.1 1.1 0 0 0 .1.1.1.1.1.2.2.3.2.4.1.8-.1.9-.4.2-.3.1-.7-.2-1M100.1 59.9c0-.2 0-.4-.1-.5 0-.1-.1-.1-.1-.2-.1-.1-.2-.2-.4-.3-.1-.1-.3-.1-.4-.1-.2 0-.5 0-.7.1l-.1.1-.2.2c-.1.2-.2.4-.2.6 0 .3.2.7.6.8.2.1.4.1.7 0h.2c.3-.1.6-.3.7-.7M94.2 53.5c-.9-.3-1.4 1-.5 1.3.9.4 1.4-1 .5-1.3M92.9 64.2c.1-.2.1-.4 0-.6 0-.3-.3-.5-.6-.6h-.4c-.1 0-.3 0-.4.1-.1.1-.3.2-.4.3-.4.3-.5.9-.2 1.3s.8.6 1.3.4c.4-.2.7-.5.7-.9M88.1 68.6c-.1-.2-.2-.3-.3-.5-.1-.1-.2-.1-.3-.2-.3-.1-.7 0-.9.2-.1.1-.2.3-.2.5-.1.2 0 .5.1.7.2.2.4.3.7.3.4 0 .8-.2.9-.6.1-.1.1-.3 0-.4M84.7 65.3c-.3-.2-.6-.3-.8-.1-.2.1-.3.2-.4.4-.1.2-.1.4 0 .6.1.2.4.4.6.4h.1c.3 0 .6-.2.7-.5.2-.2.1-.5-.2-.8M95.5 48.8v-.4c-.1-.2-.2-.4-.3-.5-.1-.1-.2-.1-.3-.2-.4-.1-.9 0-1.1.4-.1.2-.1.4-.1.6 0 .2.2.5.4.6 0 0 .1 0 .1.1.2.1.4.2.6.2.1 0 .2 0 .4-.1.1-.1.2-.4.3-.7M103.2 55.4c-.4-.1-.9.1-1 .5-.1.4.1.9.5 1 .4.1.9-.1 1-.5.1-.4 0-.9-.5-1M104.5 60.8c-.8-.3-1.3 1-.5 1.3.9.3 1.4-1 .5-1.3M88.3 51.1c-.6-.2-1 .8-.4 1 .7.2 1-.8.4-1M116.8 46.5c-.2-.5-1-.7-1.4-.3l-.1.1c-.2.1-.4.3-.4.6s.1.5.3.7c.1.1.2.2.3.2.1 0 .2.1.3.1.3 0 .5-.1.7-.3.4-.4.4-.8.3-1.1"/><g opacity=".6"><defs><path id="aa" d="M108.1 23.3h20.6v13.4h-20.6z"/></defs><clipPath id="ab"><use xlink:href="#aa" overflow="visible"/></clipPath><path clip-path="url(#ab)" fill="#88511A" d="M128.6 30.5c0-.4-.1-.6-.3-.7-.1-.1-.4-.1-.7.1-1 .7-2 1.1-3.2 1.3-1 .2-2.1.1-3.1 0-1.5-.2-2.9-.7-4.3-1.2-.4-.2-.9-.4-1.3-.6-.8-.4-1.5-.9-2.2-1.5-.8-.7-1.5-1.5-2-2.4-.2-.4-.4-1-.6-1.5-.1-.4-.2-.5-.3-.5-.3-.1-.5 0-.8.3-.9.8-1.9 2.4-1.9 4.2 0 1.6.8 3 2.3 4.2.4.4.9.6 1.4.8 1.5.5 3.3.3 5-.7 0 0 .6-.4 1.1-.9 0 .6.2 1.4.2 1.4.6 1.9 1.8 3.2 3.3 3.8.5.2 1 .3 1.6.3 1.9 0 3.4-.6 4.5-1.8 1.2-1.6 1.5-3.4 1.3-4.6"/></g><g opacity=".6"><defs><path id="ac" d="M126.8 14.2h5.2v5.3h-5.2z"/></defs><clipPath id="ad"><use xlink:href="#ac" overflow="visible"/></clipPath><path clip-path="url(#ad)" fill="#B79776" d="M128.3 19.3c-1.1-.4-1.6-1.4-1.5-2.6.1-.9.6-1.7 1.3-2.1.7-.4 1.6-.5 2.4-.2.8.3 1.3 1 1.4 1.9.2 1.1-.1 2.1-.9 2.6-.7.7-1.7.8-2.7.4"/></g><path fill="#6E2D2B" d="M127.3 16.5c-.3 3.1 5 3.5 4.5-.3-.5-2.5-4.2-2.5-4.5.3"/><g opacity=".35"><defs><path id="ae" d="M127.4 16.4h4.1v2.4h-4.1z"/></defs><clipPath id="af"><use xlink:href="#ae" overflow="visible"/></clipPath><path clip-path="url(#af)" fill="#37190A" d="M131.4 17.6c.2-.5-.3-.8-.7-.5-.6.4-1.5.2-2.1-.1-.2-.1-.7-.8-1-.5-.6.6.2 1.7.8 2 1.2.6 2.7.3 3-.9"/></g><defs><path id="ag" d="M128 14.6h3.3v2.3H128z"/></defs><clipPath id="ah"><use xlink:href="#ag" overflow="visible"/></clipPath><path clip-path="url(#ah)" fill="#946362" d="M131.3 15.6c-.2-.7-.9-1-1.5-1.1-.1 0-.7-.1-1.1.1-.6.3-.9 1.2-.4 1.7.3.3.8.4 1.2.4.2 0 .5.1.6.1.7.1 1.4-.4 1.2-1.2"/><path fill="#CCB5B5" d="M130.5 15.4c0-.4-.5-.5-.8-.5-.2 0-.4.1-.5.2-.1.1-.1.3-.1.4.1.2.3.4.6.4.4.2.8 0 .8-.5"/><g opacity=".6"><defs><path id="ai" d="M115 9.7h5.8v5.7H115z"/></defs><clipPath id="aj"><use xlink:href="#ai" overflow="visible"/></clipPath><path clip-path="url(#aj)" fill="#B79776" d="M116.8 15.2c-.4-.1-.7-.4-1-.6-.9-.9-1.1-2.1-.4-3.2.7-1.1 2.2-2 3.7-1.5.4.1.7.3.9.6.9 1 1.1 2.3.4 3.4-.7 1-2.1 1.8-3.6 1.3z"/></g><path fill="#6E2D2B" d="M116.2 13.9c2.3 2.2 5.9-1 3.6-3.4-2.1-2.1-6 1.1-3.6 3.4"/><g opacity=".35"><defs><path id="ak" d="M115.6 11.3h4.3v3h-4.3z"/></defs><clipPath id="al"><use xlink:href="#ak" overflow="visible"/></clipPath><path clip-path="url(#al)" fill="#37190A" d="M119.9 13.2c.1-.3-.2-.6-.7-.5-.7.2-1.1.3-1.7-.2-.4-.3-.6-.7-.9-1-.1-.1-.4-.2-.5-.1-.9.5-.4 2.1.3 2.5 1 .7 3.2.5 3.5-.7"/></g><defs><path id="am" d="M116.9 10h3.2v2.4h-3.2z"/></defs><clipPath id="an"><use xlink:href="#am" overflow="visible"/></clipPath><path clip-path="url(#an)" fill="#946362" d="M119.8 10.8c-.2-.3-.9-.7-1.4-.7-.5 0-1.1 0-1.4.5-.5 1 1 1.7 1.7 1.8.4.1.8.1 1.2-.2.3-.5.1-1-.1-1.4"/><path fill="#CCB5B5" d="M119.3 11.2c0-.6-1.2-1.1-1.5-.4-.1.4.3.6.6.8.1 0 .3.1.4.1.3-.1.6-.2.5-.5"/><g opacity=".6"><defs><path id="ao" d="M113.6 17.2h15.2v9.1h-15.2z"/></defs><clipPath id="ap"><use xlink:href="#ao" overflow="visible"/></clipPath><path clip-path="url(#ap)" fill="#B79776" d="M119.5 25.7c-2-.7-3.5-1.8-4.5-3.2-1-1.4-1.4-2.4-1.4-4.1 0-.3.1-.6.4-.9.2-.2.4-.3.7-.3.1 0 .3 0 .4.1.6.2.9.9 1.1 1.4.1.2.2.5.3.7.8 1.4 1.7 2.2 2.9 2.9.4.2.7.4 1.1.5 1 .4 2.1.5 3.2.5 1-.1 1.8-.5 2.7-1 .1-.1.2-.1.4-.2.4-.2.8-.2 1.1-.1.4.1.7.4.8.8.1.3.1.6 0 .9-.5 1.2-2.3 2.2-3.7 2.5-1.8.3-3.7.1-5.5-.5z"/></g><path fill="#D82F22" d="M128.6 23.4c.4-.9-.7-1.7-1.6-1.3-1.1.6-2 1.1-3.2 1.2-1.6.1-3.1-.3-4.5-1-1.3-.7-2.2-1.7-3-3-.4-.7-.6-2-1.5-2-.4 0-.7.5-.7.9.1 1.7.4 2.6 1.4 4 1.1 1.5 2.6 2.5 4.3 3.1 1.7.6 3.6.8 5.3.5 1.3-.3 3-1.2 3.5-2.4"/><path fill="#B12218" d="M125.4 24.5c-1.7.3-3.6.3-5.2-.3-1.9-.7-3.4-1.8-4.3-3.1-.8-1.2-1.6-3-1.6-2.9.1 1.6.4 2.5 1.3 3.8.9 1.3 2.3 2.3 4.2 3 1.6.6 3.5.8 5.2.4 1.3-.2 2.9-1.1 3.4-2.2-1.2.7-2 1.1-3 1.3"/><path fill="#E5786F" d="M117 20.9c.1-.5-.4-.9-.7-1.3l-.9-1.5c-.1-.3-.6-.1-.5.2.2.6.4 1.1.8 1.7.3.4.5 1 1.1 1.2 0 0 .1-.1.2-.3M118.1 22.2c0-.2-.1-.3-.3-.4-.2-.1-.5 0-.5.2-.1.2.1.5.3.4H117.9c.1.1.2 0 .2-.2M118.8 22.8c-.2-.1-.3.2-.1.2.2.1.3-.1.1-.2M125.9 23.5c-.8-.2-1.8.2-2.6.3-.5 0-1.1 0-1.6-.1s-.9-.3-1.5-.3c-.2 0-.3.3-.1.4 1 .7 2.1.8 3.3.8.9 0 2.1.1 2.6-.7.1-.2 0-.4-.1-.4M127.9 22.5c-.1 0-.1.1-.2.1h-.1c-.2.1-.3.3-.2.5 0-.1-.1-.2-.2-.2h-.1c-.3 0-.4.3-.3.5.1.2.5.3.6 0 0-.1.1-.1.1-.2V23c.1.2.3.2.5.2.2-.1.4-.2.4-.4-.1-.1-.3-.3-.5-.3"/><g opacity=".6"><defs><path id="aq" d="M91.4 17.5H103v12.9H91.4z"/></defs><clipPath id="ar"><use xlink:href="#aq" overflow="visible"/></clipPath><path clip-path="url(#ar)" fill="#B79776" d="M92.5 30.4s-.1 0-.1-.1c-.5-.3-.9-1-.9-1.8-.1-1 .3-2 .9-2.5.6-.5 1.3-.5 1.8-.6.4 0 .7-.1.9-.2.3-.2.3-.9.3-1.6v-1c.2-1.8 1.3-2.8 3-2.7.4 0 .7.1 1 .1.4.1.8.2 1.1 0 .7-.3.9-1 .9-2 0-.3.1-.5.3-.6.1-.1.3-.1.5-.1.2.1.3.2.5.4.5.9.7 1.8.5 2.5-.2.6-.6 1.2-1.3 1.5-.6.3-1.3.3-2 .2-.9-.1-1.6-.1-1.9.5-.3.5-.3 1.2-.3 1.8 0 1 0 2.1-1 2.7-.6.4-1.2.5-1.7.6-.4.1-.7.1-.9.3-.5.3-.6 1-.7 1.6 0 .2-.1.4-.3.6-.3.5-.5.5-.6.4"/></g><path fill="#F7EEC3" d="M102.3 18c-.3-.6-.8-.4-.8.1 0 .9-.1 1.8-1 2.2-.6.3-1.3-.1-2.2-.2-1.7 0-2.6.9-2.8 2.5-.1 1 .3 2.4-.4 2.8-.6.4-1.7 0-2.7.8-1 .8-1.1 3.2 0 3.9.2.1.4 0 .4-.4.1-.7.3-1.4.8-1.8.6-.5 1.6-.2 2.6-.9 1.6-1.1.5-3.1 1.3-4.5.7-1.3 2.9-.2 4-.8 1.6-.8 1.5-2.4.8-3.7"/><path fill="#EBCD96" d="M102.3 18c.2 1-.1 1.8-.8 2.6-.8.8-2.2.5-3.2.7-1.5.3-1.4 1.5-1.7 2.9-.1.8-.4 1.7-1.1 2.1-.6.4-1.5.3-2.1.7-1 .6-1.6 2.2-.9 3.2.2.1.4 0 .4-.4.1-.7.3-1.4.8-1.8.6-.5 1.6-.2 2.6-.9 1.6-1.1.5-3.1 1.3-4.5.7-1.3 2.9-.2 4-.8 1.4-.9 1.4-2.5.7-3.8"/><g opacity=".5"><defs><path id="as" d="M92.1 26h1.7v1.5h-1.7z"/></defs><clipPath id="at"><use xlink:href="#as" overflow="visible"/></clipPath><path clip-path="url(#at)" fill="#F8F9E7" d="M93.5 26c-.6-.2-1.8.9-1.3 1.4 0 .1.1.1.2.1.3-.1.4-.4.6-.5.2-.2.6-.2.7-.5.1-.2 0-.4-.2-.5"/></g><g opacity=".5"><defs><path id="au" d="M96 20.4h2.2v1.7H96z"/></defs><clipPath id="av"><use xlink:href="#au" overflow="visible"/></clipPath><path clip-path="url(#av)" fill="#F8F9E7" d="M98.1 20.5c-.5-.3-1.2.2-1.6.5-.2.2-.4.4-.4.6 0 .2.1.5.3.5.2 0 .2-.2.3-.3.1-.1.3-.2.5-.3.3-.2.8-.3 1-.6 0-.1 0-.3-.1-.4"/></g><g opacity=".6"><defs><path id="aw" d="M135.9 30.6h5.3v16.1h-5.3z"/></defs><clipPath id="ax"><use xlink:href="#aw" overflow="visible"/></clipPath><path clip-path="url(#ax)" fill="#B79776" d="M137.6 46.6h.1c.6.1 1.3-.2 1.9-.7.7-.7 1.1-1.7.9-2.4-.1-.8-.6-1.2-1-1.6-.2-.3-.5-.5-.5-.7-.1-.4.4-.9.8-1.4.2-.2.5-.5.7-.8 1-1.5.8-2.9-.5-4l-.9-.6c-.4-.2-.7-.4-.8-.7-.4-.7 0-1.4.6-2.1.2-.2.3-.5.2-.7 0-.2-.2-.3-.3-.4-.2-.1-.4-.1-.7 0-.9.3-1.6.9-2 1.6-.3.6-.3 1.3 0 2 .2.6.8 1 1.3 1.4.7.5 1.3 1 1.2 1.6-.1.6-.5 1.1-1 1.6-.7.8-1.3 1.6-1 2.8.2.7.6 1.2.9 1.5.2.3.4.5.5.8.1.6-.2 1.1-.5 1.7-.1.2-.2.4-.1.6 0 .3.1.4.2.5"/></g><path fill="#F7EEC3" d="M138.3 30.8c.6-.2.9.2.5.6-.6.7-1.1 1.4-.7 2.4.3.6 1.1.8 1.8 1.3 1.3 1.1 1.4 2.4.5 3.7-.5.8-1.8 1.6-1.5 2.4.2.7 1.3 1.1 1.5 2.3.2 1.3-1.2 3.1-2.5 2.9-.3 0-.2-.3-.1-.5.4-.6.7-1.3.6-1.9-.2-.8-1-1.2-1.4-2.4-.5-1.8 1.7-2.7 2-4.3.3-1.4-2.1-2-2.5-3.2-.7-1.6.4-2.8 1.8-3.3"/><path fill="#EBCD96" d="M138.3 30.8c-.8.6-1.1 1.5-1 2.5.1 1.1 1.4 1.8 2 2.6.9 1.2.1 2.1-.6 3.3-.4.7-.8 1.5-.5 2.3.3.7.9 1.2 1.1 1.9.4 1.1-.2 2.7-1.4 3.1h-.1c-.3 0-.2-.3-.1-.5.4-.6.7-1.3.6-1.9-.2-.8-1-1.2-1.4-2.4-.5-1.8 1.7-2.7 2-4.3.3-1.4-2.1-2-2.5-3.2-.6-1.7.5-2.9 1.9-3.4"/><g opacity=".5"><defs><path id="ay" d="M139.3 42.6h1v2h-1z"/></defs><clipPath id="az"><use xlink:href="#ay" overflow="visible"/></clipPath><path clip-path="url(#az)" fill="#F8F9E7" d="M139.8 42.6c.6.2.8 1.8.1 2-.1 0-.2 0-.2-.1-.2-.2 0-.5-.1-.8-.1-.3-.3-.6-.2-.8-.1-.3.1-.4.4-.3"/></g><g opacity=".5"><defs><path id="aA" d="M139.5 35.4h1.3v2.5h-1.3z"/></defs><clipPath id="aB"><use xlink:href="#aA" overflow="visible"/></clipPath><path clip-path="url(#aB)" fill="#F8F9E7" d="M139.9 35.4c.5.1.8 1 .9 1.5 0 .2 0 .5-.1.8-.1.2-.4.4-.6.2-.1-.1-.1-.3-.1-.5s-.1-.4-.2-.5c-.1-.3-.5-.7-.4-1.1.1-.3.3-.4.5-.4"/></g><path fill="#F7EEC3" d="M117.8 30.2c.5.2-.7 1.2-1.1 1.4-1.7 1-4.1 1.5-6-.1-3.7-3-2-6.6-.4-7.9.4-.3.7-.3.8.2 1 3.9 4.9 5.9 6.7 6.4M118.4 30.4c-.5-.2-.2 1.3-.1 1.8.6 1.9 2.1 3.8 4.6 3.8 4.7.1 5.7-3.7 5.5-5.7-.1-.5-.4-.7-.8-.4-3.3 2.3-7.4 1.3-9.2.5"/><g opacity=".6"><defs><path id="aC" d="M112.1 35.3h5.6V41h-5.6z"/></defs><clipPath id="aD"><use xlink:href="#aC" overflow="visible"/></clipPath><path clip-path="url(#aD)" fill="#88511A" d="M113.9 40.8c-.6-.2-1-.6-1.3-1-.7-1-.6-2.5.2-3.5.8-.9 2.1-1.2 3.1-.8.5.2.9.5 1.2.9.5.8.7 1.8.4 2.7-.3.8-.8 1.4-1.7 1.7-.5.3-1.2.3-1.9 0"/></g><path fill="#D82F22" d="M113.1 36.2c-.7.8-.8 2.2-.2 3.1.6.9 1.9 1.3 3 .9 1.7-.6 2-2.6 1.1-3.9-.9-1.2-2.8-1.2-3.9-.1"/><g opacity=".5"><defs><path id="aE" d="M112.7 37.7h4.6v2.5h-4.6z"/></defs><clipPath id="aF"><use xlink:href="#aE" overflow="visible"/></clipPath><path clip-path="url(#aF)" fill="#B12218" d="M117.3 38.5c.3-1-.3-1.1-.8-.2-.1.2-.8.7-2 .4-.4-.1-1-.5-1.2-.8-.2-.3-.5-.3-.5.1-.1 1.1.7 1.7 1.7 2 1 .4 2.4-.2 2.8-1.5"/></g><g opacity=".7"><defs><path id="aG" d="M113.2 35.6h3.7v2.6h-3.7z"/></defs><clipPath id="aH"><use xlink:href="#aG" overflow="visible"/></clipPath><path clip-path="url(#aH)" fill="#E5786F" d="M116.9 36.7c-.3-1.2-2.1-1.4-3-.8-.1.1-.3.2-.3.4-.1.1-.2.3-.3.4-.3.9.9 1.5 1.7 1.5.8 0 2.2-.4 1.9-1.5"/></g><g opacity=".7"><defs><path id="aI" d="M114 35.7h2.3v1.6H114z"/></defs><clipPath id="aJ"><use xlink:href="#aI" overflow="visible"/></clipPath><path clip-path="url(#aJ)" fill="#F0D6D3" d="M116.2 36.2c-.4-.5-1.5-.6-2-.2-.3.2-.3.6-.1.8.2.3.6.4.9.4.3 0 .7 0 1-.1.3-.2.4-.6.2-.9"/></g><g opacity=".6"><defs><path id="aK" d="M109.1 44h5.5v5.6h-5.5z"/></defs><clipPath id="aL"><use xlink:href="#aK" overflow="visible"/></clipPath><path clip-path="url(#aL)" fill="#88511A" d="M110.9 49.4c-.5-.2-1-.6-1.3-1-.7-1-.6-2.5.2-3.4.8-.8 2-1.2 3.1-.8.5.2.9.5 1.2.9.5.8.7 1.8.4 2.6-.3.8-.8 1.4-1.6 1.7-.7.2-1.3.2-2 0"/></g><path fill="#D82F22" d="M110.2 44.7c-.7.8-.8 2.1-.2 3 .6.9 1.9 1.3 2.9.9 1.6-.6 2-2.5 1.1-3.9-.8-1.2-2.8-1.2-3.8 0"/><g opacity=".5"><defs><path id="aM" d="M109.8 46.1h4.5v2.4h-4.5z"/></defs><clipPath id="aN"><use xlink:href="#aM" overflow="visible"/></clipPath><path clip-path="url(#aN)" fill="#B12218" d="M114.3 46.9c.3-1-.3-1.1-.8-.2-.1.2-.8.7-1.9.4-.4-.1-1-.5-1.2-.8-.2-.3-.5-.3-.5.1-.1 1.1.7 1.7 1.7 2 1 .4 2.3-.2 2.7-1.5"/></g><g opacity=".7"><defs><path id="aO" d="M110.3 44h3.7v2.6h-3.7z"/></defs><clipPath id="aP"><use xlink:href="#aO" overflow="visible"/></clipPath><path clip-path="url(#aP)" fill="#E5786F" d="M113.9 45.1c-.3-1.2-2.1-1.4-3-.8-.1.1-.3.2-.3.4-.1.1-.2.3-.3.4-.3.9.9 1.4 1.6 1.5.9 0 2.3-.4 2-1.5"/></g><g opacity=".7"><defs><path id="aQ" d="M111.1 44.2h2.3v1.5h-2.3z"/></defs><clipPath id="aR"><use xlink:href="#aQ" overflow="visible"/></clipPath><path clip-path="url(#aR)" fill="#F0D6D3" d="M113.2 44.6c-.4-.5-1.4-.6-1.9-.2-.3.2-.3.6-.1.8.2.3.6.4.9.4.3 0 .7 0 1-.1.3-.1.4-.6.1-.9"/></g><g opacity=".45"><defs><path id="aS" d="M82.4 47h51.1v23.2H82.4z"/></defs><clipPath id="aT"><use xlink:href="#aS" overflow="visible"/></clipPath><path clip-path="url(#aT)" fill="#88511A" d="M108.3 68.1c-.6-.2-1.2-.6-1.6-1l-.6-.9c-.5-.7-.9-1.3-1.6-1.6-.1 0-.2-.1-.3-.1-.6-.1-1-.1-1.6 0-.5.1-1 .2-1.9.2-.6 0-1.2-.1-1.7-.3-.5-.2-.9-.5-1.3-.9-.5-.5-1-1.3-1.5-2.1-.3-.5-.6-1.1-.9-1.4-.1-.2-.3-.3-.5-.4-.5-.2-1.1-.2-1.7-.2-.4 0-.9 0-1.3-.1-.8-.2-1.4-.3-1.9-.6-1.1-.6-1.6-1.4-2.1-2.5-.1-.4-.2-.8-.3-1.3-.1-.7-.2-1.5-.5-1.8-.1-.1-.1-.1-.2-.1-.3-.2-.6-.2-1.1-.3-.6-.1-1.4-.2-2.4-.8-.1 0-.1-.1-.2-.1-1.4-1-1.4-2.6 0-4.5.4-.6.8-.4 1-.3.3.2.5.6.3.9-.4.8-.2 1.4.4 1.9.3.2.6.3 1 .3.8.1 1.9.3 2.8.8.1.1.3.2.4.2 1 .7 1.2 1.7 1.4 2.7.2.7.3 1.4.8 2 .2.2.4.4.7.5.6.3 1.2.4 1.9.5.8.1 1.5.2 2.2.5.3.1.6.3.8.5.7.7 1.2 1.5 1.7 2.3.1.1.1.2.2.4.4.6.8 1 1.2 1.2.3.1.7.2 1.2.1.2 0 .4 0 .7-.1 1.2-.1 2.3-.3 3.4.1.6.2 1.1.6 1.5 1.2.1.2.2.3.3.5.4.7.8 1.2 1.6 1.5.1 0 .2.1.3.1.3.1.8-.1 1.4-.3 1-.4 2.2-.9 3.6-.5h.1c1.4.4 2 1.2 2.5 1.7.2.2.3.3.4.5.3.2.5.4.8.4.6.2 1.2-.2 1.8-.6.6-.4 1.3-.8 2.1-.9.4 0 .8 0 1.2.1.6.1 1.1.4 1.7.7.3.2.6.3.8.3.6.1 1-.1 1.3-.6.1-.2.2-.6.3-.9.2-.7.4-1.6 1.2-1.9.3-.1.6-.2.8-.1.7.1 1.3.7 1.8 1.2.3.3.6.6.8.6.2-.1.5-.1.7-.1.4.1.7.2.7.5.1.2 0 .6-.9 1-.2.1-.5.1-.7.1-.3 0-.6-.2-.9-.4l-.6-.3h-.2c-.1.1-.3.6-.4 1-.2.9-.5 1.9-1.4 2.5-.5.3-1.1.4-1.8.3-.4-.1-.8-.2-1.4-.5-.1 0-.1-.1-.2-.1-.4-.2-.9-.5-1.7-.6-.2 0-.4-.1-.6-.1-1-.1-2 .5-2.9 1.1-.6.4-1.1.7-1.6.8-.5 0-.9 0-1.3-.1-.7-.2-1.2-.6-1.6-1.1l-.1-.1-.3-.3c-.4-.5-.9-1.1-1.7-1.3h-.1c-.5-.1-1.3.3-2 .6-.6.3-1.2.5-1.7.6.3 0-.1 0-.5-.2"/></g><path fill="#F7EEC3" d="M132.1 64.9c-.7.2-1.9-2.4-3.3-1.8-.9.4-.9 1.9-1.4 2.7-.5.9-1.4 1-2.6.4-.8-.5-1.7-.8-2.7-.7-1.9.1-3 2.6-4.9.9-.7-.6-1.1-1.7-2.9-2.2-2.1-.6-4 1.1-5 .8-1.3-.3-1.7-1.3-2.4-2.2-1.3-1.8-3.3-1.3-5.2-1.1-1.3.1-2.1-.4-2.8-1.5-.6-.9-1.1-1.8-1.9-2.6-1.6-1.5-4.3-.4-5.7-2-1.2-1.4-.6-3.4-2.2-4.6-.8-.6-2-.8-3-1-1.6-.2-2.3-1.3-1.7-2.6.1-.2-.3-1-.8-.3-.9 1.3-1.6 3.1 0 4.1 1.8 1.2 3 .6 3.8 1.3.7.6.5 2.3.9 3.2.8 1.8 1.6 2.5 3.7 2.9 1.2.2 2.8-.2 3.7.9.7.9 1.4 2.7 2.3 3.5.8.7 1.7 1.1 2.7 1.1 1.9 0 2.3-.5 3.5-.2 1.4.3 1.9 1.7 2.7 2.6.6.7 1.6 1.1 2.5 1.1 1 0 2.7-1.4 3.8-1.1 1.1.3 1.8 1.4 2.2 1.8.7.7 1.2 1.3 2.8 1.2 1.1-.1 2.6-2.1 4.5-1.8 1.3.2 2 .6 2.6.8 1 .5 1.9.7 2.8.2 1.3-.8 1.3-3.1 1.8-3.5.7-.4 1.6.9 2.5.5 1.6-.5.5-1-.3-.8"/><path fill="#EBCD96" d="M133 65.2c-.2.2-.6.4-1.5.1-.4-.2-.8-.8-1.4-.8-.3 0-.5.2-.9 1s-.7 1.9-1.3 2.4c-1 .7-1.9 0-2.2-.1-.1 0-.1-.1-.2-.1-.4-.2-1-.5-1.8-.7-.2 0-.4-.1-.6-.1-1.2-.1-2.3.6-3.2 1.2-.5.3-1 .7-1.4.7-.4 0-.8 0-1.1-.1-.6-.1-.9-.5-1.4-1l-.1-.1-.3-.3c-.4-.5-1-1.2-1.9-1.5h-.1c-.7-.2-1.5.2-2.3.6-.5.3-1.1.5-1.5.5-.3 0-.7 0-1-.2-.5-.2-1-.5-1.3-.9-.2-.2-.4-.5-.6-.8-.5-.7-1-1.5-1.9-1.8-.1 0-.2-.1-.3-.1-.7-.2-1.2-.1-1.8 0-.5.1-1 .2-1.8.2-.5 0-1-.1-1.5-.3-.4-.2-.8-.4-1.1-.7-.5-.4-.9-1.2-1.4-2-.3-.6-.6-1.1-.9-1.5-.2-.2-.4-.4-.7-.6-.6-.3-1.3-.3-1.9-.3-.4 0-.8 0-1.2-.1-.7-.1-1.2-.3-1.7-.5-.8-.4-1.3-1-1.8-2.2.1-.1.1-.5 0-1-.1-.8-.2-1.6-.7-2.1-.1-.1-.2-.1-.3-.2-.4-.2-.8-.3-1.3-.3-.6-.1-1.3-.2-2.2-.7-.1 0-.1-.1-.2-.1-1.3-.9-.8-2.4-.2-3.5-.1 0-.2.2-.3.2-.7 1-1.7 2.8-.1 3.9.1 0 .1.1.2.1.8.5 1.5.6 2.2.7.5.1.9.1 1.3.3.1.1.2.1.3.2.5.5.6 1.3.7 2.1.1.5.1.9.2 1.2.5 1.2 1 1.8 1.8 2.3.4.2 1 .4 1.7.5.4.1.8.1 1.2.1.7 0 1.4 0 1.9.3.3.1.5.3.7.6.3.4.6.9.9 1.5.4.8.9 1.5 1.4 2 .3.3.7.6 1.1.7.4.2.9.3 1.5.3.8 0 1.3-.1 1.8-.2.6-.1 1.1-.2 1.8 0 .1 0 .2.1.3.1.9.3 1.4 1.1 1.9 1.8.2.3.4.6.6.8.3.4.8.7 1.3.9.3.1.7.2 1 .2.4 0 1-.3 1.5-.5.8-.4 1.6-.8 2.3-.6h.1c.9.3 1.5 1 1.9 1.5l.3.3.1.1c.4.5.8.8 1.4 1 .3.1.7.1 1.1.1.4 0 .9-.3 1.4-.7.9-.6 2-1.3 3.2-1.2.2 0 .4.1.6.1.8.2 1.4.5 1.8.7.1 0 .1.1.2.1.3.2.8.4 1.2.4.5.1 1 0 1.4-.2.7-.4 1-1.4 1.2-2.2.2-.6.3-1.1.6-1.2.2-.1.3-.1.6-.1s.5.2.8.3c.3.1.5.3.8.3.1 0 .3 0 .4-.1.6-.4.8-.6.7-.7"/><path fill="#F8F9E7" d="M86 50.5c0-.1 0-.1 0 0 0-.2-.2-.2-.2-.3-.4-.2-1-.2-1.3-.6-.3-.4-.3-1-.2-1.5 0-.2-.2-.2-.3-.1-.2.6-.4 1.3 0 2 .4.5 1.2.9 1.8.7.1 0 .2-.1.2-.2M87.2 50.8c-.1-.1-.2-.1-.3-.1-.1 0-.2.1-.2.2s.1.2.2.2h.3c.1-.1.1-.3 0-.3M90.1 53.1c-.2-1-.9-1.6-1.8-1.9-.2-.1-.3.1-.1.2.4.2.8.5.9.9.1.3.1.6.3.9.2.3.7.3.7-.1M90.4 55v-.2c0-.1 0-.1-.1-.2 0-.1-.2-.2-.3-.1-.1 0-.1.2 0 .3l.1.1.1.1c.1.1.2.1.2 0M93.8 57.5c-.3-.3-.8-.2-1.2-.3-.7-.2-1.3-.6-1.7-1.2-.1-.2-.4 0-.3.1.3.6.8 1.1 1.5 1.4.5.2 1.3.6 1.7.2v-.2M97 58.4c0-1-1.6-1.1-2.3-.9-.1 0-.1.2 0 .3l.9.3c.4.1.6.3.9.5.2 0 .5 0 .5-.2M97.7 59.7c0-.1-.2-.2-.3-.2-.1.1 0 .2.1.3h.1c.1 0 .2-.1.1-.1M99.8 61.9c-.6-.4-1.1-1-1.4-1.6-.1-.2-.6-.1-.5.1.2.6.5 1.1 1 1.5.3.2.9.8 1.3.6.4-.2-.2-.5-.4-.6M102.4 62.4c-.1 0-.2-.1-.3-.1h-.4c-.3 0-.3.3 0 .4.1 0 .3.1.4.1.2 0 .2-.1.3-.2.1-.1 0-.1 0-.2M106.6 63.3c-.6-1.1-2.2-1.4-3.3-1.1-.2.1-.1.4.2.4.5 0 1.2 0 1.7.3.4.2.5.6.9.8.4.2.7-.1.5-.4M107.6 64.6c0-.1-.1-.2-.2-.3-.1-.1-.3-.1-.4 0-.1.1 0 .2.1.3.1 0 .1.1.1.1.2.1.4.1.4-.1M110 65.7c-.7.2-1.3-.1-1.9-.5-.2-.2-.5.1-.3.3.4.4.9.7 1.5.8.4.1 1.1.1 1.3-.3.2-.4-.3-.4-.6-.3M115.2 65.1c-1-1.1-3-.4-3.9.2-.1.1 0 .3.1.3.9-.3 1.6-.4 2.5-.2.3.1 1 .4 1.2 0 .2-.1.2-.2.1-.3M116.4 66.4l-.2-.2c-.1-.1-.2-.1-.3 0-.1.1-.1.2 0 .3.1.1.2.1.3.2.2 0 .3-.2.2-.3M118.8 67.4c-.3.1-.6.1-.9 0-.3-.1-.6-.2-.8-.4-.2-.1-.4.2-.2.3.6.4 1.7 1.1 2.3.5.1-.2-.2-.5-.4-.4M123.5 66.1c-.2-.6-1.3-.5-1.7-.3-.7.3-1.5.6-1.9 1.2-.1.1 0 .3.2.3.8-.1 1.4-.6 2.2-.7.3-.1 1.3.1 1.2-.5M124.5 66.5c-.1-.1-.2-.1-.3-.2-.2-.1-.3 0-.4.2 0 .2.1.3.3.3.1 0 .2 0 .3-.1.2 0 .2-.1.1-.2M127.9 66.9c0-.3-.4-.3-.6-.2-.3.2-.5.3-.9.3-.6 0-1-.1-1.5-.3-.2-.1-.3.2-.1.3.8.1 1.2.7 2 .6.6.1 1.2-.1 1.1-.7M128.6 63.6c-.5.5-.7 1.5-.6 2.2 0 .2.2.1.3 0 .2-.3.5-.6.6-1 .1-.3.2-.5.4-.8.4-.3-.3-.7-.7-.4"/><path fill="#EBCD96" d="M117.8 30.2c-.1 0-.1 0-.2-.1-.3.2-.5.4-.7.5-1.7 1-4.1 1.5-6-.1-1.8-1.5-2.3-3.1-2.2-4.6-.5 1.6-.3 3.7 2 5.5 1.9 1.6 4.3 1.1 6 .1.4-.1 1.6-1.1 1.1-1.3M128.4 30.4c0-.1 0-.1-.1-.2 0 2.1-1.3 5.1-5.5 5-2.5-.1-4-2-4.6-3.8 0-.1-.1-.3-.1-.5 0 .4.1 1.1.2 1.4.6 1.9 2.1 3.8 4.6 3.8 4.8.1 5.8-3.7 5.5-5.7"/><g opacity=".5"><defs><path id="aU" d="M110.3 24.4h1.3v2.2h-1.3z"/></defs><clipPath id="aV"><use xlink:href="#aU" overflow="visible"/></clipPath><path clip-path="url(#aV)" fill="#F8F9E7" d="M111.6 26.4c-.1-.3-.3-.5-.5-.8-.2-.3-.3-.6-.4-.9 0-.3-.4-.3-.5 0 0 .4 0 .8.2 1.2.2.3.5.7.8.8.3 0 .5-.1.4-.3"/></g><g opacity=".5"><defs><path id="aW" d="M112.6 27.5h.4v.5h-.4z"/></defs><clipPath id="aX"><use xlink:href="#aW" overflow="visible"/></clipPath><path clip-path="url(#aX)" fill="#F8F9E7" d="M112.9 27.5c-.3-.1-.4.3-.1.4.2.2.4-.3.1-.4"/></g><g opacity=".5"><defs><path id="aY" d="M113.8 28.7h1.1v.8h-1.1z"/></defs><clipPath id="aZ"><use xlink:href="#aY" overflow="visible"/></clipPath><path clip-path="url(#aZ)" fill="#F8F9E7" d="m114.8 29.4-.3-.3-.3-.3c-.2-.2-.5.1-.3.3.1.1.2.2.4.3.1.1.3.1.4.2.1 0 .2-.2.1-.2"/></g><g opacity=".5"><defs><path id="ba" d="M119.4 31.5h3.6v1.1h-3.6z"/></defs><clipPath id="bb"><use xlink:href="#ba" overflow="visible"/></clipPath><path clip-path="url(#bb)" fill="#F8F9E7" d="M122.8 32.1c-.5-.1-1 0-1.6-.1-.5-.1-1.1-.3-1.6-.4-.3-.1-.4.3-.1.4.9.4 2.4 1 3.3.4.2-.1.2-.3 0-.3"/></g><g opacity=".5"><defs><path id="bc" d="M123.6 32h1.4v.7h-1.4z"/></defs><clipPath id="bd"><use xlink:href="#bc" overflow="visible"/></clipPath><path clip-path="url(#bd)" fill="#F8F9E7" d="M124.8 32c-.3 0-.6.1-.9.2-.1 0-.2.1-.3.2 0 .1.1.3.2.3.4 0 .8 0 1.1-.3.1-.2.1-.4-.1-.4"/></g><g opacity=".5"><defs><path id="be" d="M126.3 31.1h.5v.5h-.5z"/></defs><clipPath id="bf"><use xlink:href="#be" overflow="visible"/></clipPath><path clip-path="url(#bf)" fill="#F8F9E7" d="M126.6 31.1c-.3-.1-.4.4-.1.5.3.1.4-.4.1-.5"/></g><g opacity=".5"><defs><path id="bg" d="M111.5.3h15.3v9h-15.3z"/></defs><clipPath id="bh"><use xlink:href="#bg" overflow="visible"/></clipPath><path clip-path="url(#bh)" fill="#88511A" d="M111.5 6.3c.1.4.2.7.3 1.1.5 1.3 1.3 1.9 2.2 1.9h.3c1.3-.2 3.7-2.4 4.7-3.4.1-.1.1-.2.2-.3.1.1.2.1.3.2 1.2.6 4.3 1.8 5.6 1.6.1 0 .2 0 .3-.1.9-.4 1.4-1.4 1.4-2.8 0-1.6-.6-3.3-2.2-4.1-.3-.1-.6-.2-.9-.1-1.2.2-3.2 2.4-4.4 3.7-.3.3-.2.5-.2.6 0-.3-.4-.5-1.1-.8-1-.5-2.4-1.1-2.8-1.3-1.4 1-2.5 2.1-3.7 3.8"/></g><path fill="#F0DCB6" d="M119.7 5.5c-.5-.2-.7-.9-.4-1.3 1.6-1.7 3.8-4.4 5.2-3.7 2.5 1.2 2.7 5.5.8 6.3-1 .4-4.1-.6-5.6-1.3"/><path fill="#F7EEC3" d="M124.5.5c-1.4-.7-3.6 2.1-5.2 3.7-.2.2-.2.4-.2.6 3.1-.4 4.6-1.3 7.3-2-.3-.9-.9-1.8-1.9-2.3"/><path fill="#EBCD96" d="M125.6 3.5c-1.9 2.4-6.2 1.1-6.3 1.4-.2.3 1.5.9 2.3 1.2.9.3 2.1.7 3 .6.9-.2 1.6-.9 1.7-1.9.2-.6-.1-2-.7-1.3"/><g opacity=".5"><defs><path id="bi" d="M119.7 4.1h.6v.5h-.6z"/></defs><clipPath id="bj"><use xlink:href="#bi" overflow="visible"/></clipPath><path clip-path="url(#bj)" fill="#F8F9E7" d="M119.8 4.1c-.1.1-.2.3-.1.4.1.1.3.2.4 0 .1-.1.1-.2.1-.3-.1-.1-.2-.2-.4-.1"/></g><g opacity=".5"><defs><path id="bk" d="M120.5.8h4.2V4h-4.2z"/></defs><clipPath id="bl"><use xlink:href="#bk" overflow="visible"/></clipPath><path clip-path="url(#bl)" fill="#F8F9E7" d="M124.3 1c-.6-.5-1.4 0-1.9.5-.6.7-1.2 1.3-1.8 1.9-.3.3.1.8.4.5.6-.4 1.2-.9 1.9-1.1.5-.2 1.1-.2 1.5-.6.5-.3.3-.9-.1-1.2"/></g><g opacity=".5"><defs><path id="bm" d="M125 2h.8v.8h-.8z"/></defs><clipPath id="bn"><use xlink:href="#bm" overflow="visible"/></clipPath><path clip-path="url(#bn)" fill="#F8F9E7" d="M125.7 2.2c-.2-.4-.8-.1-.7.3v.1c.1.2.2.3.4.3.2-.1.3-.2.3-.4.1-.2 0-.2 0-.3"/></g><g opacity=".4"><defs><path id="bo" d="M123.8 5.4h1.6v.9h-1.6z"/></defs><clipPath id="bp"><use xlink:href="#bo" overflow="visible"/></clipPath><path clip-path="url(#bp)" fill="#F7F0C9" d="M125.3 5.4c-.2 0-.4.2-.6.2-.2.1-.4.1-.7.1-.2 0-.2.4 0 .5.3.1.6.1.9 0 .3-.1.6-.3.5-.6 0-.2-.1-.2-.1-.2"/></g><g opacity=".4"><defs><path id="bq" d="M125.5 4.6h.5v.5h-.5z"/></defs><clipPath id="br"><use xlink:href="#bq" overflow="visible"/></clipPath><path clip-path="url(#br)" fill="#F7F0C9" d="M125.7 4.6c-.1 0-.2.2-.2.3 0 .1.2.2.3.2.1 0 .2-.2.2-.3 0-.1-.2-.2-.3-.2"/></g><path fill="#F0DCB6" d="M118.9 5.7c.4-.4.4-1.1-.1-1.3-2.1-1-5.1-2.9-6.1-1.7-1.9 2-.7 6.1 1.4 6.2 1-.1 3.6-2.1 4.8-3.2"/><path fill="#F7EEC3" d="M112.6 2.6c1.1-1.1 4.1.7 6.1 1.7.2.1.3.3.4.5-3.1.6-4.7.3-7.5.6 0-1 .3-2.1 1-2.8"/><path fill="#EBCD96" d="M112.6 5.7c2.6 1.6 6.2-1.1 6.4-.8.3.3-1.1 1.4-1.7 1.9-.8.6-1.7 1.4-2.7 1.6-.9.2-1.8-.4-2.3-1.2-.2-.5-.4-1.9.3-1.5"/><g opacity=".5"><defs><path id="bs" d="M118 4.4h.6v.5h-.6z"/></defs><clipPath id="bt"><use xlink:href="#bs" overflow="visible"/></clipPath><path clip-path="url(#bt)" fill="#F8F9E7" d="M118.3 4.4c.2 0 .3.2.2.3 0 .1-.2.3-.4.2-.1 0-.2-.1-.2-.2.1-.2.2-.3.4-.3"/></g><g opacity=".5"><defs><path id="bu" d="M112.8 2.5h4.6v2.1h-4.6z"/></defs><clipPath id="bv"><use xlink:href="#bu" overflow="visible"/></clipPath><path clip-path="url(#bv)" fill="#F8F9E7" d="M113 3c.4-.6 1.3-.5 1.9-.2.8.4 1.5.8 2.3 1.2.3.2.2.7-.2.7-.7-.2-1.4-.4-2.2-.4-.6 0-1.1.2-1.7-.1-.3-.3-.4-.8-.1-1.2"/></g><g opacity=".5"><defs><path id="bw" d="M112.1 4.3h.7v.8h-.7z"/></defs><clipPath id="bx"><use xlink:href="#bw" overflow="visible"/></clipPath><path clip-path="url(#bx)" fill="#F8F9E7" d="M112.1 4.6c.1-.4.7-.4.7 0v.1c0 .2-.1.4-.3.4-.2 0-.4-.1-.4-.3v-.2"/></g><g opacity=".4"><defs><path id="by" d="M113.5 7.3h1.7V8h-1.7z"/></defs><clipPath id="bz"><use xlink:href="#by" overflow="visible"/></clipPath><path clip-path="url(#bz)" fill="#F7F0C9" d="M113.6 7.4c.2-.1.4 0 .6 0 .2 0 .4-.1.7-.1.2 0 .4.3.2.4-.3.2-.5.3-.9.3-.3 0-.7-.1-.7-.4-.1-.1 0-.2.1-.2"/></g><g opacity=".4"><defs><path id="bA" d="M112.7 6.8h.5v.5h-.5z"/></defs><clipPath id="bB"><use xlink:href="#bA" overflow="visible"/></clipPath><path clip-path="url(#bB)" fill="#F7F0C9" d="M112.9 6.8c.1 0 .3.1.3.2s-.1.3-.2.3-.3-.1-.3-.2.1-.2.2-.3"/></g></g></svg>