<svg xmlns="http://www.w3.org/2000/svg" viewBox="0 0 7.26 12.79"><defs><style>.cls-1{fill:#005090;}</style></defs><g id="Слой_2" data-name="Слой 2"><g id="Layer_4" data-name="Layer 4"><path class="cls-1" d="M4.48,12.79h-2a.62.62,0,0,1-.62-.62V7.55H.62A.62.62,0,0,1,0,6.93V5a.62.62,0,0,1,.62-.62h1.2v-1A3.36,3.36,0,0,1,2.71.92,3.2,3.2,0,0,1,5.08,0H6.64a.62.62,0,0,1,.62.62V2.46a.62.62,0,0,1-.62.62h-1c-.32,0-.4.07-.42.09s-.06.12-.06.38v.78H6.56a.65.65,0,0,1,.31.08A.62.62,0,0,1,7.19,5v2a.62.62,0,0,1-.62.62H5.11v4.62A.63.63,0,0,1,4.48,12.79ZM2.57,12H4.36V7.22a.41.41,0,0,1,.41-.42H6.44V5.08H4.77a.41.41,0,0,1-.41-.41V3.55a1.28,1.28,0,0,1,.25-.88,1.26,1.26,0,0,1,1-.34h.92V.75H5.08A2.36,2.36,0,0,0,2.57,3.34V4.67a.42.42,0,0,1-.42.41H.75V6.8h1.4a.42.42,0,0,1,.42.42ZM6.64.75Z"/></g></g></svg>