<?xml version="1.0" encoding="utf-8"?>
<!-- Generator: Adobe Illustrator 25.4.1, SVG Export Plug-In . SVG Version: 6.00 Build 0)  -->
<svg version="1.1" id="Layer_1" xmlns="http://www.w3.org/2000/svg" xmlns:xlink="http://www.w3.org/1999/xlink" x="0px" y="0px"
	 viewBox="0 0 12 12" style="enable-background:new 0 0 12 12;" xml:space="preserve">
<style type="text/css">
	.st0{fill:#FFFFFF;}
	.st1{fill:#19619D;}
</style>
<g>
	<circle class="st0" cx="6" cy="6" r="6"/>
	<g>
		<g>
			<path class="st1" d="M6.7,3.1c0.5,0,0.6,0.3,0.6,0.6C7.3,4,7,4.4,6.5,4.4C6,4.4,5.8,4.2,5.8,3.8C5.8,3.5,6.1,3.1,6.7,3.1z"/>
			<path class="st1" d="M5.5,8.9c-0.3,0-0.5-0.2-0.3-1l0.4-1.5c0.1-0.2,0.1-0.3,0-0.3C5.4,6.1,5,6.2,4.8,6.4L4.6,6.1
				c0.8-0.6,1.7-1,2-1c0.3,0,0.4,0.4,0.2,1L6.5,7.6C6.4,7.9,6.4,8,6.5,8c0.1,0,0.4-0.1,0.7-0.4l0.2,0.2C6.6,8.7,5.8,8.9,5.5,8.9z"/>
		</g>
	</g>
</g>
</svg>
