<svg xmlns="http://www.w3.org/2000/svg" viewBox="0 0 15.17 15.17"><defs><style>.cls-1{fill:#005090;}</style></defs><g id="Слой_2" data-name="Слой 2"><g id="Layer_4" data-name="Layer 4"><path class="cls-1" d="M11.06,0H4.11A4.11,4.11,0,0,0,0,4.11v7a4.12,4.12,0,0,0,4.11,4.11h7a4.12,4.12,0,0,0,4.11-4.11V4.11A4.12,4.12,0,0,0,11.06,0Zm3.22,11.06a3.23,3.23,0,0,1-3.22,3.22H4.11A3.22,3.22,0,0,1,.89,11.06V4.11A3.22,3.22,0,0,1,4.11.89h7a3.22,3.22,0,0,1,3.22,3.22Z"/><path class="cls-1" d="M7.58,3.44a4.15,4.15,0,1,0,4.15,4.14A4.15,4.15,0,0,0,7.58,3.44Zm0,7.4a3.26,3.26,0,1,1,3.26-3.26A3.26,3.26,0,0,1,7.58,10.84Z"/><path class="cls-1" d="M11.83,2a1.23,1.23,0,1,0,1.22,1.23A1.23,1.23,0,0,0,11.83,2Zm0,1.56a.34.34,0,1,1,0-.67.34.34,0,1,1,0,.67Z"/></g></g></svg>