
<svg
   fill="#0A8B47"
   height="800px"
   width="800px"

   viewBox="0 0 486.926 486.926"
   xml:space="preserve"
   sodipodi:docname="like.svg"
   inkscape:version="1.3 (0e150ed, 2023-07-21)"
   xmlns:inkscape="http://www.inkscape.org/namespaces/inkscape"
   xmlns:sodipodi="http://sodipodi.sourceforge.net/DTD/sodipodi-0.dtd"
   xmlns="http://www.w3.org/2000/svg"
   xmlns:svg="http://www.w3.org/2000/svg"><defs
   id="defs1" /><sodipodi:namedview
   id="namedview1"
   pagecolor="#ffffff"
   bordercolor="#000000"
   borderopacity="0.25"
   inkscape:showpageshadow="2"
   inkscape:pageopacity="0.0"
   inkscape:pagecheckerboard="0"
   inkscape:deskcolor="#d1d1d1"
   inkscape:zoom="0.295"
   inkscape:cx="398.30508"
   inkscape:cy="400"
   inkscape:window-width="1440"
   inkscape:window-height="449"
   inkscape:window-x="0"
   inkscape:window-y="25"
   inkscape:window-maximized="0"
   inkscape:current-layer="Capa_1" />&#10;&#10;	<path
   d="m 462.8,181.564 c -12.3,-10.5 -27.7,-16.2 -43.3,-16.2 h -15.8 -56.9 -32.4 v -75.9 c 0,-31.9 -9.3,-54.9 -27.7,-68.4 -29.1,-21.4 -69.2,-9.2 -70.9,-8.6 -5,1.6 -8.4,6.2 -8.4,11.4 v 84.9 c 0,27.7 -13.2,51.2 -39.3,69.9 -19.5,14 -39.4,20.1 -41.5,20.8 l -2.9,0.7 c -4.3,-7.3 -12.2,-12.2 -21.3,-12.2 H 24.7 c -13.6,0 -24.7,11.1 -24.7,24.7 v 228.4 c 0,13.6 11.1,24.7 24.7,24.7 h 77.9 c 7.6,0 14.5,-3.5 19,-8.9 12.5,13.3 30.2,21.6 49.4,21.6 h 65.9 6.8 135.1 c 45.9,0 75.2,-24 80.4,-66 l 26.9,-166.9 c 3.7,-24 -5.2,-48.6 -23.3,-64 z"
   id="path1"
   style="fill:#0A8B47;fill-opacity:1"
   sodipodi:nodetypes="cscccsccsscccsssssscsccsccc" />&#10;&#10;</svg>
