<svg xmlns="http://www.w3.org/2000/svg" viewBox="0 0 1827.04 245.61"><defs><style>.cls-1{isolation:isolate;}.cls-2{opacity:0.25;mix-blend-mode:multiply;}.cls-3{fill:#65a2c2;}</style></defs><g class="cls-1"><g id="Слой_2" data-name="Слой 2"><g id="Layer_4" data-name="Layer 4"><g class="cls-2"><path class="cls-3" d="M45.45,24.37C32,24.37,17,23.79,0,22.45V21.37c69.64,5.49,105.52-1.8,142.93-9.41,43.43-8.83,88.35-18,190.63-6.8,107.62,11.76,169.66,7,235.35,2C635.5,2,704.36-3.29,825.17,10.14l0,.44.07-.42c34.73,5.71,63.65,9.26,88.33,11.21v1.08c-24.72-1.95-53.69-5.51-88.47-11.23C704.34-2.21,635.53,3.08,569,8.18,503.25,13.23,441.17,18,333.44,6.23,231.32-4.92,186.49,4.19,143.15,13,114.79,18.78,87.33,24.37,45.45,24.37Z"/><path class="cls-3" d="M34.56,245.61c-12.67,0-24.08-.52-34.56-1.42v-1.08c29.7,2.54,66.91,2.06,119.06-4.69,107.74-13.94,169.83-8.29,235.57-2.31,66.54,6.06,135.34,12.31,256-3.6,132.91-25.92,180.86-14.36,231.63-2.13,21.21,5.11,42.77,10.31,71.21,12.73v1.08c-28.55-2.43-50.19-7.63-71.45-12.76-50.67-12.21-98.51-23.74-231.22,2.14l-.1-.51.07.51c-120.82,15.93-189.69,9.67-256.28,3.6-65.68-6-127.72-11.61-235.34,2.31C85.4,243.85,57.85,245.61,34.56,245.61Z"/><path class="cls-3" d="M607.27,210.78h0c-58.68,11.45-100.81,15.59-133.93,15.59-41.88,0-69.36-6.62-97.71-13.45-43.34-10.46-88.17-21.25-190.27-8C105,215.27,50,214.77,0,211.37v-1.08c50,3.41,104.91,3.91,185.19-6.48,102.3-13.24,147.22-2.41,190.66,8.05,50.66,12.22,98.51,23.74,231.22-2.13l.1.53-.07-.54c120.82-15.93,189.69-9.66,256.28-3.6,16.68,1.51,33.13,3,50.14,4.17v1.07c-17-1.16-33.53-2.65-50.24-4.17C796.75,201.13,728,194.87,607.27,210.78Z"/><path class="cls-3" d="M564.85,206.62c-33.11,0-75.24-3.49-133.92-13.15h0c-120.69-13.43-189.48-8.14-256-3-52.32,4-102.33,7.85-174.88,3.32v-1.07c72.52,4.53,122.5.69,174.8-3.32,66.59-5.11,135.46-10.4,256.25,3L431,193l.11-.63c132.73,21.85,180.58,12.12,231.26,1.81,43.43-8.84,88.34-18,190.62-6.8,21.94,2.4,42,4.11,60.55,5.27v1.07c-18.6-1.16-38.68-2.87-60.67-5.27-102.12-11.15-146.94-2-190.3,6.78C634.2,201,606.74,206.62,564.85,206.62Z"/><path class="cls-3" d="M441.07,165.23C339,154.08,294.13,163.2,250.78,172c-28.35,5.77-55.82,11.35-97.71,11.35-33.1,0-75.24-3.49-133.91-13.14h0q-9.79-1.09-19.13-2v-1.08q9.42.93,19.28,2l0,.43.06-.43C152,191,199.89,181.26,250.56,171c43.43-8.83,88.35-18,190.62-6.79,107.64,11.75,169.68,7,235.36,1.94,63-4.83,128-9.82,237,1v1.08c-109-10.84-174-5.85-236.91-1C610.89,172.22,548.8,177,441.07,165.23Z"/><path class="cls-3" d="M564,145.42c-66.6,5.12-135.45,10.4-256.26-3l.07-.63-.1.62c-132.73-21.84-180.59-12.1-231.25-1.8C53.92,145.14,31,149.79,0,151.67v-1.08c30.94-1.87,53.76-6.51,76.19-11.08,50.77-10.32,98.72-20.07,231.62,1.81h0c120.7,13.43,189.51,8.14,256.05,3,65.73-5,127.82-9.82,235.55,1.94,49.29,5.39,85.24,6.05,114.11,4.3v1.08c-9.1.55-18.89.86-29.59.86-23.29,0-50.83-1.48-84.63-5.16C691.66,135.6,629.62,140.37,564,145.42Z"/><path class="cls-3" d="M454.49,116c-66.59,5.13-135.45,10.41-256.26-3l.07-.53-.1.52C93.92,95.84,42,98.18,0,105v-1.09c42.08-6.78,94.05-9.1,198.35,8.07,120.71,13.43,189.52,8.14,256.07,3,65.72-5,127.81-9.82,235.54,1.94,102.12,11.15,146.95,2,190.29-6.78,10.93-2.22,21.73-4.41,33.27-6.27V105c-11.46,1.85-22.19,4-33,6.24-29.08,5.91-58.81,12-106,12-23.29,0-50.84-1.47-84.63-5.15C582.21,106.23,520.17,111,454.49,116Z"/><path class="cls-3" d="M471.52,100.43c-33.11,0-75.25-3.49-133.91-13.14-120.72-13.43-189.52-8.15-256.07-3-26.68,2-52.76,4-81.54,4.92V88.09c28.74-.86,54.8-2.86,81.45-4.91,66.61-5.11,135.47-10.41,256.27,3l0,.44.07-.43C470.48,108.06,518.33,98.33,569,88c43.43-8.83,88.34-18,190.62-6.8,64,7,111.81,8.14,153.89,6.87v1.07c-42.11,1.27-90,.12-154-6.87-102.12-11.15-146.94-2-190.29,6.78C540.86,94.85,513.4,100.43,471.52,100.43Z"/><path class="cls-3" d="M557.44,70C490.85,75.14,422,80.42,301.18,67l.07-.63-.1.63C168.42,45.13,120.57,54.86,69.9,65.17,49,69.42,27.79,73.74,0,75.83V74.75c27.69-2.1,48.86-6.4,69.68-10.64,32.52-6.61,63.89-13,117.17-11,29.89,1.13,66.68,4.9,114.45,12.78h0c120.69,13.43,189.49,8.14,256,3,65.73-5.05,127.82-9.82,235.55,2C846,76.7,883.56,77,913.52,74.75v1.08c-10.9.82-22.81,1.3-36.1,1.3-23.29,0-50.83-1.47-84.63-5.16C685.15,60.21,623.12,65,557.44,70Z"/><path class="cls-3" d="M344.64,46.76c-46,3.54-93.13,7.16-157.73,4.61-28.86-1.14-61.21-3.49-98.53-7.64l.07-.53-.1.53C53.61,38,24.69,34.45,0,32.5V31.42c24.73,1.95,53.7,5.51,88.5,11.24h0c120.68,13.43,189.5,8.14,256,3,65.74-5,127.82-9.82,235.55,2,102.12,11.15,146.95,2,190.29-6.79,37.47-7.62,73.42-14.93,143.12-9.44V32.5C843.91,27,808,34.3,770.62,41.91c-29.08,5.92-58.82,12-106,12-23.29,0-50.83-1.49-84.62-5.17C472.36,37,410.32,41.72,344.64,46.76Z"/><path class="cls-3" d="M959,24.37c-13.49,0-28.47-.58-45.45-1.92V21.37c69.64,5.49,105.52-1.8,142.93-9.41,43.44-8.83,88.35-18,190.63-6.8,107.62,11.76,169.66,7,235.35,2,66.59-5.12,135.45-10.41,256.26,3l0,.44.06-.42c34.73,5.71,63.65,9.26,88.33,11.21v1.08c-24.72-1.95-53.69-5.51-88.47-11.23-120.71-13.43-189.52-8.14-256.06-3C1416.77,13.23,1354.69,18,1247,6.23c-102.12-11.15-147-2-190.29,6.78C1028.31,18.78,1000.85,24.37,959,24.37Z"/><path class="cls-3" d="M948.09,245.61c-12.68,0-24.09-.52-34.57-1.42v-1.08c29.7,2.54,66.91,2.06,119.06-4.69,107.74-13.94,169.83-8.29,235.57-2.31,66.54,6.06,135.35,12.31,256-3.6,132.91-25.92,180.87-14.36,231.63-2.13,21.21,5.11,42.77,10.31,71.21,12.73v1.08c-28.54-2.43-50.18-7.63-71.45-12.76-50.66-12.21-98.51-23.74-231.22,2.14l-.1-.51.07.51c-120.82,15.93-189.69,9.67-256.28,3.6-65.68-6-127.72-11.61-235.34,2.31C998.92,243.85,971.38,245.61,948.09,245.61Z"/><path class="cls-3" d="M1520.79,210.78h0c-58.68,11.45-100.81,15.59-133.93,15.59-41.88,0-69.36-6.62-97.71-13.45-43.34-10.46-88.17-21.25-190.27-8-80.35,10.39-135.31,9.89-185.33,6.49v-1.08c50,3.41,104.91,3.91,185.19-6.48,102.3-13.24,147.22-2.41,190.66,8.05,50.66,12.22,98.51,23.74,231.22-2.13l.11.53-.08-.54c120.82-15.93,189.69-9.66,256.28-3.6,16.68,1.51,33.13,3,50.14,4.17v1.07c-17-1.16-33.53-2.65-50.24-4.17C1710.28,201.13,1641.47,194.87,1520.79,210.78Z"/><path class="cls-3" d="M1478.37,206.62c-33.11,0-75.24-3.49-133.91-13.15h0c-120.69-13.43-189.48-8.14-256-3-52.32,4-102.32,7.85-174.88,3.32v-1.07c72.52,4.53,122.51.69,174.8-3.32,66.59-5.11,135.46-10.4,256.25,3l-.07.63.11-.63c132.73,21.85,180.59,12.12,231.26,1.81,43.43-8.84,88.34-18,190.62-6.8,21.94,2.4,42,4.11,60.55,5.27v1.07c-18.6-1.16-38.68-2.87-60.67-5.27-102.11-11.15-146.94-2-190.3,6.78C1547.72,201,1520.26,206.62,1478.37,206.62Z"/><path class="cls-3" d="M1354.59,165.23c-102.11-11.15-146.94-2-190.29,6.78-28.35,5.77-55.82,11.35-97.7,11.35-33.11,0-75.24-3.49-133.92-13.14h0q-9.79-1.09-19.13-2v-1.08q9.42.93,19.28,2l0,.43.06-.43c132.73,21.85,180.59,12.11,231.26,1.81,43.43-8.83,88.35-18,190.62-6.79,107.64,11.75,169.68,7,235.36,1.94,63-4.83,128-9.82,237,1v1.08c-109-10.84-174-5.85-236.91-1C1524.41,172.22,1462.32,177,1354.59,165.23Z"/><path class="cls-3" d="M1477.47,145.42c-66.59,5.12-135.45,10.4-256.26-3l.07-.63-.1.62c-132.72-21.84-180.59-12.1-231.25-1.8-22.49,4.57-45.37,9.22-76.41,11.1v-1.08c30.94-1.87,53.77-6.51,76.19-11.08,50.77-10.32,98.72-20.07,231.62,1.81h0c120.7,13.43,189.51,8.14,256.05,3,65.73-5,127.82-9.82,235.55,1.94,49.3,5.39,85.24,6.05,114.11,4.3v1.08c-9.1.55-18.89.86-29.59.86-23.29,0-50.83-1.48-84.63-5.16C1605.18,135.6,1543.15,140.37,1477.47,145.42Z"/><path class="cls-3" d="M1368,116c-66.59,5.13-135.45,10.41-256.25-3l.06-.53-.1.52c-104.28-17.16-156.17-14.82-198.2-8v-1.09c42.08-6.78,94.05-9.1,198.35,8.07,120.72,13.43,189.52,8.14,256.07,3,65.72-5,127.81-9.82,235.55,1.94,102.11,11.15,146.94,2,190.29-6.78,10.92-2.22,21.72-4.41,33.26-6.27V105c-11.46,1.85-22.19,4-33,6.24-29.08,5.91-58.81,12-106,12-23.29,0-50.84-1.47-84.63-5.15C1495.73,106.23,1433.69,111,1368,116Z"/><path class="cls-3" d="M1385,100.43c-33.11,0-75.25-3.49-133.91-13.14-120.71-13.43-189.52-8.15-256.07-3-26.68,2-52.76,4-81.54,4.92V88.09c28.74-.86,54.8-2.86,81.46-4.91,66.6-5.11,135.46-10.41,256.27,3l0,.44.07-.43C1384,108.06,1431.86,98.33,1482.53,88c43.43-8.83,88.34-18,190.62-6.8,63.95,7,111.81,8.14,153.89,6.87v1.07c-42.11,1.27-90,.12-154-6.87-102.11-11.15-146.94-2-190.29,6.78C1454.38,94.85,1426.93,100.43,1385,100.43Z"/><path class="cls-3" d="M1471,70c-66.59,5.12-135.45,10.4-256.26-3l.07-.63-.1.63C1082,45.13,1034.09,54.86,983.42,65.17c-20.89,4.25-42.11,8.57-69.9,10.66V74.75c27.69-2.1,48.86-6.4,69.68-10.64,32.52-6.61,63.89-13,117.17-11,29.89,1.13,66.68,4.9,114.45,12.78h0c120.69,13.43,189.49,8.14,256,3,65.73-5.05,127.82-9.82,235.55,2,53.07,5.8,90.66,6.12,120.62,3.85v1.08c-10.9.82-22.81,1.3-36.1,1.3-23.29,0-50.83-1.47-84.63-5.16C1598.67,60.21,1536.64,65,1471,70Z"/><path class="cls-3" d="M1258.16,46.76c-46,3.54-93.13,7.16-157.73,4.61-28.86-1.14-61.21-3.49-98.53-7.64l.07-.53-.1.53C967.13,38,938.21,34.45,913.52,32.5V31.42c24.73,1.95,53.7,5.51,88.5,11.24h0c120.67,13.43,189.49,8.14,256,3,65.74-5,127.82-9.82,235.55,2,102.12,11.15,146.95,2,190.29-6.79,37.48-7.62,73.42-14.93,143.12-9.44V32.5c-69.61-5.49-105.49,1.8-142.9,9.41-29.08,5.92-58.82,12-106,12-23.28,0-50.83-1.49-84.62-5.17C1385.88,37,1323.84,41.72,1258.16,46.76Z"/></g></g></g></g></svg>