<svg xmlns="http://www.w3.org/2000/svg" width="180.457" height="54.265" viewBox="0 0 180.457 54.265">
  <g id="Group_21" data-name="Group 21" transform="translate(-1193.577 -752.474)">
    <path id="Path_60" data-name="Path 60" d="M1370.1,767.39v6.04h-10.615v-6.04h-3.752V787.8h3.752V777H1370.1v10.8h3.752V767.39Z" fill="#00272f"/>
    <path id="Path_61" data-name="Path 61" d="M1343.927,767.39a2.014,2.014,0,0,1,.275.458,7.6,7.6,0,0,1,0,5.673,3.491,3.491,0,0,1-1.464,1.373,5,5,0,0,1-2.014.457h-4.666V767.39h-3.752v20.315h3.752v-8.693h3.934a11.052,11.052,0,0,0,1.648-.092,8.259,8.259,0,0,0,3.66-1.006,5.01,5.01,0,0,0,1.647-1.464,7.17,7.17,0,0,0,1.1-2.38,13,13,0,0,0,.458-3.569,11.7,11.7,0,0,0-.366-3.294h-4.21Z" fill="#00272f"/>
    <path id="Path_62" data-name="Path 62" d="M1313.455,777h9.609V773.43h-9.609v-6.04h-3.843V787.8h15.74v-3.66h-11.9Z" fill="#00272f"/>
    <path id="Path_63" data-name="Path 63" d="M1266.327,767.39H1260.1a7.631,7.631,0,0,1,1.922,1.464,8.469,8.469,0,0,1,2.471,6.131,8.562,8.562,0,0,1-.641,3.386,8.408,8.408,0,0,1-4.575,4.576,8.144,8.144,0,0,1-3.3.64,8.578,8.578,0,0,1-3.385-.64,11.079,11.079,0,0,1-2.746-1.83,7.263,7.263,0,0,1-1.83-2.746,8.278,8.278,0,0,1-.64-3.386,8.585,8.585,0,0,1,.64-3.386,11.093,11.093,0,0,1,1.83-2.745,7.636,7.636,0,0,1,1.922-1.464h-6.223a14.269,14.269,0,0,0-1.464,2.562,12.64,12.64,0,0,0,0,9.883,11.272,11.272,0,0,0,2.745,4.027,12.124,12.124,0,0,0,4.027,2.745,12.627,12.627,0,0,0,9.883,0,11.254,11.254,0,0,0,4.026-2.745,12.125,12.125,0,0,0,2.746-4.027,12.64,12.64,0,0,0,0-9.883A7.251,7.251,0,0,0,1266.327,767.39Z" fill="#00272f"/>
    <path id="Path_64" data-name="Path 64" d="M1230.73,767.39l-5.674,6.5-5.582-6.5H1214.9V787.8h3.752V771.874l6.5,7.229,6.406-7.046V787.8h3.752V767.39Z" fill="#00272f"/>
    <path id="Path_65" data-name="Path 65" d="M1306.5,767.024h-14.825l-3.66-14.184-3.569,14.184H1269.8l12.354,6.955-4.484,13.818,10.341-9.609,10.89,9.426-5.033-13.635Z" fill="#00272f"/>
    <g id="Group_19" data-name="Group 19">
      <path id="Path_66" data-name="Path 66" d="M1194.583,786.424h4.393v1.007h-4.393V788.8h-.915v-3.752h.915Z" fill="#00272f"/>
      <path id="Path_67" data-name="Path 67" d="M1198.976,784.136h-5.308v-3.477h.915v2.471h1.281v-2.1h.916v2.1h1.281v-2.471h.915Z" fill="#00272f"/>
      <path id="Path_68" data-name="Path 68" d="M1198.976,776.724l-.915.275v1.921l.915.275v1.1l-5.308-1.922v-.823l5.308-1.922Zm-3.752,1.19,1.922.64v-1.281Z" fill="#00272f"/>
      <path id="Path_69" data-name="Path 69" d="M1194.583,773.43h4.393v1.006h-4.393v1.373h-.915v-3.752h.915Z" fill="#00272f"/>
      <path id="Path_70" data-name="Path 70" d="M1196.963,769.22v1.007h2.013v1.006h-5.308V769.22a1.65,1.65,0,1,1,3.3,0Zm-2.38,0v1.007h1.465V769.22a.732.732,0,0,0-1.465,0Z" fill="#00272f"/>
    </g>
    <path id="Path_71" data-name="Path 71" d="M1288.106,752.474l4.392,17.753,6.5,17.387-16.838-13.635Z" fill="#52b8e2"/>
    <g id="Group_20" data-name="Group 20">
      <path id="Path_72" data-name="Path 72" d="M1197.054,805l-1.281-2.2-1.281,2.2h-.915l1.738-2.929-1.647-2.745h1.007l1.1,2.013,1.1-2.013h1.007l-1.647,2.745,1.738,2.929Z" fill="#00272f"/>
      <path id="Path_73" data-name="Path 73" d="M1200.165,805.824a1.077,1.077,0,0,1-1.1.824h-.366v-.732h.183c.366,0,.458-.092.549-.458l.183-.64-1.464-3.844h.915l1.007,2.837.915-2.837h.915Z" fill="#00272f"/>
      <path id="Path_74" data-name="Path 74" d="M1206.022,800.883v3.385h.549v1.739h-.823V805h-2.654v1.006h-.732v-1.739h.457a4.51,4.51,0,0,0,.458-2.287v-1.007h2.745Zm-2.013,1.372a5.646,5.646,0,0,1-.366,2.013h1.555v-2.653h-1.189Z" fill="#00272f"/>
      <path id="Path_75" data-name="Path 75" d="M1210.415,804.543a1.775,1.775,0,0,1-2.38,0,2.221,2.221,0,0,1-.457-1.647,2.115,2.115,0,0,1,.457-1.556,1.778,1.778,0,0,1,2.38,0,2.115,2.115,0,0,1,.457,1.556A2.221,2.221,0,0,1,1210.415,804.543Zm-.641-2.745a.832.832,0,0,0-.641-.275.555.555,0,0,0-.549.275,2.338,2.338,0,0,0,0,2.2.79.79,0,0,0,.549.274.989.989,0,0,0,.641-.274,2.33,2.33,0,0,0,0-2.2Z" fill="#00272f"/>
      <path id="Path_76" data-name="Path 76" d="M1211.513,805l1.647-2.2-1.556-1.921h.915l1.464,1.921-1.555,2.2Zm2.562,0v-4.118h.824V805Zm2.379,0-1.555-2.1,1.464-1.922h.915l-1.464,1.83,1.647,2.2Z" fill="#00272f"/>
      <path id="Path_77" data-name="Path 77" d="M1218.833,803.17c0,.732.366,1.1,1.007,1.1a1.074,1.074,0,0,0,1.007-.457l.549.457a1.885,1.885,0,0,1-1.556.641c-1.007,0-1.83-.549-1.83-2.1,0-1.281.64-2.1,1.739-2.1s1.738.823,1.738,2.013v.366h-2.654Zm1.739-1.1a.926.926,0,0,0-.823-.549.88.88,0,0,0-.824.549.986.986,0,0,0-.092.549h1.831A.987.987,0,0,0,1220.572,802.072Z" fill="#00272f"/>
      <path id="Path_78" data-name="Path 78" d="M1224.507,805.092c-.915,0-1.83-.549-1.83-2.1s.915-2.1,1.83-2.1a2.019,2.019,0,0,1,1.373.549l-.549.549a.994.994,0,0,0-.824-.366.832.832,0,0,0-.732.366,1.471,1.471,0,0,0-.275,1.006,1.645,1.645,0,0,0,.275,1.007.834.834,0,0,0,.732.366,1,1,0,0,0,.824-.366l.549.549A2.02,2.02,0,0,1,1224.507,805.092Z" fill="#00272f"/>
      <path id="Path_79" data-name="Path 79" d="M1228.717,801.615V805h-.824v-3.386h-1.281v-.732H1230v.732Z" fill="#00272f"/>
      <path id="Path_80" data-name="Path 80" d="M1233.017,805H1231v-4.118h1.922a1.083,1.083,0,0,1,1.19,1.1,1.006,1.006,0,0,1-.549.915.994.994,0,0,1,.64.915C1234.3,804.543,1233.841,805,1233.017,805Zm-.183-3.478h-1.006v1.007h1.006c.366,0,.641-.183.641-.549A.721.721,0,0,0,1232.834,801.523Zm0,1.739h-1.006v1.1h1.006c.366,0,.641-.183.641-.549S1233.2,803.262,1232.834,803.262Z" fill="#00272f"/>
      <path id="Path_81" data-name="Path 81" d="M1236.312,803.17c0,.732.366,1.1,1.006,1.1a1.072,1.072,0,0,0,1.007-.457l.549.457a1.883,1.883,0,0,1-1.556.641c-1.006,0-1.83-.549-1.83-2.1,0-1.281.641-2.1,1.739-2.1s1.739.823,1.739,2.013v.366h-2.654Zm1.739-1.1a.929.929,0,0,0-.824-.549.88.88,0,0,0-.824.549,1,1,0,0,0-.091.549h1.83C1238.142,802.347,1238.051,802.255,1238.051,802.072Z" fill="#00272f"/>
      <path id="Path_82" data-name="Path 82" d="M1242.809,805v-1.739h-1.647V805h-.824v-4.118h.824v1.647h1.647v-1.647h.824V805Z" fill="#00272f"/>
      <path id="Path_83" data-name="Path 83" d="M1247.659,805v-1.739h-1.647V805h-.824v-4.118h.824v1.647h1.647v-1.647h.824V805Z" fill="#00272f"/>
      <path id="Path_84" data-name="Path 84" d="M1251.96,805h-1.922v-4.118h.824v1.555h1.1a1.281,1.281,0,0,1,0,2.563Zm-.092-1.831h-.915v1.19h.915a.578.578,0,0,0,.641-.641C1252.509,803.353,1252.235,803.17,1251.868,803.17Zm2.014,1.831v-4.118h.823V805Z" fill="#00272f"/>
      <path id="Path_85" data-name="Path 85" d="M1258.915,805v-2.837L1257.176,805h-.824v-4.118h.824v2.745l1.739-2.745h.823V805Zm-.824-4.667a1.149,1.149,0,0,1-1.281-1.1h.641a.527.527,0,0,0,.549.549.485.485,0,0,0,.549-.549h.64C1259.281,800.059,1258.732,800.334,1258.091,800.334Z" fill="#00272f"/>
      <path id="Path_86" data-name="Path 86" d="M1266.51,804.726a1.464,1.464,0,0,1-1.007.366,1.333,1.333,0,0,1-1.1-.457v2.1h-.732v-5.765h.824v.458a1.231,1.231,0,0,1,1.1-.458,1.253,1.253,0,0,1,1.007.366,2.609,2.609,0,0,1,.457,1.739A3.522,3.522,0,0,1,1266.51,804.726Zm-1.19-3.111c-.732,0-.823.64-.823,1.372s.091,1.373.823,1.373.824-.641.824-1.373S1266.053,801.615,1265.32,801.615Z" fill="#00272f"/>
      <path id="Path_87" data-name="Path 87" d="M1269.621,805.824a1.077,1.077,0,0,1-1.1.824h-.366v-.732h.183c.366,0,.458-.092.549-.458l.183-.64-1.464-3.844h.915l1.007,2.837.915-2.837h.915Z" fill="#00272f"/>
      <path id="Path_88" data-name="Path 88" d="M1272.458,805v-4.118h.824V805Zm2.471,0-1.647-2.1,1.555-1.922h1.007l-1.647,1.83,1.739,2.2Z" fill="#00272f"/>
      <path id="Path_89" data-name="Path 89" d="M1279.5,804.543a1.774,1.774,0,0,1-2.379,0,2.221,2.221,0,0,1-.457-1.647,2.115,2.115,0,0,1,.457-1.556,1.776,1.776,0,0,1,2.379,0,2.115,2.115,0,0,1,.458,1.556A2.221,2.221,0,0,1,1279.5,804.543Zm-.64-2.745a.883.883,0,0,0-1.281,0,2.331,2.331,0,0,0-.183,1.189,1.427,1.427,0,0,0,.274,1.1.883.883,0,0,0,1.281,0,1.423,1.423,0,0,0,.275-1.1A1.689,1.689,0,0,0,1278.864,801.8Z" fill="#00272f"/>
      <path id="Path_90" data-name="Path 90" d="M1283.439,805h-2.013v-4.118h1.922a1.082,1.082,0,0,1,1.189,1.1,1.006,1.006,0,0,1-.549.915,1,1,0,0,1,.641.915A1.106,1.106,0,0,1,1283.439,805Zm-.274-3.478h-1.007v1.007h1.007c.366,0,.64-.183.64-.549A.624.624,0,0,0,1283.165,801.523Zm.091,1.739h-1.006v1.1h1.006c.366,0,.641-.183.641-.549A.606.606,0,0,0,1283.256,803.262Z" fill="#00272f"/>
      <path id="Path_91" data-name="Path 91" d="M1288.747,804.543a1.774,1.774,0,0,1-2.379,0,2.221,2.221,0,0,1-.458-1.647,2.115,2.115,0,0,1,.458-1.556,1.776,1.776,0,0,1,2.379,0,2.115,2.115,0,0,1,.457,1.556A1.66,1.66,0,0,1,1288.747,804.543Zm-.549-2.745a.883.883,0,0,0-1.281,0,2.329,2.329,0,0,0,0,2.2.886.886,0,0,0,1.281,0,1.429,1.429,0,0,0,.274-1.1A1.949,1.949,0,0,0,1288.2,801.8Z" fill="#00272f"/>
      <path id="Path_92" data-name="Path 92" d="M1293.688,800.883v3.385h.55v1.739h-.824V805h-2.654v1.006h-.823v-1.739h.457a4.511,4.511,0,0,0,.458-2.287v-1.007h2.836Zm-2.013,1.372a5.649,5.649,0,0,1-.366,2.013h1.556v-2.653h-1.19Z" fill="#00272f"/>
      <path id="Path_93" data-name="Path 93" d="M1297.989,805v-2.837L1296.251,805h-.824v-4.118h.824v2.745l1.738-2.745h.824V805Z" fill="#00272f"/>
      <path id="Path_94" data-name="Path 94" d="M1301.924,801.615V805h-.823v-3.386h-1.281v-.732h3.385v.732Z" fill="#00272f"/>
      <path id="Path_95" data-name="Path 95" d="M1304.853,803.17c0,.732.366,1.1,1.006,1.1a1.073,1.073,0,0,0,1.007-.457l.549.457a1.886,1.886,0,0,1-1.556.641c-1.006,0-1.83-.549-1.83-2.1,0-1.281.641-2.1,1.739-2.1s1.738.823,1.738,2.013v.366h-2.653Zm1.738-1.1a.926.926,0,0,0-.823-.549.88.88,0,0,0-.824.549,1,1,0,0,0-.091.549h1.83A.986.986,0,0,0,1306.591,802.072Z" fill="#00272f"/>
      <path id="Path_96" data-name="Path 96" d="M1311.075,805v-3.386h-1.189V802.8c0,1.739-.549,2.2-1.281,2.2h-.366v-.733h.091c.366,0,.732-.091.732-1.647v-1.738h2.745V805Z" fill="#00272f"/>
      <path id="Path_97" data-name="Path 97" d="M1315.468,805h-1.922v-4.118h.824v1.555h1.1a1.2,1.2,0,0,1,1.281,1.281A1.251,1.251,0,0,1,1315.468,805Zm-.183-1.831h-.915v1.19h.915a.578.578,0,0,0,.64-.641C1315.925,803.353,1315.742,803.17,1315.285,803.17Z" fill="#00272f"/>
      <path id="Path_98" data-name="Path 98" d="M1325.808,804.451a2.223,2.223,0,0,1-2.928,0c-.549-.457-.549-1.006-.549-2.013h-1.007v2.471h-.823v-5.765h.823v2.471h1.007a2.551,2.551,0,0,1,.549-1.922,2.226,2.226,0,0,1,2.928,0c.549.549.549,1.1.549,2.288S1326.357,803.9,1325.808,804.451Zm-.64-4.117a1.363,1.363,0,0,0-.824-.366.89.89,0,0,0-.823.366c-.275.274-.366.64-.366,1.738s.091,1.464.366,1.739a1.362,1.362,0,0,0,.823.366.894.894,0,0,0,.824-.366c.274-.275.366-.641.366-1.739S1325.442,800.608,1325.168,800.334Z" fill="#00272f"/>
      <path id="Path_99" data-name="Path 99" d="M1330.75,804.726a1.464,1.464,0,0,1-1.007.366,1.333,1.333,0,0,1-1.1-.457v2.1h-.823v-5.765h.823v.458a1.233,1.233,0,0,1,1.1-.458,1.252,1.252,0,0,1,1.007.366,2.609,2.609,0,0,1,.457,1.739A2.182,2.182,0,0,1,1330.75,804.726Zm-1.19-3.111c-.732,0-.823.64-.823,1.372s.091,1.373.823,1.373.824-.641.824-1.373S1330.292,801.615,1329.56,801.615Z" fill="#00272f"/>
      <path id="Path_100" data-name="Path 100" d="M1335.234,805v-2.837L1333.495,805h-.823v-4.118h.823v2.745l1.739-2.745h.823V805Z" fill="#00272f"/>
      <path id="Path_101" data-name="Path 101" d="M1340.267,805v-2.837L1338.528,805h-.823v-4.118h.823v2.745l1.739-2.745h.824V805Zm-.915-4.667a1.148,1.148,0,0,1-1.281-1.1h.64a.549.549,0,1,0,1.1,0h.641C1340.541,800.059,1339.992,800.334,1339.352,800.334Z" fill="#00272f"/>
      <path id="Path_102" data-name="Path 102" d="M1345.941,800.059V805h-.824v-5.766h3.477v.824Z" fill="#00272f"/>
      <path id="Path_103" data-name="Path 103" d="M1352.346,804.726a1.463,1.463,0,0,1-1.006.366,1.332,1.332,0,0,1-1.1-.457v2.1h-.824v-5.765h.824v.458a1.231,1.231,0,0,1,1.1-.458,1.25,1.25,0,0,1,1.006.366,2.609,2.609,0,0,1,.458,1.739A2.654,2.654,0,0,1,1352.346,804.726Zm-1.189-3.111c-.732,0-.824.64-.824,1.372s.092,1.373.824,1.373.823-.641.823-1.373S1351.889,801.615,1351.157,801.615Z" fill="#00272f"/>
      <path id="Path_104" data-name="Path 104" d="M1356.1,805h-1.83v-4.118h.824v1.555h1.1a1.2,1.2,0,0,1,1.281,1.281A1.276,1.276,0,0,1,1356.1,805Zm-.091-1.831h-.915v1.19h.915a.578.578,0,0,0,.64-.641C1356.647,803.353,1356.373,803.17,1356.007,803.17ZM1358.02,805v-4.118h.823V805Z" fill="#00272f"/>
      <path id="Path_105" data-name="Path 105" d="M1363.785,805v-2.654l-.915,1.83h-.549l-.915-1.83V805h-.824v-4.118h.824l1.189,2.47,1.19-2.47h.824V805Z" fill="#00272f"/>
      <path id="Path_106" data-name="Path 106" d="M1368.91,804.543a1.775,1.775,0,0,1-2.38,0,2.221,2.221,0,0,1-.457-1.647,2.115,2.115,0,0,1,.457-1.556,1.778,1.778,0,0,1,2.38,0,2.115,2.115,0,0,1,.457,1.556A2.221,2.221,0,0,1,1368.91,804.543Zm-.641-2.745a.832.832,0,0,0-.641-.275.555.555,0,0,0-.549.275,2.338,2.338,0,0,0,0,2.2.79.79,0,0,0,.549.274.831.831,0,0,0,.641-.274,2.338,2.338,0,0,0,0-2.2Z" fill="#00272f"/>
      <path id="Path_107" data-name="Path 107" d="M1372.844,805h-2.013v-4.118h1.922a1.083,1.083,0,0,1,1.19,1.1,1.006,1.006,0,0,1-.549.915.994.994,0,0,1,.64.915A1.106,1.106,0,0,1,1372.844,805Zm-.274-3.478h-.915v1.007h1.006c.366,0,.641-.183.641-.549A.758.758,0,0,0,1372.57,801.523Zm.091,1.739h-1.006v1.1h1.006c.366,0,.641-.183.641-.549S1373.027,803.262,1372.661,803.262Z" fill="#00272f"/>
    </g>
  </g>
</svg>
