<?xml version="1.0" encoding="utf-8"?>
<!-- Generator: Adobe Illustrator 24.1.1, SVG Export Plug-In . SVG Version: 6.00 Build 0)  -->
<svg version="1.1" id="Слой_1" xmlns="http://www.w3.org/2000/svg" xmlns:xlink="http://www.w3.org/1999/xlink" x="0px" y="0px"
	 viewBox="0 0 24.7 26.1" style="enable-background:new 0 0 24.7 26.1;" xml:space="preserve">
<style type="text/css">
	.st0{fill:#FFFFFF;}
	.st1{fill:#005092;}
</style>
<g>
	<path class="st0" d="M0.9,10.2v5.6c0,2.4,1.3,4.6,3.3,5.8l4.8,2.8c2.1,1.2,4.6,1.2,6.7,0l4.8-2.8c2.1-1.2,3.3-3.4,3.3-5.8v-5.6
		c0-2.4-1.3-4.6-3.3-5.8l-4.8-2.8c-2.1-1.2-4.6-1.2-6.7,0L4.3,4.4C2.2,5.6,0.9,7.8,0.9,10.2z"/>
</g>
<path class="st1" d="M15.9,15.9c-0.4-0.4-1-0.4-1.4,0c-0.3,0.3-0.7,0.7-1,1c-0.1,0.1-0.2,0.1-0.3,0c-0.2-0.1-0.4-0.2-0.6-0.3
	c-1-0.6-1.7-1.4-2.5-2.2c-0.3-0.4-0.7-0.9-0.9-1.4c0-0.1,0-0.2,0-0.3c0.3-0.3,0.6-0.6,1-1c0.4-0.5,0.4-1,0-1.4
	C10,10,9.7,9.7,9.5,9.5C9.2,9.2,9,8.9,8.7,8.7c-0.4-0.4-1-0.4-1.4,0C7,9,6.6,9.3,6.3,9.7C6,10,5.8,10.3,5.8,10.7
	c-0.1,0.7,0.1,1.3,0.4,2c0.5,1.3,1.2,2.5,2.1,3.5c1.2,1.4,2.7,2.6,4.3,3.4c0.8,0.4,1.5,0.7,2.4,0.7c0.6,0,1.1-0.1,1.5-0.6
	c0.3-0.3,0.6-0.6,0.9-0.9c0.4-0.4,0.4-1,0-1.4C16.9,16.9,16.4,16.4,15.9,15.9z"/>
<path class="st1" d="M15.3,13.7l1-0.2c-0.2-0.9-0.6-1.8-1.3-2.5c-0.7-0.7-1.6-1.2-2.6-1.3l-0.1,1c0.8,0.1,1.5,0.5,2,1
	C14.9,12.3,15.2,12.9,15.3,13.7z"/>
<path class="st1" d="M16.9,9.2c-1.2-1.2-2.7-1.9-4.3-2.1l-0.1,1c1.4,0.2,2.7,0.8,3.7,1.9c1,1,1.6,2.2,1.8,3.5l1-0.2
	C18.8,11.8,18,10.4,16.9,9.2z"/>
</svg>
