<svg xmlns="http://www.w3.org/2000/svg" xmlns:xlink="http://www.w3.org/1999/xlink" width="61.706" height="64.549" viewBox="0 0 61.706 64.549">
  <defs>
    <filter id="Path_83" x="0" y="0" width="61.706" height="64.549" filterUnits="userSpaceOnUse">
      <feOffset input="SourceAlpha"/>
      <feGaussianBlur stdDeviation="5" result="blur"/>
      <feFlood flood-color="#005092" flood-opacity="0.451"/>
      <feComposite operator="in" in2="blur"/>
      <feComposite in="SourceGraphic"/>
    </filter>
  </defs>
  <g id="Group_54" data-name="Group 54" transform="translate(-1655.65 -4.044)">
    <g transform="matrix(1, 0, 0, 1, 1655.65, 4.04)" filter="url(#Path_83)">
      <path id="Path_83-2" data-name="Path 83" d="M1670.65,31.014V41.622a6.666,6.666,0,0,0,3.333,5.774l9.187,5.3a6.67,6.67,0,0,0,6.666,0l9.187-5.3a6.666,6.666,0,0,0,3.333-5.774V31.014a6.666,6.666,0,0,0-3.333-5.773l-9.187-5.3a6.665,6.665,0,0,0-6.666,0l-9.187,5.3A6.666,6.666,0,0,0,1670.65,31.014Z" transform="translate(-1655.65 -4.04)" fill="#fff"/>
    </g>
    <g id="Group_53" data-name="Group 53">
      <g id="Group_52" data-name="Group 52">
        <path id="Path_84" data-name="Path 84" d="M1691.264,40.273a1.282,1.282,0,0,0-1.938,0c-.453.449-.906.9-1.351,1.355a.268.268,0,0,1-.374.069c-.293-.16-.6-.29-.887-.465a14.071,14.071,0,0,1-3.388-3.083,8.045,8.045,0,0,1-1.214-1.946.277.277,0,0,1,.068-.357c.454-.438.895-.887,1.341-1.337a1.287,1.287,0,0,0,0-1.983c-.354-.358-.708-.708-1.062-1.066s-.727-.735-1.1-1.1a1.289,1.289,0,0,0-1.937,0c-.457.45-.9.91-1.36,1.352a2.2,2.2,0,0,0-.692,1.488,6.291,6.291,0,0,0,.487,2.715,16.5,16.5,0,0,0,2.927,4.876,18.119,18.119,0,0,0,6,4.694,8.684,8.684,0,0,0,3.323.967,2.436,2.436,0,0,0,2.09-.795c.389-.434.826-.83,1.238-1.245a1.3,1.3,0,0,0,.007-1.972Q1692.357,41.357,1691.264,40.273Z" fill="#005092"/>
        <path id="Path_85" data-name="Path 85" d="M1690.537,37.239l1.4-.24a6.307,6.307,0,0,0-5.333-5.174l-.2,1.413a4.875,4.875,0,0,1,4.127,4Z" fill="#005092"/>
        <path id="Path_86" data-name="Path 86" d="M1692.733,31.133a10.353,10.353,0,0,0-5.938-2.962l-.2,1.412a9.042,9.042,0,0,1,7.648,7.412l1.4-.239A10.432,10.432,0,0,0,1692.733,31.133Z" fill="#005092"/>
      </g>
    </g>
  </g>
</svg>
