<?xml version="1.0" encoding="utf-8"?>
<!-- Generator: Adobe Illustrator 24.1.1, SVG Export Plug-In . SVG Version: 6.00 Build 0)  -->
<svg version="1.1" id="Слой_1" xmlns="http://www.w3.org/2000/svg" xmlns:xlink="http://www.w3.org/1999/xlink" x="0px" y="0px"
	 viewBox="0 0 320 384.4" style="enable-background:new 0 0 320 384.4;" xml:space="preserve">
<style type="text/css">
	.st0{fill:#E8F1F6;}
	.st1{clip-path:url(#SVGID_2_);}
	.st2{opacity:0.15;}
	.st3{fill:#65A2C2;}
	.st4{fill:none;}
	.st5{fill:#005090;}
</style>
<path class="st0" d="M0,0v568h320V0H0z M295.9,252.2c0,12.5-6.7,24.1-17.5,30.3l-100.9,58.3c-10.8,6.3-24.2,6.3-35,0L41.6,282.5
	c-10.8-6.3-17.5-17.8-17.5-30.3V135.6c0-12.5,6.7-24.1,17.5-30.3L142.5,47c10.8-6.3,24.2-6.3,35,0l100.9,58.3
	c10.8,6.3,17.5,17.8,17.5,30.3V252.2z"/>
<g>
	<defs>
		<rect id="SVGID_1_" y="391" width="320" height="171"/>
	</defs>
	<clipPath id="SVGID_2_">
		<use xlink:href="#SVGID_1_"  style="overflow:visible;"/>
	</clipPath>
	<g class="st1">
		<g>
			<g class="st2">
				<g>
					<g>
						<g>
							<path class="st3" d="M2067.6,415.2c-7.7,0-16.2-0.3-25.9-1.1v-0.6c39.6,3.1,60-1,81.3-5.4c24.7-5,50.3-10.2,108.4-3.9
								c61.2,6.7,96.5,4,133.9,1.1c37.9-2.9,77.1-5.9,145.8,1.7l0,0.3l0-0.2c19.8,3.3,36.2,5.3,50.3,6.4v0.6
								c-14.1-1.1-30.5-3.1-50.3-6.4c-68.7-7.6-107.8-4.6-145.7-1.7c-37.4,2.9-72.7,5.6-134-1.1c-58.1-6.3-83.6-1.2-108.3,3.9
								C2107,412,2091.4,415.2,2067.6,415.2z"/>
						</g>
					</g>
					<g>
						<g>
							<path class="st3" d="M2061.4,541c-7.2,0-13.7-0.3-19.7-0.8v-0.6c16.9,1.4,38.1,1.2,67.7-2.7c61.3-7.9,96.6-4.7,134-1.3
								c37.9,3.4,77,7,145.7-2c75.6-14.7,102.9-8.2,131.8-1.2c12.1,2.9,24.3,5.9,40.5,7.2v0.6c-16.2-1.4-28.6-4.3-40.7-7.3
								c-28.8-6.9-56-13.5-131.5,1.2l-0.1-0.3l0,0.3c-68.7,9.1-107.9,5.5-145.8,2c-37.4-3.4-72.7-6.6-133.9,1.3
								C2090.3,540,2074.6,541,2061.4,541z"/>
							<path class="st3" d="M2387.2,521.2C2387.2,521.2,2387.2,521.2,2387.2,521.2c-33.4,6.5-57.4,8.9-76.2,8.9
								c-23.8,0-39.5-3.8-55.6-7.7c-24.7-5.9-50.2-12.1-108.2-4.6c-45.7,5.9-77,5.6-105.4,3.7v-0.6c28.4,1.9,59.7,2.2,105.4-3.7
								c58.2-7.5,83.7-1.4,108.5,4.6c28.8,6.9,56,13.5,131.5-1.2l0.1,0.3l0-0.3c68.7-9.1,107.9-5.5,145.8-2
								c9.5,0.9,18.8,1.7,28.5,2.4v0.6c-9.7-0.7-19.1-1.5-28.6-2.4C2495,515.7,2455.8,512.2,2387.2,521.2z"/>
							<path class="st3" d="M2363.1,518.9c-18.8,0-42.8-2-76.2-7.5c0,0,0,0,0,0c-68.7-7.6-107.8-4.6-145.7-1.7
								c-29.8,2.3-58.2,4.5-99.5,1.9v-0.6c41.3,2.6,69.7,0.4,99.4-1.9c37.9-2.9,77.1-5.9,145.8,1.7l0,0.4l0.1-0.4
								c75.5,12.4,102.7,6.9,131.6,1c24.7-5,50.3-10.2,108.4-3.9c12.5,1.4,23.9,2.3,34.4,3v0.6c-10.6-0.7-22-1.6-34.5-3
								c-58.1-6.3-83.6-1.2-108.3,3.9C2402.5,515.7,2386.9,518.9,2363.1,518.9z"/>
							<path class="st3" d="M2292.6,495.3c-58.1-6.3-83.6-1.2-108.3,3.9c-16.1,3.3-31.8,6.5-55.6,6.5c-18.8,0-42.8-2-76.2-7.5
								c0,0,0,0,0,0c-3.7-0.4-7.3-0.8-10.9-1.1v-0.6c3.6,0.4,7.2,0.7,11,1.2l0,0.2l0-0.2c75.5,12.4,102.7,6.9,131.6,1
								c24.7-5,50.3-10.2,108.4-3.9c61.2,6.7,96.5,4,133.9,1.1c35.8-2.8,72.8-5.6,134.8,0.6v0.6c-62-6.2-99-3.3-134.8-0.6
								C2389.2,499.3,2353.9,502,2292.6,495.3z"/>
							<path class="st3" d="M2362.5,484.1c-37.9,2.9-77.1,5.9-145.8-1.7l0-0.4l-0.1,0.4c-75.5-12.4-102.7-6.9-131.6-1
								c-12.8,2.6-25.8,5.2-43.5,6.3V487c17.6-1.1,30.6-3.7,43.3-6.3c28.9-5.9,56.2-11.4,131.8,1v0c68.7,7.6,107.8,4.6,145.7,1.7
								c37.4-2.9,72.7-5.6,134,1.1c28,3.1,48.5,3.4,64.9,2.4v0.6c-5.2,0.3-10.7,0.5-16.8,0.5c-13.2,0-28.9-0.8-48.1-2.9
								C2435.2,478.5,2399.9,481.2,2362.5,484.1z"/>
							<path class="st3" d="M2300.3,467.3c-37.9,2.9-77.1,5.9-145.8-1.7l0-0.3l-0.1,0.3c-59.3-9.8-88.8-8.4-112.8-4.6v-0.6
								c23.9-3.9,53.5-5.2,112.8,4.6c68.7,7.6,107.8,4.6,145.7,1.7c37.4-2.9,72.7-5.6,134,1.1c58.1,6.3,83.6,1.2,108.3-3.9
								c6.2-1.3,12.4-2.5,18.9-3.6v0.6c-6.5,1.1-12.6,2.3-18.8,3.5c-16.5,3.4-33.5,6.8-60.3,6.8c-13.2,0-28.9-0.8-48.1-2.9
								C2372.9,461.8,2337.6,464.5,2300.3,467.3z"/>
							<path class="st3" d="M2310,458.5c-18.8,0-42.8-2-76.2-7.5c-68.7-7.6-107.8-4.6-145.7-1.7c-15.2,1.2-30,2.3-46.4,2.8v-0.6
								c16.3-0.5,31.2-1.6,46.3-2.8c37.9-2.9,77.1-5.9,145.8,1.7l0,0.3l0-0.2c75.5,12.4,102.7,6.9,131.6,1
								c24.7-5,50.3-10.2,108.4-3.9c36.4,4,63.6,4.6,87.5,3.9v0.6c-24,0.7-51.2,0.1-87.6-3.9c-58.1-6.3-83.6-1.2-108.3,3.9
								C2349.4,455.3,2333.8,458.5,2310,458.5z"/>
							<path class="st3" d="M2358.8,441.2c-37.9,2.9-77.1,5.9-145.8-1.7l0-0.4l-0.1,0.4c-75.5-12.4-102.7-6.9-131.6-1
								c-11.9,2.4-24,4.9-39.8,6.1v-0.6c15.8-1.2,27.8-3.6,39.6-6.1c18.5-3.8,36.3-7.4,66.7-6.2c17,0.6,37.9,2.8,65.1,7.3
								c0,0,0,0,0,0c68.7,7.6,107.8,4.6,145.7,1.7c37.4-2.9,72.7-5.6,134,1.1c30.2,3.3,51.6,3.5,68.6,2.2v0.6
								c-6.2,0.5-13,0.7-20.5,0.7c-13.2,0-28.9-0.8-48.1-2.9C2431.5,435.6,2396.2,438.3,2358.8,441.2z"/>
							<path class="st3" d="M2237.8,427.9c-26.2,2-53,4.1-89.7,2.6c-16.4-0.6-34.8-2-56.1-4.4l0-0.3l-0.1,0.3
								c-19.8-3.3-36.2-5.3-50.3-6.4v-0.6c14.1,1.1,30.5,3.1,50.3,6.4c0,0,0,0,0,0c68.7,7.6,107.8,4.6,145.6,1.7
								c37.4-2.9,72.7-5.6,134,1.1c58.1,6.3,83.6,1.2,108.3-3.9c21.3-4.3,41.8-8.5,81.4-5.4v0.6c-39.6-3.1-60,1-81.3,5.3
								c-16.5,3.4-33.5,6.8-60.3,6.8c-13.2,0-28.9-0.8-48.1-2.9C2310.4,422.3,2275.1,425.1,2237.8,427.9z"/>
						</g>
					</g>
				</g>
				<g>
					<g>
						<g>
							<path class="st3" d="M2587.3,415.2c-7.7,0-16.2-0.3-25.9-1.1v-0.6c39.6,3.1,60-1,81.3-5.4c24.7-5,50.3-10.2,108.4-3.9
								c61.2,6.7,96.5,4,133.9,1.1c37.9-2.9,77.1-5.9,145.8,1.7l0,0.3l0-0.2c19.8,3.3,36.2,5.3,50.2,6.4v0.6
								c-14.1-1.1-30.5-3.1-50.3-6.4c-68.7-7.6-107.8-4.6-145.7-1.7c-37.4,2.9-72.7,5.6-134-1.1c-58.1-6.3-83.6-1.2-108.3,3.9
								C2626.7,412,2611.1,415.2,2587.3,415.2z"/>
						</g>
					</g>
					<g>
						<g>
							<path class="st3" d="M2581.1,541c-7.2,0-13.7-0.3-19.7-0.8v-0.6c16.9,1.4,38.1,1.2,67.7-2.7c61.3-7.9,96.6-4.7,134-1.3
								c37.9,3.4,77,7,145.7-2c75.6-14.7,102.9-8.2,131.8-1.2c12.1,2.9,24.3,5.9,40.5,7.2v0.6c-16.2-1.4-28.6-4.3-40.7-7.3
								c-28.8-6.9-56-13.5-131.5,1.2l-0.1-0.3l0,0.3c-68.7,9.1-107.9,5.5-145.8,2c-37.4-3.4-72.7-6.6-133.9,1.3
								C2610,540,2594.3,541,2581.1,541z"/>
							<path class="st3" d="M2906.9,521.2C2906.9,521.2,2906.9,521.2,2906.9,521.2c-33.4,6.5-57.4,8.9-76.2,8.9
								c-23.8,0-39.5-3.8-55.6-7.7c-24.7-5.9-50.2-12.1-108.2-4.6c-45.7,5.9-77,5.6-105.4,3.7v-0.6c28.4,1.9,59.7,2.2,105.4-3.7
								c58.2-7.5,83.7-1.4,108.5,4.6c28.8,6.9,56,13.5,131.5-1.2l0.1,0.3l0-0.3c68.7-9.1,107.9-5.5,145.8-2
								c9.5,0.9,18.8,1.7,28.5,2.4v0.6c-9.7-0.7-19.1-1.5-28.6-2.4C3014.7,515.7,2975.5,512.2,2906.9,521.2z"/>
							<path class="st3" d="M2882.7,518.9c-18.8,0-42.8-2-76.2-7.5c0,0,0,0,0,0c-68.7-7.6-107.8-4.6-145.7-1.7
								c-29.8,2.3-58.2,4.5-99.5,1.9v-0.6c41.3,2.6,69.7,0.4,99.4-1.9c37.9-2.9,77.1-5.9,145.8,1.7l0,0.4l0.1-0.4
								c75.5,12.4,102.7,6.9,131.6,1c24.7-5,50.3-10.2,108.4-3.9c12.5,1.4,23.9,2.3,34.4,3v0.6c-10.6-0.7-22-1.6-34.5-3
								c-58.1-6.3-83.6-1.2-108.3,3.9C2922.2,515.7,2906.6,518.9,2882.7,518.9z"/>
							<path class="st3" d="M2812.3,495.3c-58.1-6.3-83.6-1.2-108.3,3.9c-16.1,3.3-31.8,6.5-55.6,6.5c-18.8,0-42.8-2-76.2-7.5
								c0,0,0,0,0,0c-3.7-0.4-7.3-0.8-10.9-1.1v-0.6c3.6,0.4,7.2,0.7,11,1.2l0,0.2l0-0.2c75.5,12.4,102.7,6.9,131.6,1
								c24.7-5,50.3-10.2,108.4-3.9c61.2,6.7,96.5,4,133.9,1.1c35.8-2.8,72.8-5.6,134.8,0.6v0.6c-62-6.2-99-3.3-134.8-0.6
								C2908.9,499.3,2873.6,502,2812.3,495.3z"/>
							<path class="st3" d="M2882.2,484.1c-37.9,2.9-77.1,5.9-145.8-1.7l0-0.4l-0.1,0.4c-75.5-12.4-102.7-6.9-131.6-1
								c-12.8,2.6-25.8,5.2-43.5,6.3V487c17.6-1.1,30.6-3.7,43.3-6.3c28.9-5.9,56.2-11.4,131.8,1v0c68.7,7.6,107.8,4.6,145.7,1.7
								c37.4-2.9,72.7-5.6,134,1.1c28,3.1,48.5,3.4,64.9,2.4v0.6c-5.2,0.3-10.7,0.5-16.8,0.5c-13.2,0-28.9-0.8-48.1-2.9
								C2954.9,478.5,2919.6,481.2,2882.2,484.1z"/>
							<path class="st3" d="M2820,467.3c-37.9,2.9-77.1,5.9-145.8-1.7l0-0.3l-0.1,0.3c-59.3-9.8-88.8-8.4-112.8-4.6v-0.6
								c23.9-3.9,53.5-5.2,112.8,4.6c68.7,7.6,107.8,4.6,145.7,1.7c37.4-2.9,72.7-5.6,134,1.1c58.1,6.3,83.6,1.2,108.3-3.9
								c6.2-1.3,12.4-2.5,18.9-3.6v0.6c-6.5,1.1-12.6,2.3-18.8,3.5c-16.5,3.4-33.5,6.8-60.3,6.8c-13.2,0-28.9-0.8-48.1-2.9
								C2892.6,461.8,2857.3,464.5,2820,467.3z"/>
							<path class="st3" d="M2829.7,458.5c-18.8,0-42.8-2-76.2-7.5c-68.7-7.6-107.8-4.6-145.7-1.7c-15.2,1.2-30,2.3-46.4,2.8v-0.6
								c16.3-0.5,31.2-1.6,46.3-2.8c37.9-2.9,77.1-5.9,145.8,1.7l0,0.3l0-0.2c75.5,12.4,102.7,6.9,131.6,1
								c24.7-5,50.3-10.2,108.4-3.9c36.4,4,63.6,4.6,87.5,3.9v0.6c-24,0.7-51.2,0.1-87.6-3.9c-58.1-6.3-83.6-1.2-108.3,3.9
								C2869.1,455.3,2853.5,458.5,2829.7,458.5z"/>
							<path class="st3" d="M2878.5,441.2c-37.9,2.9-77.1,5.9-145.8-1.7l0-0.4l-0.1,0.4c-75.5-12.4-102.7-6.9-131.6-1
								c-11.9,2.4-24,4.9-39.8,6.1v-0.6c15.8-1.2,27.8-3.6,39.6-6.1c18.5-3.8,36.3-7.4,66.7-6.2c17,0.6,37.9,2.8,65.1,7.3
								c0,0,0,0,0,0c68.7,7.6,107.8,4.6,145.7,1.7c37.4-2.9,72.7-5.6,134,1.1c30.2,3.3,51.6,3.5,68.6,2.2v0.6
								c-6.2,0.5-13,0.7-20.5,0.7c-13.2,0-28.9-0.8-48.1-2.9C2951.2,435.6,2915.9,438.3,2878.5,441.2z"/>
							<path class="st3" d="M2757.5,427.9c-26.2,2-53,4.1-89.7,2.6c-16.4-0.6-34.8-2-56.1-4.4l0-0.3l-0.1,0.3
								c-19.8-3.3-36.2-5.3-50.3-6.4v-0.6c14.1,1.1,30.5,3.1,50.3,6.4c0,0,0,0,0,0c68.7,7.6,107.8,4.6,145.6,1.7
								c37.4-2.9,72.7-5.6,134,1.1c58.1,6.3,83.6,1.2,108.3-3.9c21.3-4.3,41.8-8.5,81.4-5.4v0.6c-39.6-3.1-60,1-81.3,5.3
								c-16.5,3.4-33.5,6.8-60.3,6.8c-13.2,0-28.9-0.8-48.1-2.9C2830.1,422.3,2794.8,425.1,2757.5,427.9z"/>
						</g>
					</g>
				</g>
			</g>
			<g class="st2">
				<g>
					<g>
						<g>
							<path class="st3" d="M3106.9,415.2c-7.7,0-16.2-0.3-25.9-1.1v-0.6c39.6,3.1,60-1,81.3-5.4c24.7-5,50.3-10.2,108.4-3.9
								c61.2,6.7,96.5,4,133.9,1.1c37.9-2.9,77.1-5.9,145.8,1.7l0,0.3l0-0.2c19.8,3.3,36.2,5.3,50.3,6.4v0.6
								c-14.1-1.1-30.5-3.1-50.3-6.4c-68.7-7.6-107.8-4.6-145.7-1.7c-37.4,2.9-72.7,5.6-134-1.1c-58.1-6.3-83.6-1.2-108.3,3.9
								C3146.4,412,3130.8,415.2,3106.9,415.2z"/>
						</g>
					</g>
					<g>
						<g>
							<path class="st3" d="M3100.7,541c-7.2,0-13.7-0.3-19.7-0.8v-0.6c16.9,1.4,38.1,1.2,67.7-2.7c61.3-7.9,96.6-4.7,134-1.3
								c37.9,3.4,77,7,145.7-2c75.6-14.7,102.9-8.2,131.8-1.2c12.1,2.9,24.3,5.9,40.5,7.2v0.6c-16.2-1.4-28.6-4.3-40.7-7.3
								c-28.8-6.9-56-13.5-131.5,1.2l-0.1-0.3l0,0.3c-68.7,9.1-107.9,5.5-145.8,2c-37.4-3.4-72.7-6.6-133.9,1.3
								C3129.7,540,3114,541,3100.7,541z"/>
							<path class="st3" d="M3426.5,521.2C3426.5,521.2,3426.5,521.2,3426.5,521.2c-33.4,6.5-57.4,8.9-76.2,8.9
								c-23.8,0-39.5-3.8-55.6-7.7c-24.7-5.9-50.2-12.1-108.2-4.6c-45.7,5.9-77,5.6-105.4,3.7v-0.6c28.4,1.9,59.7,2.2,105.4-3.7
								c58.2-7.5,83.7-1.4,108.5,4.6c28.8,6.9,56,13.5,131.5-1.2l0.1,0.3l0-0.3c68.7-9.1,107.9-5.5,145.8-2
								c9.5,0.9,18.8,1.7,28.5,2.4v0.6c-9.7-0.7-19.1-1.5-28.6-2.4C3534.3,515.7,3495.2,512.2,3426.5,521.2z"/>
							<path class="st3" d="M3402.4,518.9c-18.8,0-42.8-2-76.2-7.5c0,0,0,0,0,0c-68.7-7.6-107.8-4.6-145.7-1.7
								c-29.8,2.3-58.2,4.5-99.5,1.9v-0.6c41.3,2.6,69.7,0.4,99.4-1.9c37.9-2.9,77.1-5.9,145.8,1.7l0,0.4l0.1-0.4
								c75.5,12.4,102.7,6.9,131.6,1c24.7-5,50.3-10.2,108.4-3.9c12.5,1.4,23.9,2.3,34.4,3v0.6c-10.6-0.7-22-1.6-34.5-3
								c-58.1-6.3-83.6-1.2-108.3,3.9C3441.9,515.7,3426.2,518.9,3402.4,518.9z"/>
							<path class="st3" d="M3332,495.3c-58.1-6.3-83.6-1.2-108.3,3.9c-16.1,3.3-31.8,6.5-55.6,6.5c-18.8,0-42.8-2-76.2-7.5
								c0,0,0,0,0,0c-3.7-0.4-7.3-0.8-10.9-1.1v-0.6c3.6,0.4,7.2,0.7,11,1.2l0,0.2l0-0.2c75.5,12.4,102.7,6.9,131.6,1
								c24.7-5,50.3-10.2,108.4-3.9c61.2,6.7,96.5,4,133.9,1.1c35.8-2.8,72.8-5.6,134.8,0.6v0.6c-62-6.2-99-3.3-134.8-0.6
								C3428.6,499.3,3393.3,502,3332,495.3z"/>
							<path class="st3" d="M3401.9,484.1c-37.9,2.9-77.1,5.9-145.8-1.7l0-0.4l-0.1,0.4c-75.5-12.4-102.7-6.9-131.6-1
								c-12.8,2.6-25.8,5.2-43.5,6.3V487c17.6-1.1,30.6-3.7,43.3-6.3c28.9-5.9,56.2-11.4,131.8,1v0c68.7,7.6,107.8,4.6,145.7,1.7
								c37.4-2.9,72.7-5.6,134,1.1c28,3.1,48.5,3.4,64.9,2.4v0.6c-5.2,0.3-10.7,0.5-16.8,0.5c-13.2,0-28.9-0.8-48.1-2.9
								C3474.6,478.5,3439.3,481.2,3401.9,484.1z"/>
							<path class="st3" d="M3339.6,467.3c-37.9,2.9-77.1,5.9-145.8-1.7l0-0.3l-0.1,0.3c-59.3-9.8-88.8-8.4-112.8-4.6v-0.6
								c23.9-3.9,53.5-5.2,112.8,4.6c68.7,7.6,107.8,4.6,145.7,1.7c37.4-2.9,72.7-5.6,134,1.1c58.1,6.3,83.6,1.2,108.3-3.9
								c6.2-1.3,12.4-2.5,18.9-3.6v0.6c-6.5,1.1-12.6,2.3-18.8,3.5c-16.5,3.4-33.5,6.8-60.3,6.8c-13.2,0-28.9-0.8-48.1-2.9
								C3412.3,461.8,3377,464.5,3339.6,467.3z"/>
							<path class="st3" d="M3349.3,458.5c-18.8,0-42.8-2-76.2-7.5c-68.7-7.6-107.8-4.6-145.7-1.7c-15.2,1.2-30,2.3-46.4,2.8v-0.6
								c16.3-0.5,31.2-1.6,46.3-2.8c37.9-2.9,77.1-5.9,145.8,1.7l0,0.3l0-0.2c75.5,12.4,102.7,6.9,131.6,1
								c24.7-5,50.3-10.2,108.4-3.9c36.4,4,63.6,4.6,87.5,3.9v0.6c-24,0.7-51.2,0.1-87.6-3.9c-58.1-6.3-83.6-1.2-108.3,3.9
								C3388.8,455.3,3373.1,458.5,3349.3,458.5z"/>
							<path class="st3" d="M3398.2,441.2c-37.9,2.9-77.1,5.9-145.8-1.7l0-0.4l-0.1,0.4c-75.5-12.4-102.7-6.9-131.6-1
								c-11.9,2.4-24,4.9-39.8,6.1v-0.6c15.8-1.2,27.8-3.6,39.6-6.1c18.5-3.8,36.3-7.4,66.7-6.2c17,0.6,37.9,2.8,65.1,7.3
								c0,0,0,0,0,0c68.7,7.6,107.8,4.6,145.7,1.7c37.4-2.9,72.7-5.6,134,1.1c30.2,3.3,51.6,3.5,68.6,2.2v0.6
								c-6.2,0.5-13,0.7-20.5,0.7c-13.2,0-28.9-0.8-48.1-2.9C3470.9,435.6,3435.6,438.3,3398.2,441.2z"/>
							<path class="st3" d="M3277.1,427.9c-26.2,2-53,4.1-89.7,2.6c-16.4-0.6-34.8-2-56.1-4.4l0-0.3l-0.1,0.3
								c-19.8-3.3-36.2-5.3-50.3-6.4v-0.6c14.1,1.1,30.5,3.1,50.3,6.4c0,0,0,0,0,0c68.7,7.6,107.8,4.6,145.6,1.7
								c37.4-2.9,72.7-5.6,134,1.1c58.1,6.3,83.6,1.2,108.3-3.9c21.3-4.3,41.8-8.5,81.4-5.4v0.6c-39.6-3.1-60,1-81.3,5.3
								c-16.5,3.4-33.5,6.8-60.3,6.8c-13.2,0-28.9-0.8-48.1-2.9C3349.8,422.3,3314.5,425.1,3277.1,427.9z"/>
						</g>
					</g>
				</g>
				<g>
					<g>
						<g>
							<path class="st3" d="M3626.6,415.2c-7.7,0-16.2-0.3-25.9-1.1v-0.6c39.6,3.1,60-1,81.3-5.4c24.7-5,50.3-10.2,108.4-3.9
								c61.2,6.7,96.5,4,133.9,1.1c37.9-2.9,77.1-5.9,145.8,1.7l0,0.3l0-0.2c19.8,3.3,36.2,5.3,50.2,6.4v0.6
								c-14.1-1.1-30.5-3.1-50.3-6.4c-68.7-7.6-107.8-4.6-145.7-1.7c-37.4,2.9-72.7,5.6-134-1.1c-58.1-6.3-83.6-1.2-108.3,3.9
								C3666.1,412,3650.4,415.2,3626.6,415.2z"/>
						</g>
					</g>
					<g>
						<g>
							<path class="st3" d="M3620.4,541c-7.2,0-13.7-0.3-19.7-0.8v-0.6c16.9,1.4,38.1,1.2,67.7-2.7c61.3-7.9,96.6-4.7,134-1.3
								c37.9,3.4,77,7,145.7-2c75.6-14.7,102.9-8.2,131.8-1.2c12.1,2.9,24.3,5.9,40.5,7.2v0.6c-16.2-1.4-28.6-4.3-40.7-7.3
								c-28.8-6.9-56-13.5-131.5,1.2l-0.1-0.3l0,0.3c-68.7,9.1-107.9,5.5-145.8,2c-37.4-3.4-72.7-6.6-133.9,1.3
								C3649.4,540,3633.7,541,3620.4,541z"/>
							<path class="st3" d="M3946.2,521.2C3946.2,521.2,3946.2,521.2,3946.2,521.2c-33.4,6.5-57.4,8.9-76.2,8.9
								c-23.8,0-39.5-3.8-55.6-7.7c-24.7-5.9-50.2-12.1-108.2-4.6c-45.7,5.9-77,5.6-105.4,3.7v-0.6c28.4,1.9,59.7,2.2,105.4-3.7
								c58.2-7.5,83.7-1.4,108.5,4.6c28.8,6.9,56,13.5,131.5-1.2l0.1,0.3l0-0.3c68.7-9.1,107.9-5.5,145.8-2
								c9.5,0.9,18.8,1.7,28.5,2.4v0.6c-9.7-0.7-19.1-1.5-28.6-2.4C4054,515.7,4014.9,512.2,3946.2,521.2z"/>
							<path class="st3" d="M3922.1,518.9c-18.8,0-42.8-2-76.2-7.5c0,0,0,0,0,0c-68.7-7.6-107.8-4.6-145.7-1.7
								c-29.8,2.3-58.2,4.5-99.5,1.9v-0.6c41.3,2.6,69.7,0.4,99.4-1.9c37.9-2.9,77.1-5.9,145.8,1.7l0,0.4l0.1-0.4
								c75.5,12.4,102.7,6.9,131.6,1c24.7-5,50.3-10.2,108.4-3.9c12.5,1.4,23.9,2.3,34.4,3v0.6c-10.6-0.7-22-1.6-34.5-3
								c-58.1-6.3-83.6-1.2-108.3,3.9C3961.6,515.7,3945.9,518.9,3922.1,518.9z"/>
							<path class="st3" d="M3851.7,495.3c-58.1-6.3-83.6-1.2-108.3,3.9c-16.1,3.3-31.8,6.5-55.6,6.5c-18.8,0-42.8-2-76.2-7.5
								c0,0,0,0,0,0c-3.7-0.4-7.3-0.8-10.9-1.1v-0.6c3.6,0.4,7.2,0.7,11,1.2l0,0.2l0-0.2c75.5,12.4,102.7,6.9,131.6,1
								c24.7-5,50.3-10.2,108.4-3.9c61.2,6.7,96.5,4,133.9,1.1c35.8-2.8,72.8-5.6,134.8,0.6v0.6c-62-6.2-99-3.3-134.8-0.6
								C3948.3,499.3,3913,502,3851.7,495.3z"/>
							<path class="st3" d="M3921.6,484.1c-37.9,2.9-77.1,5.9-145.8-1.7l0-0.4l-0.1,0.4c-75.5-12.4-102.7-6.9-131.6-1
								c-12.8,2.6-25.8,5.2-43.5,6.3V487c17.6-1.1,30.6-3.7,43.3-6.3c28.9-5.9,56.2-11.4,131.8,1v0c68.7,7.6,107.8,4.6,145.7,1.7
								c37.4-2.9,72.7-5.6,134,1.1c28,3.1,48.5,3.4,64.9,2.4v0.6c-5.2,0.3-10.7,0.5-16.8,0.5c-13.2,0-28.9-0.8-48.1-2.9
								C3994.2,478.5,3959,481.2,3921.6,484.1z"/>
							<path class="st3" d="M3859.3,467.3c-37.9,2.9-77.1,5.9-145.8-1.7l0-0.3l-0.1,0.3c-59.3-9.8-88.8-8.4-112.8-4.6v-0.6
								c23.9-3.9,53.5-5.2,112.8,4.6c68.7,7.6,107.8,4.6,145.7,1.7c37.4-2.9,72.7-5.6,134,1.1c58.1,6.3,83.6,1.2,108.3-3.9
								c6.2-1.3,12.4-2.5,18.9-3.6v0.6c-6.5,1.1-12.6,2.3-18.8,3.5c-16.5,3.4-33.5,6.8-60.3,6.8c-13.2,0-28.9-0.8-48.1-2.9
								C3932,461.8,3896.7,464.5,3859.3,467.3z"/>
							<path class="st3" d="M3869,458.5c-18.8,0-42.8-2-76.2-7.5c-68.7-7.6-107.8-4.6-145.7-1.7c-15.2,1.2-30,2.3-46.4,2.8v-0.6
								c16.3-0.5,31.2-1.6,46.3-2.8c37.9-2.9,77.1-5.9,145.8,1.7l0,0.3l0-0.2c75.5,12.4,102.7,6.9,131.6,1
								c24.7-5,50.3-10.2,108.4-3.9c36.4,4,63.6,4.6,87.5,3.9v0.6c-24,0.7-51.2,0.1-87.6-3.9c-58.1-6.3-83.6-1.2-108.3,3.9
								C3908.5,455.3,3892.8,458.5,3869,458.5z"/>
							<path class="st3" d="M3917.9,441.2c-37.9,2.9-77.1,5.9-145.8-1.7l0-0.4l-0.1,0.4c-75.5-12.4-102.7-6.9-131.6-1
								c-11.9,2.4-24,4.9-39.8,6.1v-0.6c15.8-1.2,27.8-3.6,39.6-6.1c18.5-3.8,36.3-7.4,66.7-6.2c17,0.6,37.9,2.8,65.1,7.3
								c0,0,0,0,0,0c68.7,7.6,107.8,4.6,145.7,1.7c37.4-2.9,72.7-5.6,134,1.1c30.2,3.3,51.6,3.5,68.6,2.2v0.6
								c-6.2,0.5-13,0.7-20.5,0.7c-13.2,0-28.9-0.8-48.1-2.9C3990.5,435.6,3955.3,438.3,3917.9,441.2z"/>
							<path class="st3" d="M3796.8,427.9c-26.2,2-53,4.1-89.7,2.6c-16.4-0.6-34.8-2-56.1-4.4l0-0.3l-0.1,0.3
								c-19.8-3.3-36.2-5.3-50.3-6.4v-0.6c14.1,1.1,30.5,3.1,50.3,6.4c0,0,0,0,0,0c68.7,7.6,107.8,4.6,145.6,1.7
								c37.4-2.9,72.7-5.6,134,1.1c58.1,6.3,83.6,1.2,108.3-3.9c21.3-4.3,41.8-8.5,81.4-5.4v0.6c-39.6-3.1-60,1-81.3,5.3
								c-16.5,3.4-33.5,6.8-60.3,6.8c-13.2,0-28.9-0.8-48.1-2.9C3869.5,422.3,3834.2,425.1,3796.8,427.9z"/>
						</g>
					</g>
				</g>
			</g>
		</g>
		<g>
			<g class="st2">
				<g>
					<g>
						<g>
							<path class="st3" d="M-11.1,415.2c-7.7,0-16.2-0.3-25.9-1.1v-0.6c39.6,3.1,60-1,81.3-5.4c24.7-5,50.3-10.2,108.4-3.9
								c61.2,6.7,96.5,4,133.9,1.1c37.9-2.9,77.1-5.9,145.8,1.7l0,0.3l0-0.2c19.8,3.3,36.2,5.3,50.2,6.4v0.6
								c-14.1-1.1-30.5-3.1-50.3-6.4c-68.7-7.6-107.8-4.6-145.7-1.7c-37.4,2.9-72.7,5.6-134-1.1c-58.1-6.3-83.6-1.2-108.3,3.9
								C28.3,412,12.7,415.2-11.1,415.2z"/>
						</g>
					</g>
					<g>
						<g>
							<path class="st3" d="M-17.3,541c-7.2,0-13.7-0.3-19.7-0.8v-0.6c16.9,1.4,38.1,1.2,67.7-2.7c61.3-7.9,96.6-4.7,134-1.3
								c37.9,3.4,77,7,145.7-2c75.6-14.7,102.9-8.2,131.8-1.2c12.1,2.9,24.3,5.9,40.5,7.2v0.6c-16.2-1.4-28.6-4.3-40.7-7.3
								c-28.8-6.9-56-13.5-131.5,1.2l-0.1-0.3l0,0.3c-68.7,9.1-107.9,5.5-145.8,2c-37.4-3.4-72.7-6.6-133.9,1.3
								C11.6,540-4.1,541-17.3,541z"/>
							<path class="st3" d="M308.5,521.2C308.5,521.2,308.5,521.2,308.5,521.2c-33.4,6.5-57.4,8.9-76.2,8.9
								c-23.8,0-39.5-3.8-55.6-7.7c-24.7-5.9-50.2-12.1-108.2-4.6c-45.7,5.9-77,5.6-105.4,3.7v-0.6c28.4,1.9,59.7,2.2,105.4-3.7
								c58.2-7.5,83.7-1.4,108.5,4.6c28.8,6.9,56,13.5,131.5-1.2l0.1,0.3l0-0.3c68.7-9.1,107.9-5.5,145.8-2
								c9.5,0.9,18.8,1.7,28.5,2.4v0.6c-9.7-0.7-19.1-1.5-28.6-2.4C416.3,515.7,377.1,512.2,308.5,521.2z"/>
							<path class="st3" d="M284.3,518.9c-18.8,0-42.8-2-76.2-7.5c0,0,0,0,0,0c-68.7-7.6-107.8-4.6-145.7-1.7
								c-29.8,2.3-58.2,4.5-99.5,1.9v-0.6c41.3,2.6,69.7,0.4,99.4-1.9c37.9-2.9,77.1-5.9,145.8,1.7l0,0.4l0.1-0.4
								c75.5,12.4,102.7,6.9,131.6,1c24.7-5,50.3-10.2,108.4-3.9c12.5,1.4,23.9,2.3,34.4,3v0.6c-10.6-0.7-22-1.6-34.5-3
								c-58.1-6.3-83.6-1.2-108.3,3.9C323.8,515.7,308.2,518.9,284.3,518.9z"/>
							<path class="st3" d="M213.9,495.3c-58.1-6.3-83.6-1.2-108.3,3.9c-16.1,3.3-31.8,6.5-55.6,6.5c-18.8,0-42.8-2-76.2-7.5
								c0,0,0,0,0,0c-3.7-0.4-7.3-0.8-10.9-1.1v-0.6c3.6,0.4,7.2,0.7,11,1.2l0,0.2l0-0.2c75.5,12.4,102.7,6.9,131.6,1
								c24.7-5,50.3-10.2,108.4-3.9c61.2,6.7,96.5,4,133.9,1.1c35.8-2.8,72.8-5.6,134.8,0.6v0.6c-62-6.2-99-3.3-134.8-0.6
								C310.5,499.3,275.2,502,213.9,495.3z"/>
							<path class="st3" d="M283.8,484.1c-37.9,2.9-77.1,5.9-145.8-1.7l0-0.4l-0.1,0.4c-75.5-12.4-102.7-6.9-131.6-1
								c-12.8,2.6-25.8,5.2-43.5,6.3V487c17.6-1.1,30.6-3.7,43.3-6.3c28.9-5.9,56.2-11.4,131.8,1v0c68.7,7.6,107.8,4.6,145.7,1.7
								c37.4-2.9,72.7-5.6,134,1.1c28,3.1,48.5,3.4,64.9,2.4v0.6c-5.2,0.3-10.7,0.5-16.8,0.5c-13.2,0-28.9-0.8-48.1-2.9
								C356.5,478.5,321.2,481.2,283.8,484.1z"/>
							<path class="st3" d="M221.6,467.3c-37.9,2.9-77.1,5.9-145.8-1.7l0-0.3l-0.1,0.3c-59.3-9.8-88.8-8.4-112.8-4.6v-0.6
								c23.9-3.9,53.5-5.2,112.8,4.6c68.7,7.6,107.8,4.6,145.7,1.7c37.4-2.9,72.7-5.6,134,1.1c58.1,6.3,83.6,1.2,108.3-3.9
								c6.2-1.3,12.4-2.5,18.9-3.6v0.6c-6.5,1.1-12.6,2.3-18.8,3.5c-16.5,3.4-33.5,6.8-60.3,6.8c-13.2,0-28.9-0.8-48.1-2.9
								C294.2,461.8,258.9,464.5,221.6,467.3z"/>
							<path class="st3" d="M231.2,458.5c-18.8,0-42.8-2-76.2-7.5c-68.7-7.6-107.8-4.6-145.7-1.7c-15.2,1.2-30,2.3-46.4,2.8v-0.6
								c16.3-0.5,31.2-1.6,46.3-2.8c37.9-2.9,77.1-5.9,145.8,1.7l0,0.3l0-0.2c75.5,12.4,102.7,6.9,131.6,1
								c24.7-5,50.3-10.2,108.4-3.9c36.4,4,63.6,4.6,87.5,3.9v0.6c-24,0.7-51.2,0.1-87.6-3.9c-58.1-6.3-83.6-1.2-108.3,3.9
								C270.7,455.3,255.1,458.5,231.2,458.5z"/>
							<path class="st3" d="M280.1,441.2c-37.9,2.9-77.1,5.9-145.8-1.7l0-0.4l-0.1,0.4c-75.5-12.4-102.7-6.9-131.6-1
								c-11.9,2.4-24,4.9-39.8,6.1v-0.6c15.8-1.2,27.8-3.6,39.6-6.1c18.5-3.8,36.3-7.4,66.7-6.2c17,0.6,37.9,2.8,65.1,7.3
								c0,0,0,0,0,0c68.7,7.6,107.8,4.6,145.7,1.7c37.4-2.9,72.7-5.6,134,1.1c30.2,3.3,51.6,3.5,68.6,2.2v0.6
								c-6.2,0.5-13,0.7-20.5,0.7c-13.2,0-28.9-0.8-48.1-2.9C352.8,435.6,317.5,438.3,280.1,441.2z"/>
							<path class="st3" d="M159.1,427.9c-26.2,2-53,4.1-89.7,2.6c-16.4-0.6-34.8-2-56.1-4.4l0-0.3l-0.1,0.3
								c-19.8-3.3-36.2-5.3-50.3-6.4v-0.6c14.1,1.1,30.5,3.1,50.3,6.4c0,0,0,0,0,0c68.7,7.6,107.8,4.6,145.6,1.7
								c37.4-2.9,72.7-5.6,134,1.1c58.1,6.3,83.6,1.2,108.3-3.9c21.3-4.3,41.8-8.5,81.4-5.4v0.6c-39.6-3.1-60,1-81.3,5.3
								c-16.5,3.4-33.5,6.8-60.3,6.8c-13.2,0-28.9-0.8-48.1-2.9C231.7,422.3,196.4,425.1,159.1,427.9z"/>
						</g>
					</g>
				</g>
				<g>
					<g>
						<g>
							<path class="st3" d="M508.6,415.2c-7.7,0-16.2-0.3-25.9-1.1v-0.6c39.6,3.1,60-1,81.3-5.4c24.7-5,50.3-10.2,108.4-3.9
								c61.2,6.7,96.5,4,133.9,1.1c37.9-2.9,77.1-5.9,145.8,1.7l0,0.3l0-0.2c19.8,3.3,36.2,5.3,50.2,6.4v0.6
								c-14.1-1.1-30.5-3.1-50.3-6.4c-68.7-7.6-107.8-4.6-145.7-1.7c-37.4,2.9-72.7,5.6-134-1.1c-58.1-6.3-83.6-1.2-108.3,3.9
								C548,412,532.4,415.2,508.6,415.2z"/>
						</g>
					</g>
					<g>
						<g>
							<path class="st3" d="M502.4,541c-7.2,0-13.7-0.3-19.7-0.8v-0.6c16.9,1.4,38.1,1.2,67.7-2.7c61.3-7.9,96.6-4.7,134-1.3
								c37.9,3.4,77,7,145.7-2c75.6-14.7,102.9-8.2,131.8-1.2c12.1,2.9,24.3,5.9,40.5,7.2v0.6c-16.2-1.4-28.6-4.3-40.7-7.3
								c-28.8-6.9-56-13.5-131.5,1.2l-0.1-0.3l0,0.3c-68.7,9.1-107.9,5.5-145.8,2c-37.4-3.4-72.7-6.6-133.9,1.3
								C531.3,540,515.6,541,502.4,541z"/>
							<path class="st3" d="M828.2,521.2C828.2,521.2,828.2,521.2,828.2,521.2c-33.4,6.5-57.4,8.9-76.2,8.9
								c-23.8,0-39.5-3.8-55.6-7.7c-24.7-5.9-50.2-12.1-108.2-4.6c-45.7,5.9-77,5.6-105.4,3.7v-0.6c28.4,1.9,59.7,2.2,105.4-3.7
								c58.2-7.5,83.7-1.4,108.5,4.6c28.8,6.9,56,13.5,131.5-1.2l0.1,0.3l0-0.3c68.7-9.1,107.9-5.5,145.8-2
								c9.5,0.9,18.8,1.7,28.5,2.4v0.6c-9.7-0.7-19.1-1.5-28.6-2.4C936,515.7,896.8,512.2,828.2,521.2z"/>
							<path class="st3" d="M804,518.9c-18.8,0-42.8-2-76.2-7.5c0,0,0,0,0,0c-68.7-7.6-107.8-4.6-145.7-1.7
								c-29.8,2.3-58.2,4.5-99.5,1.9v-0.6c41.3,2.6,69.7,0.4,99.4-1.9c37.9-2.9,77.1-5.9,145.8,1.7l0,0.4l0.1-0.4
								c75.5,12.4,102.7,6.9,131.6,1c24.7-5,50.3-10.2,108.4-3.9c12.5,1.4,23.9,2.3,34.4,3v0.6c-10.6-0.7-22-1.6-34.5-3
								c-58.1-6.3-83.6-1.2-108.3,3.9C843.5,515.7,827.9,518.9,804,518.9z"/>
							<path class="st3" d="M733.6,495.3c-58.1-6.3-83.6-1.2-108.3,3.9c-16.1,3.3-31.8,6.5-55.6,6.5c-18.8,0-42.8-2-76.2-7.5
								c0,0,0,0,0,0c-3.7-0.4-7.3-0.8-10.9-1.1v-0.6c3.6,0.4,7.2,0.7,11,1.2l0,0.2l0-0.2c75.5,12.4,102.7,6.9,131.6,1
								c24.7-5,50.3-10.2,108.4-3.9c61.2,6.7,96.5,4,133.9,1.1c35.8-2.8,72.8-5.6,134.8,0.6v0.6c-62-6.2-99-3.3-134.8-0.6
								C830.2,499.3,794.9,502,733.6,495.3z"/>
							<path class="st3" d="M803.5,484.1c-37.9,2.9-77.1,5.9-145.8-1.7l0-0.4l-0.1,0.4c-75.5-12.4-102.7-6.9-131.6-1
								c-12.8,2.6-25.8,5.2-43.5,6.3V487c17.6-1.1,30.6-3.7,43.3-6.3c28.9-5.9,56.2-11.4,131.8,1v0c68.7,7.6,107.8,4.6,145.7,1.7
								c37.4-2.9,72.7-5.6,134,1.1c28,3.1,48.5,3.4,64.9,2.4v0.6c-5.2,0.3-10.7,0.5-16.8,0.5c-13.2,0-28.9-0.8-48.1-2.9
								C876.2,478.5,840.9,481.2,803.5,484.1z"/>
							<path class="st3" d="M741.2,467.3c-37.9,2.9-77.1,5.9-145.8-1.7l0-0.3l-0.1,0.3c-59.3-9.8-88.8-8.4-112.8-4.6v-0.6
								c23.9-3.9,53.5-5.2,112.8,4.6c68.7,7.6,107.8,4.6,145.7,1.7c37.4-2.9,72.7-5.6,134,1.1c58.1,6.3,83.6,1.2,108.3-3.9
								c6.2-1.3,12.4-2.5,18.9-3.6v0.6c-6.5,1.1-12.6,2.3-18.8,3.5c-16.5,3.4-33.5,6.8-60.3,6.8c-13.2,0-28.9-0.8-48.1-2.9
								C813.9,461.8,778.6,464.5,741.2,467.3z"/>
							<path class="st3" d="M750.9,458.5c-18.8,0-42.8-2-76.2-7.5c-68.7-7.6-107.8-4.6-145.7-1.7c-15.2,1.2-30,2.3-46.4,2.8v-0.6
								c16.3-0.5,31.2-1.6,46.3-2.8c37.9-2.9,77.1-5.9,145.8,1.7l0,0.3l0-0.2c75.5,12.4,102.7,6.9,131.6,1
								c24.7-5,50.3-10.2,108.4-3.9c36.4,4,63.6,4.6,87.5,3.9v0.6c-24,0.7-51.2,0.1-87.6-3.9c-58.1-6.3-83.6-1.2-108.3,3.9
								C790.4,455.3,774.8,458.5,750.9,458.5z"/>
							<path class="st3" d="M799.8,441.2c-37.9,2.9-77.1,5.9-145.8-1.7l0-0.4l-0.1,0.4c-75.5-12.4-102.7-6.9-131.6-1
								c-11.9,2.4-24,4.9-39.8,6.1v-0.6c15.8-1.2,27.8-3.6,39.6-6.1c18.5-3.8,36.3-7.4,66.7-6.2c17,0.6,37.9,2.8,65.1,7.3
								c0,0,0,0,0,0c68.7,7.6,107.8,4.6,145.7,1.7c37.4-2.9,72.7-5.6,134,1.1c30.2,3.3,51.6,3.5,68.6,2.2v0.6
								c-6.2,0.5-13,0.7-20.5,0.7c-13.2,0-28.9-0.8-48.1-2.9C872.5,435.6,837.2,438.3,799.8,441.2z"/>
							<path class="st3" d="M678.8,427.9c-26.2,2-53,4.1-89.7,2.6c-16.4-0.6-34.8-2-56.1-4.4l0-0.3l-0.1,0.3
								c-19.8-3.3-36.2-5.3-50.3-6.4v-0.6c14.1,1.1,30.5,3.1,50.3,6.4c0,0,0,0,0,0c68.7,7.6,107.8,4.6,145.6,1.7
								c37.4-2.9,72.7-5.6,134,1.1c58.1,6.3,83.6,1.2,108.3-3.9c21.3-4.3,41.8-8.5,81.4-5.4v0.6c-39.6-3.1-60,1-81.3,5.3
								c-16.5,3.4-33.5,6.8-60.3,6.8c-13.2,0-28.9-0.8-48.1-2.9C751.4,422.3,716.1,425.1,678.8,427.9z"/>
						</g>
					</g>
				</g>
			</g>
			<g class="st2">
				<g>
					<g>
						<g>
							<path class="st3" d="M1028.2,415.2c-7.7,0-16.2-0.3-25.9-1.1v-0.6c39.6,3.1,60-1,81.3-5.4c24.7-5,50.3-10.2,108.4-3.9
								c61.2,6.7,96.5,4,133.9,1.1c37.9-2.9,77.1-5.9,145.8,1.7l0,0.3l0-0.2c19.8,3.3,36.2,5.3,50.2,6.4v0.6
								c-14.1-1.1-30.5-3.1-50.3-6.4c-68.7-7.6-107.8-4.6-145.7-1.7c-37.4,2.9-72.7,5.6-134-1.1c-58.1-6.3-83.6-1.2-108.3,3.9
								C1067.7,412,1052,415.2,1028.2,415.2z"/>
						</g>
					</g>
					<g>
						<g>
							<path class="st3" d="M1022,541c-7.2,0-13.7-0.3-19.7-0.8v-0.6c16.9,1.4,38.1,1.2,67.7-2.7c61.3-7.9,96.6-4.7,134-1.3
								c37.9,3.4,77,7,145.7-2c75.6-14.7,102.9-8.2,131.8-1.2c12.1,2.9,24.3,5.9,40.5,7.2v0.6c-16.2-1.4-28.6-4.3-40.7-7.3
								c-28.8-6.9-56-13.5-131.5,1.2l-0.1-0.3l0,0.3c-68.7,9.1-107.9,5.5-145.8,2c-37.4-3.4-72.7-6.6-133.9,1.3
								C1050.9,540,1035.3,541,1022,541z"/>
							<path class="st3" d="M1347.8,521.2C1347.8,521.2,1347.8,521.2,1347.8,521.2c-33.4,6.5-57.4,8.9-76.2,8.9
								c-23.8,0-39.5-3.8-55.6-7.7c-24.7-5.9-50.2-12.1-108.2-4.6c-45.7,5.9-77,5.6-105.4,3.7v-0.6c28.4,1.9,59.7,2.2,105.4-3.7
								c58.2-7.5,83.7-1.4,108.5,4.6c28.8,6.9,56,13.5,131.5-1.2l0.1,0.3l0-0.3c68.7-9.1,107.9-5.5,145.8-2
								c9.5,0.9,18.8,1.7,28.5,2.4v0.6c-9.7-0.7-19.1-1.5-28.6-2.4C1455.6,515.7,1416.5,512.2,1347.8,521.2z"/>
							<path class="st3" d="M1323.7,518.9c-18.8,0-42.8-2-76.2-7.5c0,0,0,0,0,0c-68.7-7.6-107.8-4.6-145.7-1.7
								c-29.8,2.3-58.2,4.5-99.5,1.9v-0.6c41.3,2.6,69.7,0.4,99.4-1.9c37.9-2.9,77.1-5.9,145.8,1.7l0,0.4l0.1-0.4
								c75.5,12.4,102.7,6.9,131.6,1c24.7-5,50.3-10.2,108.4-3.9c12.5,1.4,23.9,2.3,34.4,3v0.6c-10.6-0.7-22-1.6-34.5-3
								c-58.1-6.3-83.6-1.2-108.3,3.9C1363.2,515.7,1347.5,518.9,1323.7,518.9z"/>
							<path class="st3" d="M1253.3,495.3c-58.1-6.3-83.6-1.2-108.3,3.9c-16.1,3.3-31.8,6.5-55.6,6.5c-18.8,0-42.8-2-76.2-7.5
								c0,0,0,0,0,0c-3.7-0.4-7.3-0.8-10.9-1.1v-0.6c3.6,0.4,7.2,0.7,11,1.2l0,0.2l0-0.2c75.5,12.4,102.7,6.9,131.6,1
								c24.7-5,50.3-10.2,108.4-3.9c61.2,6.7,96.5,4,133.9,1.1c35.8-2.8,72.8-5.6,134.8,0.6v0.6c-62-6.2-99-3.3-134.8-0.6
								C1349.9,499.3,1314.6,502,1253.3,495.3z"/>
							<path class="st3" d="M1323.2,484.1c-37.9,2.9-77.1,5.9-145.8-1.7l0-0.4l-0.1,0.4c-75.5-12.4-102.7-6.9-131.6-1
								c-12.8,2.6-25.8,5.2-43.5,6.3V487c17.6-1.1,30.6-3.7,43.3-6.3c28.9-5.9,56.2-11.4,131.8,1v0c68.7,7.6,107.8,4.6,145.7,1.7
								c37.4-2.9,72.7-5.6,134,1.1c28,3.1,48.5,3.4,64.9,2.4v0.6c-5.2,0.3-10.7,0.5-16.8,0.5c-13.2,0-28.9-0.8-48.1-2.9
								C1395.8,478.5,1360.5,481.2,1323.2,484.1z"/>
							<path class="st3" d="M1260.9,467.3c-37.9,2.9-77.1,5.9-145.8-1.7l0-0.3l-0.1,0.3c-59.3-9.8-88.8-8.4-112.8-4.6v-0.6
								c23.9-3.9,53.5-5.2,112.8,4.6c68.7,7.6,107.8,4.6,145.7,1.7c37.4-2.9,72.7-5.6,134,1.1c58.1,6.3,83.6,1.2,108.3-3.9
								c6.2-1.3,12.4-2.5,18.9-3.6v0.6c-6.5,1.1-12.6,2.3-18.8,3.5c-16.5,3.4-33.5,6.8-60.3,6.8c-13.2,0-28.9-0.8-48.1-2.9
								C1333.6,461.8,1298.3,464.5,1260.9,467.3z"/>
							<path class="st3" d="M1270.6,458.5c-18.8,0-42.8-2-76.2-7.5c-68.7-7.6-107.8-4.6-145.7-1.7c-15.2,1.2-30,2.3-46.4,2.8v-0.6
								c16.3-0.5,31.2-1.6,46.3-2.8c37.9-2.9,77.1-5.9,145.8,1.7l0,0.3l0-0.2c75.5,12.4,102.7,6.9,131.6,1
								c24.7-5,50.3-10.2,108.4-3.9c36.4,4,63.6,4.6,87.5,3.9v0.6c-24,0.7-51.2,0.1-87.6-3.9c-58.1-6.3-83.6-1.2-108.3,3.9
								C1310.1,455.3,1294.4,458.5,1270.6,458.5z"/>
							<path class="st3" d="M1319.5,441.2c-37.9,2.9-77.1,5.9-145.8-1.7l0-0.4l-0.1,0.4c-75.5-12.4-102.7-6.9-131.6-1
								c-11.9,2.4-24,4.9-39.8,6.1v-0.6c15.8-1.2,27.8-3.6,39.6-6.1c18.5-3.8,36.3-7.4,66.7-6.2c17,0.6,37.9,2.8,65.1,7.3
								c0,0,0,0,0,0c68.7,7.6,107.8,4.6,145.7,1.7c37.4-2.9,72.7-5.6,134,1.1c30.2,3.3,51.6,3.5,68.6,2.2v0.6
								c-6.2,0.5-13,0.7-20.5,0.7c-13.2,0-28.9-0.8-48.1-2.9C1392.1,435.6,1356.8,438.3,1319.5,441.2z"/>
							<path class="st3" d="M1198.4,427.9c-26.2,2-53,4.1-89.7,2.6c-16.4-0.6-34.8-2-56.1-4.4l0-0.3l-0.1,0.3
								c-19.8-3.3-36.2-5.3-50.3-6.4v-0.6c14.1,1.1,30.5,3.1,50.3,6.4c0,0,0,0,0,0c68.7,7.6,107.8,4.6,145.6,1.7
								c37.4-2.9,72.7-5.6,134,1.1c58.1,6.3,83.6,1.2,108.3-3.9c21.3-4.3,41.8-8.5,81.4-5.4v0.6c-39.6-3.1-60,1-81.3,5.3
								c-16.5,3.4-33.5,6.8-60.3,6.8c-13.2,0-28.9-0.8-48.1-2.9C1271.1,422.3,1235.8,425.1,1198.4,427.9z"/>
						</g>
					</g>
				</g>
				<g>
					<g>
						<g>
							<path class="st3" d="M1547.9,415.2c-7.7,0-16.2-0.3-25.9-1.1v-0.6c39.6,3.1,60-1,81.3-5.4c24.7-5,50.3-10.2,108.4-3.9
								c61.2,6.7,96.5,4,133.9,1.1c37.9-2.9,77.1-5.9,145.8,1.7l0,0.3l0-0.2c19.8,3.3,36.2,5.3,50.2,6.4v0.6
								c-14.1-1.1-30.5-3.1-50.3-6.4c-68.7-7.6-107.8-4.6-145.7-1.7c-37.4,2.9-72.7,5.6-134-1.1c-58.1-6.3-83.6-1.2-108.3,3.9
								C1587.4,412,1571.7,415.2,1547.9,415.2z"/>
						</g>
					</g>
					<g>
						<g>
							<path class="st3" d="M1541.7,541c-7.2,0-13.7-0.3-19.7-0.8v-0.6c16.9,1.4,38.1,1.2,67.7-2.7c61.3-7.9,96.6-4.7,134-1.3
								c37.9,3.4,77,7,145.7-2c75.6-14.7,102.9-8.2,131.8-1.2c12.1,2.9,24.3,5.9,40.5,7.2v0.6c-16.2-1.4-28.6-4.3-40.7-7.3
								c-28.8-6.9-56-13.5-131.5,1.2l-0.1-0.3l0,0.3c-68.7,9.1-107.9,5.5-145.8,2c-37.4-3.4-72.7-6.6-133.9,1.3
								C1570.6,540,1555,541,1541.7,541z"/>
							<path class="st3" d="M1867.5,521.2C1867.5,521.2,1867.5,521.2,1867.5,521.2c-33.4,6.5-57.4,8.9-76.2,8.9
								c-23.8,0-39.5-3.8-55.6-7.7c-24.7-5.9-50.2-12.1-108.2-4.6c-45.7,5.9-77,5.6-105.4,3.7v-0.6c28.4,1.9,59.7,2.2,105.4-3.7
								c58.2-7.5,83.7-1.4,108.5,4.6c28.8,6.9,56,13.5,131.5-1.2l0.1,0.3l0-0.3c68.7-9.1,107.9-5.5,145.8-2
								c9.5,0.9,18.8,1.7,28.5,2.4v0.6c-9.7-0.7-19.1-1.5-28.6-2.4C1975.3,515.7,1936.2,512.2,1867.5,521.2z"/>
							<path class="st3" d="M1843.4,518.9c-18.8,0-42.8-2-76.2-7.5c0,0,0,0,0,0c-68.7-7.6-107.8-4.6-145.7-1.7
								c-29.8,2.3-58.2,4.5-99.5,1.9v-0.6c41.3,2.6,69.7,0.4,99.4-1.9c37.9-2.9,77.1-5.9,145.8,1.7l0,0.4l0.1-0.4
								c75.5,12.4,102.7,6.9,131.6,1c24.7-5,50.3-10.2,108.4-3.9c12.5,1.4,23.9,2.3,34.4,3v0.6c-10.6-0.7-22-1.6-34.5-3
								c-58.1-6.3-83.6-1.2-108.3,3.9C1882.8,515.7,1867.2,518.9,1843.4,518.9z"/>
							<path class="st3" d="M1773,495.3c-58.1-6.3-83.6-1.2-108.3,3.9c-16.1,3.3-31.8,6.5-55.6,6.5c-18.8,0-42.8-2-76.2-7.5
								c0,0,0,0,0,0c-3.7-0.4-7.3-0.8-10.9-1.1v-0.6c3.6,0.4,7.2,0.7,11,1.2l0,0.2l0-0.2c75.5,12.4,102.7,6.9,131.6,1
								c24.7-5,50.3-10.2,108.4-3.9c61.2,6.7,96.5,4,133.9,1.1c35.8-2.8,72.8-5.6,134.8,0.6v0.6c-62-6.2-99-3.3-134.8-0.6
								C1869.6,499.3,1834.3,502,1773,495.3z"/>
							<path class="st3" d="M1842.9,484.1c-37.9,2.9-77.1,5.9-145.8-1.7l0-0.4l-0.1,0.4c-75.5-12.4-102.7-6.9-131.6-1
								c-12.8,2.6-25.8,5.2-43.5,6.3V487c17.6-1.1,30.6-3.7,43.3-6.3c28.9-5.9,56.2-11.4,131.8,1v0c68.7,7.6,107.8,4.6,145.7,1.7
								c37.4-2.9,72.7-5.6,134,1.1c28,3.1,48.5,3.4,64.9,2.4v0.6c-5.2,0.3-10.7,0.5-16.8,0.5c-13.2,0-28.9-0.8-48.1-2.9
								C1915.5,478.5,1880.2,481.2,1842.9,484.1z"/>
							<path class="st3" d="M1780.6,467.3c-37.9,2.9-77.1,5.9-145.8-1.7l0-0.3l-0.1,0.3c-59.3-9.8-88.8-8.4-112.8-4.6v-0.6
								c23.9-3.9,53.5-5.2,112.8,4.6c68.7,7.6,107.8,4.6,145.7,1.7c37.4-2.9,72.7-5.6,134,1.1c58.1,6.3,83.6,1.2,108.3-3.9
								c6.2-1.3,12.4-2.5,18.9-3.6v0.6c-6.5,1.1-12.6,2.3-18.8,3.5c-16.5,3.4-33.5,6.8-60.3,6.8c-13.2,0-28.9-0.8-48.1-2.9
								C1853.3,461.8,1818,464.5,1780.6,467.3z"/>
							<path class="st3" d="M1790.3,458.5c-18.8,0-42.8-2-76.2-7.5c-68.7-7.6-107.8-4.6-145.7-1.7c-15.2,1.2-30,2.3-46.4,2.8v-0.6
								c16.3-0.5,31.2-1.6,46.3-2.8c37.9-2.9,77.1-5.9,145.8,1.7l0,0.3l0-0.2c75.5,12.4,102.7,6.9,131.6,1
								c24.7-5,50.3-10.2,108.4-3.9c36.4,4,63.6,4.6,87.5,3.9v0.6c-24,0.7-51.2,0.1-87.6-3.9c-58.1-6.3-83.6-1.2-108.3,3.9
								C1829.7,455.3,1814.1,458.5,1790.3,458.5z"/>
							<path class="st3" d="M1839.2,441.2c-37.9,2.9-77.1,5.9-145.8-1.7l0-0.4l-0.1,0.4c-75.5-12.4-102.7-6.9-131.6-1
								c-11.9,2.4-24,4.9-39.8,6.1v-0.6c15.8-1.2,27.8-3.6,39.6-6.1c18.5-3.8,36.3-7.4,66.7-6.2c17,0.6,37.9,2.8,65.1,7.3
								c0,0,0,0,0,0c68.7,7.6,107.8,4.6,145.7,1.7c37.4-2.9,72.7-5.6,134,1.1c30.2,3.3,51.6,3.5,68.6,2.2v0.6
								c-6.2,0.5-13,0.7-20.5,0.7c-13.2,0-28.9-0.8-48.1-2.9C1911.8,435.6,1876.5,438.3,1839.2,441.2z"/>
							<path class="st3" d="M1718.1,427.9c-26.2,2-53,4.1-89.7,2.6c-16.4-0.6-34.8-2-56.1-4.4l0-0.3l-0.1,0.3
								c-19.8-3.3-36.2-5.3-50.3-6.4v-0.6c14.1,1.1,30.5,3.1,50.3,6.4c0,0,0,0,0,0c68.7,7.6,107.8,4.6,145.6,1.7
								c37.4-2.9,72.7-5.6,134,1.1c58.1,6.3,83.6,1.2,108.3-3.9c21.3-4.3,41.8-8.5,81.4-5.4v0.6c-39.6-3.1-60,1-81.3,5.3
								c-16.5,3.4-33.5,6.8-60.3,6.8c-13.2,0-28.9-0.8-48.1-2.9C1790.8,422.3,1755.5,425.1,1718.1,427.9z"/>
						</g>
					</g>
				</g>
			</g>
		</g>
	</g>
</g>
<rect class="st4" width="320" height="568"/>
<path class="st5" d="M0,0v173.6l24.1,13.9v-51.9c0-12.5,6.7-24.1,17.5-30.3L142.5,47c10.8-6.3,24.2-6.3,35,0l100.9,58.3
	c10.8,6.3,17.5,17.8,17.5,30.3v51.9l24.1-13.9V0H0z"/>
</svg>
