<?xml version="1.0" encoding="utf-8"?>
<!-- Generator: Adobe Illustrator 24.1.1, SVG Export Plug-In . SVG Version: 6.00 Build 0)  -->
<svg version="1.1" id="Слой_1" xmlns="http://www.w3.org/2000/svg" xmlns:xlink="http://www.w3.org/1999/xlink" x="0px" y="0px"
	 viewBox="0 0 168 168" style="enable-background:new 0 0 168 168;" xml:space="preserve">
<style type="text/css">
	.st0{fill:none;stroke:#005090;stroke-width:1.35;stroke-miterlimit:10;}
	.st1{fill:none;stroke:#005090;stroke-width:1.35;stroke-miterlimit:10;stroke-dasharray:1.35;}
	.st2{fill:#005090;}
	.st3{font-family:'MuseoSansCyrl-900';}
	.st4{font-size:19.99px;}
</style>
<g id="Слой_2_1_">
	<g id="Layer_4">
		<path class="st0" d="M167.3,84c0,5.3-8.5,9.7-9.5,14.7s5.2,12.5,3.2,17.2s-11.6,5.6-14.4,9.9c-2.9,4.3,0,13.4-3.6,17.1
			s-12.8,0.8-17.1,3.6s-5.1,12.4-9.9,14.4s-12.1-4.2-17.2-3.2s-9.4,9.5-14.7,9.5s-9.7-8.5-14.7-9.5c-5.2-1-12.5,5.2-17.2,3.2
			s-5.6-11.6-9.9-14.4s-13.5,0-17.1-3.6s-0.8-12.8-3.6-17.1c-2.9-4.3-12.4-5.1-14.4-9.9s4.2-12.1,3.2-17.2S0.7,89.3,0.7,84
			s8.5-9.7,9.5-14.7c1-5.2-5.2-12.5-3.2-17.2s11.6-5.6,14.4-9.9s0-13.5,3.6-17.1s12.8-0.8,17.1-3.6S47.3,9,52.1,7s12.1,4.2,17.2,3.2
			c5-1,9.4-9.5,14.7-9.5s9.7,8.5,14.7,9.5S111.1,5,115.9,7s5.6,11.6,9.9,14.4s13.5,0,17.1,3.6s0.8,12.8,3.6,17.1s12.4,5.1,14.4,9.9
			s-4.2,12.1-3.2,17.2C158.8,74.3,167.3,78.7,167.3,84z"/>
		<path class="st1" d="M160.8,84c0,4.8-9,8.7-9.9,13.3s5.9,11.8,4.1,16.1s-11.7,4.6-14.3,8.5s1,13.1-2.4,16.4s-12.5-0.3-16.4,2.4
			s-4.1,12.5-8.5,14.3s-11.4-5-16.1-4.1s-8.5,9.9-13.3,9.9s-8.7-9-13.3-9.9c-4.7-0.9-11.8,5.9-16.1,4.1s-4.6-11.7-8.5-14.3
			s-13.1,1-16.4-2.4s0.3-12.5-2.4-16.4s-12.5-4.1-14.3-8.5s5-11.4,4.1-16.1s-10-8.5-10-13.3s9-8.7,9.9-13.3C18,66,11.2,58.9,13,54.6
			s11.6-4.6,14.3-8.5s-1-13.1,2.4-16.4s12.5,0.3,16.4-2.4s4.1-12.5,8.5-14.3s11.4,5,16.1,4.1c4.6-0.9,8.5-9.9,13.3-9.9
			s8.7,9,13.3,9.9s11.8-5.9,16.1-4.1s4.6,11.7,8.5,14.3s13.1-1,16.4,2.4s-0.3,12.5,2.4,16.5s12.5,4.1,14.3,8.5s-5,11.4-4.1,16.1
			C151.8,75.3,160.8,79.2,160.8,84z"/>
		<text transform="matrix(1 0 0 1 119.55 70.79)" class="st2 st3 st4">%</text>
	</g>
</g>
</svg>
