<svg xmlns="http://www.w3.org/2000/svg" width="77.124" height="71.485" viewBox="0 0 77.124 71.485">
  <g id="Group_18" data-name="Group 18" transform="translate(-1526.447 -483.316)">
    <g id="Group_17" data-name="Group 17">
      <path id="Path_57" data-name="Path 57" d="M1560.591,551.953h-19.078l-1.768-14.141-11.571-8.416a37.593,37.593,0,1,1,73.67,0l-11.57,8.416-1.769,14.141h-19.077l-1.1.8a5.638,5.638,0,0,1-6.634,0Z" fill="none" stroke="#fff" stroke-miterlimit="40" stroke-width="1.937"/>
      <path id="Path_58" data-name="Path 58" d="M1560.591,551.953h-19.078l-1.768-14.141-11.571-8.416a37.593,37.593,0,1,1,73.67,0l-11.57,8.416-1.769,14.141h-19.077l-1.1.8a5.638,5.638,0,0,1-6.634,0Z" fill="#ffd300"/>
      <path id="Path_59" data-name="Path 59" d="M1560.591,551.953h-19.078l-1.768-14.141-11.571-8.416a37.593,37.593,0,1,1,73.67,0l-11.57,8.416-1.769,14.141h-19.077l-1.1.8a5.638,5.638,0,0,1-6.634,0Zm.6-6.579h-13.866l-1.4-11.206-11.422-8.307a15.993,15.993,0,0,1,.883-10.5l20.223,20.448-19.66-24.27a15.978,15.978,0,0,1,4.91-8.138l17.623,30.418-15.615-33.3a15.965,15.965,0,0,1,8.05-5.663l10.775,37.756-7.873-39.312a15.984,15.984,0,0,1,9.591-1.966l1.6,40.881,1.607-40.881a15.776,15.776,0,0,1,1.741-.1,15.964,15.964,0,0,1,7.847,2.061l-7.873,39.312,10.777-37.756a15.972,15.972,0,0,1,8.049,5.663l-15.615,33.3,17.623-30.418a15.987,15.987,0,0,1,4.909,8.138l-19.659,24.27,20.222-20.448a15.994,15.994,0,0,1,.883,10.5l-11.42,8.307-1.4,11.206H1568.83l-2.051,1.492a3.011,3.011,0,0,1-3.539,0Z" fill="#df000b" fill-rule="evenodd"/>
    </g>
  </g>
</svg>
