<svg xmlns="http://www.w3.org/2000/svg" width="180.457" height="34.053" viewBox="0 0 180.457 34.053">
  <g id="Group_22" data-name="Group 22" transform="translate(-1197.928 -883.546)">
    <path id="Path_108" data-name="Path 108" d="M1231.947,898.3s.845-9.569.928-10.506a4.062,4.062,0,0,0-4.006-4.246h-8.635v.008h-15.526a4.249,4.249,0,0,0-4.529,3.875c-.107,1.125-2.1,24.261-2.233,25.6-.01.108-.016.217-.018.326v.15a4.028,4.028,0,0,0,3.985,4.093h24.017c3.182,0,4.423-1.685,4.695-4.287.163-1.559.951-10.977.951-10.977h-14.519l-.628,7.277h-3.674l1.587-18.072h3.67l-.582,6.761Z" fill="#008690" fill-rule="evenodd"/>
    <path id="Path_109" data-name="Path 109" d="M1254.353,886.469c-.519,1.492-4.743,14.718-4.743,14.718l1.878-17.637-14.508,0-3.043,34.051h10.939a3.95,3.95,0,0,0,4.143-2.808c.541-1.493,4.569-12.619,4.569-12.619l-1.476,15.427h14.52l2.994-34.051-11.4,0A3.984,3.984,0,0,0,1254.353,886.469Z" fill="#008690" fill-rule="evenodd"/>
    <path id="Path_110" data-name="Path 110" d="M1327.891,883.552l-1.357,15.524h-3.682l1.363-15.524h-14.521s-1.4,16.431-1.535,18.025a4.016,4.016,0,0,0,4.109,4.582h13.641l-.294,3.455h-18.166l-.7,7.985h28.891a4.057,4.057,0,0,0,4.1-4.007c.167-1.757,2.661-30.04,2.661-30.04Z" fill="#008690" fill-rule="evenodd"/>
    <path id="Path_111" data-name="Path 111" d="M1359.147,899.983l.736-8.444h3.638l-.74,8.444Zm19.238-12.493v-.2c-.053-2.287-1.973-3.74-4.32-3.74h-28l-2.977,34.044H1357.6l.918-10.538h5.2l-.969.007h9.877c2.493,0,4.151-1.274,4.416-4.2.106-1.128,1.251-14.036,1.331-15.18C1378.381,887.622,1378.384,887.556,1378.385,887.49Z" fill="#008690" fill-rule="evenodd"/>
    <path id="Path_112" data-name="Path 112" d="M1289.185,910.518h-3.709l.739-8.451h3.709l-.739,8.451Zm-2.346-15.532.3-3.453h18.182l.7-7.986h-32.7l-2.979,34.046h5.452v0l23.52,0a3.978,3.978,0,0,0,4.094-3.934c.2-2.142,1.089-12.264,1.255-14.1a4.067,4.067,0,0,0-4.4-4.577Z" fill="#008690" fill-rule="evenodd"/>
  </g>
</svg>
