<?xml version="1.0" encoding="utf-8"?>
<!-- Generator: Adobe Illustrator 24.1.1, SVG Export Plug-In . SVG Version: 6.00 Build 0)  -->
<svg version="1.1" id="Слой_1" xmlns="http://www.w3.org/2000/svg" xmlns:xlink="http://www.w3.org/1999/xlink" x="0px" y="0px"
	 viewBox="0 0 320 171" style="enable-background:new 0 0 320 171;" xml:space="preserve">
<style type="text/css">
	.st0{clip-path:url(#SVGID_2_);}
	.st1{opacity:0.15;}
	.st2{fill:#65A2C2;}
</style>
<g>
	<defs>
		<rect id="SVGID_1_" x="0" width="320" height="171"/>
	</defs>
	<clipPath id="SVGID_2_">
		<use xlink:href="#SVGID_1_"  style="overflow:visible;"/>
	</clipPath>
	<g class="st0">
		<g>
			<g class="st1">
				<g>
					<g>
						<g>
							<path class="st2" d="M2067.6,24.2c-7.7,0-16.2-0.3-25.9-1.1v-0.6c39.6,3.1,60-1,81.3-5.4c24.7-5,50.3-10.2,108.4-3.9
								c61.2,6.7,96.5,4,133.9,1.1c37.9-2.9,77.1-5.9,145.8,1.7l0,0.3l0-0.2c19.8,3.3,36.2,5.3,50.3,6.4v0.6
								c-14.1-1.1-30.5-3.1-50.3-6.4c-68.7-7.6-107.8-4.6-145.7-1.7c-37.4,2.9-72.7,5.6-134-1.1c-58.1-6.3-83.6-1.2-108.3,3.9
								C2107,21,2091.4,24.2,2067.6,24.2z"/>
						</g>
					</g>
					<g>
						<g>
							<path class="st2" d="M2061.4,150c-7.2,0-13.7-0.3-19.7-0.8v-0.6c16.9,1.4,38.1,1.2,67.7-2.7c61.3-7.9,96.6-4.7,134-1.3
								c37.9,3.4,77,7,145.7-2c75.6-14.7,102.9-8.2,131.8-1.2c12.1,2.9,24.3,5.9,40.5,7.2v0.6c-16.2-1.4-28.6-4.3-40.7-7.3
								c-28.8-6.9-56-13.5-131.5,1.2l-0.1-0.3l0,0.3c-68.7,9.1-107.9,5.5-145.8,2c-37.4-3.4-72.7-6.6-133.9,1.3
								C2090.3,149,2074.6,150,2061.4,150z"/>
							<path class="st2" d="M2387.2,130.2C2387.2,130.2,2387.2,130.2,2387.2,130.2c-33.4,6.5-57.4,8.9-76.2,8.9
								c-23.8,0-39.5-3.8-55.6-7.7c-24.7-5.9-50.2-12.1-108.2-4.6c-45.7,5.9-77,5.6-105.4,3.7v-0.6c28.4,1.9,59.7,2.2,105.4-3.7
								c58.2-7.5,83.7-1.4,108.5,4.6c28.8,6.9,56,13.5,131.5-1.2l0.1,0.3l0-0.3c68.7-9.1,107.9-5.5,145.8-2
								c9.5,0.9,18.8,1.7,28.5,2.4v0.6c-9.7-0.7-19.1-1.5-28.6-2.4C2495,124.7,2455.8,121.2,2387.2,130.2z"/>
							<path class="st2" d="M2363.1,127.9c-18.8,0-42.8-2-76.2-7.5c0,0,0,0,0,0c-68.7-7.6-107.8-4.6-145.7-1.7
								c-29.8,2.3-58.2,4.5-99.5,1.9v-0.6c41.3,2.6,69.7,0.4,99.4-1.9c37.9-2.9,77.1-5.9,145.8,1.7l0,0.4l0.1-0.4
								c75.5,12.4,102.7,6.9,131.6,1c24.7-5,50.3-10.2,108.4-3.9c12.5,1.4,23.9,2.3,34.4,3v0.6c-10.6-0.7-22-1.6-34.5-3
								c-58.1-6.3-83.6-1.2-108.3,3.9C2402.5,124.7,2386.9,127.9,2363.1,127.9z"/>
							<path class="st2" d="M2292.6,104.3c-58.1-6.3-83.6-1.2-108.3,3.9c-16.1,3.3-31.8,6.5-55.6,6.5c-18.8,0-42.8-2-76.2-7.5
								c0,0,0,0,0,0c-3.7-0.4-7.3-0.8-10.9-1.1v-0.6c3.6,0.4,7.2,0.7,11,1.2l0,0.2l0-0.2c75.5,12.4,102.7,6.9,131.6,1
								c24.7-5,50.3-10.2,108.4-3.9c61.2,6.7,96.5,4,133.9,1.1c35.8-2.8,72.8-5.6,134.8,0.6v0.6c-62-6.2-99-3.3-134.8-0.6
								C2389.2,108.3,2353.9,111,2292.6,104.3z"/>
							<path class="st2" d="M2362.5,93.1c-37.9,2.9-77.1,5.9-145.8-1.7l0-0.4l-0.1,0.4c-75.5-12.4-102.7-6.9-131.6-1
								c-12.8,2.6-25.8,5.2-43.5,6.3V96c17.6-1.1,30.6-3.7,43.3-6.3c28.9-5.9,56.2-11.4,131.8,1v0c68.7,7.6,107.8,4.6,145.7,1.7
								c37.4-2.9,72.7-5.6,134,1.1c28,3.1,48.5,3.4,64.9,2.4v0.6c-5.2,0.3-10.7,0.5-16.8,0.5c-13.2,0-28.9-0.8-48.1-2.9
								C2435.2,87.5,2399.9,90.2,2362.5,93.1z"/>
							<path class="st2" d="M2300.3,76.3c-37.9,2.9-77.1,5.9-145.8-1.7l0-0.3l-0.1,0.3c-59.3-9.8-88.8-8.4-112.8-4.6v-0.6
								c23.9-3.9,53.5-5.2,112.8,4.6c68.7,7.6,107.8,4.6,145.7,1.7c37.4-2.9,72.7-5.6,134,1.1c58.1,6.3,83.6,1.2,108.3-3.9
								c6.2-1.3,12.4-2.5,18.9-3.6V70c-6.5,1.1-12.6,2.3-18.8,3.5c-16.5,3.4-33.5,6.8-60.3,6.8c-13.2,0-28.9-0.8-48.1-2.9
								C2372.9,70.8,2337.6,73.5,2300.3,76.3z"/>
							<path class="st2" d="M2310,67.5c-18.8,0-42.8-2-76.2-7.5c-68.7-7.6-107.8-4.6-145.7-1.7c-15.2,1.2-30,2.3-46.4,2.8v-0.6
								c16.3-0.5,31.2-1.6,46.3-2.8c37.9-2.9,77.1-5.9,145.8,1.7l0,0.3l0-0.2c75.5,12.4,102.7,6.9,131.6,1
								c24.7-5,50.3-10.2,108.4-3.9c36.4,4,63.6,4.6,87.5,3.9V61c-24,0.7-51.2,0.1-87.6-3.9c-58.1-6.3-83.6-1.2-108.3,3.9
								C2349.4,64.3,2333.8,67.5,2310,67.5z"/>
							<path class="st2" d="M2358.8,50.2c-37.9,2.9-77.1,5.9-145.8-1.7l0-0.4l-0.1,0.4c-75.5-12.4-102.7-6.9-131.6-1
								c-11.9,2.4-24,4.9-39.8,6.1v-0.6c15.8-1.2,27.8-3.6,39.6-6.1c18.5-3.8,36.3-7.4,66.7-6.2c17,0.6,37.9,2.8,65.1,7.3
								c0,0,0,0,0,0c68.7,7.6,107.8,4.6,145.7,1.7c37.4-2.9,72.7-5.6,134,1.1c30.2,3.3,51.6,3.5,68.6,2.2v0.6
								c-6.2,0.5-13,0.7-20.5,0.7c-13.2,0-28.9-0.8-48.1-2.9C2431.5,44.6,2396.2,47.3,2358.8,50.2z"/>
							<path class="st2" d="M2237.8,36.9c-26.2,2-53,4.1-89.7,2.6c-16.4-0.6-34.8-2-56.1-4.4l0-0.3l-0.1,0.3
								c-19.8-3.3-36.2-5.3-50.3-6.4v-0.6c14.1,1.1,30.5,3.1,50.3,6.4c0,0,0,0,0,0c68.7,7.6,107.8,4.6,145.6,1.7
								c37.4-2.9,72.7-5.6,134,1.1c58.1,6.3,83.6,1.2,108.3-3.9c21.3-4.3,41.8-8.5,81.4-5.4v0.6c-39.6-3.1-60,1-81.3,5.3
								c-16.5,3.4-33.5,6.8-60.3,6.8c-13.2,0-28.9-0.8-48.1-2.9C2310.4,31.3,2275.1,34.1,2237.8,36.9z"/>
						</g>
					</g>
				</g>
				<g>
					<g>
						<g>
							<path class="st2" d="M2587.3,24.2c-7.7,0-16.2-0.3-25.9-1.1v-0.6c39.6,3.1,60-1,81.3-5.4c24.7-5,50.3-10.2,108.4-3.9
								c61.2,6.7,96.5,4,133.9,1.1c37.9-2.9,77.1-5.9,145.8,1.7l0,0.3l0-0.2c19.8,3.3,36.2,5.3,50.2,6.4v0.6
								c-14.1-1.1-30.5-3.1-50.3-6.4c-68.7-7.6-107.8-4.6-145.7-1.7c-37.4,2.9-72.7,5.6-134-1.1c-58.1-6.3-83.6-1.2-108.3,3.9
								C2626.7,21,2611.1,24.2,2587.3,24.2z"/>
						</g>
					</g>
					<g>
						<g>
							<path class="st2" d="M2581.1,150c-7.2,0-13.7-0.3-19.7-0.8v-0.6c16.9,1.4,38.1,1.2,67.7-2.7c61.3-7.9,96.6-4.7,134-1.3
								c37.9,3.4,77,7,145.7-2c75.6-14.7,102.9-8.2,131.8-1.2c12.1,2.9,24.3,5.9,40.5,7.2v0.6c-16.2-1.4-28.6-4.3-40.7-7.3
								c-28.8-6.9-56-13.5-131.5,1.2l-0.1-0.3l0,0.3c-68.7,9.1-107.9,5.5-145.8,2c-37.4-3.4-72.7-6.6-133.9,1.3
								C2610,149,2594.3,150,2581.1,150z"/>
							<path class="st2" d="M2906.9,130.2C2906.9,130.2,2906.9,130.2,2906.9,130.2c-33.4,6.5-57.4,8.9-76.2,8.9
								c-23.8,0-39.5-3.8-55.6-7.7c-24.7-5.9-50.2-12.1-108.2-4.6c-45.7,5.9-77,5.6-105.4,3.7v-0.6c28.4,1.9,59.7,2.2,105.4-3.7
								c58.2-7.5,83.7-1.4,108.5,4.6c28.8,6.9,56,13.5,131.5-1.2l0.1,0.3l0-0.3c68.7-9.1,107.9-5.5,145.8-2
								c9.5,0.9,18.8,1.7,28.5,2.4v0.6c-9.7-0.7-19.1-1.5-28.6-2.4C3014.7,124.7,2975.5,121.2,2906.9,130.2z"/>
							<path class="st2" d="M2882.7,127.9c-18.8,0-42.8-2-76.2-7.5c0,0,0,0,0,0c-68.7-7.6-107.8-4.6-145.7-1.7
								c-29.8,2.3-58.2,4.5-99.5,1.9v-0.6c41.3,2.6,69.7,0.4,99.4-1.9c37.9-2.9,77.1-5.9,145.8,1.7l0,0.4l0.1-0.4
								c75.5,12.4,102.7,6.9,131.6,1c24.7-5,50.3-10.2,108.4-3.9c12.5,1.4,23.9,2.3,34.4,3v0.6c-10.6-0.7-22-1.6-34.5-3
								c-58.1-6.3-83.6-1.2-108.3,3.9C2922.2,124.7,2906.6,127.9,2882.7,127.9z"/>
							<path class="st2" d="M2812.3,104.3c-58.1-6.3-83.6-1.2-108.3,3.9c-16.1,3.3-31.8,6.5-55.6,6.5c-18.8,0-42.8-2-76.2-7.5
								c0,0,0,0,0,0c-3.7-0.4-7.3-0.8-10.9-1.1v-0.6c3.6,0.4,7.2,0.7,11,1.2l0,0.2l0-0.2c75.5,12.4,102.7,6.9,131.6,1
								c24.7-5,50.3-10.2,108.4-3.9c61.2,6.7,96.5,4,133.9,1.1c35.8-2.8,72.8-5.6,134.8,0.6v0.6c-62-6.2-99-3.3-134.8-0.6
								C2908.9,108.3,2873.6,111,2812.3,104.3z"/>
							<path class="st2" d="M2882.2,93.1c-37.9,2.9-77.1,5.9-145.8-1.7l0-0.4l-0.1,0.4c-75.5-12.4-102.7-6.9-131.6-1
								c-12.8,2.6-25.8,5.2-43.5,6.3V96c17.6-1.1,30.6-3.7,43.3-6.3c28.9-5.9,56.2-11.4,131.8,1v0c68.7,7.6,107.8,4.6,145.7,1.7
								c37.4-2.9,72.7-5.6,134,1.1c28,3.1,48.5,3.4,64.9,2.4v0.6c-5.2,0.3-10.7,0.5-16.8,0.5c-13.2,0-28.9-0.8-48.1-2.9
								C2954.9,87.5,2919.6,90.2,2882.2,93.1z"/>
							<path class="st2" d="M2820,76.3c-37.9,2.9-77.1,5.9-145.8-1.7l0-0.3l-0.1,0.3c-59.3-9.8-88.8-8.4-112.8-4.6v-0.6
								c23.9-3.9,53.5-5.2,112.8,4.6c68.7,7.6,107.8,4.6,145.7,1.7c37.4-2.9,72.7-5.6,134,1.1c58.1,6.3,83.6,1.2,108.3-3.9
								c6.2-1.3,12.4-2.5,18.9-3.6V70c-6.5,1.1-12.6,2.3-18.8,3.5c-16.5,3.4-33.5,6.8-60.3,6.8c-13.2,0-28.9-0.8-48.1-2.9
								C2892.6,70.8,2857.3,73.5,2820,76.3z"/>
							<path class="st2" d="M2829.7,67.5c-18.8,0-42.8-2-76.2-7.5c-68.7-7.6-107.8-4.6-145.7-1.7c-15.2,1.2-30,2.3-46.4,2.8v-0.6
								c16.3-0.5,31.2-1.6,46.3-2.8c37.9-2.9,77.1-5.9,145.8,1.7l0,0.3l0-0.2c75.5,12.4,102.7,6.9,131.6,1
								c24.7-5,50.3-10.2,108.4-3.9c36.4,4,63.6,4.6,87.5,3.9V61c-24,0.7-51.2,0.1-87.6-3.9c-58.1-6.3-83.6-1.2-108.3,3.9
								C2869.1,64.3,2853.5,67.5,2829.7,67.5z"/>
							<path class="st2" d="M2878.5,50.2c-37.9,2.9-77.1,5.9-145.8-1.7l0-0.4l-0.1,0.4c-75.5-12.4-102.7-6.9-131.6-1
								c-11.9,2.4-24,4.9-39.8,6.1v-0.6c15.8-1.2,27.8-3.6,39.6-6.1c18.5-3.8,36.3-7.4,66.7-6.2c17,0.6,37.9,2.8,65.1,7.3
								c0,0,0,0,0,0c68.7,7.6,107.8,4.6,145.7,1.7c37.4-2.9,72.7-5.6,134,1.1c30.2,3.3,51.6,3.5,68.6,2.2v0.6
								c-6.2,0.5-13,0.7-20.5,0.7c-13.2,0-28.9-0.8-48.1-2.9C2951.2,44.6,2915.9,47.3,2878.5,50.2z"/>
							<path class="st2" d="M2757.5,36.9c-26.2,2-53,4.1-89.7,2.6c-16.4-0.6-34.8-2-56.1-4.4l0-0.3l-0.1,0.3
								c-19.8-3.3-36.2-5.3-50.3-6.4v-0.6c14.1,1.1,30.5,3.1,50.3,6.4c0,0,0,0,0,0c68.7,7.6,107.8,4.6,145.6,1.7
								c37.4-2.9,72.7-5.6,134,1.1c58.1,6.3,83.6,1.2,108.3-3.9c21.3-4.3,41.8-8.5,81.4-5.4v0.6c-39.6-3.1-60,1-81.3,5.3
								c-16.5,3.4-33.5,6.8-60.3,6.8c-13.2,0-28.9-0.8-48.1-2.9C2830.1,31.3,2794.8,34.1,2757.5,36.9z"/>
						</g>
					</g>
				</g>
			</g>
			<g class="st1">
				<g>
					<g>
						<g>
							<path class="st2" d="M3106.9,24.2c-7.7,0-16.2-0.3-25.9-1.1v-0.6c39.6,3.1,60-1,81.3-5.4c24.7-5,50.3-10.2,108.4-3.9
								c61.2,6.7,96.5,4,133.9,1.1c37.9-2.9,77.1-5.9,145.8,1.7l0,0.3l0-0.2c19.8,3.3,36.2,5.3,50.3,6.4v0.6
								c-14.1-1.1-30.5-3.1-50.3-6.4c-68.7-7.6-107.8-4.6-145.7-1.7c-37.4,2.9-72.7,5.6-134-1.1c-58.1-6.3-83.6-1.2-108.3,3.9
								C3146.4,21,3130.8,24.2,3106.9,24.2z"/>
						</g>
					</g>
					<g>
						<g>
							<path class="st2" d="M3100.7,150c-7.2,0-13.7-0.3-19.7-0.8v-0.6c16.9,1.4,38.1,1.2,67.7-2.7c61.3-7.9,96.6-4.7,134-1.3
								c37.9,3.4,77,7,145.7-2c75.6-14.7,102.9-8.2,131.8-1.2c12.1,2.9,24.3,5.9,40.5,7.2v0.6c-16.2-1.4-28.6-4.3-40.7-7.3
								c-28.8-6.9-56-13.5-131.5,1.2l-0.1-0.3l0,0.3c-68.7,9.1-107.9,5.5-145.8,2c-37.4-3.4-72.7-6.6-133.9,1.3
								C3129.7,149,3114,150,3100.7,150z"/>
							<path class="st2" d="M3426.5,130.2C3426.5,130.2,3426.5,130.2,3426.5,130.2c-33.4,6.5-57.4,8.9-76.2,8.9
								c-23.8,0-39.5-3.8-55.6-7.7c-24.7-5.9-50.2-12.1-108.2-4.6c-45.7,5.9-77,5.6-105.4,3.7v-0.6c28.4,1.9,59.7,2.2,105.4-3.7
								c58.2-7.5,83.7-1.4,108.5,4.6c28.8,6.9,56,13.5,131.5-1.2l0.1,0.3l0-0.3c68.7-9.1,107.9-5.5,145.8-2
								c9.5,0.9,18.8,1.7,28.5,2.4v0.6c-9.7-0.7-19.1-1.5-28.6-2.4C3534.3,124.7,3495.2,121.2,3426.5,130.2z"/>
							<path class="st2" d="M3402.4,127.9c-18.8,0-42.8-2-76.2-7.5c0,0,0,0,0,0c-68.7-7.6-107.8-4.6-145.7-1.7
								c-29.8,2.3-58.2,4.5-99.5,1.9v-0.6c41.3,2.6,69.7,0.4,99.4-1.9c37.9-2.9,77.1-5.9,145.8,1.7l0,0.4l0.1-0.4
								c75.5,12.4,102.7,6.9,131.6,1c24.7-5,50.3-10.2,108.4-3.9c12.5,1.4,23.9,2.3,34.4,3v0.6c-10.6-0.7-22-1.6-34.5-3
								c-58.1-6.3-83.6-1.2-108.3,3.9C3441.9,124.7,3426.2,127.9,3402.4,127.9z"/>
							<path class="st2" d="M3332,104.3c-58.1-6.3-83.6-1.2-108.3,3.9c-16.1,3.3-31.8,6.5-55.6,6.5c-18.8,0-42.8-2-76.2-7.5
								c0,0,0,0,0,0c-3.7-0.4-7.3-0.8-10.9-1.1v-0.6c3.6,0.4,7.2,0.7,11,1.2l0,0.2l0-0.2c75.5,12.4,102.7,6.9,131.6,1
								c24.7-5,50.3-10.2,108.4-3.9c61.2,6.7,96.5,4,133.9,1.1c35.8-2.8,72.8-5.6,134.8,0.6v0.6c-62-6.2-99-3.3-134.8-0.6
								C3428.6,108.3,3393.3,111,3332,104.3z"/>
							<path class="st2" d="M3401.9,93.1c-37.9,2.9-77.1,5.9-145.8-1.7l0-0.4l-0.1,0.4c-75.5-12.4-102.7-6.9-131.6-1
								c-12.8,2.6-25.8,5.2-43.5,6.3V96c17.6-1.1,30.6-3.7,43.3-6.3c28.9-5.9,56.2-11.4,131.8,1v0c68.7,7.6,107.8,4.6,145.7,1.7
								c37.4-2.9,72.7-5.6,134,1.1c28,3.1,48.5,3.4,64.9,2.4v0.6c-5.2,0.3-10.7,0.5-16.8,0.5c-13.2,0-28.9-0.8-48.1-2.9
								C3474.6,87.5,3439.3,90.2,3401.9,93.1z"/>
							<path class="st2" d="M3339.6,76.3c-37.9,2.9-77.1,5.9-145.8-1.7l0-0.3l-0.1,0.3c-59.3-9.8-88.8-8.4-112.8-4.6v-0.6
								c23.9-3.9,53.5-5.2,112.8,4.6c68.7,7.6,107.8,4.6,145.7,1.7c37.4-2.9,72.7-5.6,134,1.1c58.1,6.3,83.6,1.2,108.3-3.9
								c6.2-1.3,12.4-2.5,18.9-3.6V70c-6.5,1.1-12.6,2.3-18.8,3.5c-16.5,3.4-33.5,6.8-60.3,6.8c-13.2,0-28.9-0.8-48.1-2.9
								C3412.3,70.8,3377,73.5,3339.6,76.3z"/>
							<path class="st2" d="M3349.3,67.5c-18.8,0-42.8-2-76.2-7.5c-68.7-7.6-107.8-4.6-145.7-1.7c-15.2,1.2-30,2.3-46.4,2.8v-0.6
								c16.3-0.5,31.2-1.6,46.3-2.8c37.9-2.9,77.1-5.9,145.8,1.7l0,0.3l0-0.2c75.5,12.4,102.7,6.9,131.6,1
								c24.7-5,50.3-10.2,108.4-3.9c36.4,4,63.6,4.6,87.5,3.9V61c-24,0.7-51.2,0.1-87.6-3.9c-58.1-6.3-83.6-1.2-108.3,3.9
								C3388.8,64.3,3373.1,67.5,3349.3,67.5z"/>
							<path class="st2" d="M3398.2,50.2c-37.9,2.9-77.1,5.9-145.8-1.7l0-0.4l-0.1,0.4c-75.5-12.4-102.7-6.9-131.6-1
								c-11.9,2.4-24,4.9-39.8,6.1v-0.6c15.8-1.2,27.8-3.6,39.6-6.1c18.5-3.8,36.3-7.4,66.7-6.2c17,0.6,37.9,2.8,65.1,7.3
								c0,0,0,0,0,0c68.7,7.6,107.8,4.6,145.7,1.7c37.4-2.9,72.7-5.6,134,1.1c30.2,3.3,51.6,3.5,68.6,2.2v0.6
								c-6.2,0.5-13,0.7-20.5,0.7c-13.2,0-28.9-0.8-48.1-2.9C3470.9,44.6,3435.6,47.3,3398.2,50.2z"/>
							<path class="st2" d="M3277.1,36.9c-26.2,2-53,4.1-89.7,2.6c-16.4-0.6-34.8-2-56.1-4.4l0-0.3l-0.1,0.3
								c-19.8-3.3-36.2-5.3-50.3-6.4v-0.6c14.1,1.1,30.5,3.1,50.3,6.4c0,0,0,0,0,0c68.7,7.6,107.8,4.6,145.6,1.7
								c37.4-2.9,72.7-5.6,134,1.1c58.1,6.3,83.6,1.2,108.3-3.9c21.3-4.3,41.8-8.5,81.4-5.4v0.6c-39.6-3.1-60,1-81.3,5.3
								c-16.5,3.4-33.5,6.8-60.3,6.8c-13.2,0-28.9-0.8-48.1-2.9C3349.8,31.3,3314.5,34.1,3277.1,36.9z"/>
						</g>
					</g>
				</g>
				<g>
					<g>
						<g>
							<path class="st2" d="M3626.6,24.2c-7.7,0-16.2-0.3-25.9-1.1v-0.6c39.6,3.1,60-1,81.3-5.4c24.7-5,50.3-10.2,108.4-3.9
								c61.2,6.7,96.5,4,133.9,1.1c37.9-2.9,77.1-5.9,145.8,1.7l0,0.3l0-0.2c19.8,3.3,36.2,5.3,50.2,6.4v0.6
								c-14.1-1.1-30.5-3.1-50.3-6.4c-68.7-7.6-107.8-4.6-145.7-1.7c-37.4,2.9-72.7,5.6-134-1.1c-58.1-6.3-83.6-1.2-108.3,3.9
								C3666.1,21,3650.4,24.2,3626.6,24.2z"/>
						</g>
					</g>
					<g>
						<g>
							<path class="st2" d="M3620.4,150c-7.2,0-13.7-0.3-19.7-0.8v-0.6c16.9,1.4,38.1,1.2,67.7-2.7c61.3-7.9,96.6-4.7,134-1.3
								c37.9,3.4,77,7,145.7-2c75.6-14.7,102.9-8.2,131.8-1.2c12.1,2.9,24.3,5.9,40.5,7.2v0.6c-16.2-1.4-28.6-4.3-40.7-7.3
								c-28.8-6.9-56-13.5-131.5,1.2l-0.1-0.3l0,0.3c-68.7,9.1-107.9,5.5-145.8,2c-37.4-3.4-72.7-6.6-133.9,1.3
								C3649.4,149,3633.7,150,3620.4,150z"/>
							<path class="st2" d="M3946.2,130.2C3946.2,130.2,3946.2,130.2,3946.2,130.2c-33.4,6.5-57.4,8.9-76.2,8.9
								c-23.8,0-39.5-3.8-55.6-7.7c-24.7-5.9-50.2-12.1-108.2-4.6c-45.7,5.9-77,5.6-105.4,3.7v-0.6c28.4,1.9,59.7,2.2,105.4-3.7
								c58.2-7.5,83.7-1.4,108.5,4.6c28.8,6.9,56,13.5,131.5-1.2l0.1,0.3l0-0.3c68.7-9.1,107.9-5.5,145.8-2
								c9.5,0.9,18.8,1.7,28.5,2.4v0.6c-9.7-0.7-19.1-1.5-28.6-2.4C4054,124.7,4014.9,121.2,3946.2,130.2z"/>
							<path class="st2" d="M3922.1,127.9c-18.8,0-42.8-2-76.2-7.5c0,0,0,0,0,0c-68.7-7.6-107.8-4.6-145.7-1.7
								c-29.8,2.3-58.2,4.5-99.5,1.9v-0.6c41.3,2.6,69.7,0.4,99.4-1.9c37.9-2.9,77.1-5.9,145.8,1.7l0,0.4l0.1-0.4
								c75.5,12.4,102.7,6.9,131.6,1c24.7-5,50.3-10.2,108.4-3.9c12.5,1.4,23.9,2.3,34.4,3v0.6c-10.6-0.7-22-1.6-34.5-3
								c-58.1-6.3-83.6-1.2-108.3,3.9C3961.6,124.7,3945.9,127.9,3922.1,127.9z"/>
							<path class="st2" d="M3851.7,104.3c-58.1-6.3-83.6-1.2-108.3,3.9c-16.1,3.3-31.8,6.5-55.6,6.5c-18.8,0-42.8-2-76.2-7.5
								c0,0,0,0,0,0c-3.7-0.4-7.3-0.8-10.9-1.1v-0.6c3.6,0.4,7.2,0.7,11,1.2l0,0.2l0-0.2c75.5,12.4,102.7,6.9,131.6,1
								c24.7-5,50.3-10.2,108.4-3.9c61.2,6.7,96.5,4,133.9,1.1c35.8-2.8,72.8-5.6,134.8,0.6v0.6c-62-6.2-99-3.3-134.8-0.6
								C3948.3,108.3,3913,111,3851.7,104.3z"/>
							<path class="st2" d="M3921.6,93.1c-37.9,2.9-77.1,5.9-145.8-1.7l0-0.4l-0.1,0.4c-75.5-12.4-102.7-6.9-131.6-1
								c-12.8,2.6-25.8,5.2-43.5,6.3V96c17.6-1.1,30.6-3.7,43.3-6.3c28.9-5.9,56.2-11.4,131.8,1v0c68.7,7.6,107.8,4.6,145.7,1.7
								c37.4-2.9,72.7-5.6,134,1.1c28,3.1,48.5,3.4,64.9,2.4v0.6c-5.2,0.3-10.7,0.5-16.8,0.5c-13.2,0-28.9-0.8-48.1-2.9
								C3994.2,87.5,3959,90.2,3921.6,93.1z"/>
							<path class="st2" d="M3859.3,76.3c-37.9,2.9-77.1,5.9-145.8-1.7l0-0.3l-0.1,0.3c-59.3-9.8-88.8-8.4-112.8-4.6v-0.6
								c23.9-3.9,53.5-5.2,112.8,4.6c68.7,7.6,107.8,4.6,145.7,1.7c37.4-2.9,72.7-5.6,134,1.1c58.1,6.3,83.6,1.2,108.3-3.9
								c6.2-1.3,12.4-2.5,18.9-3.6V70c-6.5,1.1-12.6,2.3-18.8,3.5c-16.5,3.4-33.5,6.8-60.3,6.8c-13.2,0-28.9-0.8-48.1-2.9
								C3932,70.8,3896.7,73.5,3859.3,76.3z"/>
							<path class="st2" d="M3869,67.5c-18.8,0-42.8-2-76.2-7.5c-68.7-7.6-107.8-4.6-145.7-1.7c-15.2,1.2-30,2.3-46.4,2.8v-0.6
								c16.3-0.5,31.2-1.6,46.3-2.8c37.9-2.9,77.1-5.9,145.8,1.7l0,0.3l0-0.2c75.5,12.4,102.7,6.9,131.6,1
								c24.7-5,50.3-10.2,108.4-3.9c36.4,4,63.6,4.6,87.5,3.9V61c-24,0.7-51.2,0.1-87.6-3.9c-58.1-6.3-83.6-1.2-108.3,3.9
								C3908.5,64.3,3892.8,67.5,3869,67.5z"/>
							<path class="st2" d="M3917.9,50.2c-37.9,2.9-77.1,5.9-145.8-1.7l0-0.4l-0.1,0.4c-75.5-12.4-102.7-6.9-131.6-1
								c-11.9,2.4-24,4.9-39.8,6.1v-0.6c15.8-1.2,27.8-3.6,39.6-6.1c18.5-3.8,36.3-7.4,66.7-6.2c17,0.6,37.9,2.8,65.1,7.3
								c0,0,0,0,0,0c68.7,7.6,107.8,4.6,145.7,1.7c37.4-2.9,72.7-5.6,134,1.1c30.2,3.3,51.6,3.5,68.6,2.2v0.6
								c-6.2,0.5-13,0.7-20.5,0.7c-13.2,0-28.9-0.8-48.1-2.9C3990.5,44.6,3955.3,47.3,3917.9,50.2z"/>
							<path class="st2" d="M3796.8,36.9c-26.2,2-53,4.1-89.7,2.6c-16.4-0.6-34.8-2-56.1-4.4l0-0.3l-0.1,0.3
								c-19.8-3.3-36.2-5.3-50.3-6.4v-0.6c14.1,1.1,30.5,3.1,50.3,6.4c0,0,0,0,0,0c68.7,7.6,107.8,4.6,145.6,1.7
								c37.4-2.9,72.7-5.6,134,1.1c58.1,6.3,83.6,1.2,108.3-3.9c21.3-4.3,41.8-8.5,81.4-5.4v0.6c-39.6-3.1-60,1-81.3,5.3
								c-16.5,3.4-33.5,6.8-60.3,6.8c-13.2,0-28.9-0.8-48.1-2.9C3869.5,31.3,3834.2,34.1,3796.8,36.9z"/>
						</g>
					</g>
				</g>
			</g>
		</g>
		<g>
			<g class="st1">
				<g>
					<g>
						<g>
							<path class="st2" d="M-11.1,24.2c-7.7,0-16.2-0.3-25.9-1.1v-0.6c39.6,3.1,60-1,81.3-5.4c24.7-5,50.3-10.2,108.4-3.9
								c61.2,6.7,96.5,4,133.9,1.1c37.9-2.9,77.1-5.9,145.8,1.7l0,0.3l0-0.2c19.8,3.3,36.2,5.3,50.2,6.4v0.6
								c-14.1-1.1-30.5-3.1-50.3-6.4c-68.7-7.6-107.8-4.6-145.7-1.7c-37.4,2.9-72.7,5.6-134-1.1c-58.1-6.3-83.6-1.2-108.3,3.9
								C28.3,21,12.7,24.2-11.1,24.2z"/>
						</g>
					</g>
					<g>
						<g>
							<path class="st2" d="M-17.3,150c-7.2,0-13.7-0.3-19.7-0.8v-0.6c16.9,1.4,38.1,1.2,67.7-2.7c61.3-7.9,96.6-4.7,134-1.3
								c37.9,3.4,77,7,145.7-2c75.6-14.7,102.9-8.2,131.8-1.2c12.1,2.9,24.3,5.9,40.5,7.2v0.6c-16.2-1.4-28.6-4.3-40.7-7.3
								c-28.8-6.9-56-13.5-131.5,1.2l-0.1-0.3l0,0.3c-68.7,9.1-107.9,5.5-145.8,2c-37.4-3.4-72.7-6.6-133.9,1.3
								C11.6,149-4.1,150-17.3,150z"/>
							<path class="st2" d="M308.5,130.2C308.5,130.2,308.5,130.2,308.5,130.2c-33.4,6.5-57.4,8.9-76.2,8.9
								c-23.8,0-39.5-3.8-55.6-7.7c-24.7-5.9-50.2-12.1-108.2-4.6c-45.7,5.9-77,5.6-105.4,3.7v-0.6c28.4,1.9,59.7,2.2,105.4-3.7
								c58.2-7.5,83.7-1.4,108.5,4.6c28.8,6.9,56,13.5,131.5-1.2l0.1,0.3l0-0.3c68.7-9.1,107.9-5.5,145.8-2
								c9.5,0.9,18.8,1.7,28.5,2.4v0.6c-9.7-0.7-19.1-1.5-28.6-2.4C416.3,124.7,377.1,121.2,308.5,130.2z"/>
							<path class="st2" d="M284.3,127.9c-18.8,0-42.8-2-76.2-7.5c0,0,0,0,0,0c-68.7-7.6-107.8-4.6-145.7-1.7
								c-29.8,2.3-58.2,4.5-99.5,1.9v-0.6c41.3,2.6,69.7,0.4,99.4-1.9c37.9-2.9,77.1-5.9,145.8,1.7l0,0.4l0.1-0.4
								c75.5,12.4,102.7,6.9,131.6,1c24.7-5,50.3-10.2,108.4-3.9c12.5,1.4,23.9,2.3,34.4,3v0.6c-10.6-0.7-22-1.6-34.5-3
								c-58.1-6.3-83.6-1.2-108.3,3.9C323.8,124.7,308.2,127.9,284.3,127.9z"/>
							<path class="st2" d="M213.9,104.3c-58.1-6.3-83.6-1.2-108.3,3.9c-16.1,3.3-31.8,6.5-55.6,6.5c-18.8,0-42.8-2-76.2-7.5
								c0,0,0,0,0,0c-3.7-0.4-7.3-0.8-10.9-1.1v-0.6c3.6,0.4,7.2,0.7,11,1.2l0,0.2l0-0.2c75.5,12.4,102.7,6.9,131.6,1
								c24.7-5,50.3-10.2,108.4-3.9c61.2,6.7,96.5,4,133.9,1.1c35.8-2.8,72.8-5.6,134.8,0.6v0.6c-62-6.2-99-3.3-134.8-0.6
								C310.5,108.3,275.2,111,213.9,104.3z"/>
							<path class="st2" d="M283.8,93.1C245.9,96,206.8,99,138,91.3l0-0.4l-0.1,0.4c-75.5-12.4-102.7-6.9-131.6-1
								c-12.8,2.6-25.8,5.2-43.5,6.3V96c17.6-1.1,30.6-3.7,43.3-6.3c28.9-5.9,56.2-11.4,131.8,1v0c68.7,7.6,107.8,4.6,145.7,1.7
								c37.4-2.9,72.7-5.6,134,1.1c28,3.1,48.5,3.4,64.9,2.4v0.6c-5.2,0.3-10.7,0.5-16.8,0.5c-13.2,0-28.9-0.8-48.1-2.9
								C356.5,87.5,321.2,90.2,283.8,93.1z"/>
							<path class="st2" d="M221.6,76.3c-37.9,2.9-77.1,5.9-145.8-1.7l0-0.3l-0.1,0.3C16.4,64.8-13.1,66.2-37,70v-0.6
								c23.9-3.9,53.5-5.2,112.8,4.6c68.7,7.6,107.8,4.6,145.7,1.7c37.4-2.9,72.7-5.6,134,1.1c58.1,6.3,83.6,1.2,108.3-3.9
								c6.2-1.3,12.4-2.5,18.9-3.6V70c-6.5,1.1-12.6,2.3-18.8,3.5c-16.5,3.4-33.5,6.8-60.3,6.8c-13.2,0-28.9-0.8-48.1-2.9
								C294.2,70.8,258.9,73.5,221.6,76.3z"/>
							<path class="st2" d="M231.2,67.5c-18.8,0-42.8-2-76.2-7.5C86.4,52.3,47.3,55.3,9.4,58.2c-15.2,1.2-30,2.3-46.4,2.8v-0.6
								c16.3-0.5,31.2-1.6,46.3-2.8c37.9-2.9,77.1-5.9,145.8,1.7l0,0.3l0-0.2c75.5,12.4,102.7,6.9,131.6,1
								c24.7-5,50.3-10.2,108.4-3.9c36.4,4,63.6,4.6,87.5,3.9V61c-24,0.7-51.2,0.1-87.6-3.9C337,50.8,311.5,56,286.8,61
								C270.7,64.3,255.1,67.5,231.2,67.5z"/>
							<path class="st2" d="M280.1,50.2c-37.9,2.9-77.1,5.9-145.8-1.7l0-0.4l-0.1,0.4C58.8,36,31.6,41.5,2.8,47.4
								c-11.9,2.4-24,4.9-39.8,6.1v-0.6c15.8-1.2,27.8-3.6,39.6-6.1C21.1,43,39,39.4,69.3,40.5c17,0.6,37.9,2.8,65.1,7.3
								c0,0,0,0,0,0c68.7,7.6,107.8,4.6,145.7,1.7c37.4-2.9,72.7-5.6,134,1.1c30.2,3.3,51.6,3.5,68.6,2.2v0.6
								c-6.2,0.5-13,0.7-20.5,0.7c-13.2,0-28.9-0.8-48.1-2.9C352.8,44.6,317.5,47.3,280.1,50.2z"/>
							<path class="st2" d="M159.1,36.9c-26.2,2-53,4.1-89.7,2.6c-16.4-0.6-34.8-2-56.1-4.4l0-0.3l-0.1,0.3
								C-6.5,31.9-23,29.9-37,28.8v-0.6c14.1,1.1,30.5,3.1,50.3,6.4c0,0,0,0,0,0C82,42.2,121.2,39.2,159,36.3
								c37.4-2.9,72.7-5.6,134,1.1c58.1,6.3,83.6,1.2,108.3-3.9c21.3-4.3,41.8-8.5,81.4-5.4v0.6c-39.6-3.1-60,1-81.3,5.3
								c-16.5,3.4-33.5,6.8-60.3,6.8c-13.2,0-28.9-0.8-48.1-2.9C231.7,31.3,196.4,34.1,159.1,36.9z"/>
						</g>
					</g>
				</g>
				<g>
					<g>
						<g>
							<path class="st2" d="M508.6,24.2c-7.7,0-16.2-0.3-25.9-1.1v-0.6c39.6,3.1,60-1,81.3-5.4c24.7-5,50.3-10.2,108.4-3.9
								c61.2,6.7,96.5,4,133.9,1.1c37.9-2.9,77.1-5.9,145.8,1.7l0,0.3l0-0.2c19.8,3.3,36.2,5.3,50.2,6.4v0.6
								c-14.1-1.1-30.5-3.1-50.3-6.4c-68.7-7.6-107.8-4.6-145.7-1.7c-37.4,2.9-72.7,5.6-134-1.1c-58.1-6.3-83.6-1.2-108.3,3.9
								C548,21,532.4,24.2,508.6,24.2z"/>
						</g>
					</g>
					<g>
						<g>
							<path class="st2" d="M502.4,150c-7.2,0-13.7-0.3-19.7-0.8v-0.6c16.9,1.4,38.1,1.2,67.7-2.7c61.3-7.9,96.6-4.7,134-1.3
								c37.9,3.4,77,7,145.7-2c75.6-14.7,102.9-8.2,131.8-1.2c12.1,2.9,24.3,5.9,40.5,7.2v0.6c-16.2-1.4-28.6-4.3-40.7-7.3
								c-28.8-6.9-56-13.5-131.5,1.2l-0.1-0.3l0,0.3c-68.7,9.1-107.9,5.5-145.8,2c-37.4-3.4-72.7-6.6-133.9,1.3
								C531.3,149,515.6,150,502.4,150z"/>
							<path class="st2" d="M828.2,130.2C828.2,130.2,828.2,130.2,828.2,130.2c-33.4,6.5-57.4,8.9-76.2,8.9
								c-23.8,0-39.5-3.8-55.6-7.7c-24.7-5.9-50.2-12.1-108.2-4.6c-45.7,5.9-77,5.6-105.4,3.7v-0.6c28.4,1.9,59.7,2.2,105.4-3.7
								c58.2-7.5,83.7-1.4,108.5,4.6c28.8,6.9,56,13.5,131.5-1.2l0.1,0.3l0-0.3c68.7-9.1,107.9-5.5,145.8-2
								c9.5,0.9,18.8,1.7,28.5,2.4v0.6c-9.7-0.7-19.1-1.5-28.6-2.4C936,124.7,896.8,121.2,828.2,130.2z"/>
							<path class="st2" d="M804,127.9c-18.8,0-42.8-2-76.2-7.5c0,0,0,0,0,0c-68.7-7.6-107.8-4.6-145.7-1.7
								c-29.8,2.3-58.2,4.5-99.5,1.9v-0.6c41.3,2.6,69.7,0.4,99.4-1.9c37.9-2.9,77.1-5.9,145.8,1.7l0,0.4l0.1-0.4
								c75.5,12.4,102.7,6.9,131.6,1c24.7-5,50.3-10.2,108.4-3.9c12.5,1.4,23.9,2.3,34.4,3v0.6c-10.6-0.7-22-1.6-34.5-3
								c-58.1-6.3-83.6-1.2-108.3,3.9C843.5,124.7,827.9,127.9,804,127.9z"/>
							<path class="st2" d="M733.6,104.3c-58.1-6.3-83.6-1.2-108.3,3.9c-16.1,3.3-31.8,6.5-55.6,6.5c-18.8,0-42.8-2-76.2-7.5
								c0,0,0,0,0,0c-3.7-0.4-7.3-0.8-10.9-1.1v-0.6c3.6,0.4,7.2,0.7,11,1.2l0,0.2l0-0.2c75.5,12.4,102.7,6.9,131.6,1
								c24.7-5,50.3-10.2,108.4-3.9c61.2,6.7,96.5,4,133.9,1.1c35.8-2.8,72.8-5.6,134.8,0.6v0.6c-62-6.2-99-3.3-134.8-0.6
								C830.2,108.3,794.9,111,733.6,104.3z"/>
							<path class="st2" d="M803.5,93.1c-37.9,2.9-77.1,5.9-145.8-1.7l0-0.4l-0.1,0.4c-75.5-12.4-102.7-6.9-131.6-1
								c-12.8,2.6-25.8,5.2-43.5,6.3V96c17.6-1.1,30.6-3.7,43.3-6.3c28.9-5.9,56.2-11.4,131.8,1v0c68.7,7.6,107.8,4.6,145.7,1.7
								c37.4-2.9,72.7-5.6,134,1.1c28,3.1,48.5,3.4,64.9,2.4v0.6c-5.2,0.3-10.7,0.5-16.8,0.5c-13.2,0-28.9-0.8-48.1-2.9
								C876.2,87.5,840.9,90.2,803.5,93.1z"/>
							<path class="st2" d="M741.2,76.3c-37.9,2.9-77.1,5.9-145.8-1.7l0-0.3l-0.1,0.3c-59.3-9.8-88.8-8.4-112.8-4.6v-0.6
								c23.9-3.9,53.5-5.2,112.8,4.6c68.7,7.6,107.8,4.6,145.7,1.7c37.4-2.9,72.7-5.6,134,1.1c58.1,6.3,83.6,1.2,108.3-3.9
								c6.2-1.3,12.4-2.5,18.9-3.6V70c-6.5,1.1-12.6,2.3-18.8,3.5c-16.5,3.4-33.5,6.8-60.3,6.8c-13.2,0-28.9-0.8-48.1-2.9
								C813.9,70.8,778.6,73.5,741.2,76.3z"/>
							<path class="st2" d="M750.9,67.5c-18.8,0-42.8-2-76.2-7.5c-68.7-7.6-107.8-4.6-145.7-1.7c-15.2,1.2-30,2.3-46.4,2.8v-0.6
								c16.3-0.5,31.2-1.6,46.3-2.8c37.9-2.9,77.1-5.9,145.8,1.7l0,0.3l0-0.2c75.5,12.4,102.7,6.9,131.6,1
								c24.7-5,50.3-10.2,108.4-3.9c36.4,4,63.6,4.6,87.5,3.9V61c-24,0.7-51.2,0.1-87.6-3.9c-58.1-6.3-83.6-1.2-108.3,3.9
								C790.4,64.3,774.8,67.5,750.9,67.5z"/>
							<path class="st2" d="M799.8,50.2c-37.9,2.9-77.1,5.9-145.8-1.7l0-0.4l-0.1,0.4c-75.5-12.4-102.7-6.9-131.6-1
								c-11.9,2.4-24,4.9-39.8,6.1v-0.6c15.8-1.2,27.8-3.6,39.6-6.1c18.5-3.8,36.3-7.4,66.7-6.2c17,0.6,37.9,2.8,65.1,7.3
								c0,0,0,0,0,0c68.7,7.6,107.8,4.6,145.7,1.7c37.4-2.9,72.7-5.6,134,1.1c30.2,3.3,51.6,3.5,68.6,2.2v0.6
								c-6.2,0.5-13,0.7-20.5,0.7c-13.2,0-28.9-0.8-48.1-2.9C872.5,44.6,837.2,47.3,799.8,50.2z"/>
							<path class="st2" d="M678.8,36.9c-26.2,2-53,4.1-89.7,2.6c-16.4-0.6-34.8-2-56.1-4.4l0-0.3l-0.1,0.3
								c-19.8-3.3-36.2-5.3-50.3-6.4v-0.6c14.1,1.1,30.5,3.1,50.3,6.4c0,0,0,0,0,0c68.7,7.6,107.8,4.6,145.6,1.7
								c37.4-2.9,72.7-5.6,134,1.1c58.1,6.3,83.6,1.2,108.3-3.9c21.3-4.3,41.8-8.5,81.4-5.4v0.6c-39.6-3.1-60,1-81.3,5.3
								c-16.5,3.4-33.5,6.8-60.3,6.8c-13.2,0-28.9-0.8-48.1-2.9C751.4,31.3,716.1,34.1,678.8,36.9z"/>
						</g>
					</g>
				</g>
			</g>
			<g class="st1">
				<g>
					<g>
						<g>
							<path class="st2" d="M1028.2,24.2c-7.7,0-16.2-0.3-25.9-1.1v-0.6c39.6,3.1,60-1,81.3-5.4c24.7-5,50.3-10.2,108.4-3.9
								c61.2,6.7,96.5,4,133.9,1.1c37.9-2.9,77.1-5.9,145.8,1.7l0,0.3l0-0.2c19.8,3.3,36.2,5.3,50.2,6.4v0.6
								c-14.1-1.1-30.5-3.1-50.3-6.4c-68.7-7.6-107.8-4.6-145.7-1.7c-37.4,2.9-72.7,5.6-134-1.1c-58.1-6.3-83.6-1.2-108.3,3.9
								C1067.7,21,1052,24.2,1028.2,24.2z"/>
						</g>
					</g>
					<g>
						<g>
							<path class="st2" d="M1022,150c-7.2,0-13.7-0.3-19.7-0.8v-0.6c16.9,1.4,38.1,1.2,67.7-2.7c61.3-7.9,96.6-4.7,134-1.3
								c37.9,3.4,77,7,145.7-2c75.6-14.7,102.9-8.2,131.8-1.2c12.1,2.9,24.3,5.9,40.5,7.2v0.6c-16.2-1.4-28.6-4.3-40.7-7.3
								c-28.8-6.9-56-13.5-131.5,1.2l-0.1-0.3l0,0.3c-68.7,9.1-107.9,5.5-145.8,2c-37.4-3.4-72.7-6.6-133.9,1.3
								C1050.9,149,1035.3,150,1022,150z"/>
							<path class="st2" d="M1347.8,130.2C1347.8,130.2,1347.8,130.2,1347.8,130.2c-33.4,6.5-57.4,8.9-76.2,8.9
								c-23.8,0-39.5-3.8-55.6-7.7c-24.7-5.9-50.2-12.1-108.2-4.6c-45.7,5.9-77,5.6-105.4,3.7v-0.6c28.4,1.9,59.7,2.2,105.4-3.7
								c58.2-7.5,83.7-1.4,108.5,4.6c28.8,6.9,56,13.5,131.5-1.2l0.1,0.3l0-0.3c68.7-9.1,107.9-5.5,145.8-2
								c9.5,0.9,18.8,1.7,28.5,2.4v0.6c-9.7-0.7-19.1-1.5-28.6-2.4C1455.6,124.7,1416.5,121.2,1347.8,130.2z"/>
							<path class="st2" d="M1323.7,127.9c-18.8,0-42.8-2-76.2-7.5c0,0,0,0,0,0c-68.7-7.6-107.8-4.6-145.7-1.7
								c-29.8,2.3-58.2,4.5-99.5,1.9v-0.6c41.3,2.6,69.7,0.4,99.4-1.9c37.9-2.9,77.1-5.9,145.8,1.7l0,0.4l0.1-0.4
								c75.5,12.4,102.7,6.9,131.6,1c24.7-5,50.3-10.2,108.4-3.9c12.5,1.4,23.9,2.3,34.4,3v0.6c-10.6-0.7-22-1.6-34.5-3
								c-58.1-6.3-83.6-1.2-108.3,3.9C1363.2,124.7,1347.5,127.9,1323.7,127.9z"/>
							<path class="st2" d="M1253.3,104.3c-58.1-6.3-83.6-1.2-108.3,3.9c-16.1,3.3-31.8,6.5-55.6,6.5c-18.8,0-42.8-2-76.2-7.5
								c0,0,0,0,0,0c-3.7-0.4-7.3-0.8-10.9-1.1v-0.6c3.6,0.4,7.2,0.7,11,1.2l0,0.2l0-0.2c75.5,12.4,102.7,6.9,131.6,1
								c24.7-5,50.3-10.2,108.4-3.9c61.2,6.7,96.5,4,133.9,1.1c35.8-2.8,72.8-5.6,134.8,0.6v0.6c-62-6.2-99-3.3-134.8-0.6
								C1349.9,108.3,1314.6,111,1253.3,104.3z"/>
							<path class="st2" d="M1323.2,93.1c-37.9,2.9-77.1,5.9-145.8-1.7l0-0.4l-0.1,0.4c-75.5-12.4-102.7-6.9-131.6-1
								c-12.8,2.6-25.8,5.2-43.5,6.3V96c17.6-1.1,30.6-3.7,43.3-6.3c28.9-5.9,56.2-11.4,131.8,1v0c68.7,7.6,107.8,4.6,145.7,1.7
								c37.4-2.9,72.7-5.6,134,1.1c28,3.1,48.5,3.4,64.9,2.4v0.6c-5.2,0.3-10.7,0.5-16.8,0.5c-13.2,0-28.9-0.8-48.1-2.9
								C1395.8,87.5,1360.5,90.2,1323.2,93.1z"/>
							<path class="st2" d="M1260.9,76.3c-37.9,2.9-77.1,5.9-145.8-1.7l0-0.3l-0.1,0.3c-59.3-9.8-88.8-8.4-112.8-4.6v-0.6
								c23.9-3.9,53.5-5.2,112.8,4.6c68.7,7.6,107.8,4.6,145.7,1.7c37.4-2.9,72.7-5.6,134,1.1c58.1,6.3,83.6,1.2,108.3-3.9
								c6.2-1.3,12.4-2.5,18.9-3.6V70c-6.5,1.1-12.6,2.3-18.8,3.5c-16.5,3.4-33.5,6.8-60.3,6.8c-13.2,0-28.9-0.8-48.1-2.9
								C1333.6,70.8,1298.3,73.5,1260.9,76.3z"/>
							<path class="st2" d="M1270.6,67.5c-18.8,0-42.8-2-76.2-7.5c-68.7-7.6-107.8-4.6-145.7-1.7c-15.2,1.2-30,2.3-46.4,2.8v-0.6
								c16.3-0.5,31.2-1.6,46.3-2.8c37.9-2.9,77.1-5.9,145.8,1.7l0,0.3l0-0.2c75.5,12.4,102.7,6.9,131.6,1
								c24.7-5,50.3-10.2,108.4-3.9c36.4,4,63.6,4.6,87.5,3.9V61c-24,0.7-51.2,0.1-87.6-3.9c-58.1-6.3-83.6-1.2-108.3,3.9
								C1310.1,64.3,1294.4,67.5,1270.6,67.5z"/>
							<path class="st2" d="M1319.5,50.2c-37.9,2.9-77.1,5.9-145.8-1.7l0-0.4l-0.1,0.4c-75.5-12.4-102.7-6.9-131.6-1
								c-11.9,2.4-24,4.9-39.8,6.1v-0.6c15.8-1.2,27.8-3.6,39.6-6.1c18.5-3.8,36.3-7.4,66.7-6.2c17,0.6,37.9,2.8,65.1,7.3
								c0,0,0,0,0,0c68.7,7.6,107.8,4.6,145.7,1.7c37.4-2.9,72.7-5.6,134,1.1c30.2,3.3,51.6,3.5,68.6,2.2v0.6
								c-6.2,0.5-13,0.7-20.5,0.7c-13.2,0-28.9-0.8-48.1-2.9C1392.1,44.6,1356.8,47.3,1319.5,50.2z"/>
							<path class="st2" d="M1198.4,36.9c-26.2,2-53,4.1-89.7,2.6c-16.4-0.6-34.8-2-56.1-4.4l0-0.3l-0.1,0.3
								c-19.8-3.3-36.2-5.3-50.3-6.4v-0.6c14.1,1.1,30.5,3.1,50.3,6.4c0,0,0,0,0,0c68.7,7.6,107.8,4.6,145.6,1.7
								c37.4-2.9,72.7-5.6,134,1.1c58.1,6.3,83.6,1.2,108.3-3.9c21.3-4.3,41.8-8.5,81.4-5.4v0.6c-39.6-3.1-60,1-81.3,5.3
								c-16.5,3.4-33.5,6.8-60.3,6.8c-13.2,0-28.9-0.8-48.1-2.9C1271.1,31.3,1235.8,34.1,1198.4,36.9z"/>
						</g>
					</g>
				</g>
				<g>
					<g>
						<g>
							<path class="st2" d="M1547.9,24.2c-7.7,0-16.2-0.3-25.9-1.1v-0.6c39.6,3.1,60-1,81.3-5.4c24.7-5,50.3-10.2,108.4-3.9
								c61.2,6.7,96.5,4,133.9,1.1c37.9-2.9,77.1-5.9,145.8,1.7l0,0.3l0-0.2c19.8,3.3,36.2,5.3,50.2,6.4v0.6
								c-14.1-1.1-30.5-3.1-50.3-6.4c-68.7-7.6-107.8-4.6-145.7-1.7c-37.4,2.9-72.7,5.6-134-1.1c-58.1-6.3-83.6-1.2-108.3,3.9
								C1587.4,21,1571.7,24.2,1547.9,24.2z"/>
						</g>
					</g>
					<g>
						<g>
							<path class="st2" d="M1541.7,150c-7.2,0-13.7-0.3-19.7-0.8v-0.6c16.9,1.4,38.1,1.2,67.7-2.7c61.3-7.9,96.6-4.7,134-1.3
								c37.9,3.4,77,7,145.7-2c75.6-14.7,102.9-8.2,131.8-1.2c12.1,2.9,24.3,5.9,40.5,7.2v0.6c-16.2-1.4-28.6-4.3-40.7-7.3
								c-28.8-6.9-56-13.5-131.5,1.2l-0.1-0.3l0,0.3c-68.7,9.1-107.9,5.5-145.8,2c-37.4-3.4-72.7-6.6-133.9,1.3
								C1570.6,149,1555,150,1541.7,150z"/>
							<path class="st2" d="M1867.5,130.2C1867.5,130.2,1867.5,130.2,1867.5,130.2c-33.4,6.5-57.4,8.9-76.2,8.9
								c-23.8,0-39.5-3.8-55.6-7.7c-24.7-5.9-50.2-12.1-108.2-4.6c-45.7,5.9-77,5.6-105.4,3.7v-0.6c28.4,1.9,59.7,2.2,105.4-3.7
								c58.2-7.5,83.7-1.4,108.5,4.6c28.8,6.9,56,13.5,131.5-1.2l0.1,0.3l0-0.3c68.7-9.1,107.9-5.5,145.8-2
								c9.5,0.9,18.8,1.7,28.5,2.4v0.6c-9.7-0.7-19.1-1.5-28.6-2.4C1975.3,124.7,1936.2,121.2,1867.5,130.2z"/>
							<path class="st2" d="M1843.4,127.9c-18.8,0-42.8-2-76.2-7.5c0,0,0,0,0,0c-68.7-7.6-107.8-4.6-145.7-1.7
								c-29.8,2.3-58.2,4.5-99.5,1.9v-0.6c41.3,2.6,69.7,0.4,99.4-1.9c37.9-2.9,77.1-5.9,145.8,1.7l0,0.4l0.1-0.4
								c75.5,12.4,102.7,6.9,131.6,1c24.7-5,50.3-10.2,108.4-3.9c12.5,1.4,23.9,2.3,34.4,3v0.6c-10.6-0.7-22-1.6-34.5-3
								c-58.1-6.3-83.6-1.2-108.3,3.9C1882.8,124.7,1867.2,127.9,1843.4,127.9z"/>
							<path class="st2" d="M1773,104.3c-58.1-6.3-83.6-1.2-108.3,3.9c-16.1,3.3-31.8,6.5-55.6,6.5c-18.8,0-42.8-2-76.2-7.5
								c0,0,0,0,0,0c-3.7-0.4-7.3-0.8-10.9-1.1v-0.6c3.6,0.4,7.2,0.7,11,1.2l0,0.2l0-0.2c75.5,12.4,102.7,6.9,131.6,1
								c24.7-5,50.3-10.2,108.4-3.9c61.2,6.7,96.5,4,133.9,1.1c35.8-2.8,72.8-5.6,134.8,0.6v0.6c-62-6.2-99-3.3-134.8-0.6
								C1869.6,108.3,1834.3,111,1773,104.3z"/>
							<path class="st2" d="M1842.9,93.1c-37.9,2.9-77.1,5.9-145.8-1.7l0-0.4l-0.1,0.4c-75.5-12.4-102.7-6.9-131.6-1
								c-12.8,2.6-25.8,5.2-43.5,6.3V96c17.6-1.1,30.6-3.7,43.3-6.3c28.9-5.9,56.2-11.4,131.8,1v0c68.7,7.6,107.8,4.6,145.7,1.7
								c37.4-2.9,72.7-5.6,134,1.1c28,3.1,48.5,3.4,64.9,2.4v0.6c-5.2,0.3-10.7,0.5-16.8,0.5c-13.2,0-28.9-0.8-48.1-2.9
								C1915.5,87.5,1880.2,90.2,1842.9,93.1z"/>
							<path class="st2" d="M1780.6,76.3c-37.9,2.9-77.1,5.9-145.8-1.7l0-0.3l-0.1,0.3c-59.3-9.8-88.8-8.4-112.8-4.6v-0.6
								c23.9-3.9,53.5-5.2,112.8,4.6c68.7,7.6,107.8,4.6,145.7,1.7c37.4-2.9,72.7-5.6,134,1.1c58.1,6.3,83.6,1.2,108.3-3.9
								c6.2-1.3,12.4-2.5,18.9-3.6V70c-6.5,1.1-12.6,2.3-18.8,3.5c-16.5,3.4-33.5,6.8-60.3,6.8c-13.2,0-28.9-0.8-48.1-2.9
								C1853.3,70.8,1818,73.5,1780.6,76.3z"/>
							<path class="st2" d="M1790.3,67.5c-18.8,0-42.8-2-76.2-7.5c-68.7-7.6-107.8-4.6-145.7-1.7c-15.2,1.2-30,2.3-46.4,2.8v-0.6
								c16.3-0.5,31.2-1.6,46.3-2.8c37.9-2.9,77.1-5.9,145.8,1.7l0,0.3l0-0.2c75.5,12.4,102.7,6.9,131.6,1
								c24.7-5,50.3-10.2,108.4-3.9c36.4,4,63.6,4.6,87.5,3.9V61c-24,0.7-51.2,0.1-87.6-3.9c-58.1-6.3-83.6-1.2-108.3,3.9
								C1829.7,64.3,1814.1,67.5,1790.3,67.5z"/>
							<path class="st2" d="M1839.2,50.2c-37.9,2.9-77.1,5.9-145.8-1.7l0-0.4l-0.1,0.4c-75.5-12.4-102.7-6.9-131.6-1
								c-11.9,2.4-24,4.9-39.8,6.1v-0.6c15.8-1.2,27.8-3.6,39.6-6.1c18.5-3.8,36.3-7.4,66.7-6.2c17,0.6,37.9,2.8,65.1,7.3
								c0,0,0,0,0,0c68.7,7.6,107.8,4.6,145.7,1.7c37.4-2.9,72.7-5.6,134,1.1c30.2,3.3,51.6,3.5,68.6,2.2v0.6
								c-6.2,0.5-13,0.7-20.5,0.7c-13.2,0-28.9-0.8-48.1-2.9C1911.8,44.6,1876.5,47.3,1839.2,50.2z"/>
							<path class="st2" d="M1718.1,36.9c-26.2,2-53,4.1-89.7,2.6c-16.4-0.6-34.8-2-56.1-4.4l0-0.3l-0.1,0.3
								c-19.8-3.3-36.2-5.3-50.3-6.4v-0.6c14.1,1.1,30.5,3.1,50.3,6.4c0,0,0,0,0,0c68.7,7.6,107.8,4.6,145.6,1.7
								c37.4-2.9,72.7-5.6,134,1.1c58.1,6.3,83.6,1.2,108.3-3.9c21.3-4.3,41.8-8.5,81.4-5.4v0.6c-39.6-3.1-60,1-81.3,5.3
								c-16.5,3.4-33.5,6.8-60.3,6.8c-13.2,0-28.9-0.8-48.1-2.9C1790.8,31.3,1755.5,34.1,1718.1,36.9z"/>
						</g>
					</g>
				</g>
			</g>
		</g>
	</g>
</g>
</svg>
