<?xml version="1.0" encoding="utf-8"?>
<!-- Generator: Adobe Illustrator 24.1.0, SVG Export Plug-In . SVG Version: 6.00 Build 0)  -->
<svg version="1.1" id="Layer_1" xmlns="http://www.w3.org/2000/svg" xmlns:xlink="http://www.w3.org/1999/xlink" x="0px" y="0px"
	 viewBox="0 0 2500 267" style="enable-background:new 0 0 2500 267;" xml:space="preserve">
<style type="text/css">
	.st0{opacity:0.15;}
	.st1{fill:#65A2C2;}
</style>
<g>
	<g>
		<g class="st0">
			<g>
				<g>
					<g>
						<path class="st1" d="M36.08,35.9c-13.48,0-28.46-0.58-45.45-1.92v-1.08c69.64,5.49,105.52-1.81,142.93-9.41
							c43.43-8.83,88.34-17.96,190.62-6.8c107.63,11.76,169.66,6.99,235.35,1.96c66.59-5.11,135.45-10.41,256.26,3.03l-0.04,0.44
							l0.07-0.43c34.73,5.72,63.65,9.27,88.33,11.22v1.08c-24.72-1.95-53.69-5.51-88.47-11.23
							c-120.71-13.43-189.52-8.14-256.06-3.04c-65.73,5.05-127.81,9.82-235.55-1.94c-102.12-11.15-146.94-2.04-190.29,6.78
							C105.42,30.31,77.96,35.9,36.08,35.9z"/>
					</g>
				</g>
				<g>
					<g>
						<path class="st1" d="M25.19,257.14c-12.67,0-24.08-0.52-34.56-1.41v-1.08c29.7,2.53,66.91,2.06,119.06-4.69
							c107.73-13.94,169.83-8.29,235.57-2.31c66.54,6.06,135.34,12.31,256.04-3.6c132.92-25.92,180.87-14.36,231.64-2.13
							c21.2,5.11,42.77,10.3,71.21,12.73v1.08c-28.55-2.43-50.19-7.64-71.46-12.77c-50.66-12.2-98.51-23.74-231.22,2.15l-0.1-0.52
							l0.06,0.52c-120.82,15.93-189.69,9.67-256.28,3.6c-65.68-5.97-127.72-11.61-235.33,2.31
							C76.03,255.39,48.48,257.14,25.19,257.14z"/>
						<path class="st1" d="M597.9,222.31c-0.01,0-0.02,0-0.03,0c-58.67,11.45-100.81,15.59-133.92,15.59
							c-41.88,0-69.36-6.62-97.71-13.45c-43.35-10.45-88.17-21.25-190.27-8.04C95.61,226.81,40.65,226.3-9.37,222.9v-1.08
							c49.99,3.41,104.91,3.91,185.19-6.48c102.3-13.23,147.21-2.41,190.65,8.06c50.66,12.21,98.51,23.74,231.22-2.14l0.11,0.54
							l-0.08-0.55c120.82-15.92,189.69-9.66,256.28-3.6c16.68,1.51,33.13,3.01,50.14,4.17v1.08c-17.05-1.16-33.53-2.66-50.24-4.17
							C787.38,212.67,718.58,206.4,597.9,222.31z"/>
						<path class="st1" d="M555.48,218.16c-33.11,0-75.24-3.49-133.91-13.15c-0.01,0-0.01,0-0.02,0
							c-120.69-13.43-189.48-8.14-256.03-3.03c-52.32,4.01-102.33,7.85-174.88,3.32v-1.07c72.52,4.53,122.5,0.69,174.8-3.32
							c66.59-5.11,135.46-10.4,256.26,3.04l-0.08,0.63l0.11-0.63c132.73,21.85,180.59,12.12,231.26,1.82
							c43.43-8.84,88.35-17.97,190.62-6.8c21.94,2.4,41.98,4.1,60.55,5.26v1.07c-18.6-1.16-38.68-2.87-60.67-5.27
							c-102.12-11.15-146.94-2.03-190.3,6.78C624.83,212.57,597.37,218.16,555.48,218.16z"/>
						<path class="st1" d="M431.69,176.77c-102.11-11.15-146.93-2.03-190.29,6.78c-28.35,5.77-55.82,11.35-97.7,11.35
							c-33.11,0-75.24-3.49-133.91-13.15c-0.01,0-0.02,0-0.03,0c-6.53-0.73-12.9-1.4-19.13-2.02v-1.08
							c6.28,0.62,12.7,1.3,19.28,2.03l-0.04,0.43l0.06-0.43c132.73,21.85,180.59,12.11,231.26,1.8
							c43.43-8.83,88.34-17.96,190.62-6.79c107.64,11.75,169.68,6.98,235.35,1.94c62.97-4.84,127.97-9.82,236.98,1.01v1.08
							c-108.99-10.84-173.96-5.85-236.91-1.01C601.52,183.76,539.43,188.53,431.69,176.77z"/>
						<path class="st1" d="M554.58,156.96c-66.59,5.11-135.45,10.4-256.26-3.04l0.07-0.63l-0.11,0.62
							c-132.72-21.84-180.59-12.11-231.25-1.8c-22.48,4.57-45.37,9.22-76.41,11.1v-1.08c30.94-1.87,53.76-6.51,76.19-11.07
							c50.77-10.32,98.72-20.08,231.62,1.8v-0.01c120.7,13.43,189.52,8.14,256.05,3.04c65.73-5.05,127.82-9.82,235.55,1.94
							c49.3,5.38,85.24,6.04,114.11,4.3v1.08c-9.1,0.55-18.89,0.86-29.59,0.86c-23.29-0.01-50.83-1.48-84.63-5.17
							C682.29,147.14,620.25,151.91,554.58,156.96z"/>
						<path class="st1" d="M445.12,127.58c-66.59,5.12-135.45,10.41-256.26-3.03l0.06-0.54l-0.1,0.53
							c-104.28-17.16-156.18-14.83-198.2-8.04v-1.09c42.08-6.78,94.05-9.09,198.35,8.07c120.71,13.43,189.52,8.14,256.06,3.04
							c65.72-5.05,127.81-9.82,235.55,1.94c102.12,11.15,146.94,2.04,190.29-6.78c10.93-2.22,21.72-4.42,33.27-6.28v1.1
							c-11.46,1.85-22.19,4.03-33.05,6.24c-29.08,5.91-58.81,11.97-105.99,11.96c-23.29,0-50.83-1.47-84.63-5.16
							C572.84,117.77,510.8,122.54,445.12,127.58z"/>
						<path class="st1" d="M462.15,111.97c-33.11,0-75.25-3.49-133.91-13.15c-120.71-13.43-189.52-8.14-256.06-3.04
							c-26.68,2.05-52.76,4.05-81.54,4.92v-1.07c28.74-0.87,54.8-2.87,81.45-4.91c66.6-5.11,135.46-10.41,256.27,3.03l-0.04,0.44
							l0.06-0.43c132.73,21.84,180.59,12.11,231.26,1.8c43.43-8.83,88.35-17.96,190.62-6.8c63.95,6.99,111.81,8.14,153.89,6.87v1.07
							c-42.12,1.27-90.01,0.12-154.01-6.87c-102.12-11.15-146.94-2.04-190.29,6.78C531.49,106.38,504.03,111.97,462.15,111.97z"/>
						<path class="st1" d="M548.07,81.56c-66.59,5.11-135.45,10.4-256.26-3.04l0.08-0.63l-0.11,0.63
							C159.05,56.67,111.2,66.4,60.52,76.7c-20.89,4.25-42.11,8.57-69.9,10.66v-1.08c27.69-2.09,48.86-6.4,69.68-10.64
							c32.52-6.62,63.88-12.99,117.17-10.98c29.9,1.14,66.68,4.91,114.45,12.78c0.01,0,0.01,0,0.02,0
							c120.69,13.43,189.49,8.14,256.03,3.03c65.73-5.05,127.82-9.82,235.55,1.96c53.07,5.8,90.66,6.11,120.62,3.85v1.08
							c-10.9,0.82-22.81,1.3-36.1,1.3c-23.29,0-50.83-1.47-84.63-5.17C675.78,71.75,613.74,76.51,548.07,81.56z"/>
						<path class="st1" d="M335.27,58.3c-46.02,3.53-93.14,7.15-157.73,4.61c-28.86-1.14-61.21-3.49-98.53-7.65l0.06-0.53l-0.1,0.53
							c-34.75-5.72-63.67-9.27-88.35-11.22v-1.08c24.73,1.95,53.7,5.51,88.5,11.24c0.01,0,0.02,0,0.03,0
							c120.68,13.43,189.49,8.14,256.02,3.03c65.74-5.05,127.82-9.82,235.56,1.96c102.12,11.15,146.94,2.03,190.29-6.79
							c37.47-7.62,73.42-14.92,143.12-9.43v1.08c-69.62-5.49-105.5,1.8-142.9,9.4c-29.08,5.92-58.81,11.97-105.99,11.97
							c-23.29,0-50.83-1.48-84.63-5.17C462.99,48.49,400.95,53.25,335.27,58.3z"/>
					</g>
				</g>
			</g>
			<g>
				<g>
					<g>
						<path class="st1" d="M949.6,35.9c-13.48,0-28.46-0.58-45.45-1.92v-1.08c69.64,5.49,105.52-1.81,142.93-9.41
							c43.43-8.83,88.34-17.96,190.62-6.8c107.63,11.76,169.66,6.99,235.35,1.96c66.59-5.11,135.45-10.41,256.26,3.03l-0.04,0.44
							l0.07-0.43c34.73,5.72,63.65,9.27,88.33,11.22v1.08c-24.72-1.95-53.69-5.51-88.47-11.23
							c-120.71-13.43-189.52-8.14-256.06-3.04c-65.73,5.05-127.81,9.82-235.55-1.94c-102.12-11.15-146.94-2.04-190.29,6.78
							C1018.94,30.31,991.48,35.9,949.6,35.9z"/>
					</g>
				</g>
				<g>
					<g>
						<path class="st1" d="M938.71,257.14c-12.67,0-24.08-0.52-34.56-1.41v-1.08c29.7,2.53,66.91,2.06,119.06-4.69
							c107.73-13.94,169.83-8.29,235.57-2.31c66.54,6.06,135.34,12.31,256.04-3.6c132.92-25.92,180.87-14.36,231.64-2.13
							c21.2,5.11,42.77,10.3,71.21,12.73v1.08c-28.55-2.43-50.19-7.64-71.46-12.77c-50.66-12.2-98.51-23.74-231.22,2.15l-0.1-0.52
							l0.06,0.52c-120.82,15.93-189.69,9.67-256.28,3.6c-65.68-5.97-127.72-11.61-235.33,2.31
							C989.55,255.39,962,257.14,938.71,257.14z"/>
						<path class="st1" d="M1511.42,222.31c-0.01,0-0.02,0-0.03,0c-58.67,11.45-100.81,15.59-133.92,15.59
							c-41.88,0-69.36-6.62-97.71-13.45c-43.35-10.45-88.17-21.25-190.27-8.04c-80.35,10.39-135.32,9.89-185.33,6.49v-1.08
							c49.99,3.41,104.91,3.91,185.19-6.48c102.3-13.23,147.21-2.41,190.65,8.06c50.66,12.21,98.51,23.74,231.22-2.14l0.11,0.54
							l-0.08-0.55c120.82-15.92,189.69-9.66,256.28-3.6c16.68,1.51,33.13,3.01,50.14,4.17v1.08c-17.05-1.16-33.53-2.66-50.24-4.17
							C1700.9,212.67,1632.1,206.4,1511.42,222.31z"/>
						<path class="st1" d="M1469,218.16c-33.11,0-75.24-3.49-133.91-13.15c-0.01,0-0.01,0-0.02,0
							c-120.69-13.43-189.48-8.14-256.03-3.03c-52.32,4.01-102.33,7.85-174.88,3.32v-1.07c72.52,4.53,122.5,0.69,174.8-3.32
							c66.59-5.11,135.46-10.4,256.26,3.04l-0.08,0.63l0.11-0.63c132.73,21.85,180.59,12.12,231.26,1.82
							c43.43-8.84,88.35-17.97,190.62-6.8c21.94,2.4,41.98,4.1,60.55,5.26v1.07c-18.6-1.16-38.68-2.87-60.67-5.27
							c-102.12-11.15-146.94-2.03-190.3,6.78C1538.35,212.57,1510.89,218.16,1469,218.16z"/>
						<path class="st1" d="M1345.22,176.77c-102.11-11.15-146.93-2.03-190.29,6.78c-28.35,5.77-55.82,11.35-97.7,11.35
							c-33.11,0-75.24-3.49-133.91-13.15c-0.01,0-0.02,0-0.03,0c-6.53-0.73-12.9-1.4-19.13-2.02v-1.08
							c6.28,0.62,12.7,1.3,19.28,2.03l-0.04,0.43l0.06-0.43c132.73,21.85,180.59,12.11,231.26,1.8
							c43.43-8.83,88.34-17.96,190.62-6.79c107.64,11.75,169.68,6.98,235.35,1.94c62.97-4.84,127.97-9.82,236.98,1.01v1.08
							c-108.99-10.84-173.96-5.85-236.91-1.01C1515.04,183.76,1452.95,188.53,1345.22,176.77z"/>
						<path class="st1" d="M1468.1,156.96c-66.59,5.11-135.45,10.4-256.26-3.04l0.07-0.63l-0.11,0.62
							c-132.72-21.84-180.59-12.11-231.25-1.8c-22.48,4.57-45.37,9.22-76.41,11.1v-1.08c30.94-1.87,53.76-6.51,76.19-11.07
							c50.77-10.32,98.72-20.08,231.62,1.8v-0.01c120.7,13.43,189.52,8.14,256.05,3.04c65.73-5.05,127.82-9.82,235.55,1.94
							c49.3,5.38,85.24,6.04,114.11,4.3v1.08c-9.1,0.55-18.89,0.86-29.59,0.86c-23.29-0.01-50.83-1.48-84.63-5.17
							C1595.81,147.14,1533.77,151.91,1468.1,156.96z"/>
						<path class="st1" d="M1358.64,127.58c-66.59,5.12-135.45,10.41-256.26-3.03l0.06-0.54l-0.1,0.53
							c-104.28-17.16-156.18-14.83-198.2-8.04v-1.09c42.08-6.78,94.05-9.09,198.35,8.07c120.71,13.43,189.52,8.14,256.06,3.04
							c65.72-5.05,127.81-9.82,235.55,1.94c102.12,11.15,146.94,2.04,190.29-6.78c10.93-2.22,21.72-4.42,33.27-6.28v1.1
							c-11.46,1.85-22.19,4.03-33.05,6.24c-29.08,5.91-58.81,11.97-105.99,11.96c-23.29,0-50.83-1.47-84.63-5.16
							C1486.36,117.77,1424.32,122.54,1358.64,127.58z"/>
						<path class="st1" d="M1375.67,111.97c-33.11,0-75.25-3.49-133.91-13.15c-120.71-13.43-189.52-8.14-256.06-3.04
							c-26.68,2.05-52.76,4.05-81.54,4.92v-1.07c28.74-0.87,54.8-2.87,81.46-4.91c66.6-5.11,135.46-10.41,256.27,3.03l-0.04,0.44
							l0.06-0.43c132.73,21.84,180.59,12.11,231.26,1.8c43.43-8.83,88.35-17.96,190.62-6.8c63.95,6.99,111.81,8.14,153.89,6.87v1.07
							c-42.12,1.27-90.01,0.12-154.01-6.87c-102.12-11.15-146.94-2.04-190.29,6.78C1445.01,106.38,1417.55,111.97,1375.67,111.97z"
							/>
						<path class="st1" d="M1461.59,81.56c-66.59,5.11-135.45,10.4-256.26-3.04l0.08-0.63l-0.11,0.63
							c-132.72-21.85-180.58-12.12-231.25-1.81c-20.89,4.25-42.11,8.57-69.9,10.66v-1.08c27.69-2.09,48.86-6.4,69.68-10.64
							c32.52-6.62,63.88-12.99,117.17-10.98c29.9,1.14,66.68,4.91,114.45,12.78c0.01,0,0.01,0,0.02,0
							c120.69,13.43,189.49,8.14,256.03,3.03c65.73-5.05,127.82-9.82,235.55,1.96c53.07,5.8,90.66,6.11,120.62,3.85v1.08
							c-10.9,0.82-22.81,1.3-36.1,1.3c-23.29,0-50.83-1.47-84.63-5.17C1589.3,71.75,1527.27,76.51,1461.59,81.56z"/>
						<path class="st1" d="M1248.79,58.3c-46.02,3.53-93.14,7.15-157.73,4.61c-28.86-1.14-61.21-3.49-98.53-7.65l0.06-0.53
							l-0.1,0.53c-34.75-5.72-63.67-9.27-88.35-11.22v-1.08c24.73,1.95,53.7,5.51,88.5,11.24c0.01,0,0.02,0,0.03,0
							c120.68,13.43,189.49,8.14,256.02,3.03c65.74-5.05,127.82-9.82,235.56,1.96c102.12,11.15,146.94,2.03,190.29-6.79
							c37.47-7.62,73.42-14.92,143.12-9.43v1.08c-69.62-5.49-105.5,1.8-142.9,9.4c-29.08,5.92-58.81,11.97-105.99,11.97
							c-23.29,0-50.83-1.48-84.63-5.17C1376.51,48.49,1314.47,53.25,1248.79,58.3z"/>
					</g>
				</g>
			</g>
		</g>
		<g class="st0">
			<g>
				<g>
					<g>
						<path class="st1" d="M1863.08,35.9c-13.48,0-28.46-0.58-45.45-1.92v-1.08c69.64,5.49,105.52-1.81,142.93-9.41
							c43.43-8.83,88.34-17.96,190.62-6.8c107.63,11.76,169.66,6.99,235.35,1.96c66.59-5.11,135.45-10.41,256.26,3.03l-0.04,0.44
							l0.06-0.43c34.73,5.72,63.65,9.27,88.33,11.22v1.08c-24.72-1.95-53.69-5.51-88.47-11.23
							c-120.71-13.43-189.52-8.14-256.06-3.04c-65.73,5.05-127.81,9.82-235.55-1.94c-102.12-11.15-146.94-2.04-190.29,6.78
							C1932.42,30.31,1904.96,35.9,1863.08,35.9z"/>
					</g>
				</g>
				<g>
					<g>
						<path class="st1" d="M1852.19,257.14c-12.67,0-24.08-0.52-34.56-1.41v-1.08c29.7,2.53,66.91,2.06,119.06-4.69
							c107.73-13.94,169.83-8.29,235.57-2.31c66.54,6.06,135.34,12.31,256.04-3.6c132.92-25.92,180.87-14.36,231.64-2.13
							c21.2,5.11,42.77,10.3,71.21,12.73v1.08c-28.55-2.43-50.19-7.64-71.46-12.77c-50.66-12.2-98.51-23.74-231.22,2.15l-0.1-0.52
							l0.06,0.52c-120.82,15.93-189.69,9.67-256.28,3.6c-65.68-5.97-127.72-11.61-235.33,2.31
							C1903.03,255.39,1875.48,257.14,1852.19,257.14z"/>
						<path class="st1" d="M2424.9,222.31c-0.01,0-0.02,0-0.03,0c-58.67,11.45-100.81,15.59-133.92,15.59
							c-41.88,0-69.36-6.62-97.71-13.45c-43.35-10.45-88.17-21.25-190.27-8.04c-80.35,10.39-135.32,9.89-185.33,6.49v-1.08
							c49.99,3.41,104.91,3.91,185.19-6.48c102.3-13.23,147.21-2.41,190.65,8.06c50.66,12.21,98.51,23.74,231.22-2.14l0.11,0.54
							l-0.08-0.55c120.82-15.92,189.69-9.66,256.28-3.6c16.68,1.51,33.13,3.01,50.14,4.17v1.08c-17.05-1.16-33.53-2.66-50.24-4.17
							C2614.38,212.67,2545.58,206.4,2424.9,222.31z"/>
						<path class="st1" d="M2382.48,218.16c-33.11,0-75.24-3.49-133.91-13.15c-0.01,0-0.01,0-0.02,0
							c-120.69-13.43-189.48-8.14-256.03-3.03c-52.32,4.01-102.33,7.85-174.88,3.32v-1.07c72.52,4.53,122.5,0.69,174.8-3.32
							c66.59-5.11,135.46-10.4,256.26,3.04l-0.08,0.63l0.11-0.63c132.73,21.85,180.59,12.12,231.26,1.82
							c43.43-8.84,88.35-17.97,190.62-6.8c21.94,2.4,41.98,4.1,60.55,5.26v1.07c-18.6-1.16-38.68-2.87-60.67-5.27
							c-102.12-11.15-146.94-2.03-190.3,6.78C2451.83,212.57,2424.37,218.16,2382.48,218.16z"/>
						<path class="st1" d="M2258.69,176.77c-102.11-11.15-146.93-2.03-190.29,6.78c-28.35,5.77-55.82,11.35-97.7,11.35
							c-33.11,0-75.24-3.49-133.91-13.15c-0.01,0-0.02,0-0.03,0c-6.53-0.73-12.9-1.4-19.13-2.02v-1.08
							c6.28,0.62,12.7,1.3,19.28,2.03l-0.04,0.43l0.06-0.43c132.73,21.85,180.59,12.11,231.26,1.8
							c43.43-8.83,88.34-17.96,190.62-6.79c107.64,11.75,169.68,6.98,235.35,1.94c62.97-4.84,127.97-9.82,236.98,1.01v1.08
							c-108.99-10.84-173.96-5.85-236.91-1.01C2428.52,183.76,2366.43,188.53,2258.69,176.77z"/>
						<path class="st1" d="M2381.58,156.96c-66.59,5.11-135.45,10.4-256.26-3.04l0.07-0.63l-0.11,0.62
							c-132.72-21.84-180.59-12.11-231.25-1.8c-22.48,4.57-45.37,9.22-76.41,11.1v-1.08c30.94-1.87,53.76-6.51,76.19-11.07
							c50.77-10.32,98.72-20.08,231.62,1.8v-0.01c120.7,13.43,189.52,8.14,256.05,3.04c65.73-5.05,127.82-9.82,235.55,1.94
							c49.3,5.38,85.24,6.04,114.11,4.3v1.08c-9.1,0.55-18.89,0.86-29.59,0.86c-23.29-0.01-50.83-1.48-84.63-5.17
							C2509.29,147.14,2447.25,151.91,2381.58,156.96z"/>
						<path class="st1" d="M2272.12,127.58c-66.59,5.12-135.45,10.41-256.26-3.03l0.06-0.54l-0.1,0.53
							c-104.28-17.16-156.18-14.83-198.2-8.04v-1.09c42.08-6.78,94.05-9.09,198.35,8.07c120.71,13.43,189.52,8.14,256.07,3.04
							c65.72-5.05,127.81-9.82,235.55,1.94c102.12,11.15,146.94,2.04,190.29-6.78c10.93-2.22,21.72-4.42,33.27-6.28v1.1
							c-11.46,1.85-22.19,4.03-33.05,6.24c-29.08,5.91-58.81,11.97-105.99,11.96c-23.29,0-50.83-1.47-84.63-5.16
							C2399.84,117.77,2337.8,122.54,2272.12,127.58z"/>
						<path class="st1" d="M2289.15,111.97c-33.11,0-75.25-3.49-133.91-13.15c-120.71-13.43-189.52-8.14-256.06-3.04
							c-26.68,2.05-52.76,4.05-81.54,4.92v-1.07c28.74-0.87,54.8-2.87,81.46-4.91c66.6-5.11,135.46-10.41,256.27,3.03l-0.04,0.44
							l0.06-0.43c132.73,21.84,180.59,12.11,231.26,1.8c43.43-8.83,88.34-17.96,190.62-6.8c63.95,6.99,111.81,8.14,153.89,6.87v1.07
							c-42.12,1.27-90.01,0.12-154.01-6.87c-102.12-11.15-146.94-2.04-190.29,6.78C2358.49,106.38,2331.03,111.97,2289.15,111.97z"
							/>
						<path class="st1" d="M2375.07,81.56c-66.59,5.11-135.45,10.4-256.26-3.04l0.08-0.63l-0.11,0.63
							c-132.72-21.85-180.58-12.12-231.25-1.81c-20.89,4.25-42.11,8.57-69.9,10.66v-1.08c27.69-2.09,48.86-6.4,69.68-10.64
							c32.52-6.62,63.88-12.99,117.17-10.98c29.9,1.14,66.68,4.91,114.45,12.78c0.01,0,0.01,0,0.02,0
							c120.69,13.43,189.49,8.14,256.03,3.03c65.73-5.05,127.82-9.82,235.55,1.96c53.07,5.8,90.66,6.11,120.62,3.85v1.08
							c-10.9,0.82-22.81,1.3-36.1,1.3c-23.29,0-50.83-1.47-84.63-5.17C2502.78,71.75,2440.74,76.51,2375.07,81.56z"/>
						<path class="st1" d="M2162.27,58.3c-46.02,3.53-93.14,7.15-157.73,4.61c-28.86-1.14-61.21-3.49-98.53-7.65l0.06-0.53
							l-0.1,0.53c-34.75-5.72-63.67-9.27-88.35-11.22v-1.08c24.73,1.95,53.7,5.51,88.5,11.24c0.01,0,0.02,0,0.03,0
							c120.68,13.43,189.49,8.14,256.02,3.03c65.74-5.05,127.82-9.82,235.56,1.96c102.12,11.15,146.94,2.03,190.29-6.79
							c37.47-7.62,73.42-14.92,143.12-9.43v1.08c-69.62-5.49-105.5,1.8-142.9,9.4c-29.08,5.92-58.81,11.97-105.99,11.97
							c-23.29,0-50.83-1.48-84.63-5.17C2289.99,48.49,2227.95,53.25,2162.27,58.3z"/>
					</g>
				</g>
			</g>
			<g>
				<g>
					<g>
						<path class="st1" d="M2776.6,35.9c-13.48,0-28.46-0.58-45.45-1.92v-1.08c69.64,5.49,105.52-1.81,142.93-9.41
							c43.43-8.83,88.34-17.96,190.62-6.8c107.63,11.76,169.66,6.99,235.35,1.96c66.59-5.11,135.45-10.41,256.26,3.03l-0.04,0.44
							l0.06-0.43c34.73,5.72,63.65,9.27,88.33,11.22v1.08c-24.72-1.95-53.69-5.51-88.47-11.23
							c-120.71-13.43-189.52-8.14-256.06-3.04c-65.73,5.05-127.81,9.82-235.55-1.94c-102.12-11.15-146.94-2.04-190.29,6.78
							C2845.94,30.31,2818.48,35.9,2776.6,35.9z"/>
					</g>
				</g>
				<g>
					<g>
						<path class="st1" d="M2765.71,257.14c-12.67,0-24.08-0.52-34.56-1.41v-1.08c29.7,2.53,66.91,2.06,119.06-4.69
							c107.73-13.94,169.83-8.29,235.57-2.31c66.54,6.06,135.34,12.31,256.04-3.6c132.92-25.92,180.87-14.36,231.64-2.13
							c21.2,5.11,42.77,10.3,71.21,12.73v1.08c-28.55-2.43-50.19-7.64-71.46-12.77c-50.66-12.2-98.51-23.74-231.22,2.15l-0.1-0.52
							l0.06,0.52c-120.82,15.93-189.69,9.67-256.28,3.6c-65.68-5.97-127.72-11.61-235.33,2.31
							C2816.55,255.39,2789,257.14,2765.71,257.14z"/>
						<path class="st1" d="M3338.42,222.31c-0.01,0-0.02,0-0.03,0c-58.67,11.45-100.81,15.59-133.92,15.59
							c-41.88,0-69.36-6.62-97.71-13.45c-43.35-10.45-88.17-21.25-190.27-8.04c-80.35,10.39-135.32,9.89-185.33,6.49v-1.08
							c49.99,3.41,104.91,3.91,185.19-6.48c102.3-13.23,147.21-2.41,190.65,8.06c50.66,12.21,98.51,23.74,231.22-2.14l0.11,0.54
							l-0.08-0.55c120.82-15.92,189.69-9.66,256.28-3.6c16.68,1.51,33.13,3.01,50.14,4.17v1.08c-17.05-1.16-33.53-2.66-50.24-4.17
							C3527.9,212.67,3459.1,206.4,3338.42,222.31z"/>
						<path class="st1" d="M3296,218.16c-33.11,0-75.24-3.49-133.91-13.15c-0.01,0-0.01,0-0.02,0
							c-120.69-13.43-189.48-8.14-256.03-3.03c-52.32,4.01-102.33,7.85-174.88,3.32v-1.07c72.52,4.53,122.5,0.69,174.8-3.32
							c66.59-5.11,135.46-10.4,256.26,3.04l-0.08,0.63l0.11-0.63c132.73,21.85,180.59,12.12,231.26,1.82
							c43.43-8.84,88.34-17.97,190.62-6.8c21.94,2.4,41.98,4.1,60.55,5.26v1.07c-18.6-1.16-38.68-2.87-60.67-5.27
							c-102.12-11.15-146.94-2.03-190.3,6.78C3365.35,212.57,3337.89,218.16,3296,218.16z"/>
						<path class="st1" d="M3172.22,176.77c-102.11-11.15-146.93-2.03-190.29,6.78c-28.35,5.77-55.82,11.35-97.7,11.35
							c-33.11,0-75.24-3.49-133.91-13.15c-0.01,0-0.02,0-0.03,0c-6.53-0.73-12.9-1.4-19.13-2.02v-1.08
							c6.28,0.62,12.7,1.3,19.28,2.03l-0.04,0.43l0.06-0.43c132.73,21.85,180.59,12.11,231.26,1.8
							c43.43-8.83,88.34-17.96,190.62-6.79c107.64,11.75,169.68,6.98,235.35,1.94c62.97-4.84,127.97-9.82,236.98,1.01v1.08
							c-108.99-10.84-173.96-5.85-236.91-1.01C3342.04,183.76,3279.95,188.53,3172.22,176.77z"/>
						<path class="st1" d="M3295.1,156.96c-66.59,5.11-135.45,10.4-256.26-3.04l0.08-0.63l-0.11,0.62
							c-132.72-21.84-180.59-12.11-231.25-1.8c-22.48,4.57-45.37,9.22-76.41,11.1v-1.08c30.94-1.87,53.76-6.51,76.19-11.07
							c50.77-10.32,98.72-20.08,231.62,1.8v-0.01c120.7,13.43,189.52,8.14,256.05,3.04c65.73-5.05,127.82-9.82,235.55,1.94
							c49.3,5.38,85.24,6.04,114.11,4.3v1.08c-9.1,0.55-18.89,0.86-29.59,0.86c-23.29-0.01-50.83-1.48-84.63-5.17
							C3422.81,147.14,3360.77,151.91,3295.1,156.96z"/>
						<path class="st1" d="M3185.64,127.58c-66.59,5.12-135.45,10.41-256.26-3.03l0.06-0.54l-0.1,0.53
							c-104.28-17.16-156.18-14.83-198.2-8.04v-1.09c42.08-6.78,94.05-9.09,198.35,8.07c120.71,13.43,189.52,8.14,256.06,3.04
							c65.72-5.05,127.81-9.82,235.55,1.94c102.12,11.15,146.94,2.04,190.29-6.78c10.93-2.22,21.72-4.42,33.27-6.28v1.1
							c-11.46,1.85-22.19,4.03-33.05,6.24c-29.08,5.91-58.81,11.97-105.99,11.96c-23.29,0-50.83-1.47-84.63-5.16
							C3313.36,117.77,3251.32,122.54,3185.64,127.58z"/>
						<path class="st1" d="M3202.67,111.97c-33.11,0-75.25-3.49-133.91-13.15c-120.71-13.43-189.52-8.14-256.06-3.04
							c-26.68,2.05-52.76,4.05-81.54,4.92v-1.07c28.74-0.87,54.8-2.87,81.46-4.91c66.6-5.11,135.46-10.41,256.27,3.03l-0.04,0.44
							l0.06-0.43c132.73,21.84,180.59,12.11,231.26,1.8c43.43-8.83,88.35-17.96,190.62-6.8c63.95,6.99,111.81,8.14,153.89,6.87v1.07
							c-42.12,1.27-90.01,0.12-154.01-6.87c-102.12-11.15-146.94-2.04-190.29,6.78C3272.01,106.38,3244.55,111.97,3202.67,111.97z"
							/>
						<path class="st1" d="M3288.59,81.56c-66.59,5.11-135.45,10.4-256.26-3.04l0.07-0.63l-0.11,0.63
							c-132.72-21.85-180.58-12.12-231.25-1.81c-20.89,4.25-42.11,8.57-69.9,10.66v-1.08c27.69-2.09,48.86-6.4,69.68-10.64
							c32.52-6.62,63.88-12.99,117.17-10.98c29.9,1.14,66.68,4.91,114.45,12.78c0.01,0,0.01,0,0.02,0
							c120.69,13.43,189.49,8.14,256.03,3.03c65.73-5.05,127.82-9.82,235.55,1.96c53.07,5.8,90.66,6.11,120.62,3.85v1.08
							c-10.9,0.82-22.81,1.3-36.1,1.3c-23.29,0-50.83-1.47-84.63-5.17C3416.3,71.75,3354.27,76.51,3288.59,81.56z"/>
						<path class="st1" d="M3075.79,58.3c-46.02,3.53-93.14,7.15-157.73,4.61c-28.86-1.14-61.21-3.49-98.53-7.65l0.06-0.53
							l-0.1,0.53c-34.75-5.72-63.67-9.27-88.35-11.22v-1.08c24.73,1.95,53.7,5.51,88.5,11.24c0.01,0,0.02,0,0.03,0
							c120.68,13.43,189.49,8.14,256.02,3.03c65.74-5.05,127.82-9.82,235.56,1.96c102.12,11.15,146.94,2.03,190.29-6.79
							c37.47-7.62,73.42-14.92,143.12-9.43v1.08c-69.62-5.49-105.5,1.8-142.9,9.4c-29.08,5.92-58.81,11.97-105.99,11.97
							c-23.29,0-50.83-1.48-84.63-5.17C3203.51,48.49,3141.47,53.25,3075.79,58.3z"/>
					</g>
				</g>
			</g>
		</g>
	</g>
	<g>
		<g class="st0">
			<g>
				<g>
					<g>
						<path class="st1" d="M-3617.92,35.9c-13.48,0-28.46-0.58-45.45-1.92v-1.08c69.64,5.49,105.52-1.81,142.93-9.41
							c43.43-8.83,88.34-17.96,190.62-6.8c107.63,11.76,169.66,6.99,235.35,1.96c66.59-5.11,135.45-10.41,256.26,3.03l-0.04,0.44
							l0.06-0.43c34.73,5.72,63.65,9.27,88.33,11.22v1.08c-24.72-1.95-53.69-5.51-88.47-11.23
							c-120.71-13.43-189.52-8.14-256.06-3.04c-65.73,5.05-127.81,9.82-235.55-1.94c-102.12-11.15-146.94-2.04-190.29,6.78
							C-3548.58,30.31-3576.04,35.9-3617.92,35.9z"/>
					</g>
				</g>
				<g>
					<g>
						<path class="st1" d="M-3628.81,257.14c-12.67,0-24.08-0.52-34.56-1.41v-1.08c29.7,2.53,66.91,2.06,119.06-4.69
							c107.73-13.94,169.83-8.29,235.57-2.31c66.54,6.06,135.34,12.31,256.04-3.6c132.92-25.92,180.87-14.36,231.64-2.13
							c21.2,5.11,42.77,10.3,71.21,12.73v1.08c-28.55-2.43-50.19-7.64-71.46-12.77c-50.66-12.2-98.51-23.74-231.22,2.15l-0.1-0.52
							l0.06,0.52c-120.82,15.93-189.69,9.67-256.28,3.6c-65.68-5.97-127.72-11.61-235.33,2.31
							C-3577.97,255.39-3605.52,257.14-3628.81,257.14z"/>
						<path class="st1" d="M-3056.1,222.31c-0.01,0-0.02,0-0.03,0c-58.67,11.45-100.81,15.59-133.92,15.59
							c-41.88,0-69.36-6.62-97.71-13.45c-43.35-10.45-88.17-21.25-190.27-8.04c-80.35,10.39-135.32,9.89-185.33,6.49v-1.08
							c49.99,3.41,104.91,3.91,185.19-6.48c102.3-13.23,147.21-2.41,190.65,8.06c50.66,12.21,98.51,23.74,231.22-2.14l0.11,0.54
							l-0.08-0.55c120.82-15.92,189.69-9.66,256.28-3.6c16.68,1.51,33.13,3.01,50.14,4.17v1.08c-17.05-1.16-33.53-2.66-50.24-4.17
							C-2866.62,212.67-2935.42,206.4-3056.1,222.31z"/>
						<path class="st1" d="M-3098.52,218.16c-33.11,0-75.24-3.49-133.91-13.15c-0.01,0-0.01,0-0.02,0
							c-120.69-13.43-189.48-8.14-256.03-3.03c-52.32,4.01-102.33,7.85-174.88,3.32v-1.07c72.52,4.53,122.5,0.69,174.8-3.32
							c66.59-5.11,135.46-10.4,256.26,3.04l-0.08,0.63l0.11-0.63c132.73,21.85,180.59,12.12,231.26,1.82
							c43.43-8.84,88.35-17.97,190.62-6.8c21.94,2.4,41.98,4.1,60.55,5.26v1.07c-18.6-1.16-38.68-2.87-60.67-5.27
							c-102.12-11.15-146.94-2.03-190.3,6.78C-3029.17,212.57-3056.63,218.16-3098.52,218.16z"/>
						<path class="st1" d="M-3222.31,176.77c-102.11-11.15-146.93-2.03-190.29,6.78c-28.35,5.77-55.82,11.35-97.7,11.35
							c-33.11,0-75.24-3.49-133.91-13.15c-0.01,0-0.02,0-0.03,0c-6.53-0.73-12.9-1.4-19.13-2.02v-1.08
							c6.28,0.62,12.7,1.3,19.28,2.03l-0.04,0.43l0.06-0.43c132.73,21.85,180.59,12.11,231.26,1.8
							c43.43-8.83,88.34-17.96,190.62-6.79c107.64,11.75,169.68,6.98,235.35,1.94c62.97-4.84,127.97-9.82,236.98,1.01v1.08
							c-108.99-10.84-173.96-5.85-236.91-1.01C-3052.48,183.76-3114.57,188.53-3222.31,176.77z"/>
						<path class="st1" d="M-3099.42,156.96c-66.59,5.11-135.45,10.4-256.26-3.04l0.07-0.63l-0.11,0.62
							c-132.72-21.84-180.59-12.11-231.25-1.8c-22.48,4.57-45.37,9.22-76.41,11.1v-1.08c30.94-1.87,53.76-6.51,76.19-11.07
							c50.77-10.32,98.72-20.08,231.62,1.8v-0.01c120.7,13.43,189.52,8.14,256.05,3.04c65.73-5.05,127.82-9.82,235.55,1.94
							c49.3,5.38,85.24,6.04,114.11,4.3v1.08c-9.1,0.55-18.89,0.86-29.59,0.86c-23.29-0.01-50.83-1.48-84.63-5.17
							C-2971.71,147.14-3033.75,151.91-3099.42,156.96z"/>
						<path class="st1" d="M-3208.88,127.58c-66.59,5.12-135.45,10.41-256.26-3.03l0.06-0.54l-0.1,0.53
							c-104.28-17.16-156.18-14.83-198.2-8.04v-1.09c42.08-6.78,94.05-9.09,198.35,8.07c120.71,13.43,189.52,8.14,256.06,3.04
							c65.72-5.05,127.81-9.82,235.55,1.94c102.12,11.15,146.94,2.04,190.29-6.78c10.93-2.22,21.72-4.42,33.27-6.28v1.1
							c-11.46,1.85-22.19,4.03-33.05,6.24c-29.08,5.91-58.81,11.97-105.99,11.96c-23.29,0-50.83-1.47-84.63-5.16
							C-3081.16,117.77-3143.2,122.54-3208.88,127.58z"/>
						<path class="st1" d="M-3191.85,111.97c-33.11,0-75.25-3.49-133.91-13.15c-120.71-13.43-189.52-8.14-256.06-3.04
							c-26.68,2.05-52.76,4.05-81.54,4.92v-1.07c28.74-0.87,54.8-2.87,81.45-4.91c66.6-5.11,135.46-10.41,256.27,3.03l-0.04,0.44
							l0.06-0.43c132.73,21.84,180.59,12.11,231.26,1.8c43.43-8.83,88.34-17.96,190.62-6.8c63.95,6.99,111.81,8.14,153.89,6.87v1.07
							c-42.12,1.27-90.01,0.12-154.01-6.87c-102.12-11.15-146.94-2.04-190.29,6.78C-3122.51,106.38-3149.97,111.97-3191.85,111.97z"
							/>
						<path class="st1" d="M-3105.93,81.56c-66.59,5.11-135.45,10.4-256.26-3.04l0.08-0.63l-0.11,0.63
							c-132.72-21.85-180.58-12.12-231.25-1.81c-20.89,4.25-42.11,8.57-69.9,10.66v-1.08c27.69-2.09,48.86-6.4,69.68-10.64
							c32.52-6.62,63.88-12.99,117.17-10.98c29.9,1.14,66.68,4.91,114.45,12.78c0.01,0,0.01,0,0.02,0
							c120.69,13.43,189.49,8.14,256.03,3.03c65.73-5.05,127.82-9.82,235.55,1.96c53.07,5.8,90.66,6.11,120.62,3.85v1.08
							c-10.9,0.82-22.81,1.3-36.1,1.3c-23.29,0-50.83-1.47-84.63-5.17C-2978.22,71.75-3040.26,76.51-3105.93,81.56z"/>
						<path class="st1" d="M-3318.73,58.3c-46.02,3.53-93.14,7.15-157.73,4.61c-28.86-1.14-61.21-3.49-98.53-7.65l0.06-0.53
							l-0.1,0.53c-34.75-5.72-63.67-9.27-88.35-11.22v-1.08c24.73,1.95,53.7,5.51,88.5,11.24c0.01,0,0.02,0,0.03,0
							c120.68,13.43,189.49,8.14,256.02,3.03c65.74-5.05,127.82-9.82,235.56,1.96c102.12,11.15,146.94,2.03,190.29-6.79
							c37.47-7.62,73.42-14.92,143.12-9.43v1.08c-69.62-5.49-105.5,1.8-142.9,9.4c-29.08,5.92-58.81,11.97-105.99,11.97
							c-23.29,0-50.83-1.48-84.63-5.17C-3191.01,48.49-3253.05,53.25-3318.73,58.3z"/>
					</g>
				</g>
			</g>
			<g>
				<g>
					<g>
						<path class="st1" d="M-2704.4,35.9c-13.48,0-28.46-0.58-45.45-1.92v-1.08c69.64,5.49,105.52-1.81,142.93-9.41
							c43.43-8.83,88.34-17.96,190.62-6.8c107.63,11.76,169.66,6.99,235.35,1.96c66.59-5.11,135.45-10.41,256.26,3.03l-0.04,0.44
							l0.07-0.43c34.73,5.72,63.65,9.27,88.33,11.22v1.08c-24.72-1.95-53.69-5.51-88.47-11.23
							c-120.71-13.43-189.52-8.14-256.06-3.04c-65.73,5.05-127.81,9.82-235.55-1.94c-102.12-11.15-146.94-2.04-190.29,6.78
							C-2635.06,30.31-2662.52,35.9-2704.4,35.9z"/>
					</g>
				</g>
				<g>
					<g>
						<path class="st1" d="M-2715.29,257.14c-12.67,0-24.08-0.52-34.56-1.41v-1.08c29.7,2.53,66.91,2.06,119.06-4.69
							c107.73-13.94,169.83-8.29,235.57-2.31c66.54,6.06,135.34,12.31,256.04-3.6c132.92-25.92,180.87-14.36,231.64-2.13
							c21.2,5.11,42.77,10.3,71.21,12.73v1.08c-28.55-2.43-50.19-7.64-71.46-12.77c-50.66-12.2-98.51-23.74-231.22,2.15l-0.1-0.52
							l0.06,0.52c-120.82,15.93-189.69,9.67-256.28,3.6c-65.68-5.97-127.72-11.61-235.33,2.31
							C-2664.45,255.39-2692,257.14-2715.29,257.14z"/>
						<path class="st1" d="M-2142.58,222.31c-0.01,0-0.02,0-0.03,0c-58.67,11.45-100.81,15.59-133.92,15.59
							c-41.88,0-69.36-6.62-97.71-13.45c-43.35-10.45-88.17-21.25-190.27-8.04c-80.35,10.39-135.32,9.89-185.33,6.49v-1.08
							c49.99,3.41,104.91,3.91,185.19-6.48c102.3-13.23,147.21-2.41,190.65,8.06c50.66,12.21,98.51,23.74,231.22-2.14l0.11,0.54
							l-0.08-0.55c120.82-15.92,189.69-9.66,256.28-3.6c16.68,1.51,33.13,3.01,50.14,4.17v1.08c-17.05-1.16-33.53-2.66-50.24-4.17
							C-1953.1,212.67-2021.9,206.4-2142.58,222.31z"/>
						<path class="st1" d="M-2185,218.16c-33.11,0-75.24-3.49-133.91-13.15c-0.01,0-0.01,0-0.02,0
							c-120.69-13.43-189.48-8.14-256.03-3.03c-52.32,4.01-102.33,7.85-174.88,3.32v-1.07c72.52,4.53,122.5,0.69,174.8-3.32
							c66.59-5.11,135.46-10.4,256.26,3.04l-0.08,0.63l0.11-0.63c132.73,21.85,180.59,12.12,231.26,1.82
							c43.43-8.84,88.35-17.97,190.62-6.8c21.94,2.4,41.98,4.1,60.55,5.26v1.07c-18.6-1.16-38.68-2.87-60.67-5.27
							c-102.12-11.15-146.94-2.03-190.3,6.78C-2115.65,212.57-2143.11,218.16-2185,218.16z"/>
						<path class="st1" d="M-2308.78,176.77c-102.11-11.15-146.93-2.03-190.29,6.78c-28.35,5.77-55.82,11.35-97.7,11.35
							c-33.11,0-75.24-3.49-133.91-13.15c-0.01,0-0.02,0-0.03,0c-6.53-0.73-12.9-1.4-19.13-2.02v-1.08
							c6.28,0.62,12.7,1.3,19.28,2.03l-0.04,0.43l0.06-0.43c132.73,21.85,180.59,12.11,231.26,1.8
							c43.43-8.83,88.34-17.96,190.62-6.79c107.64,11.75,169.68,6.98,235.35,1.94c62.97-4.84,127.97-9.82,236.98,1.01v1.08
							c-108.99-10.84-173.96-5.85-236.91-1.01C-2138.96,183.76-2201.05,188.53-2308.78,176.77z"/>
						<path class="st1" d="M-2185.9,156.96c-66.59,5.11-135.45,10.4-256.26-3.04l0.08-0.63l-0.11,0.62
							c-132.72-21.84-180.59-12.11-231.25-1.8c-22.48,4.57-45.37,9.22-76.41,11.1v-1.08c30.94-1.87,53.76-6.51,76.19-11.07
							c50.77-10.32,98.72-20.08,231.62,1.8v-0.01c120.7,13.43,189.52,8.14,256.05,3.04c65.73-5.05,127.82-9.82,235.55,1.94
							c49.3,5.38,85.24,6.04,114.11,4.3v1.08c-9.1,0.55-18.89,0.86-29.59,0.86c-23.29-0.01-50.83-1.48-84.63-5.17
							C-2058.19,147.14-2120.23,151.91-2185.9,156.96z"/>
						<path class="st1" d="M-2295.36,127.58c-66.59,5.12-135.45,10.41-256.26-3.03l0.06-0.54l-0.1,0.53
							c-104.28-17.16-156.18-14.83-198.2-8.04v-1.09c42.08-6.78,94.05-9.09,198.35,8.07c120.71,13.43,189.52,8.14,256.06,3.04
							c65.72-5.05,127.81-9.82,235.55,1.94c102.12,11.15,146.94,2.04,190.29-6.78c10.93-2.22,21.72-4.42,33.27-6.28v1.1
							c-11.46,1.85-22.19,4.03-33.05,6.24c-29.08,5.91-58.81,11.97-105.99,11.96c-23.29,0-50.83-1.47-84.63-5.16
							C-2167.64,117.77-2229.68,122.54-2295.36,127.58z"/>
						<path class="st1" d="M-2278.33,111.97c-33.11,0-75.25-3.49-133.91-13.15c-120.71-13.43-189.52-8.14-256.06-3.04
							c-26.68,2.05-52.76,4.05-81.54,4.92v-1.07c28.74-0.87,54.8-2.87,81.46-4.91c66.6-5.11,135.46-10.41,256.27,3.03l-0.04,0.44
							l0.06-0.43c132.73,21.84,180.59,12.11,231.26,1.8c43.43-8.83,88.35-17.96,190.62-6.8c63.95,6.99,111.81,8.14,153.89,6.87v1.07
							c-42.12,1.27-90.01,0.12-154.01-6.87c-102.12-11.15-146.94-2.04-190.29,6.78C-2208.99,106.38-2236.45,111.97-2278.33,111.97z"
							/>
						<path class="st1" d="M-2192.41,81.56c-66.59,5.11-135.45,10.4-256.26-3.04l0.07-0.63l-0.11,0.63
							c-132.72-21.85-180.58-12.12-231.25-1.81c-20.89,4.25-42.11,8.57-69.9,10.66v-1.08c27.69-2.09,48.86-6.4,69.68-10.64
							c32.52-6.62,63.88-12.99,117.17-10.98c29.9,1.14,66.68,4.91,114.45,12.78c0.01,0,0.01,0,0.02,0
							c120.69,13.43,189.49,8.14,256.03,3.03c65.73-5.05,127.82-9.82,235.55,1.96c53.07,5.8,90.66,6.11,120.62,3.85v1.08
							c-10.9,0.82-22.81,1.3-36.1,1.3c-23.29,0-50.83-1.47-84.63-5.17C-2064.7,71.75-2126.73,76.51-2192.41,81.56z"/>
						<path class="st1" d="M-2405.21,58.3c-46.02,3.53-93.14,7.15-157.73,4.61c-28.86-1.14-61.21-3.49-98.53-7.65l0.06-0.53
							l-0.1,0.53c-34.75-5.72-63.67-9.27-88.35-11.22v-1.08c24.73,1.95,53.7,5.51,88.5,11.24c0.01,0,0.02,0,0.03,0
							c120.68,13.43,189.49,8.14,256.02,3.03c65.74-5.05,127.82-9.82,235.56,1.96c102.12,11.15,146.94,2.03,190.29-6.79
							c37.47-7.62,73.42-14.92,143.12-9.43v1.08c-69.62-5.49-105.5,1.8-142.9,9.4c-29.08,5.92-58.81,11.97-105.99,11.97
							c-23.29,0-50.83-1.48-84.63-5.17C-2277.49,48.49-2339.53,53.25-2405.21,58.3z"/>
					</g>
				</g>
			</g>
		</g>
		<g class="st0">
			<g>
				<g>
					<g>
						<path class="st1" d="M-1790.92,35.9c-13.48,0-28.46-0.58-45.45-1.92v-1.08c69.64,5.49,105.52-1.81,142.93-9.41
							c43.43-8.83,88.34-17.96,190.62-6.8c107.63,11.76,169.66,6.99,235.35,1.96c66.59-5.11,135.45-10.41,256.26,3.03l-0.04,0.44
							l0.07-0.43c34.73,5.72,63.65,9.27,88.33,11.22v1.08c-24.72-1.95-53.69-5.51-88.47-11.23
							c-120.71-13.43-189.52-8.14-256.06-3.04c-65.73,5.05-127.81,9.82-235.55-1.94c-102.12-11.15-146.94-2.04-190.29,6.78
							C-1721.58,30.31-1749.04,35.9-1790.92,35.9z"/>
					</g>
				</g>
				<g>
					<g>
						<path class="st1" d="M-1801.81,257.14c-12.67,0-24.08-0.52-34.56-1.41v-1.08c29.7,2.53,66.91,2.06,119.06-4.69
							c107.73-13.94,169.83-8.29,235.57-2.31c66.54,6.06,135.34,12.31,256.04-3.6c132.92-25.92,180.87-14.36,231.64-2.13
							c21.2,5.11,42.77,10.3,71.21,12.73v1.08c-28.55-2.43-50.19-7.64-71.46-12.77c-50.66-12.2-98.51-23.74-231.22,2.15l-0.1-0.52
							l0.06,0.52c-120.82,15.93-189.69,9.67-256.28,3.6c-65.68-5.97-127.72-11.61-235.33,2.31
							C-1750.97,255.39-1778.52,257.14-1801.81,257.14z"/>
						<path class="st1" d="M-1229.1,222.31c-0.01,0-0.02,0-0.03,0c-58.67,11.45-100.81,15.59-133.92,15.59
							c-41.88,0-69.36-6.62-97.71-13.45c-43.35-10.45-88.17-21.25-190.27-8.04c-80.35,10.39-135.32,9.89-185.33,6.49v-1.08
							c49.99,3.41,104.91,3.91,185.19-6.48c102.3-13.23,147.21-2.41,190.65,8.06c50.66,12.21,98.51,23.74,231.22-2.14l0.11,0.54
							l-0.08-0.55c120.82-15.92,189.69-9.66,256.28-3.6c16.68,1.51,33.13,3.01,50.14,4.17v1.08c-17.05-1.16-33.53-2.66-50.24-4.17
							C-1039.62,212.67-1108.42,206.4-1229.1,222.31z"/>
						<path class="st1" d="M-1271.52,218.16c-33.11,0-75.24-3.49-133.91-13.15c-0.01,0-0.01,0-0.02,0
							c-120.69-13.43-189.48-8.14-256.03-3.03c-52.32,4.01-102.33,7.85-174.88,3.32v-1.07c72.52,4.53,122.5,0.69,174.8-3.32
							c66.59-5.11,135.46-10.4,256.26,3.04l-0.08,0.63l0.11-0.63c132.73,21.85,180.59,12.12,231.26,1.82
							c43.43-8.84,88.35-17.97,190.62-6.8c21.94,2.4,41.98,4.1,60.55,5.26v1.07c-18.6-1.16-38.68-2.87-60.67-5.27
							c-102.12-11.15-146.94-2.03-190.3,6.78C-1202.17,212.57-1229.63,218.16-1271.52,218.16z"/>
						<path class="st1" d="M-1395.31,176.77c-102.11-11.15-146.93-2.03-190.29,6.78c-28.35,5.77-55.82,11.35-97.7,11.35
							c-33.11,0-75.24-3.49-133.91-13.15c-0.01,0-0.02,0-0.03,0c-6.53-0.73-12.9-1.4-19.13-2.02v-1.08
							c6.28,0.62,12.7,1.3,19.28,2.03l-0.04,0.43l0.06-0.43c132.73,21.85,180.59,12.11,231.26,1.8
							c43.43-8.83,88.34-17.96,190.62-6.79c107.64,11.75,169.68,6.98,235.35,1.94c62.97-4.84,127.97-9.82,236.98,1.01v1.08
							c-108.99-10.84-173.96-5.85-236.91-1.01C-1225.48,183.76-1287.57,188.53-1395.31,176.77z"/>
						<path class="st1" d="M-1272.42,156.96c-66.59,5.11-135.45,10.4-256.26-3.04l0.08-0.63l-0.11,0.62
							c-132.72-21.84-180.59-12.11-231.25-1.8c-22.48,4.57-45.37,9.22-76.41,11.1v-1.08c30.94-1.87,53.76-6.51,76.19-11.07
							c50.77-10.32,98.72-20.08,231.62,1.8v-0.01c120.7,13.43,189.52,8.14,256.05,3.04c65.73-5.05,127.82-9.82,235.55,1.94
							c49.3,5.38,85.24,6.04,114.11,4.3v1.08c-9.1,0.55-18.89,0.86-29.59,0.86c-23.29-0.01-50.83-1.48-84.63-5.17
							C-1144.71,147.14-1206.75,151.91-1272.42,156.96z"/>
						<path class="st1" d="M-1381.88,127.58c-66.59,5.12-135.45,10.41-256.26-3.03l0.06-0.54l-0.1,0.53
							c-104.28-17.16-156.18-14.83-198.2-8.04v-1.09c42.08-6.78,94.05-9.09,198.35,8.07c120.71,13.43,189.52,8.14,256.06,3.04
							c65.72-5.05,127.81-9.82,235.55,1.94c102.12,11.15,146.94,2.04,190.29-6.78c10.93-2.22,21.72-4.42,33.27-6.28v1.1
							c-11.46,1.85-22.19,4.03-33.05,6.24c-29.08,5.91-58.81,11.97-105.99,11.96c-23.29,0-50.83-1.47-84.63-5.16
							C-1254.16,117.77-1316.2,122.54-1381.88,127.58z"/>
						<path class="st1" d="M-1364.85,111.97c-33.11,0-75.25-3.49-133.91-13.15c-120.71-13.43-189.52-8.14-256.06-3.04
							c-26.68,2.05-52.76,4.05-81.54,4.92v-1.07c28.74-0.87,54.8-2.87,81.46-4.91c66.6-5.11,135.46-10.41,256.27,3.03l-0.04,0.44
							l0.06-0.43c132.73,21.84,180.59,12.11,231.26,1.8c43.43-8.83,88.35-17.96,190.62-6.8c63.95,6.99,111.81,8.14,153.89,6.87v1.07
							c-42.12,1.27-90.01,0.12-154.01-6.87c-102.12-11.15-146.94-2.04-190.29,6.78C-1295.51,106.38-1322.97,111.97-1364.85,111.97z"
							/>
						<path class="st1" d="M-1278.93,81.56c-66.59,5.11-135.45,10.4-256.26-3.04l0.08-0.63l-0.11,0.63
							c-132.72-21.85-180.58-12.12-231.25-1.81c-20.89,4.25-42.11,8.57-69.9,10.66v-1.08c27.69-2.09,48.86-6.4,69.68-10.64
							c32.52-6.62,63.88-12.99,117.17-10.98c29.9,1.14,66.68,4.91,114.45,12.78c0.01,0,0.01,0,0.02,0
							c120.69,13.43,189.49,8.14,256.03,3.03c65.73-5.05,127.82-9.82,235.55,1.96c53.07,5.8,90.66,6.11,120.62,3.85v1.08
							c-10.9,0.82-22.81,1.3-36.1,1.3c-23.29,0-50.83-1.47-84.63-5.17C-1151.22,71.75-1213.26,76.51-1278.93,81.56z"/>
						<path class="st1" d="M-1491.73,58.3c-46.02,3.53-93.14,7.15-157.73,4.61c-28.86-1.14-61.21-3.49-98.53-7.65l0.06-0.53
							l-0.1,0.53c-34.75-5.72-63.67-9.27-88.35-11.22v-1.08c24.73,1.95,53.7,5.51,88.5,11.24c0.01,0,0.02,0,0.03,0
							c120.68,13.43,189.49,8.14,256.02,3.03c65.74-5.05,127.82-9.82,235.56,1.96c102.12,11.15,146.94,2.03,190.29-6.79
							c37.47-7.62,73.42-14.92,143.12-9.43v1.08c-69.62-5.49-105.5,1.8-142.9,9.4c-29.08,5.92-58.81,11.97-105.99,11.97
							c-23.29,0-50.83-1.48-84.63-5.17C-1364.01,48.49-1426.05,53.25-1491.73,58.3z"/>
					</g>
				</g>
			</g>
			<g>
				<g>
					<g>
						<path class="st1" d="M-877.4,35.9c-13.48,0-28.46-0.58-45.45-1.92v-1.08c69.64,5.49,105.52-1.81,142.93-9.41
							c43.43-8.83,88.34-17.96,190.62-6.8c107.63,11.76,169.66,6.99,235.35,1.96c66.59-5.11,135.45-10.41,256.26,3.03l-0.04,0.44
							l0.06-0.43c34.73,5.72,63.65,9.27,88.33,11.22v1.08c-24.72-1.95-53.69-5.51-88.47-11.23
							c-120.71-13.43-189.52-8.14-256.06-3.04c-65.73,5.05-127.81,9.82-235.55-1.94c-102.12-11.15-146.94-2.04-190.29,6.78
							C-808.06,30.31-835.52,35.9-877.4,35.9z"/>
					</g>
				</g>
				<g>
					<g>
						<path class="st1" d="M-888.29,257.14c-12.67,0-24.08-0.52-34.56-1.41v-1.08c29.7,2.53,66.91,2.06,119.06-4.69
							c107.73-13.94,169.83-8.29,235.57-2.31c66.54,6.06,135.34,12.31,256.04-3.6c132.92-25.92,180.87-14.36,231.64-2.13
							c21.2,5.11,42.77,10.3,71.21,12.73v1.08c-28.55-2.43-50.19-7.64-71.46-12.77c-50.66-12.2-98.51-23.74-231.22,2.15l-0.1-0.52
							l0.06,0.52c-120.82,15.93-189.69,9.67-256.28,3.6c-65.68-5.97-127.72-11.61-235.33,2.31
							C-837.45,255.39-865,257.14-888.29,257.14z"/>
						<path class="st1" d="M-315.58,222.31c-0.01,0-0.02,0-0.03,0c-58.67,11.45-100.81,15.59-133.92,15.59
							c-41.88,0-69.36-6.62-97.71-13.45c-43.35-10.45-88.17-21.25-190.27-8.04c-80.35,10.39-135.32,9.89-185.33,6.49v-1.08
							c49.99,3.41,104.91,3.91,185.19-6.48c102.3-13.23,147.21-2.41,190.65,8.06c50.66,12.21,98.51,23.74,231.22-2.14l0.11,0.54
							l-0.08-0.55c120.82-15.92,189.69-9.66,256.28-3.6c16.68,1.51,33.13,3.01,50.14,4.17v1.08c-17.05-1.16-33.53-2.66-50.24-4.17
							C-126.1,212.67-194.9,206.4-315.58,222.31z"/>
						<path class="st1" d="M-358,218.16c-33.11,0-75.24-3.49-133.91-13.15c-0.01,0-0.01,0-0.02,0
							c-120.69-13.43-189.48-8.14-256.03-3.03c-52.32,4.01-102.33,7.85-174.88,3.32v-1.07c72.52,4.53,122.5,0.69,174.8-3.32
							c66.59-5.11,135.46-10.4,256.26,3.04l-0.08,0.63l0.11-0.63c132.73,21.85,180.59,12.12,231.26,1.82
							c43.43-8.84,88.35-17.97,190.62-6.8c21.94,2.4,41.98,4.1,60.55,5.26v1.07c-18.6-1.16-38.68-2.87-60.67-5.27
							c-102.12-11.15-146.94-2.03-190.3,6.78C-288.65,212.57-316.11,218.16-358,218.16z"/>
						<path class="st1" d="M-481.78,176.77c-102.11-11.15-146.93-2.03-190.29,6.78c-28.35,5.77-55.82,11.35-97.7,11.35
							c-33.11,0-75.24-3.49-133.91-13.15c-0.01,0-0.02,0-0.03,0c-6.53-0.73-12.9-1.4-19.13-2.02v-1.08
							c6.28,0.62,12.7,1.3,19.28,2.03l-0.04,0.43l0.06-0.43c132.73,21.85,180.59,12.11,231.26,1.8
							c43.43-8.83,88.34-17.96,190.62-6.79c107.64,11.75,169.68,6.98,235.35,1.94c62.97-4.84,127.97-9.82,236.98,1.01v1.08
							c-108.99-10.84-173.96-5.85-236.91-1.01C-311.96,183.76-374.05,188.53-481.78,176.77z"/>
						<path class="st1" d="M-358.9,156.96c-66.59,5.11-135.45,10.4-256.26-3.04l0.07-0.63l-0.11,0.62
							c-132.72-21.84-180.59-12.11-231.25-1.8c-22.48,4.57-45.37,9.22-76.41,11.1v-1.08c30.94-1.87,53.76-6.51,76.19-11.07
							c50.77-10.32,98.72-20.08,231.62,1.8v-0.01c120.7,13.43,189.52,8.14,256.05,3.04c65.73-5.05,127.82-9.82,235.55,1.94
							c49.3,5.38,85.24,6.04,114.11,4.3v1.08c-9.1,0.55-18.89,0.86-29.59,0.86c-23.29-0.01-50.83-1.48-84.63-5.17
							C-231.19,147.14-293.23,151.91-358.9,156.96z"/>
						<path class="st1" d="M-468.36,127.58c-66.59,5.12-135.45,10.41-256.26-3.03l0.06-0.54l-0.1,0.53
							c-104.28-17.16-156.18-14.83-198.2-8.04v-1.09c42.08-6.78,94.05-9.09,198.35,8.07c120.71,13.43,189.52,8.14,256.06,3.04
							c65.72-5.05,127.81-9.82,235.55,1.94c102.12,11.15,146.94,2.04,190.29-6.78c10.93-2.22,21.72-4.42,33.27-6.28v1.1
							c-11.46,1.85-22.19,4.03-33.05,6.24c-29.08,5.91-58.81,11.97-105.99,11.96c-23.29,0-50.83-1.47-84.63-5.16
							C-340.64,117.77-402.68,122.54-468.36,127.58z"/>
						<path class="st1" d="M-451.33,111.97c-33.11,0-75.25-3.49-133.91-13.15c-120.71-13.43-189.52-8.14-256.06-3.04
							c-26.68,2.05-52.76,4.05-81.54,4.92v-1.07c28.74-0.87,54.8-2.87,81.46-4.91c66.6-5.11,135.46-10.41,256.27,3.03l-0.04,0.44
							l0.06-0.43c132.73,21.84,180.59,12.11,231.26,1.8c43.43-8.83,88.35-17.96,190.62-6.8c63.95,6.99,111.81,8.14,153.89,6.87v1.07
							c-42.12,1.27-90.01,0.12-154.01-6.87c-102.12-11.15-146.94-2.04-190.29,6.78C-381.99,106.38-409.45,111.97-451.33,111.97z"/>
						<path class="st1" d="M-365.41,81.56c-66.59,5.11-135.45,10.4-256.26-3.04l0.08-0.63l-0.11,0.63
							C-754.43,56.67-802.28,66.4-852.95,76.7c-20.89,4.25-42.11,8.57-69.9,10.66v-1.08c27.69-2.09,48.86-6.4,69.68-10.64
							c32.52-6.62,63.88-12.99,117.17-10.98c29.9,1.14,66.68,4.91,114.45,12.78c0.01,0,0.01,0,0.02,0
							c120.69,13.43,189.49,8.14,256.03,3.03c65.73-5.05,127.82-9.82,235.55,1.96c53.07,5.8,90.66,6.11,120.62,3.85v1.08
							c-10.9,0.82-22.81,1.3-36.1,1.3c-23.29,0-50.83-1.47-84.63-5.17C-237.7,71.75-299.73,76.51-365.41,81.56z"/>
						<path class="st1" d="M-578.21,58.3c-46.02,3.53-93.14,7.15-157.73,4.61c-28.86-1.14-61.21-3.49-98.53-7.65l0.06-0.53
							l-0.1,0.53c-34.75-5.72-63.67-9.27-88.35-11.22v-1.08c24.73,1.95,53.7,5.51,88.5,11.24c0.01,0,0.02,0,0.03,0
							c120.68,13.43,189.49,8.14,256.02,3.03c65.74-5.05,127.82-9.82,235.56,1.96c102.12,11.15,146.94,2.03,190.29-6.79
							c37.47-7.62,73.42-14.92,143.12-9.43v1.08c-69.62-5.49-105.5,1.8-142.9,9.4c-29.08,5.92-58.81,11.97-105.99,11.97
							c-23.29,0-50.83-1.48-84.63-5.17C-450.49,48.49-512.53,53.25-578.21,58.3z"/>
					</g>
				</g>
			</g>
		</g>
	</g>
</g>
</svg>
