<svg xmlns="http://www.w3.org/2000/svg" width="20.53" height="21.646" viewBox="0 0 20.53 21.646">
  <g id="weight-icon" transform="translate(-1202.693 -788.891)">
    <g id="Сгруппировать_86" data-name="Сгруппировать 86">
      <g id="Сгруппировать_81" data-name="Сгруппировать 81">
        <g id="Сгруппировать_80" data-name="Сгруппировать 80">
          <path id="Контур_79" data-name="Контур 79" d="M1223.031,805.858l-1.585-8.972a3.875,3.875,0,0,0-3.82-3.2h-2.242a2.964,2.964,0,1,0-4.851,0h-2.243a3.875,3.875,0,0,0-3.82,3.2l-1.585,8.972a3.879,3.879,0,0,0,3.821,4.554h12.505a3.879,3.879,0,0,0,3.82-4.554Zm-10.073-15.579a1.7,1.7,0,1,1-1.7,1.7A1.7,1.7,0,0,1,1212.958,790.279Zm8.257,17.935a2.61,2.61,0,0,1-2,.935h-12.505a2.617,2.617,0,0,1-2.577-3.072l1.585-8.971a2.614,2.614,0,0,1,2.576-2.162h9.336a2.612,2.612,0,0,1,2.576,2.162l1.585,8.971A2.608,2.608,0,0,1,1221.215,808.214Z" fill="#65a2c2" stroke="#65a2c2" stroke-miterlimit="10" stroke-width="0.25"/>
        </g>
      </g>
      <g id="Сгруппировать_83" data-name="Сгруппировать 83">
        <g id="Сгруппировать_82" data-name="Сгруппировать 82">
          <path id="Контур_80" data-name="Контур 80" d="M1210.881,802.047l1.583-1.636a.632.632,0,1,0-.908-.878l-1.77,1.829v-1.39a.632.632,0,1,0-1.263,0v4.149a.632.632,0,1,0,1.263,0v-1.389l1.77,1.829a.632.632,0,0,0,.908-.879Z" fill="#65a2c2" stroke="#65a2c2" stroke-miterlimit="10" stroke-width="0.25"/>
        </g>
      </g>
      <g id="Сгруппировать_85" data-name="Сгруппировать 85">
        <g id="Сгруппировать_84" data-name="Сгруппировать 84">
          <path id="Контур_81" data-name="Контур 81" d="M1216.762,801.594h-.948a.632.632,0,1,0,0,1.263h.306a.759.759,0,0,1-1.508-.126v-1.368a.759.759,0,0,1,1.358-.467.632.632,0,1,0,1-.777,2.023,2.023,0,0,0-3.617,1.244v1.368a2.022,2.022,0,0,0,4.044,0v-.506A.63.63,0,0,0,1216.762,801.594Z" fill="#65a2c2" stroke="#65a2c2" stroke-miterlimit="10" stroke-width="0.25"/>
        </g>
      </g>
    </g>
  </g>
</svg>
